<svg id="group" xmlns="http://www.w3.org/2000/svg" width="32" height="27.145" viewBox="0 0 32 27.145">
  <g id="Group_48812" data-name="Group 48812" transform="translate(26.187 16.911)">
    <g id="Group_48811" data-name="Group 48811">
      <path id="Path_50005" data-name="Path 50005" d="M400.522,273.32h-2.028a5.275,5.275,0,0,1,.32,1.813V282.8a2.261,2.261,0,0,1-.13.757h3.352a2.274,2.274,0,0,0,2.271-2.271V277.1A3.789,3.789,0,0,0,400.522,273.32Z" transform="translate(-398.494 -273.32)" fill="#2bc262"/>
    </g>
  </g>
  <g id="Group_48814" data-name="Group 48814" transform="translate(0 16.911)">
    <g id="Group_48813" data-name="Group 48813">
      <path id="Path_50006" data-name="Path 50006" d="M5.493,275.134a5.274,5.274,0,0,1,.32-1.813H3.785A3.789,3.789,0,0,0,0,277.106v4.178a2.274,2.274,0,0,0,2.271,2.271H5.623a2.26,2.26,0,0,1-.13-.757Z" transform="translate(0 -273.321)" fill="#2bc262"/>
    </g>
  </g>
  <g id="Group_48816" data-name="Group 48816" transform="translate(9.897 14.939)">
    <g id="Group_48815" data-name="Group 48815">
      <path id="Path_50007" data-name="Path 50007" d="M145.25,234.815h-4.636a3.789,3.789,0,0,0-3.785,3.785v7.664a.757.757,0,0,0,.757.757h10.692a.757.757,0,0,0,.757-.757V238.6A3.789,3.789,0,0,0,145.25,234.815Z" transform="translate(-136.829 -234.815)" fill="#2bc262"/>
    </g>
  </g>
  <g id="Group_48818" data-name="Group 48818" transform="translate(11.448)">
    <g id="Group_48817" data-name="Group 48817">
      <path id="Path_50008" data-name="Path 50008" d="M171.666,38.84a4.551,4.551,0,1,0,4.552,4.552A4.557,4.557,0,0,0,171.666,38.84Z" transform="translate(-167.114 -38.84)" fill="#2bc262"/>
    </g>
  </g>
  <g id="Group_48820" data-name="Group 48820" transform="translate(1.713 5.591)">
    <g id="Group_48819" data-name="Group 48819">
      <path id="Path_50009" data-name="Path 50009" d="M36.847,121.689a3.4,3.4,0,1,0,3.4,3.4A3.408,3.408,0,0,0,36.847,121.689Z" transform="translate(-33.443 -121.689)" fill="#2bc262"/>
    </g>
  </g>
  <g id="Group_48822" data-name="Group 48822" transform="translate(23.479 5.591)">
    <g id="Group_48821" data-name="Group 48821">
      <path id="Path_50010" data-name="Path 50010" d="M349.011,121.689a3.4,3.4,0,1,0,3.4,3.4A3.408,3.408,0,0,0,349.011,121.689Z" transform="translate(-345.607 -121.689)" fill="#2bc262"/>
    </g>
  </g>
</svg>
