<?xml version="1.0" encoding="utf-8"?>
<!-- Generator: Adobe Illustrator 25.4.1, SVG Export Plug-In . SVG Version: 6.00 Build 0)  -->
<svg version="1.1" id="Layer_1" xmlns="http://www.w3.org/2000/svg" xmlns:xlink="http://www.w3.org/1999/xlink" x="0px" y="0px"
	 viewBox="0 0 16 16" style="enable-background:new 0 0 16 16;" xml:space="preserve">
<style type="text/css">
	.st0{fill:#606060;}
</style>
<path class="st0" d="M13.8751,4.9753L11.0958,1.361c-0.1738-0.2285-0.4492-0.3652-0.7354-0.3652h-7.501
	c-0.5117,0-0.9277,0.4189-0.9277,0.9336v12.1367c0,0.5146,0.416,0.9336,0.9277,0.9336h10.2803c0.5117,0,0.9287-0.4189,0.9287-0.9336
	V5.5456C14.0685,5.3396,14.0001,5.1374,13.8751,4.9753z M10.6417,2.4075l2.272,2.938l-2.272,0.0517V2.4075z M2.9318,14.0661
	L2.8595,1.9958h6.7822v3.4014c0,0.5146,0.417,0.9336,0.9287,0.9336h2.5046l0.0647,7.6689L2.9318,14.0661z"/>
</svg>
