<?xml version="1.0" encoding="utf-8"?>
<!-- Generator: Adobe Illustrator 25.4.1, SVG Export Plug-In . SVG Version: 6.00 Build 0)  -->
<svg version="1.1" id="Layer_1" xmlns="http://www.w3.org/2000/svg" xmlns:xlink="http://www.w3.org/1999/xlink" x="0px" y="0px"
	 viewBox="0 0 20 20" style="enable-background:new 0 0 20 20;" xml:space="preserve">
<style type="text/css">
	.st0{fill:#0072C6;}
</style>
<g id="Layer_1_00000078024720079337357020000001968876928740732077_">
	<path class="st0" d="M18.6182,14.0078l-2.3789-2.373c-0.0504-0.0502-0.1149-0.0727-0.1709-0.1129V8.1703
		c1.5342-0.3435,2.6865-1.7095,2.6865-3.3437c0-1.8926-1.542-3.4321-3.4365-3.4321c-1.8955,0-3.4375,1.5396-3.4375,3.4321
		c0,1.6343,1.1525,3.0004,2.6875,3.3438v3.3505c-0.0567,0.0405-0.1218,0.0632-0.1729,0.1139l-2.3828,2.3789
		c-0.0488,0.0493-0.0703,0.1124-0.1096,0.167H7.6299v-1.083c0-0.7471-0.6079-1.3555-1.355-1.3555H5.187V8.1704
		C6.7216,7.827,7.874,6.4609,7.874,4.8267c0-1.8926-1.542-3.4321-3.437-3.4321S1,2.9341,1,4.8267
		C1,6.4609,2.1525,7.827,3.687,8.1704v3.5718H2.5991c-0.7471,0-1.355,0.6084-1.355,1.3555v3.666
		c0,0.7471,0.6079,1.3545,1.355,1.3545h3.6758c0.7471,0,1.355-0.6074,1.355-1.3545v-1.083h4.2739
		c0.0408,0.0564,0.0639,0.1213,0.1148,0.1719l2.3779,2.3721c0.2539,0.2529,0.5879,0.3799,0.9209,0.3799
		c0.334,0,0.668-0.127,0.9219-0.3799l2.3789-2.373C19.125,15.3447,19.126,14.5186,18.6182,14.0078z M2.5,4.8267
		c0-1.0654,0.8691-1.9321,1.937-1.9321s1.937,0.8667,1.937,1.9321c0,1.0649-0.8691,1.9316-1.937,1.9316S2.5,5.8916,2.5,4.8267z
		 M6.1299,16.6182H2.7441v-3.376h3.3857v3.376H6.1299z M13.3809,4.8267c0-1.0654,0.8691-1.9321,1.9375-1.9321
		c1.0674,0,1.9365,0.8667,1.9365,1.9321c0,1.0649-0.8691,1.9316-1.9365,1.9316C14.25,6.7583,13.3809,5.8916,13.3809,4.8267z
		 M15.3184,17.0254l-2.0996-2.0957l2.0996-2.0957l2.0996,2.0957L15.3184,17.0254z"/>
</g>
</svg>
