<?xml version="1.0" encoding="utf-8"?>
<!-- Generator: Adobe Illustrator 25.4.1, SVG Export Plug-In . SVG Version: 6.00 Build 0)  -->
<svg version="1.1" id="Layer_1" xmlns="http://www.w3.org/2000/svg" xmlns:xlink="http://www.w3.org/1999/xlink" x="0px" y="0px"
	 viewBox="0 0 20 20" style="enable-background:new 0 0 20 20;" xml:space="preserve">
<style type="text/css">
	.st0{fill:#606060;}
</style>
<g id="Layer_1_00000115499110263377357700000005809603359378603945_">
	<g>
		<path class="st0" d="M12.8962,6.3047c-0.1381,0-0.2731,0.0124-0.4092,0.0208v-0.603c1.1216-0.3332,1.9463-1.3517,1.9463-2.5681
			c0-1.4849-1.2217-2.6929-2.7236-2.6929c-1.501,0-2.7227,1.208-2.7227,2.6929c0,1.2361,0.8509,2.2693,2,2.5848v0.8491
			C9.3229,7.0908,7.9342,8.2314,7.106,9.7256H5.7536V9.1445c-0.001-0.3184-0.127-0.6167-0.3525-0.8403S4.8464,7.9668,4.5603,7.9595
			H3.9597V5.7308c1.1357-0.3245,1.9736-1.3501,1.9736-2.5765c0-1.4849-1.2217-2.6929-2.7236-2.6929
			c-1.501,0-2.7227,1.208-2.7227,2.6929c0,1.2262,0.8376,2.2518,1.9727,2.5764v2.2288H1.861
			C1.5485,7.9233,1.2439,8.0801,1.0183,8.3037C0.7927,8.5278,0.6667,8.8262,0.6657,9.1475v2.666
			c0.0078,0.6514,0.542,1.1787,1.1895,1.1787c0.002,0,0.0029,0,0.0049,0h2.6973c0.002,0,0.0029,0,0.0049,0
			c0.6523,0,1.1865-0.5293,1.1914-1.1875v-0.5791h0.754C6.3634,11.768,6.279,12.3347,6.279,12.9219
			c0,3.6484,2.9688,6.6162,6.6172,6.6162s6.6172-2.9678,6.6172-6.6162C19.5134,9.2729,16.5446,6.3047,12.8962,6.3047z
			 M10.487,3.1543c0-0.6577,0.5488-1.1929,1.2227-1.1929c0.6748,0,1.2236,0.5352,1.2236,1.1929
			c0,0.6582-0.5488,1.1934-1.2236,1.1934C11.0358,4.3477,10.487,3.8125,10.487,3.1543z M1.987,3.1543
			c0-0.6577,0.5488-1.1929,1.2227-1.1929c0.6748,0,1.2236,0.5352,1.2236,1.1929c0,0.6582-0.5488,1.1934-1.2236,1.1934
			C2.5358,4.3477,1.987,3.8125,1.987,3.1543z M4.2536,11.4922H2.1657V9.4595h2.0879V11.4922z M12.8962,18.0381
			c-2.8213,0-5.1172-2.2949-5.1172-5.1162s2.2959-5.1172,5.1172-5.1172s5.1172,2.2959,5.1172,5.1172
			S15.7175,18.0381,12.8962,18.0381z"/>
		<polygon class="st0" points="10.1716,11.8242 12.1462,11.8242 12.1462,16.4395 13.6462,16.4395 13.6462,11.8242 15.6198,11.8242 
			15.6198,10.3242 10.1716,10.3242 		"/>
	</g>
</g>
</svg>
