<?xml version="1.0" encoding="utf-8"?>
<!-- Generator: Adobe Illustrator 25.4.1, SVG Export Plug-In . SVG Version: 6.00 Build 0)  -->
<svg version="1.1" id="Layer_1" xmlns="http://www.w3.org/2000/svg" xmlns:xlink="http://www.w3.org/1999/xlink" x="0px" y="0px"
	 viewBox="0 0 20 20" style="enable-background:new 0 0 20 20;" xml:space="preserve">
<style type="text/css">
	.st0{fill:#606060;}
</style>
<g id="Layer_1_00000002344031153672792920000009067554182513217683_">
	<g>
		<path class="st0" d="M12.3892,5.3772c-0.2559-0.2705-0.5801-0.4854-0.9736-0.6436s-0.8633-0.2383-1.4102-0.2383
			c-0.2656,0-0.5225,0.0234-0.7695,0.0703c-0.248,0.0469-0.4756,0.1045-0.6816,0.1719C8.3473,4.8049,8.1705,4.8791,8.025,4.9602
			c-0.1456,0.08-0.2442,0.1455-0.295,0.1943C7.6792,5.2043,7.646,5.2609,7.6304,5.3264S7.608,5.4865,7.608,5.6115
			c0,0.1143,0.0049,0.209,0.0146,0.2842C7.6333,5.9709,7.648,6.0315,7.6685,6.0754s0.0449,0.0742,0.0732,0.0898
			s0.0596,0.0234,0.0957,0.0234c0.0508,0,0.1289-0.0312,0.2334-0.0938C8.1753,6.0324,8.3101,5.9621,8.4732,5.884
			s0.3564-0.1494,0.5791-0.2148C9.274,5.6047,9.5328,5.5725,9.8296,5.5725c0.3369,0,0.6299,0.0488,0.877,0.1475
			c0.248,0.0996,0.4531,0.2383,0.6172,0.418c0.1631,0.1787,0.2861,0.3926,0.3682,0.6396c0.081,0.247,0.122,0.5185,0.122,0.8154
			c0,0.2598-0.0332,0.5098-0.0996,0.748c-0.0664,0.2393-0.1719,0.4473-0.3184,0.624c-0.1455,0.1777-0.3359,0.3193-0.5703,0.4258
			C10.5904,9.4973,10.3072,9.551,9.9751,9.551H9.8062c-0.0918,0-0.1738,0.0088-0.2451,0.0273
			C9.4898,9.5959,9.4312,9.6301,9.3853,9.6789C9.3394,9.7287,9.3042,9.7912,9.2818,9.8664
			c-0.0234,0.0752-0.0322,0.1729-0.0273,0.293l0.0469,2.1602c0,0.042,0.0098,0.0781,0.0303,0.1094s0.0537,0.0566,0.0996,0.0742
			c0.0459,0.0186,0.1074,0.0312,0.1836,0.0391c0.0771,0.0078,0.1689,0.0117,0.2764,0.0117c0.1992,0,0.3428-0.0195,0.4326-0.0586
			c0.0889-0.0391,0.1338-0.0977,0.1338-0.1758l0.0537-1.8799c0.3936-0.0254,0.751-0.1094,1.0732-0.249
			c0.3213-0.1406,0.5977-0.3359,0.8271-0.585c0.2295-0.25,0.4082-0.5518,0.5361-0.9053s0.1914-0.7598,0.1914-1.2168
			c0-0.4062-0.0605-0.791-0.1836-1.1553C12.8335,5.965,12.6441,5.6477,12.3892,5.3772z"/>
		<path class="st0" d="M10.5572,13.6965c-0.0605-0.0645-0.1445-0.1113-0.249-0.1396c-0.1045-0.0293-0.2334-0.043-0.3867-0.043
			c-0.1631,0-0.2959,0.0137-0.3984,0.043c-0.1025,0.0283-0.1855,0.0752-0.249,0.1396c-0.0635,0.0654-0.1074,0.1562-0.1299,0.2734
			c-0.0234,0.1172-0.0352,0.2607-0.0352,0.4326s0.0117,0.3135,0.0352,0.4258c0.0225,0.1113,0.0664,0.2021,0.1299,0.2725
			s0.1465,0.1201,0.249,0.1484s0.2354,0.043,0.3984,0.043c0.1533,0,0.2822-0.0146,0.3867-0.043s0.1885-0.0781,0.249-0.1484
			c0.0615-0.0703,0.1035-0.1611,0.127-0.2725c0.0225-0.1123,0.0342-0.2539,0.0342-0.4258s-0.0117-0.3154-0.0342-0.4326
			C10.6607,13.8527,10.6187,13.7619,10.5572,13.6965z"/>
		<path class="st0" d="M9.9996,0.4592c-4.9629,0-9,4.1064-9,9.1538s4.0371,9.1538,9,9.1538s9-4.1064,9-9.1538
			S14.9624,0.4592,9.9996,0.4592z M9.9996,17.7668c-4.4111,0-8-3.6582-8-8.1538c0-4.4961,3.5889-8.1538,8-8.1538s8,3.6577,8,8.1538
			C17.9996,14.1086,14.4107,17.7668,9.9996,17.7668z"/>
	</g>
</g>
</svg>
