<?xml version="1.0" encoding="utf-8"?>
<!-- Generator: Adobe Illustrator 25.4.1, SVG Export Plug-In . SVG Version: 6.00 Build 0)  -->
<svg version="1.1" id="Layer_1" xmlns="http://www.w3.org/2000/svg" xmlns:xlink="http://www.w3.org/1999/xlink" x="0px" y="0px"
	 viewBox="0 0 16 16" style="enable-background:new 0 0 16 16;" xml:space="preserve">
<style type="text/css">
	.st0{fill:#616160;}
</style>
<g id="Layer_1_00000109737181468092392780000014764416974078242460_">
	<path class="st0" d="M15.0052,14.305l-4.137-4.137c0.8157-0.972,1.3089-2.2233,1.3089-3.5886c0-3.083-2.5078-5.5913-5.5908-5.5913
		S0.9945,3.4964,0.9945,6.5794s2.5088,5.5918,5.5918,5.5918c1.3585,0,2.6046-0.488,3.5743-1.2968l4.1376,4.1376L15.0052,14.305z
		 M1.9945,6.5794c0-2.5317,2.0596-4.5913,4.5918-4.5913c2.5312,0,4.5908,2.0596,4.5908,4.5913c0,2.5322-2.0596,4.5918-4.5908,4.5918
		C4.054,11.1712,1.9945,9.1117,1.9945,6.5794z"/>
</g>
</svg>
