<svg xmlns="http://www.w3.org/2000/svg" width="58.598" height="15.155" viewBox="0 0 58.598 15.155">
  <g id="NL-iBPS_Header" data-name="NL-iBPS Header" transform="translate(-0.131)">
    <path id="Path_55640" data-name="Path 55640" d="M43.24,9.594a2.406,2.406,0,0,1,.63,1.808v3.09a.072.072,0,0,1-.072.072H42.651a.072.072,0,0,1-.072-.072V11.567a1.55,1.55,0,0,0-.341-1.09,1.261,1.261,0,0,0-.971-.367,1.492,1.492,0,0,0-1.127.429,1.71,1.71,0,0,0-.413,1.235v2.718a.072.072,0,0,1-.072.072H38.507a.072.072,0,0,1-.072-.072V9.118a.072.072,0,0,1,.072-.072h1.085a.072.072,0,0,1,.072.072v.456a.072.072,0,0,0,.124.05,2.044,2.044,0,0,1,.682-.444,2.9,2.9,0,0,1,1.1-.2A2.307,2.307,0,0,1,43.24,9.594Z" transform="translate(-18.954 -4.446)" fill="#fff" fill-rule="evenodd"/>
    <path id="Path_55641" data-name="Path 55641" d="M52.43,10.384a1.523,1.523,0,0,0-.507.891.072.072,0,0,0,.072.085h2.96a.072.072,0,0,0,.072-.084,1.506,1.506,0,0,0-.493-.887,1.54,1.54,0,0,0-1.054-.372,1.558,1.558,0,0,0-1.049.367Zm3.752,1.834H52.007a.073.073,0,0,0-.07.091,1.488,1.488,0,0,0,.575.876,1.948,1.948,0,0,0,1.194.356A2.017,2.017,0,0,0,55.15,13a.072.072,0,0,1,.1,0l.6.691a.073.073,0,0,1,0,.1,2.339,2.339,0,0,1-.9.624,3.727,3.727,0,0,1-2.883-.134A2.6,2.6,0,0,1,51,13.267a2.845,2.845,0,0,1-.377-1.462,2.887,2.887,0,0,1,.367-1.452,2.6,2.6,0,0,1,1.018-1.008,2.97,2.97,0,0,1,1.467-.362,2.9,2.9,0,0,1,1.442.357,2.526,2.526,0,0,1,.992,1,3.039,3.039,0,0,1,.357,1.493q0,.116-.015.316A.072.072,0,0,1,56.181,12.219Z" transform="translate(-24.986 -4.446)" fill="#fff" fill-rule="evenodd"/>
    <path id="Path_55642" data-name="Path 55642" d="M70.837,9.2l-1.983,5.374a.072.072,0,0,1-.068.047h-1.14a.072.072,0,0,1-.068-.047L66.238,11a.072.072,0,0,0-.135,0l-1.361,3.578a.072.072,0,0,1-.068.047h-1.14a.072.072,0,0,1-.068-.047L61.494,9.2a.072.072,0,0,1,.068-.1h1.065a.073.073,0,0,1,.068.048l1.373,3.838a.072.072,0,0,0,.136,0l1.433-3.839a.072.072,0,0,1,.068-.047h.984a.072.072,0,0,1,.068.048l1.4,3.859a.072.072,0,0,0,.136,0l1.413-3.859a.072.072,0,0,1,.068-.047h.993A.072.072,0,0,1,70.837,9.2Z" transform="translate(-30.362 -4.506)" fill="#fff" fill-rule="evenodd"/>
    <path id="Path_55643" data-name="Path 55643" d="M83.783,12.782a1.491,1.491,0,0,0,.47-1.142,1.463,1.463,0,0,0-.47-1.126,1.9,1.9,0,0,0-2.418,0,1.462,1.462,0,0,0-.47,1.126,1.49,1.49,0,0,0,.47,1.142,1.884,1.884,0,0,0,2.418,0Zm1.669-3.736a.072.072,0,0,1,.072.072v4.609q0,2.914-2.976,2.914a5.523,5.523,0,0,1-1.509-.2,3.252,3.252,0,0,1-1.129-.544.072.072,0,0,1-.017-.094l.5-.846a.072.072,0,0,1,.106-.02,2.845,2.845,0,0,0,.85.429,3.588,3.588,0,0,0,1.121.181,1.852,1.852,0,0,0,1.333-.413,1.69,1.69,0,0,0,.424-1.261v-.115a.072.072,0,0,0-.121-.052,2.143,2.143,0,0,1-.685.425,2.842,2.842,0,0,1-1.044.186,2.993,2.993,0,0,1-1.421-.336,2.52,2.52,0,0,1-1-.946,2.651,2.651,0,0,1-.367-1.4,2.624,2.624,0,0,1,.367-1.39,2.5,2.5,0,0,1,1-.935,3.032,3.032,0,0,1,1.421-.331,2.914,2.914,0,0,1,1.09.2,2.015,2.015,0,0,1,.7.461.072.072,0,0,0,.124-.05V9.118a.072.072,0,0,1,.072-.072Z" transform="translate(-39.32 -4.446)" fill="#fff" fill-rule="evenodd"/>
    <path id="Path_55644" data-name="Path 55644" d="M94.57,10.384a1.523,1.523,0,0,0-.507.891.072.072,0,0,0,.071.085h2.96a.072.072,0,0,0,.072-.084,1.506,1.506,0,0,0-.493-.887,1.54,1.54,0,0,0-1.054-.372,1.558,1.558,0,0,0-1.049.367Zm3.752,1.834H94.148a.073.073,0,0,0-.07.091,1.488,1.488,0,0,0,.575.876,1.948,1.948,0,0,0,1.194.356A2.017,2.017,0,0,0,97.29,13a.072.072,0,0,1,.1,0l.6.691a.073.073,0,0,1,0,.1,2.341,2.341,0,0,1-.9.624,3.727,3.727,0,0,1-2.883-.134,2.6,2.6,0,0,1-1.07-1.008,2.844,2.844,0,0,1-.377-1.462,2.887,2.887,0,0,1,.367-1.452,2.6,2.6,0,0,1,1.018-1.008,2.971,2.971,0,0,1,1.468-.362,2.9,2.9,0,0,1,1.442.357,2.525,2.525,0,0,1,.992,1,3.039,3.039,0,0,1,.357,1.493q0,.116-.015.316A.072.072,0,0,1,98.322,12.219Z" transform="translate(-45.839 -4.446)" fill="#fff" fill-rule="evenodd"/>
    <path id="Path_55645" data-name="Path 55645" d="M110.173,9.594a2.406,2.406,0,0,1,.63,1.808v3.09a.072.072,0,0,1-.072.072h-1.147a.072.072,0,0,1-.072-.072V11.567a1.549,1.549,0,0,0-.341-1.09,1.261,1.261,0,0,0-.971-.367,1.491,1.491,0,0,0-1.126.429,1.71,1.71,0,0,0-.413,1.235v2.718a.072.072,0,0,1-.072.072H105.44a.072.072,0,0,1-.072-.072V9.118a.072.072,0,0,1,.072-.072h1.085a.072.072,0,0,1,.072.072v.456a.072.072,0,0,0,.124.05,2.044,2.044,0,0,1,.682-.444,2.9,2.9,0,0,1,1.1-.2A2.306,2.306,0,0,1,110.173,9.594Z" transform="translate(-52.074 -4.446)" fill="#fff" fill-rule="evenodd"/>
    <path id="Path_55646" data-name="Path 55646" d="M15.157,14.725a.37.37,0,1,1-.041-.243.374.374,0,0,1,.041.243Zm7.974-6.256c-.159-.42-.943-.474-2.119-.227.382-.056.992.149,1.09.406.331.876-2.475,3.185-6.265,5.155-.161.084-.323.165-.484.246a.839.839,0,1,0,.254.455c.142-.071.284-.141.428-.216a36.268,36.268,0,0,0,3.905-2.334c.009.137.013.276.013.415A6.757,6.757,0,0,1,13.2,19.126h-.081c.232.022.468.035.706.035a7.3,7.3,0,0,0,7.3-7.3,7.422,7.422,0,0,0-.039-.748C22.524,9.972,23.328,8.991,23.131,8.469Z" transform="translate(-6.425 -4.005)" fill="#fb8b23" fill-rule="evenodd"/>
    <path id="Path_55647" data-name="Path 55647" d="M4.414,11.41a.37.37,0,1,1-.04-.262.373.373,0,0,1,.04.262ZM18.295,1.945c-.2-.51-1.317-.471-2.945,0,1.062-.237,1.77-.194,1.917.184.191.489-1.171,1.735-3.062,3.1l-.193.136v0A52.415,52.415,0,0,1,9.27,8.363c-1.456.81-3.056,1.662-4.613,2.4a.839.839,0,1,0,.218.448c1.424-.642,2.966-1.45,4.6-2.359,1.583-.882,3.27-1.935,4.743-2.958a6.707,6.707,0,0,1,.636,1.623v0a9.929,9.929,0,0,0,1.08-.918A7.236,7.236,0,0,0,15.313,5.1C17.2,3.7,18.5,2.462,18.295,1.945Z" transform="translate(-1.523 -0.781)" fill="#fb8b23" fill-rule="evenodd"/>
    <path id="Path_55648" data-name="Path 55648" d="M7.549,6.832a.37.37,0,1,1-.04-.249.375.375,0,0,1,.04.249Zm8.7-3.46a7.343,7.343,0,0,0-1.275-1.283c.749-.732,1.121-1.34.98-1.714C15.855.12,15.529,0,15.025,0a6.182,6.182,0,0,0-1.27.164c.645.01,1.063.112,1.168.39.332.876-2.475,3.185-6.265,5.155-.3.155-.6.305-.9.453A.838.838,0,1,0,8,6.621q.421-.2.852-.426a32.6,32.6,0,0,0,5.091-3.212,6.8,6.8,0,0,1,1.211,1.194l0,.006c.469-.327.7-.5,1.087-.806Z" transform="translate(-3.074 0)" fill="#fff" fill-rule="evenodd"/>
    <path id="Path_55649" data-name="Path 55649" d="M10.883,1.974A7.3,7.3,0,0,0,.131,7.646,6.759,6.759,0,0,1,9.862,2.893,7.25,7.25,0,0,0,10.883,1.974Z" transform="translate(0 -0.538)" fill="#fff" fill-rule="evenodd"/>
  </g>
</svg>
