<?xml version="1.0" encoding="utf-8"?>
<!-- Generator: Adobe Adobe Illustrator 24.2.0, SVG Export Plug-In . SVG Version: 6.00 Build 0)  -->
<svg version="1.1" xmlns="http://www.w3.org/2000/svg" xmlns:xlink="http://www.w3.org/1999/xlink" x="0px" y="0px"
	 viewBox="0 0 45 45" style="enable-background:new 0 0 45 45;" xml:space="preserve">
<style type="text/css">
	.st0{fill:#0072C6;}
	.st2{fill:#0072C6;}
	.st3{fill:#0072C6;}
	.st4{fill:#0072C6;}
</style>
<g id="Layer_1">
</g>
<g id="Layer_26">
</g>
<g id="Application">
</g>
<g id="Rule">
</g>
<g id="Report">
</g>
<g id="Layer_10">
</g>
<g id="Process">
	<g id="XMLID_448_">
		<g id="XMLID_4510_">
			<defs>
				<circle id="XMLID_4511_" cx="13" cy="10.78" r="6.5"/>
			</defs>
			<clipPath id="XMLID_2_">
				<use xlink:href="#XMLID_4511_"  style="overflow:visible;"/>
			</clipPath>
		</g>
	</g>
	<g id="XMLID_1319_">
		<g id="XMLID_32_">
			<path id="XMLID_4507_" class="st0" d="M20.58,34.88h-9.06v-9.06h9.06V34.88z M13.53,32.88h5.06v-5.06h-5.06V32.88z"/>
		</g>
		<g id="XMLID_31_">
			<path id="XMLID_4504_" class="st0" d="M16.05,21.54c-2.7,0-4.89-2.2-4.89-4.89s2.2-4.89,4.89-4.89c2.7,0,4.89,2.2,4.89,4.89
				S18.75,21.54,16.05,21.54z M16.05,13.75c-1.6,0-2.89,1.3-2.89,2.89s1.3,2.89,2.89,2.89s2.89-1.3,2.89-2.89
				S17.65,13.75,16.05,13.75z"/>
		</g>
		<g id="XMLID_30_">
			<path id="XMLID_4501_" class="st0" d="M29.79,35.25c-2.7,0-4.89-2.2-4.89-4.89s2.2-4.89,4.89-4.89c2.7,0,4.89,2.2,4.89,4.89
				S32.49,35.25,29.79,35.25z M29.79,27.46c-1.6,0-2.89,1.3-2.89,2.89s1.3,2.89,2.89,2.89s2.89-1.3,2.89-2.89
				S31.39,27.46,29.79,27.46z"/>
		</g>
		<g id="XMLID_29_">
			<rect id="XMLID_4500_" x="15.05" y="22.12" class="st0" width="2" height="3.14"/>
		</g>
		<g id="XMLID_28_">
			<rect id="XMLID_4499_" x="21.15" y="29.36" class="st0" width="3.14" height="2"/>
		</g>
	</g>
</g>
<g id="Script">
</g>
</svg>
