<svg xmlns="http://www.w3.org/2000/svg" width="15.166" height="12.5" viewBox="0 0 15.166 12.5">
  <g id="Group_56138" data-name="Group 56138" transform="translate(1.25 1.25)" opacity="0.8">
    <g id="Union_10" data-name="Union 10" fill="none" stroke-linecap="round" stroke-linejoin="round">
      <path d="M1,10A1,1,0,0,1,0,9V3a1,1,0,0,1,.134-.5H0V0H6.484L7.3,2h4.363a1,1,0,0,1,1,1V9a1,1,0,0,1-1,1Z" stroke="none"/>
      <path d="M 11.66670036315918 9.999899864196777 C 12.21930027008057 9.999899864196777 12.66660022735596 9.552599906921387 12.66660022735596 9 L 12.66660022735596 2.999699831008911 C 12.66660022735596 2.447999954223633 12.21930027008057 1.999799966812134 11.66670036315918 1.999799966812134 L 7.303490161895752 1.999799966812134 L 6.484499931335449 -6.790160966829717e-08 L 1.136779772537011e-07 -6.790160966829717e-08 L 1.136779772537011e-07 2.500200033187866 L 0.1336701065301895 2.500059843063354 C 0.048650112003088 2.647119998931885 1.136779772537011e-07 2.817759990692139 1.136779772537011e-07 2.999699831008911 L 1.136779772537011e-07 9 C 1.136779772537011e-07 9.552599906921387 0.4473001062870026 9.999899864196777 0.9999001026153564 9.999899864196777 L 11.66670036315918 9.999899864196777 M 11.66670036315918 11.24989986419678 L 0.9999001026153564 11.24989986419678 C -0.2406998872756958 11.24989986419678 -1.24999988079071 10.24059963226318 -1.24999988079071 9 L -1.24999988079071 2.999699831008911 C -1.24999988079071 2.903727293014526 -1.243839502334595 2.808068990707397 -1.231690406799316 2.713392019271851 C -1.243797898292542 2.643444061279297 -1.24999988079071 2.572142601013184 -1.24999988079071 2.500200033187866 L -1.24999988079071 -6.790160966829717e-08 C -1.24999988079071 -0.6903600692749023 -0.690359890460968 -1.25000011920929 1.136779772537011e-07 -1.25000011920929 L 6.484499931335449 -1.25000011920929 C 6.991899967193604 -1.25000011920929 7.448960304260254 -0.943280041217804 7.641250133514404 -0.473730057477951 L 8.142329216003418 0.749799907207489 L 11.66670036315918 0.749799907207489 C 12.90729999542236 0.749799907207489 13.91660022735596 1.759099960327148 13.91660022735596 2.999699831008911 L 13.91660022735596 9 C 13.91660022735596 10.24059963226318 12.90729999542236 11.24989986419678 11.66670036315918 11.24989986419678 Z" stroke="none" fill="#000"/>
    </g>
  </g>
</svg>
