<svg xmlns="http://www.w3.org/2000/svg" width="16" height="16" viewBox="0 0 16 16">
  <g id="Close" transform="translate(8 8)">
    <path id="Path_54807" data-name="Path 54807" d="M15.929.416,15.584.071a.241.241,0,0,0-.34,0L8,7.314.756.071a.241.241,0,0,0-.34,0L.071.416a.241.241,0,0,0,0,.34L7.314,8,.071,15.244a.241.241,0,0,0,0,.34l.345.345a.241.241,0,0,0,.34,0L8,8.686l7.244,7.244a.241.241,0,0,0,.34,0l.345-.345a.241.241,0,0,0,0-.34L8.686,8,15.929.756A.241.241,0,0,0,15.929.416Z" transform="translate(-8 -8)" fill="#606060"/>
  </g>
</svg>
