<?xml version="1.0" encoding="utf-8"?>
<!-- Generator: Adobe Illustrator 25.4.1, SVG Export Plug-In . SVG Version: 6.00 Build 0)  -->
<svg version="1.1" xmlns="http://www.w3.org/2000/svg" xmlns:xlink="http://www.w3.org/1999/xlink" x="0px" y="0px"
	 viewBox="0 0 20 20" style="enable-background:new 0 0 20 20;" xml:space="preserve">
<style type="text/css">
	.st0{display:none;}
	.st1{display:inline;opacity:0.51;}
	.st2{fill:#FFFFFF;fill-opacity:0;}
	.st3{fill:#616160;stroke:#616160;stroke-width:0.4;}
	.st4{fill:#616160;}
	.st5{display:inline;opacity:0.54;}
	.st6{display:inline;opacity:0.22;}
	.st7{fill:#020203;}
	.st8{fill:none;}
	.st9{display:inline;opacity:0.4;}
	.st10{fill:none;stroke:#1D70B8;stroke-linecap:round;stroke-linejoin:round;}
	.st11{display:inline;opacity:0.4;fill:none;}
	.st12{display:inline;opacity:0.4;fill:#616160;stroke:#616160;stroke-width:0.4;}
	.st13{display:inline;opacity:0.17;fill:#1D70B8;}
	.st14{fill:#FFFFFF;}
	.st15{fill:none;stroke:#616160;stroke-miterlimit:10;stroke-dasharray:2.039,2.039;}
	.st16{fill:none;stroke:#616160;stroke-miterlimit:10;}
	.st17{opacity:0.39;}
	.st18{clip-path:url(#SVGID_00000093167400869863976880000001032788222393836219_);}
	.st19{clip-path:url(#SVGID_00000154410416747359985860000002118685327494833591_);fill:#616160;}
	.st20{clip-path:url(#SVGID_00000021809518509464064310000015771093366089916075_);}
	.st21{clip-path:url(#SVGID_00000152245878004781132000000010558983458227581833_);fill:#616160;}
	.st22{clip-path:url(#SVGID_00000069395370039137514070000003669503344211184550_);}
	.st23{clip-path:url(#SVGID_00000119103306688767495720000012657652221239790488_);fill:#616160;}
	.st24{fill:#BE1622;}
	.st25{fill:#1D70B8;}
	.st26{fill:#D53D3D;}
	.st27{clip-path:url(#SVGID_00000142159846914984198190000010561927753723589293_);}
	.st28{fill:#616160;fill-opacity:0;}
	.st29{display:inline;}
	.st30{display:inline;fill:none;stroke:#616160;stroke-miterlimit:10;}
	.st31{display:inline;fill:#616160;}
	.st32{display:inline;fill:#FFFFFF;stroke:#616160;stroke-miterlimit:10;}
	.st33{display:inline;opacity:0.39;}
	.st34{fill:none;stroke:#616160;stroke-linecap:square;stroke-miterlimit:10;}
	.st35{fill:none;stroke:#616160;}
	.st36{clip-path:url(#SVGID_00000073721813243076520480000001872029005976256664_);}
	.st37{clip-path:url(#SVGID_00000042732499031652109490000010795514337006474402_);fill:#616160;}
	.st38{clip-path:url(#SVGID_00000019668537336923975980000005634472216909441672_);}
	.st39{clip-path:url(#SVGID_00000104690265073351345050000009713880668271572390_);fill:#616160;}
	.st40{clip-path:url(#SVGID_00000157308780025053106120000008694319520242088611_);}
	.st41{clip-path:url(#SVGID_00000153706411235430378210000000658537144206370690_);fill:#616160;}
	.st42{fill:none;stroke:#FFFFFF;stroke-width:2.5;stroke-miterlimit:10;}
	.st43{display:inline;fill:none;stroke:#BE1622;stroke-miterlimit:10;}
	.st44{display:inline;fill:#BE1622;}
	.st45{display:inline;fill:#1D70B8;}
	.st46{display:inline;fill:#D53D3D;}
	.st47{clip-path:url(#SVGID_00000100359713575650977470000014694785495766326657_);}
	.st48{display:inline;fill:none;stroke:#000000;stroke-width:1.5;stroke-miterlimit:10;}
	.st49{display:inline;fill:none;stroke:#616160;stroke-width:1.5;stroke-miterlimit:10;}
	.st50{display:inline;fill:none;stroke:#616160;}
	.st51{fill-rule:evenodd;clip-rule:evenodd;fill:#616160;}
	.st52{fill:none;stroke:#616160;stroke-linecap:round;stroke-linejoin:round;}
	.st53{fill:#1D70B8;fill-opacity:0;}
	.st54{clip-path:url(#SVGID_00000105402747083231698020000001529555685723159726_);}
	.st55{fill:#FFFFFF;stroke:#616160;stroke-miterlimit:10;}
	.st56{display:inline;fill:#C91517;}
	.st57{display:inline;fill:#C42827;stroke:#C42827;stroke-width:0.2;}
	.st58{display:inline;fill:none;stroke:#1D70B8;stroke-miterlimit:10;}
</style>
<g id="Guides" class="st0">
</g>
<g id="Rough" class="st0">
</g>
<g id="Layer_1">
	<g id="Delete_00000037666975489632367150000015961350983509339784_">
		<g>
			<defs>
				<rect id="SVGID_00000131336417434502157010000010817868081145466520_" x="2" y="2.0005" width="16" height="15.999"/>
			</defs>
			<clipPath id="SVGID_00000036241925644886627280000004724664851013661341_">
				<use xlink:href="#SVGID_00000131336417434502157010000010817868081145466520_"  style="overflow:visible;"/>
			</clipPath>
			<g style="clip-path:url(#SVGID_00000036241925644886627280000004724664851013661341_);">
				<defs>
					<rect id="SVGID_00000017516678489142339310000012922369331958451363_" x="2" y="2.0005" width="16" height="15.999"/>
				</defs>
				<clipPath id="SVGID_00000078745997143690272410000013619417194603711138_">
					<use xlink:href="#SVGID_00000017516678489142339310000012922369331958451363_"  style="overflow:visible;"/>
				</clipPath>
				<path style="clip-path:url(#SVGID_00000078745997143690272410000013619417194603711138_);fill:#616160;" d="M11.75,6.9371h-0.5
					c-0.138,0-0.25,0.112-0.25,0.25v2v3.5v2c0,0.138,0.112,0.25,0.25,0.25h0.5c0.138,0,0.25-0.112,0.25-0.25v-2v-3.5v-2
					C12,7.0491,11.888,6.9371,11.75,6.9371"/>
				<path style="clip-path:url(#SVGID_00000078745997143690272410000013619417194603711138_);fill:#616160;" d="M8.75,6.9371h-0.5
					c-0.138,0-0.25,0.112-0.25,0.25v2v3.5v2c0,0.138,0.112,0.25,0.25,0.25h0.5c0.138,0,0.25-0.112,0.25-0.25v-2v-3.5v-2
					C9,7.0491,8.888,6.9371,8.75,6.9371"/>
				<path style="clip-path:url(#SVGID_00000078745997143690272410000013619417194603711138_);fill:#616160;" d="M18,4.1865
					c0-0.138-0.112-0.25-0.25-0.25h-1.667h-12H2.25c-0.138,0-0.25,0.112-0.25,0.25v0.5c0,0.139,0.112,0.25,0.25,0.25h1.833v12.063
					c0,0.552,0.448,1,1,1h10c0.553,0,1-0.448,1-1V4.9365h1.667c0.138,0,0.25-0.111,0.25-0.25V4.1865z M15.083,17.4995v-0.5h0.001
					L15.083,17.4995z M15.083,16.9995h-10V4.9365h10V16.9995z"/>
				<path style="clip-path:url(#SVGID_00000078745997143690272410000013619417194603711138_);fill:#616160;" d="M12.75,3.0005h-5.5
					c-0.138,0-0.25-0.112-0.25-0.25v-0.5c0-0.138,0.112-0.25,0.25-0.25h5.5c0.138,0,0.25,0.112,0.25,0.25v0.5
					C13,2.8885,12.888,3.0005,12.75,3.0005"/>
			</g>
		</g>
	</g>
</g>
<g id="Strokes" class="st0">
</g>
<g id="Options" class="st0">
</g>
</svg>
