<?xml version="1.0" encoding="utf-8"?>
<!-- Generator: Adobe Illustrator 25.4.1, SVG Export Plug-In . SVG Version: 6.00 Build 0)  -->
<svg version="1.1" id="Layer_1" xmlns="http://www.w3.org/2000/svg" xmlns:xlink="http://www.w3.org/1999/xlink" x="0px" y="0px"
	 viewBox="0 0 24 24" style="enable-background:new 0 0 24 24;" xml:space="preserve">
<style type="text/css">
	.st0{fill:#D3D3D3;}
</style>
<g id="Layer_9">
	<g id="Audit_Log_00000170278353371546267600000011514980542994497934_">
		<path id="Path_45_00000135681956448343704150000002080479474581751216_" class="st0" d="M17.5,2.45h-0.78
			c-0.17-0.81-0.89-1.4-1.72-1.4H9c-0.83,0-1.55,0.59-1.72,1.41H6.5c-2.07,0-3.75,1.68-3.75,3.75v13c0,2.07,1.68,3.75,3.75,3.75h11
			c2.07,0,3.75-1.68,3.75-3.75v-13C21.25,4.13,19.57,2.46,17.5,2.45z M8.75,2.8c0-0.14,0.11-0.25,0.25-0.25h6
			c0.14,0,0.25,0.11,0.25,0.25v0.81c0,0.14-0.11,0.25-0.25,0.25H9c-0.14,0-0.25-0.11-0.25-0.25V2.8z M19.75,19.2
			c0,1.24-1.01,2.25-2.25,2.25h-11c-1.24,0-2.25-1.01-2.25-2.25v-13c0-1.24,1.01-2.25,2.25-2.25h0.78C7.45,4.77,8.17,5.36,9,5.36h6
			c0.83,0,1.55-0.59,1.72-1.41h0.78c1.24,0,2.25,1.01,2.25,2.25V19.2z"/>
		<g id="Group_20_00000093160399414808781300000005347869799818111656_" transform="translate(-2.75 -0.771)">
			<path id="Rectangle_19_00000078009629741686986310000008120103945529118371_" class="st0" d="M10.12,11.43h9.25
				c0.14,0,0.25,0.11,0.25,0.25v1c0,0.14-0.11,0.25-0.25,0.25h-9.25c-0.14,0-0.25-0.11-0.25-0.25v-1
				C9.88,11.54,9.99,11.43,10.12,11.43z"/>
		</g>
		<g id="Group_21_00000085220403749661686630000011076924260440607387_" transform="translate(-2.75 -0.771)">
			<path id="Rectangle_20_00000154411298515633024930000013391793523359268251_" class="st0" d="M10.12,14.93h9.25
				c0.14,0,0.25,0.11,0.25,0.25v1c0,0.14-0.11,0.25-0.25,0.25h-9.25c-0.14,0-0.25-0.11-0.25-0.25v-1
				C9.88,15.04,9.99,14.93,10.12,14.93z"/>
		</g>
	</g>
</g>
</svg>
