<?xml version="1.0" encoding="utf-8"?>
<!-- Generator: Adobe Illustrator 25.4.1, SVG Export Plug-In . SVG Version: 6.00 Build 0)  -->
<svg version="1.1" id="Layer_1" xmlns="http://www.w3.org/2000/svg" xmlns:xlink="http://www.w3.org/1999/xlink" x="0px" y="0px"
	 viewBox="0 0 24 24" style="enable-background:new 0 0 24 24;" xml:space="preserve">
<style type="text/css">
	.st0{fill:#FFFFFF;}
</style>
<g id="Layer_9">
	<g id="Audit_Log_Enabled_00000053540088070943250530000009084926711381035907_">
		<path id="Path_43_00000097469974543005438300000000358717299298508679_" class="st0" d="M9,3.35h6c0.15-0.02,0.26-0.15,0.25-0.3
			V2.06c0.01-0.15-0.1-0.28-0.25-0.3H9c-0.15,0.02-0.26,0.15-0.25,0.3v0.99C8.74,3.2,8.85,3.34,9,3.35z"/>
		<path id="Path_44_00000166659373916525138070000013773387500994327445_" class="st0" d="M17.5,1.75h-0.78
			c0.01,0.08,0.02,0.17,0.03,0.26v0.81c0,0.97-0.78,1.75-1.75,1.75H9c-0.97,0-1.75-0.78-1.75-1.75V2.01c0-0.09,0.01-0.17,0.03-0.26
			H6.5c-2.07,0-3.75,1.68-3.75,3.75v13c0,2.07,1.68,3.75,3.75,3.75h11c2.07,0,3.75-1.68,3.75-3.75v-13
			C21.25,3.43,19.57,1.75,17.5,1.75z M16.88,14.71c0,0.14-0.11,0.25-0.25,0.25H7.38c-0.14,0-0.25-0.11-0.25-0.25v-1
			c0-0.14,0.11-0.25,0.25-0.25h9.25c0.14,0,0.25,0.11,0.25,0.25C16.88,13.71,16.88,14.71,16.88,14.71z M16.88,11.21
			c0,0.14-0.11,0.25-0.25,0.25H7.38c-0.14,0-0.25-0.11-0.25-0.25v-1c0-0.14,0.11-0.25,0.25-0.25h9.25c0.14,0,0.25,0.11,0.25,0.25
			C16.88,10.21,16.88,11.21,16.88,11.21z"/>
	</g>
</g>
</svg>
