<?xml version="1.0" encoding="UTF-8"?>
<svg width="32px" height="32px" viewBox="0 0 32 32" version="1.1" xmlns="http://www.w3.org/2000/svg" xmlns:xlink="http://www.w3.org/1999/xlink">
    <title>Search Copy 10</title>
    <g id="Search-Copy-10" stroke="none" stroke-width="1" fill="none" fill-rule="evenodd">
        <g id="Group" transform="translate(2.500000, 2.500000)" stroke="#FFFFFF">
            <polyline id="Path-16" stroke-linejoin="round" points="3.5 20 3.5 16.5 23.5 16.5 23.5 20"></polyline>
            <line x1="13.5" y1="12.9761963" x2="13.5" y2="20" id="Path-15"></line>
            <line x1="8" y1="1.5" x2="8" y2="11.5" id="Path-12"></line>
            <line x1="19" y1="1.5" x2="19" y2="11.5" id="Path-12"></line>
            <ellipse id="Oval" cx="13.5" cy="1.5" rx="5.5" ry="1.5"></ellipse>
            <path d="M8,11.5 C8,12.4788818 10.8505859,12.9761963 13.5047607,12.9761963 C16.7561035,12.9761963 19,12.2383752 19,11.5" id="Path-13" stroke-linejoin="round"></path>
            <path d="M8,6.5 C8,7.47888184 10.8505859,7.97619629 13.5047607,7.97619629 C16.7561035,7.97619629 19,7.2383752 19,6.5" id="Path-13" stroke-linejoin="round"></path>
            <rect id="Rectangle" stroke-linejoin="round" x="0" y="20" width="7" height="7"></rect>
            <line x1="0" y1="22" x2="7" y2="22" id="Path-14"></line>
            <line x1="10" y1="22" x2="17" y2="22" id="Path-14"></line>
            <line x1="20" y1="22" x2="27" y2="22" id="Path-14"></line>
            <rect id="Rectangle" stroke-linejoin="round" x="10" y="20" width="7" height="7"></rect>
            <rect id="Rectangle-Copy" stroke-linejoin="round" x="20" y="20" width="7" height="7"></rect>
        </g>
    </g>
</svg>