<?xml version="1.0" encoding="UTF-8"?>
<svg width="32px" height="32px" viewBox="0 0 32 32" version="1.1" xmlns="http://www.w3.org/2000/svg" xmlns:xlink="http://www.w3.org/1999/xlink">
    <title>Search Copy 8</title>
    <g id="Search-Copy-8" stroke="none" stroke-width="1" fill="none" fill-rule="evenodd">
        <g id="Group" transform="translate(2.500000, 2.500000)" stroke="#FFFFFF">
            <rect id="Rectangle" stroke-linejoin="round" x="20" y="5" width="7" height="22"></rect>
            <line x1="2" y1="11" x2="5" y2="11" id="Path-19" stroke-linecap="round"></line>
            <line x1="2" y1="13" x2="5" y2="13" id="Path-19" stroke-linecap="round"></line>
            <rect id="Rectangle" stroke-linejoin="round" x="10" y="0" width="7" height="22"></rect>
            <rect id="Rectangle" stroke-linejoin="round" x="12" y="17" width="3" height="3" rx="1.5"></rect>
            <rect id="Rectangle" stroke-linejoin="round" x="22" y="22" width="3" height="3" rx="1.5"></rect>
            <rect id="Rectangle" stroke-linejoin="round" x="2" y="22" width="3" height="3" rx="1.5"></rect>
            <rect id="Rectangle" stroke-linejoin="round" x="0" y="5" width="7" height="22"></rect>
            <rect id="Rectangle" stroke-linejoin="round" x="2" y="7" width="3" height="2"></rect>
            <line x1="12" y1="6" x2="15" y2="6" id="Path-19" stroke-linecap="round"></line>
            <line x1="12" y1="8" x2="15" y2="8" id="Path-19" stroke-linecap="round"></line>
            <rect id="Rectangle" stroke-linejoin="round" x="12" y="2" width="3" height="2"></rect>
            <line x1="22" y1="11" x2="25" y2="11" id="Path-19" stroke-linecap="round"></line>
            <line x1="22" y1="13" x2="25" y2="13" id="Path-19" stroke-linecap="round"></line>
            <rect id="Rectangle" stroke-linejoin="round" x="22" y="7" width="3" height="2"></rect>
        </g>
    </g>
</svg>