<?xml version="1.0" encoding="utf-8"?>
<!-- Generator: Adobe Illustrator 25.4.1, SVG Export Plug-In . SVG Version: 6.00 Build 0)  -->
<svg version="1.1" id="Layer_1" xmlns="http://www.w3.org/2000/svg" xmlns:xlink="http://www.w3.org/1999/xlink" x="0px" y="0px"
	 viewBox="0 0 24 24" style="enable-background:new 0 0 24 24;" xml:space="preserve">
<style type="text/css">
	.st0{fill:#D3D3D3;}
</style>
<g id="Layer_9">
	<g id="Home_00000136384713784306045890000009882418933801338257_">
		<g id="Group_7_00000125595635610921054080000002040199614411964842_" transform="translate(-1.75 -1.39)">
			<path id="Path_20_00000134242167496357335100000003943940574509173892_" class="st0" d="M21.25,24.01h-15
				c-1.52,0-2.75-1.23-2.75-2.75v-8.18c0-0.72,0.28-1.42,0.79-1.93l7.5-7.59c1.09-1.06,2.82-1.06,3.91,0l7.5,7.59
				c0.51,0.51,0.8,1.21,0.79,1.93v8.18C24,22.78,22.77,24.01,21.25,24.01z M13.75,4.24c-0.33,0-0.66,0.13-0.89,0.37l-7.5,7.59
				C5.13,12.44,5,12.76,5,13.08v8.18c0,0.69,0.56,1.25,1.25,1.25h15c0.69,0,1.25-0.56,1.25-1.25v-8.18c0-0.33-0.13-0.65-0.36-0.88
				l-7.5-7.59C14.41,4.37,14.09,4.24,13.75,4.24z"/>
		</g>
		<g id="Group_8_00000082357498135334053250000003918274324860522680_" transform="translate(-1.75 -1.39)">
			<path id="Path_21_00000182506930708980690880000012305950850882768061_" class="st0" d="M13.75,17.58
				c-1.89,0-3.42-1.53-3.42-3.42s1.53-3.42,3.42-3.42s3.42,1.53,3.42,3.42l0,0C17.17,16.05,15.64,17.58,13.75,17.58z M13.75,12.24
				c-1.06,0-1.92,0.86-1.92,1.92s0.86,1.92,1.92,1.92s1.92-0.86,1.92-1.92l0,0C15.66,13.1,14.81,12.25,13.75,12.24L13.75,12.24z"/>
		</g>
	</g>
</g>
</svg>
