<?xml version="1.0" encoding="utf-8"?>
<!-- Generator: Adobe Illustrator 25.4.1, SVG Export Plug-In . SVG Version: 6.00 Build 0)  -->
<svg version="1.1" id="Layer_1" xmlns="http://www.w3.org/2000/svg" xmlns:xlink="http://www.w3.org/1999/xlink" x="0px" y="0px"
	 viewBox="0 0 24 24" style="enable-background:new 0 0 24 24;" xml:space="preserve">
<style type="text/css">
	.st0{fill:#FFFFFF;}
</style>
<g id="Layer_9">
	<g id="Home_Enabled_00000070082625229244523260000008329982095546665910_">
		<g id="Home_Enabled_00000013894046432238659420000002172463387325449350_" transform="translate(0 0)">
			<path id="Path_65_00000009568390553510880400000013696314926928604034_" class="st0" d="M21.46,9.76l-7.51-7.59
				c-1.09-1.05-2.82-1.05-3.91,0l-7.5,7.59c-0.51,0.51-0.79,1.21-0.79,1.93v8.18c0,1.52,1.23,2.75,2.75,2.75h15
				c1.52,0,2.75-1.23,2.75-2.75v-8.18C22.25,10.97,21.97,10.28,21.46,9.76z M12,16.19c-1.89,0-3.41-1.53-3.42-3.42
				c0-1.89,1.53-3.41,3.42-3.42c1.89,0,3.41,1.53,3.42,3.42C15.42,14.66,13.89,16.19,12,16.19z"/>
		</g>
	</g>
</g>
<g id="Process">
</g>
</svg>
