<?xml version="1.0" encoding="utf-8"?>
<!-- Generator: Adobe Illustrator 25.4.1, SVG Export Plug-In . SVG Version: 6.00 Build 0)  -->
<svg version="1.1" id="Layer_1" xmlns="http://www.w3.org/2000/svg" xmlns:xlink="http://www.w3.org/1999/xlink" x="0px" y="0px"
	 viewBox="0 0 24 24" style="enable-background:new 0 0 24 24;" xml:space="preserve">
<style type="text/css">
	.st0{fill:#FFFFFF;}
</style>
<g id="Layer_9">
	<g id="Inbox_Enabled_00000147914669480404251960000012087885990208084875_">
		<path id="Path_67_00000111162989913115762980000017618296083929973671_" class="st0" d="M19.5,1.75h-4.42
			c-0.14,0-0.25,0.11-0.25,0.25v1c0,0.14,0.11,0.25,0.25,0.25l0,0h4.42c0.69,0,1.25,0.56,1.25,1.25v9.58h-3.19
			c-1.08,0.02-2.05,0.65-2.5,1.63c-0.84,1.7-2.89,2.39-4.59,1.55c-0.1-0.05-0.2-0.11-0.3-0.17c-0.55-0.35-0.99-0.85-1.26-1.45
			c-0.45-0.95-1.42-1.56-2.47-1.56H3.25V4.5c0-0.69,0.56-1.25,1.25-1.25l0,0H10c0.69,0,1.25,0.56,1.25,1.25v6.62l-1.9-1.9
			c-0.1-0.1-0.26-0.1-0.35,0l0,0L8.29,9.93c-0.1,0.1-0.1,0.25,0,0.35l0,0l2.65,2.65l0,0l0.88,0.88c0.1,0.1,0.26,0.1,0.35,0
			l0.88-0.88l0,0l2.65-2.65c0.1-0.1,0.1-0.25,0-0.35l0,0l-0.71-0.71c-0.1-0.1-0.26-0.1-0.35,0l0,0l-1.9,1.9V4.5
			c0-1.52-1.23-2.75-2.75-2.75H9.98H4.5c-1.52,0-2.75,1.23-2.75,2.75v15c0,1.52,1.23,2.75,2.75,2.75h15c1.52,0,2.75-1.23,2.75-2.75
			v-15C22.25,2.98,21.02,1.75,19.5,1.75z"/>
	</g>
</g>
</svg>
