<?xml version="1.0" encoding="utf-8"?>
<!-- Generator: Adobe Illustrator 25.4.1, SVG Export Plug-In . SVG Version: 6.00 Build 0)  -->
<svg version="1.1" id="Layer_1" xmlns="http://www.w3.org/2000/svg" xmlns:xlink="http://www.w3.org/1999/xlink" x="0px" y="0px"
	 viewBox="0 0 24 24" style="enable-background:new 0 0 24 24;" xml:space="preserve">
<style type="text/css">
	.st0{fill:#FFFFFF;}
</style>
<g id="Layer_9">
	<g id="Process_Design_Enabled_00000111186713446564354800000011249948101009147561_">
		<g id="Group_40_00000180363823582988839560000017872472402641753246_" transform="translate(-1.58 -2.753)">
			<g id="Group_34_00000000939882555665176720000013423163320368820141_" transform="translate(0 30.236)">
				<path id="Rectangle_25_00000152955300113184308980000018296774836230143935_" class="st0" d="M4.66-12.69h3.86
					c0.69,0,1.25,0.56,1.25,1.25v3.86c0,0.69-0.56,1.25-1.25,1.25H4.66c-0.69,0-1.25-0.56-1.25-1.25v-3.86
					C3.41-12.13,3.97-12.69,4.66-12.69z"/>
				<path id="Path_68_00000078754656892280934090000012205220016279339408_" class="st0" d="M23.63-10.39l-2.73-2.73
					c-0.49-0.49-1.28-0.49-1.77,0l0,0l-2.73,2.73c-0.49,0.49-0.49,1.28,0,1.77l2.73,2.73c0.23,0.23,0.55,0.37,0.88,0.36
					c0.33,0,0.65-0.13,0.88-0.36l2.73-2.73C24.12-9.12,24.12-9.91,23.63-10.39z"/>
				<path id="Path_69_00000053504511320953769000000011036883813131240602_" class="st0" d="M6.6-25.44c-1.9,0-3.43,1.54-3.43,3.43
					c0,1.9,1.54,3.43,3.43,3.43c1.9,0,3.43-1.54,3.43-3.43C10.03-23.9,8.49-25.43,6.6-25.44z"/>
				<path id="Path_70_00000147215107048934505770000006714539925470581170_" class="st0" d="M20.02-18.57c1.9,0,3.43-1.54,3.43-3.43
					c0-1.9-1.54-3.43-3.43-3.43c-1.9,0-3.43,1.54-3.44,3.43C16.58-20.11,18.12-18.57,20.02-18.57z"/>
			</g>
			<g id="Group_35_00000155825550428998669040000007487688142072216228_" transform="translate(0 30.236)">
				<path id="Rectangle_26_00000131349198642777820000000002945668294802752390_" class="st0" d="M6.1-17.84h1
					c0.14,0,0.25,0.11,0.25,0.25v3.33c0,0.14-0.11,0.25-0.25,0.25h-1c-0.14,0-0.25-0.11-0.25-0.25v-3.33
					C5.85-17.73,5.96-17.84,6.1-17.84z"/>
			</g>
			<g id="Group_36_00000160160065147318082630000015431857520174174367_" transform="translate(0 30.236)">
				<path id="Rectangle_27_00000168080019841970152210000013077713031251228822_" class="st0" d="M19.52-17.84h1
					c0.14,0,0.25,0.11,0.25,0.25v3.33c0,0.14-0.11,0.25-0.25,0.25h-1c-0.14,0-0.25-0.11-0.25-0.25v-3.33
					C19.27-17.73,19.38-17.84,19.52-17.84z"/>
			</g>
			<g id="Group_37_00000119840394415496110070000003151473381279329686_" transform="translate(0 30.236)">
				<path id="Rectangle_28_00000047023926871719969300000005711006614131640497_" class="st0" d="M11.32-10.26h3.26
					c0.14,0,0.25,0.11,0.25,0.25v1c0,0.14-0.11,0.25-0.25,0.25h-3.26c-0.14,0-0.25-0.11-0.25-0.25v-1
					C11.07-10.15,11.18-10.26,11.32-10.26z"/>
			</g>
		</g>
	</g>
</g>
</svg>
