<?xml version="1.0" encoding="utf-8"?>
<!-- Generator: Adobe Illustrator 25.4.1, SVG Export Plug-In . SVG Version: 6.00 Build 0)  -->
<svg version="1.1" id="Layer_1" xmlns="http://www.w3.org/2000/svg" xmlns:xlink="http://www.w3.org/1999/xlink" x="0px" y="0px"
	 viewBox="0 0 24 24" style="enable-background:new 0 0 24 24;" xml:space="preserve">
<style type="text/css">
	.st0{fill:#D3D3D3;}
</style>
<g id="Layer_9">
	<g id="Process_Design_00000108275025772640740960000014693998422659523495_">
		<g id="Group_38_00000044896275068937866560000003428136346493697159_" transform="translate(-1.58 50.067)">
			<path id="Path_71_00000111902169373254938510000010331006566204090499_" class="st0" d="M8.53-35.28H4.66
				c-0.69,0-1.25,0.56-1.25,1.25v3.86c0,0.69,0.56,1.25,1.25,1.25h3.86c0.69,0,1.25-0.56,1.25-1.25v-3.86
				C9.78-34.72,9.22-35.28,8.53-35.28L8.53-35.28z M8.28-30.41H4.91v-3.36h3.37V-30.41z"/>
			<path id="Path_72_00000096026253429532680090000008419484913583160990_" class="st0" d="M23.63-32.98l-2.73-2.73
				c-0.49-0.49-1.28-0.49-1.77,0l-2.73,2.73c-0.49,0.49-0.49,1.28,0,1.77l2.73,2.73c0.23,0.23,0.55,0.37,0.88,0.36
				c0.33,0,0.65-0.13,0.88-0.36l2.73-2.73C24.12-31.7,24.12-32.49,23.63-32.98z M20.02-29.71l-2.38-2.38l2.38-2.38l2.38,2.38
				L20.02-29.71z"/>
			<path id="Path_73_00000063605104295735740810000003914005963771007118_" class="st0" d="M6.6-48.02c-1.9,0-3.43,1.54-3.43,3.44
				c0,1.9,1.54,3.43,3.43,3.43c1.9,0,3.43-1.54,3.43-3.44C10.03-46.48,8.49-48.02,6.6-48.02z M6.6-42.65
				c-1.07,0-1.93-0.87-1.93-1.93c0-1.07,0.87-1.93,1.93-1.94c1.07,0,1.93,0.87,1.93,1.94C8.53-43.52,7.66-42.65,6.6-42.65L6.6-42.65
				z"/>
			<path id="Path_74_00000098925451612904672740000017131683091245848463_" class="st0" d="M20.02-41.15c1.9,0,3.43-1.54,3.43-3.44
				c0-1.9-1.54-3.43-3.43-3.44c-1.9,0-3.44,1.54-3.44,3.44C16.58-42.69,18.12-41.15,20.02-41.15z M20.02-46.52
				c1.07,0,1.93,0.87,1.93,1.94s-0.87,1.93-1.93,1.93c-1.07,0-1.93-0.86-1.94-1.93C18.08-45.65,18.95-46.52,20.02-46.52L20.02-46.52
				z"/>
			<path id="Rectangle_29_00000007418844979579626110000015156507101160301714_" class="st0" d="M6.1-40.43h1
				c0.14,0,0.25,0.11,0.25,0.25v3.33c0,0.14-0.11,0.25-0.25,0.25h-1c-0.14,0-0.25-0.11-0.25-0.25v-3.33
				C5.85-40.31,5.96-40.43,6.1-40.43z"/>
			<path id="Rectangle_30_00000037689986154275680400000010832915751864881546_" class="st0" d="M19.52-40.43h1
				c0.14,0,0.25,0.11,0.25,0.25v3.33c0,0.14-0.11,0.25-0.25,0.25h-1c-0.14,0-0.25-0.11-0.25-0.25v-3.33
				C19.27-40.31,19.38-40.43,19.52-40.43z"/>
			<path id="Rectangle_31_00000089547226575233194180000010214599471572037765_" class="st0" d="M11.32-32.84h3.26
				c0.14,0,0.25,0.11,0.25,0.25v1c0,0.14-0.11,0.25-0.25,0.25h-3.26c-0.14,0-0.25-0.11-0.25-0.25v-1
				C11.07-32.73,11.18-32.84,11.32-32.84z"/>
		</g>
	</g>
</g>
</svg>
