<?xml version="1.0" encoding="UTF-8"?>
<svg width="32px" height="32px" viewBox="0 0 32 32" version="1.1" xmlns="http://www.w3.org/2000/svg" xmlns:xlink="http://www.w3.org/1999/xlink">
    <title>Search Copy 4</title>
    <g id="Search-Copy-4" stroke="none" stroke-width="1" fill="none" fill-rule="evenodd">
        <g id="Requirements" transform="translate(3.000000, 1.000000)" stroke="#FFFFFF">
            <line x1="11.4615385" y1="7.5" x2="22.5384615" y2="7.5" id="Path-8" stroke-linecap="round"></line>
            <line x1="11.45" y1="10.5" x2="19.55" y2="10.5" id="Path-8" stroke-linecap="round"></line>
            <line x1="11.4615385" y1="15.5" x2="22.5384615" y2="15.5" id="Path-8" stroke-linecap="round"></line>
            <line x1="11.45" y1="18.5" x2="19.55" y2="18.5" id="Path-8" stroke-linecap="round"></line>
            <line x1="11.4615385" y1="23.5" x2="22.5384615" y2="23.5" id="Path-8" stroke-linecap="round"></line>
            <line x1="11.45" y1="26.5" x2="19.55" y2="26.5" id="Path-8" stroke-linecap="round"></line>
            <rect id="Rectangle" stroke-linejoin="round" x="7.5" y="0.5" width="11" height="4"></rect>
            <rect id="Rectangle" stroke-linejoin="round" x="3.5" y="6.5" width="5" height="5"></rect>
            <rect id="Rectangle" stroke-linejoin="round" x="3.5" y="14.5" width="5" height="5"></rect>
            <polyline id="Path-9" stroke-linecap="round" stroke-linejoin="round" points="4.68228149 17.3236389 5.5 18 7.30761719 16"></polyline>
            <rect id="Rectangle" stroke-linejoin="round" x="3.5" y="22.5" width="5" height="5"></rect>
            <polyline id="Path-7" stroke-linejoin="round" points="7 2.5 0.5 2.5 0.5 29.5 25.5 29.5 25.5 2.5 19 2.5"></polyline>
        </g>
    </g>
</svg>