<?xml version="1.0" encoding="utf-8"?>
<!-- Generator: Adobe Illustrator 25.4.1, SVG Export Plug-In . SVG Version: 6.00 Build 0)  -->
<svg version="1.1" id="Layer_1" xmlns="http://www.w3.org/2000/svg" xmlns:xlink="http://www.w3.org/1999/xlink" x="0px" y="0px"
	 viewBox="0 0 24 24" style="enable-background:new 0 0 24 24;" xml:space="preserve">
<style type="text/css">
	.st0{fill:#D3D3D3;}
</style>
<path id="Path_75_00000111178260959487849880000001588846883385457296_" class="st0" d="M13.52,22.64h-2.47
	c-0.87,0.11-1.66-0.51-1.77-1.37c-0.01-0.04-0.01-0.09-0.01-0.13v-0.12c0-0.39,0-0.77,0-1.16c-0.3-0.12-0.6-0.25-0.9-0.38
	l-0.89,0.89c-0.28,0.28-0.67,0.44-1.07,0.44l0,0c-0.4,0-0.78-0.16-1.07-0.44l-1.73-1.73c-0.28-0.28-0.44-0.67-0.44-1.07
	s0.16-0.79,0.44-1.07c0.37-0.37,0.68-0.68,0.89-0.88c-0.13-0.29-0.25-0.59-0.37-0.89H2.87c-0.83,0-1.51-0.68-1.51-1.51v-2.44
	c0-0.83,0.68-1.51,1.51-1.51c0.43,0,0.86,0,1.28,0c0.12-0.3,0.25-0.6,0.37-0.89c-0.21-0.22-0.51-0.52-0.89-0.9
	c-0.59-0.59-0.59-1.54,0-2.13l1.72-1.72c0.59-0.58,1.54-0.58,2.13,0c0.43,0.42,0.7,0.69,0.87,0.86c0.29-0.15,0.6-0.28,0.91-0.38
	V2.86c0-0.83,0.68-1.51,1.51-1.51h2.44c0.83,0,1.51,0.68,1.51,1.51v1.28c0.3,0.12,0.6,0.25,0.89,0.37c0.21-0.21,0.52-0.52,0.9-0.9
	c0.59-0.59,1.54-0.59,2.14,0l1.72,1.72c0.59,0.59,0.59,1.55,0,2.14c-0.3,0.3-0.6,0.6-0.9,0.89c0.13,0.3,0.25,0.6,0.37,0.9
	c0.43,0,0.85,0,1.28,0c0.83,0,1.51,0.68,1.51,1.51v2.44c0,0.83-0.68,1.51-1.51,1.51c-0.42,0-0.85,0-1.28,0
	c-0.12,0.3-0.24,0.59-0.37,0.89c0.21,0.21,0.52,0.51,0.89,0.87c0.29,0.28,0.45,0.67,0.45,1.07s-0.16,0.79-0.44,1.08l-1.73,1.73
	c-0.59,0.59-1.54,0.59-2.13,0c-0.38-0.38-0.69-0.68-0.89-0.89c-0.28,0.12-0.56,0.24-0.84,0.35c0.01,0.05,0.02,0.11,0.04,0.18
	c0.05,0.22,0.1,0.49,0.17,0.84c0.09,0.44-0.03,0.9-0.32,1.25C14.39,22.44,13.97,22.64,13.52,22.64z M19.32,6.39L17.6,4.67
	c-0.64,0.62-1.07,1.04-1.15,1.13c-0.13,0.15-0.31,0.26-0.51,0.3c-0.2,0.04-0.4,0.01-0.58-0.07c-0.39-0.17-0.78-0.34-1.18-0.5
	c-0.58-0.23-0.96-0.78-0.95-1.4V2.85l-2.45-0.01L10.77,4.5c0.01,0.48-0.34,0.9-0.82,0.96c-0.41,0.12-0.81,0.28-1.18,0.5
	C8.56,6.1,8.3,6.15,8.05,6.1c-0.2-0.04-0.39-0.16-0.52-0.32C7.45,5.7,7.04,5.29,6.43,4.69L4.7,6.41c0.61,0.62,1.03,1.04,1.11,1.12
	c0.15,0.13,0.26,0.32,0.3,0.52c0.04,0.19,0.02,0.4-0.07,0.58c-0.22,0.5-0.43,1.01-0.63,1.52c-0.14,0.37-0.5,0.61-0.89,0.61l0,0
	c-0.55,0-1.1,0-1.64,0l-0.01,2.45c0.56,0.01,1.1,0.01,1.65,0.01l0,0c0.4-0.01,0.77,0.24,0.9,0.62c0.2,0.51,0.41,1.01,0.63,1.51
	c0.09,0.19,0.11,0.39,0.07,0.59s-0.15,0.38-0.3,0.51c-0.09,0.08-0.5,0.5-1.12,1.11l1.73,1.75l0.11-0.1l1.03-1.03
	c0.29-0.29,0.73-0.37,1.1-0.21c0.46,0.21,0.93,0.41,1.41,0.59c0.43,0.16,0.71,0.57,0.71,1.03c-0.01,0.48-0.01,0.95-0.01,1.43v0.1
	h0.01c0.09,0.02,0.18,0.03,0.27,0.03h2.31c-0.01-0.36,0-0.46,0-0.82c0-0.75-0.3-1.42,0.53-1.75c0.49-0.19,0.97-0.39,1.45-0.6
	c0.19-0.09,0.4-0.12,0.6-0.08c0.21,0.04,0.39,0.15,0.53,0.31c0.08,0.08,0.5,0.5,1.11,1.11l1.75-1.73c-0.62-0.63-1.04-1.04-1.12-1.12
	c-0.16-0.13-0.27-0.32-0.31-0.52c-0.04-0.2-0.01-0.41,0.08-0.59c0.22-0.49,0.43-0.99,0.62-1.5c0.14-0.38,0.51-0.63,0.92-0.62
	c0.54,0.01,1.08,0.01,1.63,0l0.01-2.45c-0.55-0.01-1.1-0.01-1.64-0.01c-0.4-0.01-0.76-0.25-0.92-0.62c-0.19-0.49-0.39-0.98-0.6-1.46
	c-0.2-0.39-0.11-0.86,0.21-1.16c0.38-0.37,0.75-0.75,1.13-1.12 M8.05,19.34L8.05,19.34L8.05,19.34z M8.63,19.22L8.63,19.22
	L8.63,19.22z M15.35,19.19L15.35,19.19z M19.18,15.32l0.03,0.03L19.18,15.32z M19.49,14.72L19.49,14.72z M19.99,14.38L19.99,14.38z
	 M19.5,9.26L19.5,9.26z M4.81,8.66L4.81,8.66L4.81,8.66z M8.68,4.81L8.68,4.81z M15.34,4.8l-0.01,0.01L15.34,4.8z M9.27,4.51
	L9.27,4.51z M12,16.71h-0.01c-1.25,0-2.45-0.5-3.32-1.39c-0.89-0.89-1.38-2.09-1.38-3.34c0.01-2.6,2.12-4.7,4.71-4.7h0.01
	c2.6,0.01,4.7,2.12,4.7,4.71c0,1.25-0.5,2.45-1.39,3.33C14.44,16.21,13.25,16.71,12,16.71z M12,8.78c-1.77,0-3.21,1.43-3.22,3.2
	c0,0.85,0.33,1.68,0.94,2.28c0.6,0.61,1.41,0.95,2.26,0.95H12c0.85,0,1.67-0.34,2.27-0.94c0.61-0.6,0.95-1.42,0.95-2.27
	c0-1.77-1.43-3.2-3.2-3.21L12,8.78L12,8.78z"/>
</svg>
