<?xml version="1.0" encoding="utf-8"?>
<!-- Generator: Adobe Illustrator 25.4.1, SVG Export Plug-In . SVG Version: 6.00 Build 0)  -->
<svg version="1.1" id="Layer_1" xmlns="http://www.w3.org/2000/svg" xmlns:xlink="http://www.w3.org/1999/xlink" x="0px" y="0px"
	 viewBox="0 0 24 24" style="enable-background:new 0 0 24 24;" xml:space="preserve">
<style type="text/css">
	.st0{fill:#FFFFFF;}
</style>
<g id="Layer_9">
	<g id="Settings_Enabled_00000113352409239930400370000006780436820047364543_">
		<path id="Path_76_00000170992129378696120710000010465975339360201093_" class="st0" d="M21.13,9.26c-0.42,0-0.85,0-1.28,0
			c-0.12-0.3-0.24-0.6-0.37-0.9c0.3-0.3,0.6-0.6,0.9-0.89c0.59-0.59,0.59-1.55,0-2.14l-1.72-1.72c-0.59-0.59-1.54-0.59-2.13,0
			c-0.38,0.38-0.69,0.69-0.9,0.9c-0.29-0.13-0.59-0.25-0.89-0.37V2.86c0-0.83-0.68-1.51-1.51-1.51h-2.45
			c-0.83,0-1.51,0.68-1.51,1.51v1.25c-0.31,0.1-0.62,0.23-0.91,0.38C8.18,4.32,7.91,4.05,7.49,3.63c-0.59-0.58-1.54-0.58-2.13,0
			L3.63,5.35c-0.58,0.59-0.58,1.54,0,2.13C4.07,7.93,4.34,8.2,4.51,8.37c-0.13,0.3-0.25,0.59-0.37,0.89c-0.43,0-0.85,0-1.28,0
			c-0.83,0-1.51,0.68-1.51,1.51v2.44c0,0.83,0.68,1.51,1.51,1.51c0.43,0,0.85,0,1.28,0c0.12,0.3,0.24,0.59,0.37,0.89
			C4.31,15.82,4,16.13,3.63,16.5c-0.59,0.59-0.59,1.55,0,2.14l1.73,1.73c0.28,0.28,0.67,0.44,1.07,0.44l0,0
			c0.4,0,0.78-0.16,1.06-0.44c0.29-0.29,0.59-0.59,0.89-0.89c0.3,0.13,0.6,0.26,0.9,0.38c-0.01,0.43,0,0.85,0,1.28
			c0.04,0.87,0.77,1.55,1.65,1.52c0.04,0,0.09-0.01,0.13-0.01h2.47c0.45,0,0.88-0.2,1.16-0.55c0.29-0.35,0.4-0.81,0.32-1.25
			c-0.07-0.35-0.12-0.62-0.17-0.83c-0.01-0.07-0.03-0.13-0.04-0.18c0.28-0.11,0.56-0.23,0.84-0.35c0.21,0.21,0.51,0.52,0.89,0.89
			c0.59,0.59,1.54,0.59,2.14,0l1.73-1.73c0.29-0.28,0.45-0.67,0.44-1.08c0-0.4-0.16-0.79-0.45-1.08c-0.38-0.37-0.68-0.67-0.89-0.87
			c0.13-0.3,0.25-0.59,0.37-0.89c0.43,0,0.85,0,1.28,0c0.83,0,1.51-0.68,1.51-1.51v-2.44C22.65,9.94,21.97,9.26,21.13,9.26z
			 M15.21,11.99c0,0.85-0.34,1.67-0.95,2.27c-0.6,0.6-1.42,0.94-2.27,0.94h-0.01c-0.85,0-1.67-0.34-2.26-0.95
			c-0.61-0.6-0.94-1.42-0.94-2.28c0.01-1.77,1.45-3.2,3.22-3.2h0.01C13.78,8.78,15.22,10.22,15.21,11.99z"/>
	</g>
</g>
</svg>
