<?xml version="1.0" encoding="utf-8"?>
<!-- Generator: Adobe Illustrator 25.4.1, SVG Export Plug-In . SVG Version: 6.00 Build 0)  -->
<svg version="1.1" id="Layer_1" xmlns="http://www.w3.org/2000/svg" xmlns:xlink="http://www.w3.org/1999/xlink" x="0px" y="0px"
	 viewBox="0 0 24 24" style="enable-background:new 0 0 24 24;" xml:space="preserve">
<style type="text/css">
	.st0{fill:#FFFFFF;}
</style>
<g id="Process">
	<path class="st0" d="M15.14,8.04c-0.17,0-0.34,0.01-0.51,0.03V7.28c1.21-0.34,2.11-1.44,2.11-2.75c0-1.58-1.3-2.87-2.89-2.87
		s-2.89,1.29-2.89,2.87c0,1.33,0.92,2.45,2.17,2.77v1.03c-1.82,0.54-3.34,1.79-4.24,3.44H7.33v-0.71c0-0.33-0.13-0.63-0.36-0.87
		C6.74,9.97,6.44,9.82,6.1,9.84H5.39V7.29c1.23-0.33,2.14-1.44,2.14-2.76c0-1.58-1.3-2.87-2.89-2.87S1.75,2.95,1.75,4.53
		c0,1.32,0.91,2.43,2.14,2.76v2.55H3.18c0,0,0,0-0.01,0c-0.33,0-0.63,0.13-0.86,0.35c-0.23,0.23-0.36,0.54-0.37,0.87v2.9
		c0,0.33,0.13,0.64,0.36,0.87s0.54,0.36,0.86,0.36l0,0H6.1l0,0c0.67,0,1.22-0.55,1.23-1.23v-0.7H8.3c-0.17,0.61-0.27,1.25-0.27,1.92
		c0,3.94,3.19,7.15,7.11,7.15s7.11-3.21,7.11-7.15S19.06,8.04,15.14,8.04z M3.25,4.53c0-0.76,0.62-1.37,1.39-1.37
		s1.39,0.61,1.39,1.37S5.4,5.9,4.64,5.9S3.25,5.29,3.25,4.53z M5.83,13.7H3.44v-2.36h2.39V13.7z M12.46,4.53
		c0-0.76,0.62-1.37,1.39-1.37s1.39,0.61,1.39,1.37S14.62,5.9,13.85,5.9C13.09,5.9,12.46,5.29,12.46,4.53z M18.09,13.67
		c0,0.14-0.11,0.25-0.25,0.25h-1.95v4.86c0,0.14-0.11,0.25-0.25,0.25h-1c-0.14,0-0.25-0.11-0.25-0.25v-4.86h-1.95
		c-0.14,0-0.25-0.11-0.25-0.25v-1c0-0.14,0.11-0.25,0.25-0.25h5.41c0.14,0,0.25,0.11,0.25,0.25v1H18.09z"/>
</g>
</svg>
