<svg xmlns="http://www.w3.org/2000/svg" width="32" height="32" viewBox="0 0 32 32">
  <defs>
    <style>
      .cls-1 {
        fill: #f2f2f2;
      }

      .cls-2 {
        fill: #606060;
        stroke: #f2f2f2;
        stroke-width: 1.5px;
      }
    </style>
  </defs>
  <g id="Group_62961" data-name="Group 62961" transform="translate(-25 -126)">
    <rect id="Rectangle_18581" data-name="Rectangle 18581" class="cls-1" width="32" height="32" rx="4" transform="translate(25 126)"/>
    <path id="Icon_awesome-search" data-name="Icon awesome-search" class="cls-2" d="M17.752,15.562l-3.5-3.5a.843.843,0,0,0-.6-.246h-.573a7.308,7.308,0,1,0-1.266,1.266v.573a.843.843,0,0,0,.246.6l3.5,3.5a.84.84,0,0,0,1.192,0l.995-.995a.848.848,0,0,0,0-1.2ZM7.312,11.811a4.5,4.5,0,1,1,4.5-4.5A4.5,4.5,0,0,1,7.312,11.811Z" transform="translate(32.5 133.5)"/>
  </g>
</svg>
