<?xml version="1.0" encoding="utf-8"?>
<!-- Generator: Adobe Illustrator 25.4.1, SVG Export Plug-In . SVG Version: 6.00 Build 0)  -->
<svg version="1.1" id="Layer_1" xmlns="http://www.w3.org/2000/svg" xmlns:xlink="http://www.w3.org/1999/xlink" x="0px" y="0px"
	 viewBox="0 0 20 20" style="enable-background:new 0 0 20 20;" xml:space="preserve">
<style type="text/css">
	.st0{fill:#0072C6;}
	.st1{fill:none;stroke:#606060;stroke-miterlimit:10;}
	.st2{fill:#606060;}
	.st3{fill:#404040;}
	.st4{fill:#FFFFFF;}
	.st5{fill:none;stroke:#0072C6;stroke-width:0.25;stroke-miterlimit:10;}
	.st6{fill:none;stroke:#0072C6;stroke-width:1.25;stroke-miterlimit:10;}
	.st7{fill:none;stroke:#0072C6;stroke-width:1.5;stroke-miterlimit:10;}
	.st8{fill:none;stroke:#0072C6;stroke-miterlimit:10;}
	.st9{fill:#0072C6;stroke:#0072C6;stroke-width:0.25;stroke-miterlimit:10;}
	.st10{fill:none;stroke:#FFFFFF;stroke-width:1.25;stroke-miterlimit:10;}
	.st11{fill:none;stroke:#FFFFFF;stroke-width:0.75;stroke-miterlimit:10;}
	.st12{fill:none;stroke:#0072C6;stroke-width:0.75;stroke-miterlimit:10;}
	.st13{fill:none;stroke:#606060;stroke-width:0.75;stroke-miterlimit:10;}
	.st14{fill:none;stroke:#FFFFFF;stroke-miterlimit:10;}
	.st15{fill:#DCEBE5;}
	.st16{fill:#367D63;}
	.st17{fill:none;stroke:#367D63;stroke-width:1.5;stroke-linecap:round;stroke-linejoin:round;}
</style>
<g>
	<path class="st15" d="M1.5,10c0-4.6869,3.8131-8.5,8.5-8.5s8.5,3.8131,8.5,8.5s-3.8131,8.5-8.5,8.5S1.5,14.6869,1.5,10z"/>
</g>
<g>
	<path class="st16" d="M18,10c0-4.4112-3.5888-8-8-8s-8,3.5888-8,8s3.5888,8,8,8S18,14.4112,18,10 M19,10c0,4.9706-4.0294,9-9,9
		s-9-4.0294-9-9s4.0294-9,9-9S19,5.0294,19,10z"/>
</g>
<g id="Path_51780_00000075125136470317840060000014350496775372995251_">
	<path class="st16" d="M10,13.3451c-0.1924,0-0.3838-0.0732-0.5303-0.2197l-4-4c-0.293-0.293-0.293-0.7676,0-1.0605
		s0.7676-0.293,1.0605,0L10,11.5345l3.4697-3.4697c0.293-0.293,0.7676-0.293,1.0605,0s0.293,0.7676,0,1.0605l-4,4
		C10.3838,13.2718,10.1924,13.3451,10,13.3451z"/>
</g>
</svg>
