<svg xmlns="http://www.w3.org/2000/svg" width="100.749" height="94.751" viewBox="0 0 100.749 94.751">
  <g id="Group_57295" data-name="Group 57295" transform="translate(-939.251 -219.249)">
    <g id="Group_57292" data-name="Group 57292" transform="translate(1059.559 -7049.417)" opacity="0.36">
      <path id="Subtraction_5" data-name="Subtraction 5" d="M25.961,39.212h0a9.576,9.576,0,0,1-1.615-1.29l-16.2-16.2.678-.677a2.88,2.88,0,0,0-4.073-4.073l-.679.677L0,13.576,13.578,0l4.073,4.073-.679.679a2.88,2.88,0,0,0,4.073,4.073l.679-.679,16.2,16.2a9.7,9.7,0,0,1,1.292,1.617L25.962,39.21ZM17.25,15.332h0l-1.919,1.921L28.907,30.828l1.921-1.918L17.25,15.332Z" transform="translate(-80.935 7308.045)" fill="#0072c6"/>
      <path id="Path_53332" data-name="Path 53332" d="M496.6,483.362l-13.251,13.252A9.59,9.59,0,0,0,496.6,483.362Z" transform="translate(-538.327 6850.64)" fill="#0072c6"/>
      <path id="Path_53333" data-name="Path 53333" d="M26.347,20.926l-1.358-5.431-9.5-5.431-5.431,5.431L15.485,25l5.431,1.358L52.143,57.584l5.431-5.431Z" transform="translate(-129.005 7259.963)" fill="#0072c6"/>
      <path id="Subtraction_6" data-name="Subtraction 6" d="M15.034,78.926a15.1,15.1,0,0,1-3.707-.466,15.021,15.021,0,0,1,3.686-29.58,15.062,15.062,0,0,1,3.7.464l30.8-30.792A14.866,14.866,0,0,1,67.6.464L58.554,9.508l2.717,8.147,8.144,2.717,9.046-9.046A14.866,14.866,0,0,1,60.374,29.412L29.582,60.2A15.024,15.024,0,0,1,15.034,78.926Zm-4-23.256a1.377,1.377,0,0,0-1.165.658L5.8,63.118a1.354,1.354,0,0,0,0,1.4l4.074,6.79a1.362,1.362,0,0,0,1.164.658h8.147a1.344,1.344,0,0,0,1.162-.658l4.073-6.79a1.343,1.343,0,0,0,0-1.4l-4.073-6.79a1.373,1.373,0,0,0-1.162-.658ZM53.522,23.485h0L23.652,53.355l1.922,1.921L55.442,25.4l-1.92-1.918Z" transform="translate(-119.124 7270.022)" fill="#40a7f3"/>
      <path id="Path_53335" data-name="Path 53335" d="M557.89,488.534a9.579,9.579,0,0,0-1.521-5.172l-3.91,3.91v9.9A9.592,9.592,0,0,0,557.89,488.534Z" transform="translate(-598.093 6850.64)" fill="#0369b4"/>
      <path id="Path_53336" data-name="Path 53336" d="M.223,7.543l5.431,9.5a1.354,1.354,0,0,0,.849.644l5.067,1.267L28.948,36.337l1.92-1.92L13.218,16.766a1.355,1.355,0,0,0-.63-.357L7.719,15.187l-4.624-8.1L7.059,3.127l8.1,4.628,1.222,4.869a1.36,1.36,0,0,0,.357.631l17.65,17.65,1.92-1.92L18.93,11.607,17.663,6.543a1.354,1.354,0,0,0-.644-.85L7.515.262A1.358,1.358,0,0,0,5.886.48L.455,5.911A1.356,1.356,0,0,0,.223,7.543Z" transform="translate(-120.352 7268.593)" fill="none"/>
      <path id="Path_53338" data-name="Path 53338" d="M65.181,32.588a16.238,16.238,0,0,0,15.793-20.23,1.357,1.357,0,0,0-2.277-.633l-8.452,8.446L63.54,17.937l-2.236-6.7,8.452-8.453A1.359,1.359,0,0,0,69.119.5,16.242,16.242,0,0,0,48.889,16.3a15.951,15.951,0,0,0,.33,3.181L19.485,49.211a16.052,16.052,0,0,0-3.181-.33A16.293,16.293,0,1,0,32.6,65.173a15.951,15.951,0,0,0-.33-3.181l7.118-7.118L42.5,57.987a1.359,1.359,0,0,0,1.92,0l.679-.679a1.523,1.523,0,0,1,2.156,2.151l0,0-.679.679a1.359,1.359,0,0,0,0,1.92l16.2,16.2A10.958,10.958,0,1,0,78.335,62.83l-.071-.071-16.2-16.2a1.359,1.359,0,0,0-1.92,0l-.679.679a1.523,1.523,0,0,1-2.156-2.151l0,0,.679-.679a1.359,1.359,0,0,0,0-1.92l-3.113-3.113L62,32.258A16.054,16.054,0,0,0,65.181,32.588ZM70.516,78.75a8.227,8.227,0,0,1-2.888-.527l10.6-10.6A8.233,8.233,0,0,1,70.516,78.75ZM55.134,43.463a4.237,4.237,0,0,0,5.974,5.966l15.236,15.25c.166.166.32.341.47.519L65.206,76.806c-.178-.149-.353-.3-.519-.47L49.439,61.087a4.237,4.237,0,0,0-5.974-5.966l-2.172-2.172L52.962,41.3Zm5.482-13.656L29.817,60.6a1.357,1.357,0,0,0-.358,1.29,13.669,13.669,0,1,1-9.873-9.873,1.371,1.371,0,0,0,1.29-.358L51.668,20.865a1.36,1.36,0,0,0,.357-1.29A13.513,13.513,0,0,1,65.952,2.74L58.79,9.9a1.357,1.357,0,0,0-.329,1.389l2.715,8.146a1.355,1.355,0,0,0,.859.858l8.146,2.715a1.356,1.356,0,0,0,1.389-.327l7.162-7.162c.016.259.024.516.024.771A13.507,13.507,0,0,1,61.9,29.45a1.36,1.36,0,0,0-1.29.357Z" transform="translate(-120.319 7268.666)" fill="none"/>
    </g>
    <g id="Group_57294" data-name="Group 57294" transform="translate(-4 -3)">
      <g id="Ellipse_2788" data-name="Ellipse 2788" transform="translate(990 263)" fill="rgba(255,255,255,0.6)" stroke="#f60" stroke-width="7">
        <circle cx="27" cy="27" r="27" stroke="none"/>
        <circle cx="27" cy="27" r="23.5" fill="none"/>
      </g>
      <g id="Rectangle_13202" data-name="Rectangle 13202" transform="translate(995.433 273.59) rotate(-45)" fill="#f60" stroke="#f60" stroke-width="1">
        <rect width="8" height="53" stroke="none"/>
        <rect x="0.5" y="0.5" width="7" height="52" fill="none"/>
      </g>
    </g>
  </g>
</svg>
