<?xml version="1.0" encoding="utf-8"?>
<!-- Generator: Adobe Illustrator 25.4.1, SVG Export Plug-In . SVG Version: 6.00 Build 0)  -->
<svg version="1.1" id="Layer_1" xmlns="http://www.w3.org/2000/svg" xmlns:xlink="http://www.w3.org/1999/xlink" x="0px" y="0px"
	 viewBox="0 0 16 16" style="enable-background:new 0 0 16 16;" xml:space="preserve">
<style type="text/css">
	.st0{fill:#FFFFFF;}
</style>
<g>
	<path class="st0" d="M14.9219,1.1606c-1.3037-1.2812-3.9121-0.2031-4.8955,0.2036c-1.7158,0.709-3.2217,1.9316-4.3706,3.5454
		c-0.0059,0-0.0122,0-0.0186,0c-0.5806,0-1.3525,0.1113-2.1538,0.5454C2.4106,6.0376,1.8501,6.9116,1.6108,7.3804L1.394,7.8066
		l2.7134,1.5361C4.122,9.442,4.1475,9.5596,4.178,9.6809l-2.1653,2.1648c-0.1953,0.1953-0.1953,0.5117,0,0.707
		c0.0977,0.0977,0.2256,0.1465,0.3535,0.1465s0.2559-0.0488,0.3535-0.1465l1.8865-1.886c0.1171,0.1808,0.2557,0.361,0.4304,0.5335
		c0.0515,0.0507,0.106,0.0822,0.1586,0.1276l-3.3729,3.3734c-0.1953,0.1953-0.1953,0.5117,0,0.707
		c0.0977,0.0977,0.2256,0.1465,0.3535,0.1465s0.2559-0.0488,0.3535-0.1465l3.5314-3.5318c0.3194,0.132,0.6172,0.1975,0.847,0.2271
		l1.5435,2.875l0.4712-0.3984c0.4946-0.418,0.9263-0.9014,1.2827-1.4375c0.5068-0.7607,0.8516-1.6064,1.0273-2.5137
		c0.0205-0.1055,0.0059-0.209-0.0352-0.2998c1.2891-0.8906,2.5918-2.167,3.4229-3.9624
		C15.2754,4.9551,16.1855,2.4023,14.9219,1.1606z M13.7129,5.9458c-1.1318,2.4429-3.2607,3.8296-4.8472,4.562
		c-0.251,0.1162-0.3604,0.4131-0.2446,0.6641c0.1162,0.251,0.4131,0.3584,0.6641,0.2441c0.2646-0.1221,0.543-0.2617,0.8301-0.4189
		c-0.167,0.5664-0.415,1.0996-0.7422,1.5908c-0.1895,0.2852-0.4038,0.5527-0.6406,0.8008l-1.209-2.252l-0.2891-0.0088
		c-0.1119-0.0032-0.379-0.0332-0.6896-0.1443c-0.0242-0.0672-0.0598-0.1309-0.1136-0.1848
		c-0.1228-0.1228-0.292-0.1592-0.4503-0.1276c-0.0813-0.0595-0.1641-0.1062-0.2421-0.1829
		C5.1826,9.9385,5.0913,9.2715,5.0781,9.0098L5.064,8.7354l-2.3154-1.311C2.9941,7.0723,3.3813,6.6484,3.9604,6.334
		C4.7402,5.9111,5.4956,5.8892,5.877,5.918l0.2871,0.0195l0.1611-0.2388c1.0571-1.564,2.4692-2.7432,4.084-3.4106
		c1.9766-0.8174,3.2598-0.9565,3.8115-0.4146C14.8066,2.4492,14.6123,4.0093,13.7129,5.9458z"/>
	<path class="st0" d="M11.2881,3.1226c-0.9248,0-1.6777,0.7524-1.6777,1.6777s0.7529,1.6777,1.6777,1.6777
		s1.6777-0.7524,1.6777-1.6777S12.2129,3.1226,11.2881,3.1226z M11.2881,5.478c-0.374,0-0.6777-0.3042-0.6777-0.6777
		s0.3037-0.6777,0.6777-0.6777s0.6777,0.3042,0.6777,0.6777S11.6621,5.478,11.2881,5.478z"/>
</g>
</svg>
