<?xml version="1.0" encoding="utf-8"?>
<!-- Generator: Adobe Illustrator 25.4.1, SVG Export Plug-In . SVG Version: 6.00 Build 0)  -->
<svg version="1.1" id="Layer_1" xmlns="http://www.w3.org/2000/svg" xmlns:xlink="http://www.w3.org/1999/xlink" x="0px" y="0px"
	 viewBox="0 0 20 20" style="enable-background:new 0 0 20 20;" xml:space="preserve">
<style type="text/css">
	.st0{fill:#606060;stroke:#606060;stroke-width:0.5;}
</style>
<g id="Layer_1_00000165201823510128181190000011748719355506172289_">
	<g id="Group_62218" transform="translate(834.101 64.125)">
		<path id="Path_55553" class="st0" d="M-827.462-57.8122c0.0976,0.0973,0.2554,0.0973,0.353,0l2.508-2.503v10.831
			c0,0.1381,0.1119,0.25,0.25,0.25h0.5c0.1381,0,0.25-0.1119,0.25-0.25v-10.83l2.508,2.508c0.0976,0.0973,0.2554,0.0973,0.353,0
			l0.354-0.354c0.0972-0.0976,0.0972-0.2554,0-0.353l-3.538-3.539c-0.0981-0.0968-0.2559-0.0968-0.354,0l-3.538,3.533
			c-0.0972,0.0976-0.0972,0.2554,0,0.353L-827.462-57.8122z"/>
		<path id="Path_55554" class="st0" d="M-816.351-52.3762h-0.5c-0.1381,0-0.25,0.1119-0.25,0.25c0,0.0003,0,0.0007,0,0.001v5h-14v-5
			c0-0.1381-0.1119-0.25-0.25-0.25h-0.5c-0.1381,0-0.25,0.1119-0.25,0.25v5c0,0.5523,0.4477,1,1,1h14c0.5523,0,1-0.4477,1-1v-5
			c0.0005-0.1381-0.1109-0.2504-0.249-0.251C-816.3503-52.3762-816.3507-52.3762-816.351-52.3762z"/>
	</g>
</g>
</svg>
