<?xml version="1.0" encoding="utf-8"?>
<!-- Generator: Adobe Illustrator 25.4.1, SVG Export Plug-In . SVG Version: 6.00 Build 0)  -->
<svg version="1.1" id="Layer_1" xmlns="http://www.w3.org/2000/svg" xmlns:xlink="http://www.w3.org/1999/xlink" x="0px" y="0px"
	 viewBox="0 0 16 16" style="enable-background:new 0 0 16 16;" xml:space="preserve">
<style type="text/css">
	.st0{fill:#616160;stroke:#606060;stroke-width:0.25;}
	.st1{fill:#626261;stroke:#606060;stroke-width:0.25;}
</style>
<g id="Layer_1_00000089531715908159036730000008989048590658336163_">
	<g id="Icons-2" transform="translate(-0.768 307.103)">
		<path id="Path_55547-2" class="st0" d="M7.7637-295.9452l-2.085,2.083v-12.062c-0.0022-0.1387-0.1153-0.25-0.254-0.25h-0.5
			c-0.1403,0-0.254,0.1137-0.254,0.254v12.061l-2.089-2.09c-0.0992-0.0991-0.2598-0.0991-0.359,0l-0.356,0.356
			c-0.0989,0.0988-0.099,0.2589-0.0002,0.3578c0.0001,0.0001,0.0001,0.0002,0.0002,0.0002l3.129,3.13
			c0.0987,0.0988,0.2589,0.0989,0.3578,0.0002c0.0001-0.0001,0.0001-0.0002,0.0002-0.0002l3.128-3.125
			c0.0991-0.0992,0.0991-0.2598,0-0.359l-0.355-0.356c-0.0981-0.1003-0.2589-0.102-0.3592-0.0038
			C7.7662-295.9478,7.765-295.9465,7.7637-295.9452z"/>
		<g id="Group_62214-2">
			<path id="Path_55548-2" class="st1" d="M13.6727-305.8072c-0.1499-0.3195-0.5304-0.457-0.8499-0.3071
				c-0.1351,0.0634-0.2437,0.172-0.3071,0.3071l-2.059,5.645c-0.0482,0.1334,0.0207,0.2806,0.154,0.329l0.472,0.173
				c0.1334,0.0482,0.2806-0.0207,0.329-0.154l0.591-1.622h2.177l0.593,1.622c0.0488,0.1329,0.1957,0.2017,0.329,0.154l0.473-0.173
				c0.1329-0.0482,0.2016-0.195,0.1534-0.3279c-0.0001-0.0004-0.0003-0.0007-0.0004-0.0011L13.6727-305.8072z M12.3727-302.4362
				l0.719-1.988l0.724,1.988H12.3727z"/>
		</g>
		<g id="Group_62216-2">
			<g id="Group_62215-2">
				<path id="Path_55549-2" class="st1" d="M11.2727-292.0742c-0.3314,0.0008-0.6006-0.2673-0.6014-0.5986
					c-0.0003-0.1458,0.0524-0.2867,0.1484-0.3964l3.207-3.65l-3.233,0.02c-0.1375,0.0011-0.2499-0.1095-0.251-0.247
					c0-0.0006,0-0.0013,0-0.002v-0.5c-0.0011-0.1375,0.1095-0.2499,0.247-0.251c0.0003,0,0.0007,0,0.001,0l4.123-0.025l0,0
					c0.3314-0.001,0.6008,0.2668,0.6018,0.5982c0.0004,0.1482-0.054,0.2913-0.1528,0.4018l-3.2,3.645l3.224-0.02
					c0.138,0,0.2504,0.111,0.252,0.249v0.5c0,0.138-0.111,0.2504-0.249,0.252L11.2727-292.0742z M14.6137-297.3882v0.005V-297.3882z
					"/>
			</g>
		</g>
	</g>
</g>
</svg>
