<?xml version="1.0" encoding="utf-8"?>
<!-- Generator: Adobe Illustrator 25.4.1, SVG Export Plug-In . SVG Version: 6.00 Build 0)  -->
<svg version="1.1" id="Layer_1" xmlns="http://www.w3.org/2000/svg" xmlns:xlink="http://www.w3.org/1999/xlink" x="0px" y="0px"
	 viewBox="0 0 20 20" style="enable-background:new 0 0 20 20;" xml:space="preserve">
<style type="text/css">
	.st0{fill:#606060;stroke:#606060;stroke-width:0.25;}
</style>
<g id="Layer_1_00000080922891586717174340000017996265447931154863_">
	<path id="Path_55551" class="st0" d="M14.9088,13.469c-0.5305,0.0018-1.0429,0.193-1.445,0.539l-6.135-3.562
		c0.005-0.063,0.019-0.124,0.019-0.188C7.3465,9.9742,7.2912,9.6931,7.1848,9.43l6.13-3.559
		c0.8768,0.8798,2.3008,0.8822,3.1806,0.0054c0.8798-0.8768,0.8822-2.3008,0.0054-3.1806C15.624,1.8161,14.2,1.8137,13.3202,2.6904
		c-0.4226,0.4211-0.6605,0.9929-0.6614,1.5896c0.0029,0.2504,0.0479,0.4985,0.133,0.734l-6.181,3.588
		c-0.915-0.84-2.3377-0.7792-3.1777,0.1357s-0.7792,2.3377,0.1357,3.1777s2.3377,0.7792,3.1777-0.1357
		c0.1015-0.1106,0.1917-0.2311,0.2693-0.3597l5.838,3.39c-0.5009,1.136,0.0139,2.463,1.1499,2.9639s2.463-0.0139,2.9639-1.1499
		s-0.0139-2.463-1.1499-2.9639C15.5313,13.5338,15.2217,13.4687,14.9088,13.469z"/>
</g>
</svg>
