<svg xmlns="http://www.w3.org/2000/svg" width="13.23" height="13.23" viewBox="0 0 13.23 13.23">
  <path id="Icon_awesome-sort-alpha-down" data-name="Icon awesome-sort-alpha-down" d="M5.2,11.7H3.78V2.723a.473.473,0,0,0-.473-.473H2.363a.473.473,0,0,0-.473.473V11.7H.473a.473.473,0,0,0-.333.807L2.5,15.342a.473.473,0,0,0,.668,0l2.363-2.835A.473.473,0,0,0,5.2,11.7Zm7.088-1.89H8.505a.473.473,0,0,0-.473.473v.945a.473.473,0,0,0,.473.473h1.654L8.35,13.781a.945.945,0,0,0-.317.706v.521a.473.473,0,0,0,.473.473h3.78a.473.473,0,0,0,.473-.473v-.945a.473.473,0,0,0-.473-.473H10.632l1.809-2.081a.945.945,0,0,0,.317-.706v-.521A.473.473,0,0,0,12.286,9.81ZM13.2,7.289l-1.75-4.725a.473.473,0,0,0-.445-.314H9.784a.473.473,0,0,0-.445.314L7.588,7.289a.473.473,0,0,0,.445.631h.733a.473.473,0,0,0,.45-.327l.131-.382h2.1l.13.382a.473.473,0,0,0,.451.327h.734a.473.473,0,0,0,.445-.631ZM9.911,5.558,10.4,4.14l.484,1.418Z" transform="translate(0 -2.25)"/>
</svg>
