<?xml version="1.0" encoding="utf-8"?>
<!-- Generator: Adobe Illustrator 25.4.1, SVG Export Plug-In . SVG Version: 6.00 Build 0)  -->
<svg version="1.1" id="Layer_1" xmlns="http://www.w3.org/2000/svg" xmlns:xlink="http://www.w3.org/1999/xlink" x="0px" y="0px"
	 viewBox="0 0 16 16" style="enable-background:new 0 0 16 16;" xml:space="preserve">
<style type="text/css">
	.st0{fill:#0072C6;}
	.st1{fill:none;stroke:#606060;stroke-miterlimit:10;}
	.st2{fill:#606060;}
	.st3{fill:#FFFFFF;}
	.st4{fill:none;stroke:#0072C6;stroke-width:0.25;stroke-miterlimit:10;}
	.st5{fill:none;stroke:#0072C6;stroke-width:1.25;stroke-miterlimit:10;}
	.st6{fill:none;stroke:#0072C6;stroke-width:1.5;stroke-miterlimit:10;}
	.st7{fill:none;stroke:#0072C6;stroke-miterlimit:10;}
	.st8{fill:#0072C6;stroke:#0072C6;stroke-width:0.25;stroke-miterlimit:10;}
	.st9{fill:none;stroke:#FFFFFF;stroke-width:1.25;stroke-miterlimit:10;}
</style>
<path class="st0" d="M13.9626,8.0138c1.7478-1.7839,1.7406-4.6549-0.0294-6.4259C13.0699,0.7246,11.9234,0.25,10.7027,0.25
	c-1.2054,0-2.3361,0.4664-3.1946,1.3093L7.5074,1.5586L7.5007,1.5652c-0.0086,0.0085-0.019,0.0141-0.0275,0.0226l0.0024,0.0024
	L0.7291,8.3379l1.0605,1.0605L8.559,2.6281c1.1618-1.1351,3.1613-1.1301,4.3137,0.0203c1.1946,1.1956,1.1956,3.1389,0.0043,4.3356
	l-6.7504,6.7523c-0.6621,0.6641-1.8164,0.6621-2.4785,0c-0.6836-0.6836-0.6836-1.7959,0-2.4795l0,0l6.7003-6.7012
	c0.2148-0.2148,0.5634-0.2139,0.7763-0.001c0.2148,0.2139,0.2148,0.5635,0,0.7773l0,0l-6.7383,6.7402l1.0605,1.0605l6.7393-6.7412
	l0.001,0.001c0.0032-0.0032,0.0052-0.0071,0.0084-0.0104l0.097-0.097l-0.0099-0.0099c0.691-0.804,0.6649-2.0188-0.0965-2.782
	C11.4238,2.7327,10.209,2.7066,9.405,3.3976L9.3951,3.3877L9.2983,3.4846C9.295,3.4878,9.2909,3.4899,9.2876,3.4932l0.001,0.001
	l-6.7393,6.7402l0.0038,0.0038c-1.2297,1.2715-1.2213,3.3032,0.0342,4.5587C3.2007,15.4111,4.0181,15.75,4.8873,15.75
	c0.8682,0,1.6855-0.3389,2.2998-0.9531l6.7456-6.7476l0.0005,0.0005c0.0016-0.0016,0.0027-0.0036,0.0043-0.0052l0.0279-0.028
	L13.9626,8.0138z"/>
</svg>
