<?xml version="1.0" encoding="utf-8"?>
<!-- Generator: Adobe Illustrator 25.4.1, SVG Export Plug-In . SVG Version: 6.00 Build 0)  -->
<svg version="1.1" id="Layer_1" xmlns="http://www.w3.org/2000/svg" xmlns:xlink="http://www.w3.org/1999/xlink" x="0px" y="0px"
	 viewBox="0 0 16 16" style="enable-background:new 0 0 16 16;" xml:space="preserve">
<style type="text/css">
	.st0{fill:#0072C6;}
	.st1{fill:none;stroke:#606060;stroke-miterlimit:10;}
	.st2{fill:#606060;}
	.st3{fill:#FFFFFF;}
	.st4{fill:none;stroke:#0072C6;stroke-width:0.25;stroke-miterlimit:10;}
	.st5{fill:none;stroke:#0072C6;stroke-width:1.25;stroke-miterlimit:10;}
	.st6{fill:none;stroke:#0072C6;stroke-width:1.5;stroke-miterlimit:10;}
	.st7{fill:none;stroke:#0072C6;stroke-miterlimit:10;}
	.st8{fill:#0072C6;stroke:#0072C6;stroke-width:0.25;stroke-miterlimit:10;}
	.st9{fill:none;stroke:#FFFFFF;stroke-width:1.25;stroke-miterlimit:10;}
</style>
<path class="st2" d="M13.8226,7.8367c1.6494-1.6863,1.6422-4.3988-0.0296-6.0721c-1.6725-1.6725-4.3852-1.6786-6.0714-0.0289
	L7.7212,1.7354L7.7178,1.7387C7.7079,1.7485,7.6959,1.7548,7.686,1.7646L7.689,1.7676L0.9424,8.5146l0.707,0.707l6.7738-6.7743
	c1.2582-1.2253,3.4181-1.2203,4.6627,0.0243c1.2927,1.2941,1.2932,3.3975,0.0021,4.6917l-6.7482,6.7497
	c-0.7817,0.7803-2.0518,0.7812-2.8325,0c-0.78-0.7805-0.7805-2.0488-0.0021-2.8304L10.21,4.377
	c0.3117-0.3093,0.8173-0.3091,1.1284,0.001c0.3112,0.3112,0.3113,0.8177,0.0009,1.1295L4.6001,12.249l0.707,0.707l6.738-6.7405
	l0.0002,0.0002c0.0007-0.0007,0.0013-0.0017,0.002-0.0024l0.1049-0.105l-0.0106-0.0106c0.595-0.7066,0.5682-1.7615-0.0963-2.4269
	C11.3808,3.0063,10.3248,2.9796,9.619,3.575L9.6084,3.5645L9.5042,3.6686C9.5034,3.6695,9.5023,3.67,9.5015,3.6709l0.0002,0.0002
	l-6.7012,6.7021L2.8003,10.373c-0.0008,0.0008-0.0013,0.0018-0.0021,0.0026l-0.0355,0.0355l0.0036,0.0036
	c-1.1318,1.1739-1.1235,3.0474,0.034,4.2054c0.5854,0.585,1.3545,0.8779,2.123,0.8779c0.769,0,1.5381-0.293,2.1235-0.8779
	l6.7458-6.7473L13.793,7.873c0.0008-0.0008,0.0013-0.0018,0.0021-0.0026l0.0306-0.0306L13.8226,7.8367z"/>
</svg>
