<?xml version="1.0" encoding="utf-8"?>
<!-- Generator: Adobe Illustrator 25.4.1, SVG Export Plug-In . SVG Version: 6.00 Build 0)  -->
<svg version="1.1" id="Layer_1" xmlns="http://www.w3.org/2000/svg" xmlns:xlink="http://www.w3.org/1999/xlink" x="0px" y="0px"
	 viewBox="0 0 16 16" style="enable-background:new 0 0 16 16;" xml:space="preserve">
<style type="text/css">
	.st0{fill:#0072C6;}
	.st1{fill:none;stroke:#606060;stroke-miterlimit:10;}
	.st2{fill:#606060;}
	.st3{fill:#FFFFFF;}
	.st4{fill:none;stroke:#0072C6;stroke-width:0.25;stroke-miterlimit:10;}
	.st5{fill:none;stroke:#0072C6;stroke-width:1.25;stroke-miterlimit:10;}
	.st6{fill:none;stroke:#0072C6;stroke-width:1.5;stroke-miterlimit:10;}
	.st7{fill:none;stroke:#0072C6;stroke-miterlimit:10;}
	.st8{fill:#0072C6;stroke:#0072C6;stroke-width:0.25;stroke-miterlimit:10;}
	.st9{fill:none;stroke:#FFFFFF;stroke-width:1.25;stroke-miterlimit:10;}
</style>
<g>
	<path class="st0" d="M14.5484,2.0156l-0.0645-0.5938l-0.5928-0.0708c-2.0215-0.2422-4.0723-0.3691-6.1035-0.3506
		C5.9058,1.0093,4.0035,1.127,2.1343,1.3511L1.5464,1.4214L1.4781,2.0093c-0.2158,1.8564-0.3311,3.749-0.3418,5.624
		c-0.0107,2.0547,0.1045,4.1328,0.3418,6.1768l0.0645,0.5513l0.5459,0.1001C4.0386,14.8188,6.0318,15,8.0162,15
		c0.0137,0,0.0283,0,0.042,0c1.9678-0.0024,3.9463-0.1841,5.8799-0.5386l0.5498-0.1011l0.0605-0.5562
		c0.2178-2.021,0.3232-4.084,0.3154-6.1323C14.856,5.7891,14.7496,3.8857,14.5484,2.0156z M13.1138,13.082
		c-1.668,0.2754-3.3672,0.4155-5.0576,0.418c-0.0137,0-0.0273,0-0.04,0c-1.708,0-3.4238-0.1406-5.1094-0.4185
		c-0.1895-1.8047-0.2803-3.6318-0.2705-5.4399C2.646,6.02,2.7349,4.3853,2.9029,2.7734C4.525,2.5996,6.1675,2.5078,7.7955,2.5005
		c1.7441-0.021,3.5547,0.0835,5.3223,0.2725c0.1562,1.6265,0.2393,3.2739,0.2461,4.9053
		C13.3707,9.4814,13.2867,11.2964,13.1138,13.082z"/>
	<polygon class="st0" points="8.7496,6.5977 7.2496,6.5977 7.2486,10.5562 6.4976,10.5562 6.3775,10.5562 6.3775,12.0562 
		6.4976,12.0562 8.7486,12.0562 9.772,12.0562 9.772,10.5562 8.7488,10.5562 	"/>
	<path class="st0" d="M7.9351,5.6924c0.5254,0,0.9521-0.4268,0.9521-0.9517S8.4605,3.7891,7.9351,3.7891
		c-0.5244,0-0.9512,0.4268-0.9512,0.9517S7.4107,5.6924,7.9351,5.6924z"/>
</g>
</svg>
