<?xml version="1.0" encoding="utf-8"?>
<!-- Generator: Adobe Illustrator 25.4.1, SVG Export Plug-In . SVG Version: 6.00 Build 0)  -->
<svg version="1.1" id="Layer_1" xmlns="http://www.w3.org/2000/svg" xmlns:xlink="http://www.w3.org/1999/xlink" x="0px" y="0px"
	 viewBox="0 0 16 16" style="enable-background:new 0 0 16 16;" xml:space="preserve">
<style type="text/css">
	.st0{fill:#0072C6;}
	.st1{fill:none;stroke:#606060;stroke-miterlimit:10;}
	.st2{fill:#606060;}
	.st3{fill:#FFFFFF;}
	.st4{fill:none;stroke:#0072C6;stroke-width:0.25;stroke-miterlimit:10;}
	.st5{fill:none;stroke:#0072C6;stroke-width:1.25;stroke-miterlimit:10;}
	.st6{fill:none;stroke:#0072C6;stroke-width:1.5;stroke-miterlimit:10;}
	.st7{fill:none;stroke:#0072C6;stroke-miterlimit:10;}
	.st8{fill:#0072C6;stroke:#0072C6;stroke-width:0.25;stroke-miterlimit:10;}
	.st9{fill:none;stroke:#FFFFFF;stroke-width:1.25;stroke-miterlimit:10;}
</style>
<g>
	<path class="st2" d="M14.5454,1.8057l-0.0425-0.3955l-0.3955-0.0474c-2.0942-0.2495-4.2236-0.3672-6.3418-0.3623
		c-1.9565,0.0088-3.9331,0.1309-5.875,0.3623L1.499,1.4097L1.4531,1.8013C1.2275,3.7256,1.1079,5.6831,1.0977,7.6196
		c-0.0117,2.1299,0.1079,4.2803,0.3555,6.3911l0.043,0.3672l0.3638,0.0664C3.8804,14.813,5.9473,15,8.0034,15
		c0.0137,0,0.0283,0,0.042,0c2.0386-0.0024,4.0884-0.1895,6.0928-0.5557l0.3672-0.0669l0.04-0.3711
		c0.2266-2.0996,0.3369-4.2344,0.3281-6.3467C14.8647,5.7124,14.7544,3.7427,14.5454,1.8057z M13.5903,13.5259
		C11.7617,13.8384,9.8984,13.9976,8.0444,14c-1.8486,0.0068-3.7812-0.1572-5.6401-0.4746C2.1899,11.5732,2.0869,9.5903,2.0977,7.625
		c0.0093-1.7681,0.1118-3.5537,0.3042-5.3145c1.7773-0.1978,3.5815-0.3018,5.3687-0.3101c1.9307-0.0112,3.896,0.0952,5.8223,0.3096
		c0.1787,1.7749,0.2729,3.5737,0.2808,5.354C13.8818,9.6138,13.7866,11.584,13.5903,13.5259z"/>
	<polygon class="st2" points="8.4854,6.5977 7.4854,6.5977 7.4839,10.8062 6.4829,10.8062 6.3633,10.8062 6.3633,11.8062 
		6.4829,11.8062 8.4839,11.8062 9.7578,11.8062 9.7578,10.8062 8.4842,10.8062 	"/>
	<path class="st2" d="M7.9207,5.5674c0.4565,0,0.8267-0.3701,0.8267-0.8267c0-0.4566-0.3701-0.8267-0.8267-0.8267
		c-0.4566,0-0.8267,0.3701-0.8267,0.8267C7.094,5.1973,7.4641,5.5674,7.9207,5.5674z"/>
</g>
</svg>
