<?xml version="1.0" encoding="utf-8"?>
<!-- Generator: Adobe Illustrator 25.4.1, SVG Export Plug-In . SVG Version: 6.00 Build 0)  -->
<svg version="1.1" id="Layer_1" xmlns="http://www.w3.org/2000/svg" xmlns:xlink="http://www.w3.org/1999/xlink" x="0px" y="0px"
	 viewBox="0 0 16 16" style="enable-background:new 0 0 16 16;" xml:space="preserve">
<style type="text/css">
	.st0{fill:#0072C6;}
	.st1{fill:none;stroke:#606060;stroke-miterlimit:10;}
	.st2{fill:#606060;}
	.st3{fill:#FFFFFF;}
	.st4{fill:none;stroke:#0072C6;stroke-width:0.25;stroke-miterlimit:10;}
	.st5{fill:none;stroke:#0072C6;stroke-width:1.25;stroke-miterlimit:10;}
	.st6{fill:none;stroke:#0072C6;stroke-width:1.5;stroke-miterlimit:10;}
	.st7{fill:none;stroke:#0072C6;stroke-miterlimit:10;}
	.st8{fill:#0072C6;stroke:#0072C6;stroke-width:0.25;stroke-miterlimit:10;}
	.st9{fill:none;stroke:#FFFFFF;stroke-width:1.25;stroke-miterlimit:10;}
</style>
<path class="st0" d="M7.7945,3.4854c2.1461,0.0446,4.2359-0.3412,6.2327-1.1165C12.9904,1.3157,9.9758,1,8.0378,1
	c-1.9201,0-4.8936,0.3113-5.957,1.3411C3.9116,3.0616,5.8323,3.4489,7.7945,3.4854z"/>
<path class="st0" d="M8.0474,10.5469c-0.0918,0-0.1836,0-0.2764-0.002C5.4509,10.5024,3.1068,9.921,1.6724,9.454v3.363
	c0,1.7245,4.0021,2.183,6.3669,2.183c2.3648,0,6.3669-0.4584,6.3669-2.183V9.4102C13.0916,9.8644,10.686,10.5469,8.0474,10.5469z
	 M5.7203,11.8485c-0.0009,0.5727-0.4651,1.0364-1.0377,1.0368c-0.5727,0-1.0372-0.464-1.0376-1.0368
	c-0.0004-0.5731,0.4638-1.038,1.0369-1.0383c0.5731-0.0004,1.038,0.4638,1.0384,1.0369C5.7203,11.8475,5.7203,11.848,5.7203,11.8485
	z"/>
<path class="st0" d="M14.1576,3.6453c-0.6202,0.288-1.4112,0.512-2.3011,0.6728c-1.2318,0.2695-2.4861,0.4202-3.7593,0.4202
	c-0.1084,0-0.2168-0.001-0.3262-0.0029C6.6849,4.7151,5.6103,4.5944,4.5544,4.378c-1.1479-0.1826-2.1671-0.4619-2.882-0.8458v4.3441
	h0.0073c0,0.1108,0.1794,0.2656,0.5026,0.431c1.1197,0.3572,2.7788,0.772,4.525,0.9266c0.4213,0.0234,0.8607,0.0396,1.3322,0.0396
	c0.4694,0,0.9068-0.0162,1.3267-0.0394c1.7238-0.1522,3.424-0.5766,4.7218-1.0331c0.1968-0.1234,0.3184-0.2385,0.3184-0.3246V3.5591
	C14.324,3.5906,14.2402,3.6151,14.1576,3.6453z M4.6826,7.7903C4.1103,7.7899,3.6464,7.3259,3.6464,6.7535
	c0-0.5727,0.4643-1.0369,1.0369-1.0369c0.5727,0,1.0369,0.4642,1.0369,1.0369C5.7198,7.3264,5.2553,7.7903,4.6826,7.7903z"/>
</svg>
