<?xml version="1.0" encoding="utf-8"?>
<!-- Generator: Adobe Illustrator 25.4.1, SVG Export Plug-In . SVG Version: 6.00 Build 0)  -->
<svg version="1.1" id="Layer_1" xmlns="http://www.w3.org/2000/svg" xmlns:xlink="http://www.w3.org/1999/xlink" x="0px" y="0px"
	 viewBox="0 0 16 16" style="enable-background:new 0 0 16 16;" xml:space="preserve">
<style type="text/css">
	.st0{fill:#0072C6;}
	.st1{fill:none;stroke:#606060;stroke-miterlimit:10;}
	.st2{fill:#606060;}
	.st3{fill:#FFFFFF;}
	.st4{fill:none;stroke:#0072C6;stroke-width:0.25;stroke-miterlimit:10;}
	.st5{fill:none;stroke:#0072C6;stroke-width:1.25;stroke-miterlimit:10;}
	.st6{fill:none;stroke:#0072C6;stroke-width:1.5;stroke-miterlimit:10;}
	.st7{fill:none;stroke:#0072C6;stroke-miterlimit:10;}
	.st8{fill:#0072C6;stroke:#0072C6;stroke-width:0.25;stroke-miterlimit:10;}
	.st9{fill:none;stroke:#FFFFFF;stroke-width:1.25;stroke-miterlimit:10;}
</style>
<g id="Classifier_00000117661254029604909520000016229259963758852736_">
	<g id="Path_31_00000066516012996669774800000011694937368556341124_">
		<g>
			<path class="st2" d="M4.6448,5.7807C4.0721,5.7803,3.6076,6.2442,3.6072,6.8168s0.4635,1.0372,1.0362,1.0376
				C5.216,7.8549,5.6806,7.391,5.681,6.8183c0-0.0002,0-0.0005,0-0.0007C5.6802,6.2455,5.2169,5.7819,4.6448,5.7807z"/>
		</g>
	</g>
	<g id="Path_32_00000078011783118614167390000003488234669807231132_">
		<g>
			<path class="st2" d="M4.6448,10.8109c-0.5731-0.0008-1.0383,0.4631-1.0391,1.0362c-0.0008,0.5731,0.4631,1.0383,1.0362,1.0391
				C5.215,12.887,5.6802,12.4231,5.681,11.85c0-0.0005,0-0.001,0-0.0015C5.6802,11.2764,5.217,10.8125,4.6448,10.8109z"/>
		</g>
	</g>
	<g id="Path_33_00000091703331923050853510000016709017375625405582_">
		<g>
			<path class="st2" d="M14.0904,2.4553C13.1445,1.3274,9.9938,1,8,1S2.8555,1.3274,1.9096,2.4553
				C1.7354,2.6582,1.6376,2.9156,1.6331,3.183v9.6341C1.6331,14.5416,5.6351,15,8,15s6.3669-0.4584,6.3669-2.183V3.183
				C14.3624,2.9156,14.2646,2.6582,14.0904,2.4553z M8.0015,2.0915c2.6705,0,4.315,0.4802,4.9626,0.8368
				C11.3487,3.3747,9.6769,3.583,8.0015,3.5468c-1.6725,0.0349-3.3414-0.171-4.9553-0.6112
				C3.6996,2.5717,5.3368,2.0915,8.0015,2.0915z M13.2842,12.8025c-0.1164,0.3129-1.8555,1.106-5.2827,1.106
				c-3.4054,0-5.1372-0.7786-5.2755-1.0988V9.6954c1.7172,0.4755,3.4939,0.701,5.2755,0.6694
				c1.7839,0.032,3.5632-0.1935,5.2827-0.6694V12.8025z M8.0015,9.2734C6.2155,9.3219,4.4336,9.0786,2.726,8.553V3.9688
				c1.7172,0.4755,3.4939,0.701,5.2755,0.6694c1.781,0.0307,3.5573-0.1923,5.2755-0.6622l0.0073,4.5769
				C11.574,9.0779,9.7898,9.3212,8.0015,9.2734z"/>
		</g>
	</g>
</g>
</svg>
