<?xml version="1.0" encoding="utf-8"?>
<!-- Generator: Adobe Illustrator 25.4.1, SVG Export Plug-In . SVG Version: 6.00 Build 0)  -->
<svg version="1.1" xmlns="http://www.w3.org/2000/svg" xmlns:xlink="http://www.w3.org/1999/xlink" x="0px" y="0px"
	 viewBox="0 0 16 16" style="enable-background:new 0 0 16 16;" xml:space="preserve">
<style type="text/css">
	.st0{display:none;}
	.st1{fill:#0072C6;}
	.st2{fill:none;stroke:#606060;stroke-miterlimit:10;}
	.st3{fill:#606060;}
	.st4{fill:#404040;}
	.st5{fill:#FFFFFF;}
	.st6{fill:none;stroke:#0072C6;stroke-width:0.25;stroke-miterlimit:10;}
	.st7{fill:none;stroke:#0072C6;stroke-width:1.25;stroke-miterlimit:10;}
	.st8{fill:none;stroke:#0072C6;stroke-width:1.5;stroke-miterlimit:10;}
	.st9{fill:none;stroke:#0072C6;stroke-miterlimit:10;}
	.st10{fill:#0072C6;stroke:#0072C6;stroke-width:0.25;stroke-miterlimit:10;}
	.st11{fill:none;stroke:#FFFFFF;stroke-width:1.25;stroke-miterlimit:10;}
	.st12{fill:none;stroke:#FFFFFF;stroke-width:0.75;stroke-miterlimit:10;}
	.st13{fill:none;stroke:#0072C6;stroke-width:0.75;stroke-miterlimit:10;}
	.st14{fill:none;stroke:#606060;stroke-width:0.75;stroke-miterlimit:10;}
	.st15{fill:none;stroke:#FFFFFF;stroke-miterlimit:10;}
</style>
<g id="Layer_2" class="st0">
</g>
<g id="Layer_1">
	<g>
		<polygon class="st1" points="5.8545,11.0075 6.9151,12.068 10.9825,7.9997 6.9151,3.9323 5.8545,4.9929 8.084,7.2223 
			1.1202,7.2223 1.1202,8.7223 8.139,8.7223 		"/>
		<path class="st1" d="M11.4405,0.9997H4.5596c-0.9404,0-1.7051,0.7676-1.7051,1.7119v1.6377h1.5V2.7116
			c0-0.1172,0.0918-0.2119,0.2051-0.2119h6.8809c0.1133,0,0.2051,0.0947,0.2051,0.2119v10.5771
			c0,0.1162-0.0918,0.2109-0.2051,0.2109H4.5596c-0.1133,0-0.2051-0.0947-0.2051-0.2109v-1.6602h-1.5v1.6602
			c0,0.9434,0.7646,1.7109,1.7051,1.7109h6.8809c0.9404,0,1.7051-0.7676,1.7051-1.7109V2.7116
			C13.1456,1.7673,12.3809,0.9997,11.4405,0.9997z"/>
	</g>
</g>
</svg>
