<?xml version="1.0" encoding="utf-8"?>
<!-- Generator: Adobe Illustrator 25.4.1, SVG Export Plug-In . SVG Version: 6.00 Build 0)  -->
<svg version="1.1" xmlns="http://www.w3.org/2000/svg" xmlns:xlink="http://www.w3.org/1999/xlink" x="0px" y="0px"
	 viewBox="0 0 16 16" style="enable-background:new 0 0 16 16;" xml:space="preserve">
<style type="text/css">
	.st0{display:none;}
	.st1{fill:#0072C6;}
	.st2{fill:none;stroke:#606060;stroke-miterlimit:10;}
	.st3{fill:#606060;}
	.st4{fill:#404040;}
	.st5{fill:#FFFFFF;}
	.st6{fill:none;stroke:#0072C6;stroke-width:0.25;stroke-miterlimit:10;}
	.st7{fill:none;stroke:#0072C6;stroke-width:1.25;stroke-miterlimit:10;}
	.st8{fill:none;stroke:#0072C6;stroke-width:1.5;stroke-miterlimit:10;}
	.st9{fill:none;stroke:#0072C6;stroke-miterlimit:10;}
	.st10{fill:#0072C6;stroke:#0072C6;stroke-width:0.25;stroke-miterlimit:10;}
	.st11{fill:none;stroke:#FFFFFF;stroke-width:1.25;stroke-miterlimit:10;}
	.st12{fill:none;stroke:#FFFFFF;stroke-width:0.75;stroke-miterlimit:10;}
	.st13{fill:none;stroke:#0072C6;stroke-width:0.75;stroke-miterlimit:10;}
	.st14{fill:none;stroke:#606060;stroke-width:0.75;stroke-miterlimit:10;}
	.st15{fill:none;stroke:#FFFFFF;stroke-miterlimit:10;}
</style>
<g id="Layer_2" class="st0">
</g>
<g id="Layer_1">
	<g>
		<polygon class="st4" points="6.0313,11.1841 6.7383,11.8911 10.629,8 6.7383,4.1089 6.0313,4.8159 8.6871,7.4722 1.1202,7.4722 
			1.1202,8.4722 8.7428,8.4722 		"/>
		<path class="st4" d="M11.6016,1H4.3985c-0.8271,0-1.5,0.6729-1.5,1.5v1.7026h1V2.5c0-0.2759,0.2246-0.5,0.5-0.5h7.2031
			c0.2754,0,0.5,0.2241,0.5,0.5v11c0,0.2759-0.2246,0.5-0.5,0.5H4.3985c-0.2754,0-0.5-0.2241-0.5-0.5v-1.7266h-1V13.5
			c0,0.8271,0.6729,1.5,1.5,1.5h7.2031c0.8271,0,1.5-0.6729,1.5-1.5v-11C13.1016,1.6729,12.4288,1,11.6016,1z"/>
	</g>
</g>
</svg>
