<?xml version="1.0" encoding="utf-8"?>
<!-- Generator: Adobe Illustrator 25.4.1, SVG Export Plug-In . SVG Version: 6.00 Build 0)  -->
<svg version="1.1" id="Layer_1" xmlns="http://www.w3.org/2000/svg" xmlns:xlink="http://www.w3.org/1999/xlink" x="0px" y="0px"
	 viewBox="0 0 16 16" style="enable-background:new 0 0 16 16;" xml:space="preserve">
<style type="text/css">
	.st0{fill:#0072C6;}
	.st1{fill:none;stroke:#606060;stroke-miterlimit:10;}
	.st2{fill:#606060;}
	.st3{fill:#FFFFFF;}
	.st4{fill:none;stroke:#0072C6;stroke-width:0.25;stroke-miterlimit:10;}
	.st5{fill:none;stroke:#0072C6;stroke-width:1.25;stroke-miterlimit:10;}
	.st6{fill:none;stroke:#0072C6;stroke-width:1.5;stroke-miterlimit:10;}
	.st7{fill:none;stroke:#0072C6;stroke-miterlimit:10;}
	.st8{fill:#0072C6;stroke:#0072C6;stroke-width:0.25;stroke-miterlimit:10;}
	.st9{fill:none;stroke:#FFFFFF;stroke-width:1.25;stroke-miterlimit:10;}
</style>
<g id="Group_62468" transform="translate(-1.336 -0.523)">
	<g id="Path_55795">
		<g>
			<polygon class="st0" points="4.6608,5.7935 2.7535,3.8853 3.8141,2.8248 4.6608,3.6724 6.9879,1.3467 8.0485,2.4073 			"/>
		</g>
	</g>
	<g id="Path_55796">
		<g>
			<polygon class="st0" points="4.6608,10.6236 2.7535,8.7154 3.8141,7.6548 4.6608,8.5025 6.9879,6.1768 8.0485,7.2374 			"/>
		</g>
	</g>
	<g id="Line_3331">
		<g>
			
				<rect x="4.4704" y="11.7999" transform="matrix(0.7071 -0.7071 0.7071 0.7071 -8.2103 7.7255)" class="st0" width="1.4998" height="3.9471"/>
		</g>
	</g>
	<g id="Line_3332">
		<g>
			
				<rect x="3.2468" y="13.0236" transform="matrix(0.7071 -0.7071 0.7071 0.7071 -8.2103 7.7255)" class="st0" width="3.9471" height="1.4998"/>
		</g>
	</g>
	<g id="Line_3333">
		<g>
			<rect x="8.7057" y="3.209" class="st0" width="7.2129" height="1.5"/>
		</g>
	</g>
	<g id="Line_3334">
		<g>
			<rect x="8.7057" y="8.2833" class="st0" width="7.2129" height="1.5"/>
		</g>
	</g>
	<g id="Line_3335">
		<g>
			<rect x="8.7057" y="13.2969" class="st0" width="7.2129" height="1.5"/>
		</g>
	</g>
</g>
</svg>
