<?xml version="1.0" encoding="utf-8"?>
<!-- Generator: Adobe Illustrator 25.4.1, SVG Export Plug-In . SVG Version: 6.00 Build 0)  -->
<svg version="1.1" xmlns="http://www.w3.org/2000/svg" xmlns:xlink="http://www.w3.org/1999/xlink" x="0px" y="0px"
	 viewBox="0 0 16 16" style="enable-background:new 0 0 16 16;" xml:space="preserve">
<style type="text/css">
	.st0{display:none;}
	.st1{fill:#0072C6;}
	.st2{fill:none;stroke:#606060;stroke-miterlimit:10;}
	.st3{fill:#606060;}
	.st4{fill:#404040;}
	.st5{fill:#FFFFFF;}
	.st6{fill:none;stroke:#0072C6;stroke-width:0.25;stroke-miterlimit:10;}
	.st7{fill:none;stroke:#0072C6;stroke-width:1.25;stroke-miterlimit:10;}
	.st8{fill:none;stroke:#0072C6;stroke-width:1.5;stroke-miterlimit:10;}
	.st9{fill:none;stroke:#0072C6;stroke-miterlimit:10;}
	.st10{fill:#0072C6;stroke:#0072C6;stroke-width:0.25;stroke-miterlimit:10;}
	.st11{fill:none;stroke:#FFFFFF;stroke-width:1.25;stroke-miterlimit:10;}
	.st12{fill:none;stroke:#FFFFFF;stroke-width:0.75;stroke-miterlimit:10;}
	.st13{fill:none;stroke:#0072C6;stroke-width:0.75;stroke-miterlimit:10;}
	.st14{fill:none;stroke:#606060;stroke-width:0.75;stroke-miterlimit:10;}
	.st15{fill:none;stroke:#FFFFFF;stroke-miterlimit:10;}
</style>
<g id="Layer_2" class="st0">
</g>
<g id="Layer_1">
	<g>
		<g>
			<path class="st4" d="M6.4805,7.5H2.4991c-0.5303,0-0.9609-0.4307-0.9609-0.9609V2.4609C1.5381,1.9307,1.9688,1.5,2.4991,1.5
				h3.9814c0.5303,0,0.9609,0.4307,0.9609,0.9609v4.0781C7.4415,7.0693,7.0108,7.5,6.4805,7.5z M6.4415,2.4609L2.4991,2.5
				l0.0391,4.0391L6.4415,6.5V2.4609z M6.4805,6.5c0,0,0,0-0.001,0H6.4805z"/>
		</g>
		<g>
			<path class="st4" d="M13.501,7.5H9.5186c-0.5293,0-0.96-0.4307-0.96-0.9609V2.4609c0-0.5303,0.4307-0.9609,0.96-0.9609h3.9824
				c0.5303,0,0.9609,0.4307,0.9609,0.9609v4.0781C14.462,7.0693,14.0313,7.5,13.501,7.5z M13.462,2.4609L9.5186,2.5l0.04,4.0391
				L13.462,6.5V2.4609z M13.501,6.5h-0.001H13.501z"/>
		</g>
		<g>
			<path class="st4" d="M6.4805,14.5H2.4991c-0.5303,0-0.9609-0.4307-0.9609-0.9609V9.4609C1.5381,8.9307,1.9688,8.5,2.4991,8.5
				h3.9814c0.5303,0,0.9609,0.4307,0.9609,0.9609v4.0781C7.4415,14.0693,7.0108,14.5,6.4805,14.5z M6.4415,9.4609L2.4991,9.5
				l0.0391,4.0391L6.4415,13.5V9.4609z M6.4805,13.5c0,0,0,0-0.001,0H6.4805z"/>
		</g>
		<g>
			<path class="st4" d="M13.501,14.5H9.5186c-0.5293,0-0.96-0.4307-0.96-0.9609V9.4609c0-0.5303,0.4307-0.9609,0.96-0.9609h3.9824
				c0.5303,0,0.9609,0.4307,0.9609,0.9609v4.0781C14.462,14.0693,14.0313,14.5,13.501,14.5z M13.462,9.4609L9.5186,9.5l0.04,4.0391
				L13.462,13.5V9.4609z M13.501,13.5h-0.001H13.501z"/>
		</g>
	</g>
</g>
</svg>
