<?xml version="1.0" encoding="utf-8"?>
<!-- Generator: Adobe Illustrator 26.0.3, SVG Export Plug-In . SVG Version: 6.00 Build 0)  -->
<svg version="1.1" xmlns="http://www.w3.org/2000/svg" xmlns:xlink="http://www.w3.org/1999/xlink" x="0px" y="0px"
	 viewBox="0 0 16 16" style="enable-background:new 0 0 16 16;" xml:space="preserve">
<style type="text/css">
	.st0{fill:#B3B3B3;}
	.st1{fill:#0072C6;}
</style>
<g id="Layer_1">
	<path class="st0" d="M14.4611,8.2693l0.707-0.707l-3.4128-3.4126L9.3625,1.7566L9.3623,1.7568L8.3425,0.7371l-0.707,0.707
		l1.0198,1.0197L5.9631,5.156L5.3825,4.575c-0.1475-0.1475-0.5376-0.54-1.0664-0.2803L1.7063,5.5828
		C1.3366,5.7576,1.1135,6.1717,1.0564,6.5037c-0.0562,0.3242,0.0278,0.626,0.23,0.8271l3.376,3.3765
		c-0.866,0.9812-3.0856,3.4951-3.1744,3.5967l-0.1326,0.1502l0.2652,0.2652l0.1502-0.1326l3.5968-3.1743l3.3768,3.3772h0.0005
		c0.1743,0.1738,0.4087,0.2666,0.6636,0.2666c0.0708,0,0.1426-0.0068,0.2153-0.0215c0.3677-0.0723,0.6792-0.3154,0.814-0.6367
		l1.2017-2.8779c0.1943-0.4961-0.1777-0.8662-0.3359-1.0244l-0.5542-0.5547l2.6921-2.6917L14.4611,8.2693z M12.7341,6.5428
		L9.3352,9.9412l1.2617,1.2627c0.0151,0.0146,0.0405,0.04,0.064,0.0654l-1.1431,2.7373c-0.0137,0.0215-0.061,0.0439-0.0938,0.0488
		L2.0388,6.7039C2.0334,6.6463,2.0949,6.5164,2.1413,6.4832l2.5005-1.2344c0.0098,0.0098,0.021,0.0205,0.0337,0.0332l1.2876,1.2881
		l3.3992-3.3992l1.686,1.6859L12.7341,6.5428z"/>
</g>
<g id="Outline_Box">
</g>
</svg>
