<?xml version="1.0" encoding="utf-8"?>
<!-- Generator: Adobe Illustrator 26.0.3, SVG Export Plug-In . SVG Version: 6.00 Build 0)  -->
<svg version="1.1" xmlns="http://www.w3.org/2000/svg" xmlns:xlink="http://www.w3.org/1999/xlink" x="0px" y="0px"
	 viewBox="0 0 16 16" style="enable-background:new 0 0 16 16;" xml:space="preserve">
<style type="text/css">
	.st0{fill:#B3B3B3;}
	.st1{fill:#0072C6;}
</style>
<g id="Layer_1">
	<path class="st1" d="M14.4607,8.2693l0.707-0.707l-1.0195-1.0195L9.362,1.7566L8.3425,0.7371l-0.707,0.707l1.0197,1.0197
		L5.9636,5.156L5.3825,4.575c-0.1475-0.1475-0.5371-0.54-1.0664-0.2803L1.7068,5.5828C1.3376,5.7576,1.114,6.1717,1.0564,6.5037
		c-0.0566,0.3242,0.0273,0.625,0.2295,0.8271l3.3763,3.3763C4.5266,10.8608,1.4879,14.304,1.488,14.304
		c-0.1661,0.1791,0.1035,0.4481,0.2828,0.2829l3.5969-3.1743l3.3772,3.3772c0.1738,0.1738,0.4082,0.2666,0.6641,0.2666
		c0.0703,0,0.1416-0.0068,0.2148-0.0215c0.3672-0.0723,0.6797-0.3154,0.8135-0.6367l1.2012-2.877
		c0.1963-0.4971-0.1768-0.8682-0.335-1.0254l-0.5537-0.5547l2.6914-2.6914L14.4607,8.2693z M9.3357,9.9412l1.2617,1.2627
		c0.0137,0.0137,0.04,0.0391,0.0635,0.0645l-1.1426,2.7383c-0.0146,0.0205-0.0605,0.0439-0.0938,0.0488L2.0388,6.7049
		C2.0339,6.6472,2.0954,6.5164,2.1423,6.4832l2.5-1.2344C4.6521,5.2586,4.6628,5.2693,4.6755,5.282l1.2881,1.2881L9.362,3.1707
		l3.3721,3.3721L9.3357,9.9412z"/>
</g>
<g id="Outline_Box">
</g>
</svg>
