<?xml version="1.0" encoding="utf-8"?>
<!-- Generator: Adobe Illustrator 25.4.1, SVG Export Plug-In . SVG Version: 6.00 Build 0)  -->
<svg version="1.1" id="Layer_1" xmlns="http://www.w3.org/2000/svg" xmlns:xlink="http://www.w3.org/1999/xlink" x="0px" y="0px"
	 viewBox="0 0 16 16" style="enable-background:new 0 0 16 16;" xml:space="preserve">
<g id="Strokes">
	<g>
		<path d="M4.5448,8.2642l1.0469,0.001c0.1406,0,0.2754-0.0508,0.3789-0.1436C6.0849,8.021,6.1542,7.8804,6.164,7.7193V6.691
			C6.1425,6.3814,5.8935,6.1333,5.5829,6.1148H4.6132c-0.1504,0-0.3027,0.043-0.4141,0.1416
			C4.0829,6.3579,4.0146,6.4976,4.0058,6.6519c-0.001,0.0244-0.001,0.0498,0,0.0537v0.9531
			c-0.0098,0.1514,0.041,0.2979,0.1436,0.415C4.2519,8.188,4.3925,8.2554,4.5448,8.2642z M4.5946,8.139L4.5946,8.139l0.0001,0.0002
			L4.5946,8.139z"/>
		<path d="M7.6142,7.8804h3.873c0.207-0.0127,0.3662-0.1748,0.3789-0.3916V6.9605c-0.0156-0.2012-0.1816-0.3623-0.3848-0.375H7.5995
			C7.3983,6.5982,7.2362,6.7632,7.2206,6.9771v0.4268C7.2206,7.7163,7.4189,7.8804,7.6142,7.8804z"/>
		<path d="M4.5995,11.5074l0.9912,0.001c0.3018,0,0.5527-0.2363,0.5732-0.5459V9.9556c0.0146-0.3135-0.2324-0.582-0.5508-0.5986
			H5.6073c-0.0166,0-0.0332,0-0.041,0.001H4.6142C4.4638,9.3463,4.3124,9.4,4.1982,9.4996
			C4.0829,9.6011,4.0146,9.7417,4.0058,9.8951c-0.001,0.0244-0.001,0.0498,0,0.0537v0.9805
			C4.0253,11.2398,4.2773,11.4878,4.5995,11.5074z"/>
		<path d="M7.6142,11.0367h3.873c0.2012-0.0127,0.3633-0.1777,0.3789-0.3916v-0.4434c-0.0156-0.2012-0.1816-0.3623-0.3848-0.375
			H7.5995c-0.2012,0.0127-0.3633,0.1777-0.3789,0.3916v0.4434C7.2362,10.8628,7.3993,11.024,7.6142,11.0367z"/>
		<path d="M12.4189,1.7183h-1.459c-0.1484-0.4346-0.5566-0.7451-1.0303-0.7686h-4.041c-0.4658,0.0234-0.8721,0.334-1.0195,0.7686
			h-1.376C2.6689,1.7388,2.0097,2.398,1.9911,3.2222v10.3301c0.0186,0.8193,0.6787,1.4775,1.5068,1.498h9.0098
			c0.8223-0.0205,1.4814-0.6777,1.502-1.501V3.2046C13.9433,2.3697,13.2597,1.731,12.4189,1.7183z M3.458,2.8913l0.04,0.1258h1.3242
			c0.0439,0.498,0.4531,0.9072,0.9717,0.9385c0.0371,0,0.0762,0,0.1055,0h4.0322c0.5605-0.0049,1.0322-0.4014,1.1396-0.9385
			l1.3672-0.001c0.042-0.0078,0.0869,0.0117,0.123,0.0439s0.0576,0.0762,0.0625,0.1221V13.561
			c0.0029,0.0488-0.0127,0.0938-0.0459,0.1309c-0.0322,0.0371-0.0771,0.0576-0.1221,0.0605l-0.04-0.001l-8.9443,0.002
			c-0.0371,0.001-0.082-0.0146-0.1191-0.0459c-0.0371-0.0332-0.0586-0.0781-0.0605-0.1602V3.2076
			c-0.003-0.0479,0.0126-0.0928,0.0438-0.129C3.369,3.0415,3.4149,3.019,3.4657,3.0161L3.458,2.8913
			C3.458,2.8913,3.4579,2.8913,3.458,2.8913z M6.121,2.6626V2.2515l3.6758,0.0752l0.0078,0.4131L6.121,2.6626z M3.498,2.8921
			L3.4978,2.8919c0.0001,0,0.0001,0,0.0001,0L3.498,2.8921L3.498,2.8921z"/>
	</g>
</g>
</svg>
