<?xml version="1.0" encoding="utf-8"?>
<!-- Generator: Adobe Illustrator 25.4.1, SVG Export Plug-In . SVG Version: 6.00 Build 0)  -->
<svg version="1.1" id="Layer_1" xmlns="http://www.w3.org/2000/svg" xmlns:xlink="http://www.w3.org/1999/xlink" x="0px" y="0px"
	 viewBox="0 0 16 16" style="enable-background:new 0 0 16 16;" xml:space="preserve">
<style type="text/css">
	.st0{fill:#0072C6;}
	.st1{fill:none;stroke:#606060;stroke-miterlimit:10;}
	.st2{fill:#606060;}
	.st3{fill:#FFFFFF;}
	.st4{fill:none;stroke:#0072C6;stroke-width:0.25;stroke-miterlimit:10;}
	.st5{fill:none;stroke:#0072C6;stroke-width:1.25;stroke-miterlimit:10;}
	.st6{fill:none;stroke:#0072C6;stroke-width:1.5;stroke-miterlimit:10;}
	.st7{fill:none;stroke:#0072C6;stroke-miterlimit:10;}
	.st8{fill:#0072C6;stroke:#0072C6;stroke-width:0.25;stroke-miterlimit:10;}
	.st9{fill:none;stroke:#FFFFFF;stroke-width:1.25;stroke-miterlimit:10;}
</style>
<g>
	<g>
		<g>
			<path class="st2" d="M13.873,4.978l-2.7793-3.6167C10.916,1.1318,10.6484,1,10.3594,1h-7.498
				C2.3496,1,1.9336,1.4185,1.9336,1.9331v12.1338C1.9336,14.5815,2.3496,15,2.8613,15h10.2773
				c0.5117,0,0.9277-0.4185,0.9277-0.9331V5.5488C14.0664,5.3428,13.998,5.1401,13.873,4.978z M10.6406,2.4106l2.2704,2.9373
				l-2.2704,0.0521V2.4106z M2.9336,14.0669L2.8613,2h6.7793v3.3999c0,0.5146,0.417,0.9336,0.9287,0.9336h2.5038L13.1387,14
				L2.9336,14.0669z"/>
		</g>
	</g>
	<g>
		<g>
			<rect x="4.2637" y="8.1621" class="st2" width="6.9502" height="1"/>
		</g>
	</g>
	<g>
		<g>
			<rect x="4.2637" y="5.8003" class="st2" width="4.3369" height="1"/>
		</g>
	</g>
	<g>
		<g>
			<rect x="4.2637" y="10.5244" class="st2" width="6.9502" height="1"/>
		</g>
	</g>
</g>
</svg>
