<?xml version="1.0" encoding="utf-8"?>
<!-- Generator: Adobe Illustrator 25.4.1, SVG Export Plug-In . SVG Version: 6.00 Build 0)  -->
<svg version="1.1" id="Layer_1" xmlns="http://www.w3.org/2000/svg" xmlns:xlink="http://www.w3.org/1999/xlink" x="0px" y="0px"
	 viewBox="0 0 16 16" style="enable-background:new 0 0 16 16;" xml:space="preserve">
<style type="text/css">
	.st0{fill:#0072C6;}
	.st1{fill:none;stroke:#606060;stroke-miterlimit:10;}
	.st2{fill:#606060;}
	.st3{fill:#FFFFFF;}
	.st4{fill:none;stroke:#0072C6;stroke-width:0.25;stroke-miterlimit:10;}
	.st5{fill:none;stroke:#0072C6;stroke-width:1.25;stroke-miterlimit:10;}
	.st6{fill:none;stroke:#0072C6;stroke-width:1.5;stroke-miterlimit:10;}
	.st7{fill:none;stroke:#0072C6;stroke-miterlimit:10;}
	.st8{fill:#0072C6;stroke:#0072C6;stroke-width:0.25;stroke-miterlimit:10;}
	.st9{fill:none;stroke:#FFFFFF;stroke-width:1.25;stroke-miterlimit:10;}
</style>
<g>
	<path class="st0" d="M13.9742,4.9048l-2.7803-3.6221C10.9898,1.0234,10.6841,0.875,10.355,0.875h-7.5
		c-0.5762,0-1.0449,0.4731-1.0449,1.0552v12.1396c0,0.582,0.4688,1.0552,1.0449,1.0552h10.2803c0.582,0,1.0547-0.4731,1.0547-1.0552
		v-8.52C14.19,5.3193,14.1138,5.0903,13.9742,4.9048z M10.565,6.4551h2.3857l0.0586,7.4209l-9.9502,0.0679L2.981,2.125h6.5293
		v3.2749C9.5103,5.9819,9.983,6.4551,10.565,6.4551z"/>
	<rect x="4.2623" y="8.0371" class="st0" width="6.9502" height="1.25"/>
	<rect x="4.2623" y="5.6753" class="st0" width="4.3369" height="1.25"/>
	<rect x="4.2623" y="10.3994" class="st0" width="6.9502" height="1.25"/>
</g>
</svg>
