<?xml version="1.0" encoding="utf-8"?>
<!-- Generator: Adobe Illustrator 25.4.1, SVG Export Plug-In . SVG Version: 6.00 Build 0)  -->
<svg version="1.1" id="Layer_1" xmlns="http://www.w3.org/2000/svg" xmlns:xlink="http://www.w3.org/1999/xlink" x="0px" y="0px"
	 viewBox="0 0 16 16" style="enable-background:new 0 0 16 16;" xml:space="preserve">
<style type="text/css">
	.st0{fill:#0072C6;}
	.st1{fill:none;stroke:#606060;stroke-miterlimit:10;}
	.st2{fill:#606060;}
	.st3{fill:#FFFFFF;}
	.st4{fill:none;stroke:#0072C6;stroke-width:0.25;stroke-miterlimit:10;}
	.st5{fill:none;stroke:#0072C6;stroke-width:1.25;stroke-miterlimit:10;}
	.st6{fill:none;stroke:#0072C6;stroke-width:1.5;stroke-miterlimit:10;}
	.st7{fill:none;stroke:#0072C6;stroke-miterlimit:10;}
	.st8{fill:#0072C6;stroke:#0072C6;stroke-width:0.25;stroke-miterlimit:10;}
	.st9{fill:none;stroke:#FFFFFF;stroke-width:1.25;stroke-miterlimit:10;}
</style>
<path class="st2" d="M13.6104,3.9062h-2.6807V2.6064c0-0.7666-0.627-1.3896-1.3975-1.3896H6.3926
	c-0.7705,0-1.397,0.623-1.397,1.3896v1.2998H2.3892c-0.7681,0-1.3931,0.625-1.3931,1.3936v8.0898
	c0,0.7686,0.625,1.3936,1.3931,1.3936h11.2212c0.7686,0,1.3936-0.625,1.3936-1.3936V5.2998
	C15.0039,4.5312,14.3789,3.9062,13.6104,3.9062z M5.9956,2.6064c0-0.2148,0.1782-0.3896,0.397-0.3896h3.1396
	c0.2188,0,0.3975,0.1748,0.3975,0.3896v1.2803H5.9956V2.6064z M2.3892,4.9062h11.2212c0.2168,0,0.3936,0.1768,0.3936,0.3936V6.585
	H1.9961V5.2998C1.9961,5.083,2.1724,4.9062,2.3892,4.9062z M13.6104,13.7832H2.3892c-0.2168,0-0.3931-0.1768-0.3931-0.3936V7.585
	h12.0078v5.8047C14.0039,13.6064,13.8271,13.7832,13.6104,13.7832z"/>
</svg>
