<?xml version="1.0" encoding="utf-8"?>
<!-- Generator: Adobe Illustrator 25.4.1, SVG Export Plug-In . SVG Version: 6.00 Build 0)  -->
<svg version="1.1" id="Layer_1" xmlns="http://www.w3.org/2000/svg" xmlns:xlink="http://www.w3.org/1999/xlink" x="0px" y="0px"
	 viewBox="0 0 16 16" style="enable-background:new 0 0 16 16;" xml:space="preserve">
<style type="text/css">
	.st0{fill:#0072C6;}
	.st1{fill:none;stroke:#606060;stroke-miterlimit:10;}
	.st2{fill:#606060;}
	.st3{fill:#FFFFFF;}
	.st4{fill:none;stroke:#0072C6;stroke-width:0.25;stroke-miterlimit:10;}
	.st5{fill:none;stroke:#0072C6;stroke-width:1.25;stroke-miterlimit:10;}
	.st6{fill:none;stroke:#0072C6;stroke-width:1.5;stroke-miterlimit:10;}
	.st7{fill:none;stroke:#0072C6;stroke-miterlimit:10;}
	.st8{fill:#0072C6;stroke:#0072C6;stroke-width:0.25;stroke-miterlimit:10;}
	.st9{fill:none;stroke:#FFFFFF;stroke-width:1.25;stroke-miterlimit:10;}
</style>
<path class="st0" d="M13.3931,3.8125h-2.3096V2.8408c0-0.8828-0.7236-1.6006-1.6123-1.6006H6.4537
	c-0.8887,0-1.6123,0.7178-1.6123,1.6006v0.9717H2.6041c-0.8857,0-1.6064,0.7207-1.6064,1.6064v7.7344
	c0,0.8857,0.7207,1.6064,1.6064,1.6064h10.7891c0.8857,0,1.6064-0.7207,1.6064-1.6064V5.4189
	C14.9996,4.5332,14.2789,3.8125,13.3931,3.8125z M6.3414,2.8408c0-0.0557,0.0508-0.1006,0.1123-0.1006h3.0176
	c0.0615,0,0.1123,0.0449,0.1123,0.1006v0.9531H6.3414V2.8408z M13.3931,13.2598H2.6041c-0.0586,0-0.1064-0.0479-0.1064-0.1064V7.625
	h11.002v5.5283C13.4996,13.2119,13.4517,13.2598,13.3931,13.2598z"/>
</svg>
