<?xml version="1.0" encoding="utf-8"?>
<!-- Generator: Adobe Illustrator 25.4.1, SVG Export Plug-In . SVG Version: 6.00 Build 0)  -->
<svg version="1.1" id="Layer_1" xmlns="http://www.w3.org/2000/svg" xmlns:xlink="http://www.w3.org/1999/xlink" x="0px" y="0px"
	 viewBox="0 0 16 16" style="enable-background:new 0 0 16 16;" xml:space="preserve">
<style type="text/css">
	.st0{fill:#616160;}
</style>
<path class="st0" d="M13.6123,1.0234H5.8384c-0.752,0-1.3633,0.6113-1.3633,1.3628V4.416H2.4458
	c-0.752,0-1.3633,0.6113-1.3633,1.3633v7.7744c0,0.751,0.6113,1.3623,1.3633,1.3623h7.7739c0.752,0,1.3633-0.6113,1.3633-1.3623
	v-2.0303h2.0293c0.752,0,1.3633-0.6113,1.3633-1.3633V2.3862C14.9756,1.6348,14.3643,1.0234,13.6123,1.0234z M10.583,13.5537
	c0,0.2002-0.1631,0.3623-0.3633,0.3623H2.4458c-0.2002,0-0.3633-0.1621-0.3633-0.3623V5.7793c0-0.2002,0.1631-0.3633,0.3633-0.3633
	h2.0293v4.7441c0,0.752,0.6113,1.3633,1.3633,1.3633h4.7446V13.5537z M13.9756,10.1602c0,0.2002-0.1631,0.3633-0.3633,0.3633H5.8384
	c-0.2002,0-0.3633-0.1631-0.3633-0.3633V2.3862c0-0.2002,0.1631-0.3628,0.3633-0.3628h7.7739c0.2002,0,0.3633,0.1626,0.3633,0.3628
	V10.1602z"/>
</svg>
