<?xml version="1.0" encoding="utf-8"?>
<!-- Generator: Adobe Illustrator 25.4.1, SVG Export Plug-In . SVG Version: 6.00 Build 0)  -->
<svg version="1.1" id="Layer_1" xmlns="http://www.w3.org/2000/svg" xmlns:xlink="http://www.w3.org/1999/xlink" x="0px" y="0px"
	 viewBox="0 0 16 16" style="enable-background:new 0 0 16 16;" xml:space="preserve">
<style type="text/css">
	.st0{fill:#616160;}
</style>
<g>
	<path class="st0" d="M6.1601,3.8622c0-1.6042-1.4726-2.8708-3.1365-2.5212C2.0501,1.5455,1.263,2.3326,1.0585,3.3061
		c-0.3497,1.664,0.9169,3.1367,2.5211,3.1367c0.6405,0,1.2198-0.2433,1.6715-0.6312l9.0436,6.8539
		c0.1109,0.084,0.2688,0.0622,0.3528-0.0487l0.3014-0.398c0.0839-0.1108,0.0622-0.2687-0.0486-0.3527l-9.029-6.8428
		C6.0498,4.6726,6.1601,4.2819,6.1601,3.8622z M3.5796,5.4396c-0.869,0-1.5764-0.7074-1.5764-1.5774
		c0-0.869,0.7074-1.5765,1.5764-1.5765c0.87,0,1.5774,0.7074,1.5774,1.5765C5.1569,4.7322,4.4496,5.4396,3.5796,5.4396z"/>
	<path class="st0" d="M7.3901,8.5675l-2.139,1.621c-0.5651-0.4853-1.33-0.7442-2.1643-0.5837
		c-1.0477,0.2016-1.8913,1.0679-2.0549,2.1222c-0.2789,1.7979,1.3122,3.323,3.1253,2.9273c0.795-0.1735,1.4657-0.7488,1.7857-1.497
		c0.347-0.8112,0.2448-1.5589-0.0718-2.1805L8.0824,9.301c0.128-0.097,0.1337-0.2875,0.0116-0.392L7.7059,8.5768
		C7.616,8.4998,7.4845,8.4959,7.3901,8.5675z M3.5796,13.7141c-0.869,0-1.5764-0.7074-1.5764-1.5764
		c0-0.87,0.7074-1.5774,1.5764-1.5774c0.87,0,1.5774,0.7074,1.5774,1.5774C5.1569,13.0069,4.4496,13.7141,3.5796,13.7141z"/>
	<path class="st0" d="M14.9489,3.7811l-0.3014-0.398c-0.084-0.1109-0.2419-0.1327-0.3528-0.0487L9.8306,6.7169
		c-0.128,0.097-0.1337,0.2875-0.0117,0.392l0.3882,0.3323c0.09,0.077,0.2214,0.0809,0.3158,0.0094l4.3774-3.3168
		C15.0111,4.0499,15.0329,3.892,14.9489,3.7811z"/>
</g>
</svg>
