<?xml version="1.0" encoding="utf-8"?>
<!-- Generator: Adobe Illustrator 25.4.1, SVG Export Plug-In . SVG Version: 6.00 Build 0)  -->
<svg version="1.1" id="Layer_1" xmlns="http://www.w3.org/2000/svg" xmlns:xlink="http://www.w3.org/1999/xlink" x="0px" y="0px"
	 viewBox="0 0 16 16" style="enable-background:new 0 0 16 16;" xml:space="preserve">
<style type="text/css">
	.st0{fill:#616160;}
</style>
<g id="Layer_1_00000082331706931582421830000012017508078386094242_">
	<g>
		<path class="st0" d="M9.02,12.346h0.5c0.1381,0,0.25-0.1119,0.25-0.25v-0.761V6.596V5.835c0-0.1381-0.1119-0.25-0.25-0.25h-0.5
			c-0.1381,0-0.25,0.1119-0.25,0.25v0.761v4.739v0.761C8.77,12.2341,8.8819,12.346,9.02,12.346z"/>
		<path class="st0" d="M6.476,12.346h0.5c0.1381,0,0.25-0.1119,0.25-0.25v-0.761V6.596V5.835c0-0.1381-0.1119-0.25-0.25-0.25h-0.5
			c-0.1381,0-0.25,0.1119-0.25,0.25v0.761v4.739v0.761C6.226,12.2341,6.3379,12.346,6.476,12.346z"/>
		<path class="st0" d="M14.9997,3.197c0-0.1381-0.1119-0.25-0.25-0.25h-1.5391H2.9303H1.2497c-0.1381,0-0.25,0.1119-0.25,0.25v0.5
			c0,0.1381,0.1119,0.25,0.25,0.25h1.6807v10.1005c0,0.5091,0.4127,0.9219,0.9219,0.9219h8.4354
			c0.5097,0,0.9229-0.4132,0.9229-0.9229V3.947h1.5391c0.1381,0,0.25-0.1119,0.25-0.25L14.9997,3.197z M12.2106,13.9694H3.9303
			V3.947h8.2802V13.9694z"/>
		<path class="st0" d="M5.7194,1.031h4.5625c0.1381,0,0.25,0.1119,0.25,0.25v0.5c0,0.1381-0.1119,0.25-0.25,0.25H5.7194
			c-0.1381,0-0.25-0.1119-0.25-0.25v-0.5C5.4694,1.143,5.5813,1.031,5.7194,1.031z"/>
	</g>
</g>
</svg>
