<?xml version="1.0" encoding="utf-8"?>
<!-- Generator: Adobe Illustrator 25.4.1, SVG Export Plug-In . SVG Version: 6.00 Build 0)  -->
<svg version="1.1" id="Layer_1" xmlns="http://www.w3.org/2000/svg" xmlns:xlink="http://www.w3.org/1999/xlink" x="0px" y="0px"
	 viewBox="0 0 16 16" style="enable-background:new 0 0 16 16;" xml:space="preserve">
<style type="text/css">
	.st0{fill:#61616070;}
</style>
<g id="Layer_1_00000000937753542493792230000010890524820777225364_">
	<path class="st0" d="M13.1436,1.9416h-0.7607V1.9064c0-0.5-0.4062-0.9062-0.9053-0.9062H8.0811c-0.5,0-0.9062,0.4062-0.9062,0.9062
		v0.0352H6.4043c-0.791,0-1.4346,0.6455-1.4346,1.4395v1.9512H2.8789c-0.8037,0-1.458,0.6543-1.458,1.458v6.752
		c0,0.8037,0.6543,1.458,1.458,1.458h5.2588c0.0695,0,0.1359-0.011,0.2028-0.0205h4.803c0.792,0,1.4355-0.6465,1.4355-1.4404V3.381
		C14.5791,2.5871,13.9355,1.9416,13.1436,1.9416z M2.4209,13.5422v-6.752c0-0.2529,0.2051-0.458,0.458-0.458h5.2588
		c0.2529,0,0.458,0.2051,0.458,0.458v6.752c0,0.2169-0.1541,0.3902-0.3565,0.4375H7.2207v0.0205H2.8789
		C2.626,14.0002,2.4209,13.7951,2.4209,13.5422z M13.5791,13.5392c0,0.2432-0.1953,0.4404-0.4355,0.4404H9.5212
		c0.0441-0.139,0.0745-0.2841,0.0745-0.4375v-6.752c0-0.8037-0.6543-1.458-1.458-1.458h-2.168V3.381
		c0-0.2422,0.1953-0.4395,0.4346-0.4395h0.8995C7.4596,3.2158,7.7432,3.4093,8.081,3.4093h3.3965
		c0.3372,0,0.6205-0.1935,0.7763-0.4678h0.8897c0.2402,0,0.4355,0.1973,0.4355,0.4395v10.1582H13.5791z"/>
</g>
</svg>
