<?xml version="1.0" encoding="utf-8"?>
<!-- Generator: Adobe Illustrator 25.4.1, SVG Export Plug-In . SVG Version: 6.00 Build 0)  -->
<svg version="1.1" id="Layer_1" xmlns="http://www.w3.org/2000/svg" xmlns:xlink="http://www.w3.org/1999/xlink" x="0px" y="0px"
	 viewBox="0 0 16 16" style="enable-background:new 0 0 16 16;" xml:space="preserve">
<style type="text/css">
	.st0{fill:#606060;}
</style>
<g id="Layer_1_00000011709901974584047780000009260882793475788210_">
	<g>
		<path class="st0" d="M8.0068,12.9561C3.5054,12.9561,1.25,8.5518,1.25,8s2.2554-4.9565,6.7568-4.9565
			c4.4922,0,6.7432,4.5264,6.7432,5.0933C14.75,8.6733,12.499,12.9561,8.0068,12.9561z M2.2646,7.9976
			c0.2397,0.6304,2.166,3.9585,5.7422,3.9585c3.5635,0,5.4473-3.1289,5.7246-3.8267c-0.2549-0.6729-2.1875-4.0859-5.7246-4.0859
			C4.3945,4.0435,2.4971,7.3687,2.2646,7.9976z"/>
	</g>
	<g>
		<path class="st0" d="M8,10.6699c-1.5063,0-2.7319-1.1973-2.7319-2.6699S6.4937,5.3296,8,5.3296
			c1.5068,0,2.7324,1.1978,2.7324,2.6704S9.5068,10.6699,8,10.6699z M8,6.3296C7.0449,6.3296,6.2681,7.0791,6.2681,8
			S7.0449,9.6699,8,9.6699S9.7324,8.9209,9.7324,8S8.9551,6.3296,8,6.3296z"/>
	</g>
</g>
</svg>
