<?xml version="1.0" encoding="utf-8"?>
<!-- Generator: Adobe Illustrator 26.5.0, SVG Export Plug-In . SVG Version: 6.00 Build 0)  -->
<svg version="1.1" xmlns="http://www.w3.org/2000/svg" xmlns:xlink="http://www.w3.org/1999/xlink" x="0px" y="0px"
	 viewBox="0 0 40 40" enable-background="new 0 0 40 40" xml:space="preserve">
<g id="Outline">
	<rect fill="none" width="40" height="40"/>
</g>
<g id="Icons">
	<g id="Layer_4_00000090978916968128135570000003544886687509782417_">
		<g>
			<g>
				<path d="M29.81,15.48L16.39,28.9c-0.13,0.13-0.34,0.13-0.47,0l-6.94-6.95c-0.13-0.13-0.13-0.33,0-0.46l1.4-1.41
					c0.13-0.12,0.34-0.12,0.47,0l5.31,5.32l11.79-11.79c0.13-0.13,0.33-0.13,0.46,0l1.4,1.4C29.94,15.14,29.94,15.35,29.81,15.48z"
					/>
			</g>
			<g>
				<path d="M20,2.5C10.35,2.5,2.5,10.35,2.5,20S10.35,37.5,20,37.5S37.5,29.65,37.5,20S29.65,2.5,20,2.5z M29.81,15.48L16.39,28.9
					c-0.13,0.13-0.34,0.13-0.47,0l-6.94-6.95c-0.13-0.13-0.13-0.33,0-0.46l1.4-1.41c0.13-0.12,0.34-0.12,0.47,0l5.31,5.32
					l11.79-11.79c0.13-0.13,0.33-0.13,0.46,0l1.4,1.4C29.94,15.14,29.94,15.35,29.81,15.48z"/>
			</g>
		</g>
		<g>
			<g>
				<path fill="#FFFFFF" d="M29.81,15.48L16.39,28.9c-0.13,0.13-0.34,0.13-0.47,0l-6.94-6.95c-0.13-0.13-0.13-0.33,0-0.46l1.4-1.41
					c0.13-0.12,0.34-0.12,0.47,0l5.31,5.32l11.79-11.79c0.13-0.13,0.33-0.13,0.46,0l1.4,1.4C29.94,15.14,29.94,15.35,29.81,15.48z"
					/>
			</g>
		</g>
	</g>
</g>
</svg>
