<?xml version="1.0" encoding="utf-8"?>
<!-- Generator: Adobe Illustrator 26.5.0, SVG Export Plug-In . SVG Version: 6.00 Build 0)  -->
<svg version="1.1" xmlns="http://www.w3.org/2000/svg" xmlns:xlink="http://www.w3.org/1999/xlink" x="0px" y="0px"
	 viewBox="0 0 40 40" enable-background="new 0 0 40 40" xml:space="preserve">
<g id="Outline">
	<rect y="0" fill="none" width="40" height="40"/>
</g>
<g id="Icons">
	<path d="M27.3395,15.555c-3.2375,0-6.1153,1.5389-7.9756,3.927c-1.2069-0.7889-2.6372-1.2518-4.1751-1.2518h-4.6923
		c-4.2741,0-7.751,3.5353-7.751,7.8821v4.8724h1.5964v-4.8724c0-3.4533,2.7607-6.2634,6.1546-6.2634h4.6923
		c1.2079,0,2.3339,0.3615,3.2854,0.9756c-0.8216,1.4849-1.2952,3.1943-1.2952,5.0181c0,5.6818,4.5487,10.2876,10.1605,10.2876
		S37.5,31.5243,37.5,25.8425C37.5011,20.1619,32.9513,15.555,27.3395,15.555z"/>
	<path fill="#FFFFFF" d="M24.897,30.7225l-3.2332-3.2785c-0.2075-0.2104-0.2075-0.5525,0-0.763l0.7524-0.763
		c0.2075-0.2104,0.5449-0.2104,0.7524,0l2.1051,2.1346l6.2366-6.3238c0.2075-0.2104,0.5449-0.2104,0.7524,0l0.7524,0.763
		c0.2075,0.2104,0.2075,0.5525,0,0.763l-7.3658,7.4688C25.4419,30.9329,25.1056,30.9329,24.897,30.7225z"/>
	<path fill="none" stroke="#000000" stroke-width="2" stroke-miterlimit="10" d="M3.5425,30.9836v-4.8713
		c0-3.9065,3.113-7.0728,6.9528-7.0728h1.3442h3.3482c3.8399,0,6.9528,3.1662,6.9528,7.0728v4.8713"/>
	
		<ellipse fill="none" stroke="#000000" stroke-width="2" stroke-miterlimit="10" cx="12.8421" cy="10.4624" rx="5.7438" ry="5.8425"/>
</g>
</svg>
