<?xml version="1.0" encoding="utf-8"?>
<!-- Generator: Adobe Illustrator 26.5.0, SVG Export Plug-In . SVG Version: 6.00 Build 0)  -->
<svg version="1.1" xmlns="http://www.w3.org/2000/svg" xmlns:xlink="http://www.w3.org/1999/xlink" x="0px" y="0px"
	 viewBox="0 0 40 40" enable-background="new 0 0 40 40" xml:space="preserve">
<g id="Outline">
	<rect fill="none" width="40" height="40"/>
</g>
<g id="Icons">
	<g id="XMLID_00000056405599695515922400000005173633570067489677_">
		<g>
			<path d="M4.1978,37.5h25.3215c0,0,5.0415-4.9707,5.9982-12.2361c0.9567-7.2654-0.701-8.6034-1.9773-8.9208s-9.4459,0-9.4459,0
				s4.4661-8.8568,0.5115-13.0626c-1.1553-0.9864-2.6874-1.0046-3.5299-0.242c-0.7466,0.6759-0.701,1.7399-0.6896,1.9202
				c0.016,1.427-0.137,4.9958-2.4522,8.6422c-2.0846,3.2856-4.836,4.9205-6.1192,5.5803c-2.539,0.0137-5.078,0.0251-7.617,0.0388
				C4.1978,19.2201,4.1978,37.5,4.1978,37.5z"/>
		</g>
	</g>
</g>
</svg>
