<?xml version="1.0" encoding="utf-8"?>
<!-- Generator: Adobe Illustrator 26.5.0, SVG Export Plug-In . SVG Version: 6.00 Build 0)  -->
<svg version="1.1" xmlns="http://www.w3.org/2000/svg" xmlns:xlink="http://www.w3.org/1999/xlink" x="0px" y="0px"
	 viewBox="0 0 40 40" enable-background="new 0 0 40 40" xml:space="preserve">
<g id="Outline">
	<rect y="0" fill="none" width="40" height="40"/>
</g>
<g id="Icons">
	<g id="XMLID_00000157993629366642064760000005520903204619864194_">
		<g>
			<path d="M31.89,19.5049c-1.09,0-2.19-0.02-3.29,0c-0.18,0-0.24-0.05-0.3199-0.24c-0.29-0.76-0.59-1.53-0.94-2.29
				c-0.08-0.22-0.05-0.33,0.09-0.46l0.07-0.07c-1.96-0.75-3.47-2.41-4.04-4.47c-0.1,0.1-0.2,0.19-0.29,0.29
				c-0.11,0.14-0.19,0.14-0.35,0.05c-0.75-0.32-1.52-0.65-2.3-0.95c-0.19-0.08-0.24-0.16-0.24-0.35v-3.65h-5.97v3.67
				c0,0.17-0.03,0.25-0.19,0.3c-0.8,0.33-1.58,0.66-2.35,1.0099c-0.16,0.0601-0.24,0.03-0.35-0.08c-0.78-0.82-1.58-1.61-2.35-2.4
				c-0.08-0.08-0.16-0.16-0.19-0.16c-1.39,1.42-2.81,2.86-4.2,4.27c0,0,0.02,0.03,0.05,0.06c0.83,0.84,1.66,1.69,2.49,2.53
				c0.11,0.11,0.13,0.19,0.05,0.36c-0.32,0.76-0.64,1.55-0.96,2.34c-0.05,0.16-0.13,0.24-0.3,0.24c-1.12-0.02-2.24,0-3.34,0H2.38
				v6.08h3.63c0.17,0,0.25,0.05,0.3,0.21c0.29,0.79,0.64,1.58,0.96,2.37c0.08,0.17,0.06,0.25-0.05,0.36
				c-0.72,0.7-1.45,1.44-2.17,2.17c-0.13,0.14-0.29,0.28-0.4,0.39c1.45,1.47,2.84,2.88,4.23,4.3c0.83-0.85,1.68-1.72,2.54-2.59
				c0.13-0.11,0.22-0.13,0.38-0.05c0.72,0.32,1.44,0.65,2.19,0.92c0.27,0.11,0.35,0.22,0.32,0.4901v3.5699h5.97
				c0-1.25,0.03-2.45,0-3.65c0-0.24,0.08-0.3,0.27-0.38c0.75-0.3,1.5-0.6,2.25-0.95c0.16-0.06,0.26-0.06,0.4,0.08
				c0.77,0.79,1.58,1.61,2.35,2.4c0.08,0.08,0.14,0.13,0.16,0.16c1.42-1.44,2.81-2.86,4.2599-4.3c-0.06-0.03-0.14-0.09-0.1899-0.17
				c-0.8-0.79-1.58-1.6-2.38-2.39c-0.14-0.11-0.14-0.19-0.08-0.38c0.35-0.77,0.67-1.56,0.96-2.32c0.08-0.19,0.14-0.24,0.3199-0.24
				h3.62v-6.08H31.89z M17.28,28.6349c-3.29-0.03-5.97-2.78-5.97-6.13c0.03-3.32,2.73-6.05,6-6.05c3.29,0,5.97,2.75,5.97,6.08
				C23.28,25.8749,20.57,28.6349,17.28,28.6349z"/>
		</g>
	</g>
	<path d="M29.9053,17.9046c-4.2568,0-7.7197-3.5059-7.7197-7.8154c0-4.3086,3.4629-7.8145,7.7197-7.8145
		s7.7197,3.5059,7.7197,7.8145C37.625,14.3987,34.1621,17.9046,29.9053,17.9046z M29.9053,4.2747
		c-3.1543,0-5.7197,2.6084-5.7197,5.8145c0,3.207,2.5654,5.8154,5.7197,5.8154s5.7197-2.6084,5.7197-5.8154
		C35.625,6.8831,33.0596,4.2747,29.9053,4.2747z"/>
	<g>
		<polygon points="31.7236,13.5657 28.7109,10.5091 28.7129,6.1878 30.7129,6.1897 30.7109,9.6888 33.1475,12.1614 		"/>
	</g>
</g>
</svg>
