<?xml version="1.0" encoding="utf-8"?>
<!-- Generator: Adobe Illustrator 26.5.0, SVG Export Plug-In . SVG Version: 6.00 Build 0)  -->
<svg version="1.1" xmlns="http://www.w3.org/2000/svg" xmlns:xlink="http://www.w3.org/1999/xlink" x="0px" y="0px"
	 viewBox="0 0 40 40" enable-background="new 0 0 40 40" xml:space="preserve">
<g id="Outline">
	<rect y="0" fill="none" width="40" height="40"/>
</g>
<g id="Icons">
	<g>
		<g>
			<path d="M32.49,2.1088H7.51c-2.76,0-5.01,2.24-5.01,5.0099v25.77c0,2.76,2.25,5,5.01,5h24.98c2.76,0,5.01-2.24,5.01-5v-25.77
				C37.5,4.3488,35.25,2.1088,32.49,2.1088z M21,10.4988h14.5v7.7H21V10.4988z M21,20.1988h14.5v7.02H21V20.1988z M19,35.8888H7.51
				c-1.66,0-3.01-1.34-3.01-3v-3.67H19V35.8888z M19,27.2188H4.5v-7.02H19V27.2188z M19,18.1988H4.5v-7.7H19V18.1988z M35.5,32.8888
				c0,1.66-1.35,3-3.01,3H21v-6.67h14.5V32.8888z"/>
		</g>
	</g>
</g>
</svg>
