<?xml version="1.0" encoding="utf-8"?>
<!-- Generator: Adobe Illustrator 26.5.0, SVG Export Plug-In . SVG Version: 6.00 Build 0)  -->
<svg version="1.1" xmlns="http://www.w3.org/2000/svg" xmlns:xlink="http://www.w3.org/1999/xlink" x="0px" y="0px"
	 viewBox="0 0 40 40" enable-background="new 0 0 40 40" xml:space="preserve">
<g id="Outline">
</g>
<g id="Icons">
	<g>
		<path d="M32.36,26.2507c-0.06,0.01-0.13,0.01-0.2,0.01v-0.04L32.36,26.2507z"/>
		<path d="M32.16,26.2207v0.04c0.07,0,0.14,0,0.2-0.01L32.16,26.2207z"/>
	</g>
	<g>
		<path d="M32.36,26.2507c-0.06,0.01-0.13,0.01-0.2,0.01v-0.04L32.36,26.2507z"/>
	</g>
	<g>
		<path d="M33.31,16.8907c-0.81-6.74-6.51-11.97-13.41-11.97c-6.9,0-12.61,5.2401-13.41,11.9901c-2.23,0.54-3.89,2.5699-3.89,4.98
			c0,2.82,2.29,5.12,5.09,5.12h0.75v-9.54c0.53-5.91,5.48-10.55,11.46-10.55c6.35,0,11.5099,5.21,11.5099,11.62v7.6201
			c-0.1299,0.7-0.67,2.75-2.62,4.1299c-1.73,1.23-3.57,1.23-4.46,1.14c-0.53-1.05-2.1-1.77-4.07-1.77c-2.44,0-4.28,1.11-4.28,2.58
			c0,1.48,1.84,2.59,4.28,2.59c1.74,0,3.17-0.56,3.84-1.42c0.25,0.03,0.57,0.05,0.92,0.05c1.28,0,3.15-0.27,4.92-1.54
			c2.28-1.62,3.09-3.91,3.37-5.04c2.26-0.53,3.94-2.57,3.94-4.99C37.25,19.4607,35.57,17.4207,33.31,16.8907z M32.16,26.2607v-0.04
			l0.2,0.03C32.3,26.2607,32.23,26.2607,32.16,26.2607z"/>
	</g>
	<g>
		<polygon points="25.99,19.5406 15.27,19.5406 18.82,23.1207 17.4,24.5207 11.47,18.5406 17.4,12.5507 18.82,13.9507 
			15.27,17.5406 25.99,17.5406 		"/>
	</g>
</g>
</svg>
