<?xml version="1.0" encoding="utf-8"?>
<!-- Generator: Adobe Illustrator 26.5.0, SVG Export Plug-In . SVG Version: 6.00 Build 0)  -->
<svg version="1.1" xmlns="http://www.w3.org/2000/svg" xmlns:xlink="http://www.w3.org/1999/xlink" x="0px" y="0px"
	 viewBox="0 0 40 40" enable-background="new 0 0 40 40" xml:space="preserve">
<g id="Outline">
</g>
<g id="Icons">
	
		<ellipse transform="matrix(1 -0.0065 0.0065 1 -0.0648 0.0712)" fill="#FFFFFF" stroke="#000000" stroke-width="2" stroke-miterlimit="10" cx="10.876" cy="9.9567" rx="4.1449" ry="4.187"/>
	<path fill="#FFFFFF" stroke="#000000" stroke-width="2" stroke-miterlimit="10" d="M3.9012,26.1831l0.0511-3.517
		c0.041-2.8201,2.3373-5.0723,5.1291-5.0306l0.9771,0.0146l2.4344,0.0364c2.7918,0.0417,5.0217,2.3617,4.9808,5.1818l-0.0511,3.517"
		/>
	<path d="M17.4265,32.9089l-13.5-0.2019c-0.4231-0.0063-0.7706-0.3387-0.7987-0.7639l-0.626-9.4999
		c-0.0314-0.4768,0.348-0.8789,0.8224-0.8718l14.9611,0.2237c0.4722,0.0071,0.839,0.4167,0.7973,0.8903l-0.8351,9.4781
		C18.2099,32.5902,17.8518,32.9153,17.4265,32.9089z"/>
	<ellipse transform="matrix(1 -0.0074 0.0074 1 -0.2 0.0801)" fill="#FFFFFF" cx="10.7929" cy="27.2401" rx="1.5909" ry="1.6154"/>
	<path d="M12.6694,34.9802l-3.936-0.0589c-0.2182-0.0033-0.3925-0.1828-0.3893-0.401l0.0116-0.796
		c0.0032-0.2183,0.1828-0.3928,0.4011-0.3895l3.936,0.0589c0.2182,0.0033,0.3925,0.1828,0.3893,0.401l-0.0116,0.796
		C13.0674,34.8091,12.8878,34.9835,12.6694,34.9802z"/>
	<rect x="9.832" y="32.1382" transform="matrix(0.9999 0.015 -0.015 0.9999 0.4946 -0.1561)" width="1.7104" height="1.7223"/>
	
		<ellipse transform="matrix(1 -0.0065 0.0065 1 -0.0644 0.1914)" fill="#FFFFFF" stroke="#000000" stroke-width="2" stroke-miterlimit="10" cx="29.2901" cy="9.9567" rx="4.1449" ry="4.187"/>
	<path fill="#FFFFFF" stroke="#000000" stroke-width="2" stroke-miterlimit="10" d="M22.3153,26.1831l0.0511-3.517
		c0.041-2.8201,2.3373-5.0723,5.1291-5.0306l0.9771,0.0146l2.4344,0.0364c2.7918,0.0417,5.0217,2.3617,4.9808,5.1818l-0.0511,3.517"
		/>
	<path d="M35.8406,32.9089l-13.5-0.2019c-0.4231-0.0063-0.7706-0.3387-0.7987-0.7639l-0.626-9.4999
		c-0.0314-0.4768,0.348-0.8789,0.8224-0.8718l14.9611,0.2237c0.4722,0.0071,0.839,0.4167,0.7973,0.8903l-0.8351,9.4781
		C36.6241,32.5902,36.266,32.9153,35.8406,32.9089z"/>
	
		<ellipse transform="matrix(1 -0.0074 0.0074 1 -0.1995 0.2155)" fill="#FFFFFF" cx="29.2071" cy="27.2401" rx="1.5909" ry="1.6154"/>
	<path d="M31.0836,34.9802l-3.936-0.0589c-0.2182-0.0033-0.3925-0.1828-0.3893-0.401l0.0116-0.796
		c0.0032-0.2183,0.1828-0.3928,0.4011-0.3895l3.936,0.0589c0.2182,0.0033,0.3925,0.1828,0.3893,0.401l-0.0116,0.796
		C31.4816,34.8091,31.3019,34.9835,31.0836,34.9802z"/>
	<rect x="28.2461" y="32.1382" transform="matrix(0.9999 0.015 -0.015 0.9999 0.4967 -0.4315)" width="1.7104" height="1.7223"/>
</g>
<g id="Layer_3">
</g>
</svg>
