<?xml version="1.0" encoding="utf-8"?>
<!-- Generator: Adobe Illustrator 26.5.0, SVG Export Plug-In . SVG Version: 6.00 Build 0)  -->
<svg version="1.1" xmlns="http://www.w3.org/2000/svg" xmlns:xlink="http://www.w3.org/1999/xlink" x="0px" y="0px"
	 viewBox="0 0 40 40" enable-background="new 0 0 40 40" xml:space="preserve">
<g id="Outline">
</g>
<g id="Icons">
	<g id="XMLID_00000172431305028736930830000003194801074611298717_">
		<path d="M31.8682,37.7499H8.1318c-1.9111,0-3.4658-1.5547-3.4658-3.4658V7.5537c0-1.9111,1.5547-3.4658,3.4658-3.4658h23.7363
			c1.9111,0,3.4658,1.5547,3.4658,3.4658v26.7305C35.334,36.1953,33.7793,37.7499,31.8682,37.7499z M8.1318,6.0878
			c-0.8086,0-1.4658,0.6572-1.4658,1.4658v26.7305c0,0.8086,0.6572,1.4658,1.4658,1.4658h23.7363
			c0.8086,0,1.4658-0.6572,1.4658-1.4658V7.5537c0-0.8086-0.6572-1.4658-1.4658-1.4658H8.1318z"/>
	</g>
	<g id="XMLID_00000054949085936193704620000003852076512322319548_">
		<path d="M25.5124,6.9265H14.4876c-0.6808,0-1.2328-0.5519-1.2328-1.2328V4.4828c0-0.6808,0.5519-1.2328,1.2328-1.2328h11.0249
			c0.6808,0,1.2328,0.5519,1.2328,1.2328v1.2109C26.7452,6.3745,26.1933,6.9265,25.5124,6.9265z"/>
		<path d="M25.5127,7.6767H14.4873c-1.0928,0-1.9824-0.8896-1.9824-1.9834V4.4824c0-1.0928,0.8896-1.9824,1.9824-1.9824h11.0254
			c1.0928,0,1.9824,0.8896,1.9824,1.9824v1.2109C27.4951,6.7871,26.6055,7.6767,25.5127,7.6767z M14.4873,3.9999
			c-0.2656,0-0.4824,0.2168-0.4824,0.4824v1.2109c0,0.2666,0.2168,0.4834,0.4824,0.4834h11.0254
			c0.2656,0,0.4824-0.2168,0.4824-0.4834V4.4824c0-0.2656-0.2168-0.4824-0.4824-0.4824H14.4873z"/>
	</g>
	<g id="XMLID_00000122697653549801090860000009083553823137613741_">
		<rect x="17.1582" y="15.4023" width="11.2305" height="2"/>
	</g>
	<g id="XMLID_00000028307960317437122230000002293330022214190722_">
		<rect x="17.1582" y="21.1445" width="11.2305" height="2"/>
	</g>
	<g id="XMLID_00000114048879721506284170000017911772086607772072_">
		<rect x="17.1582" y="26.8867" width="11.2305" height="2"/>
	</g>
	<g>
		<rect x="11.6111" y="15.79" width="1.2401" height="1.2255"/>
		<rect x="10.6113" y="14.79" width="3.2402" height="3.2256"/>
	</g>
	<g>
		<rect x="11.6111" y="21.5319" width="1.2401" height="1.2255"/>
		<rect x="10.6113" y="20.5322" width="3.2402" height="3.2256"/>
	</g>
	<g>
		<rect x="11.6111" y="27.2737" width="1.2401" height="1.2255"/>
		<rect x="10.6113" y="26.2734" width="3.2402" height="3.2256"/>
	</g>
</g>
</svg>
