<?xml version="1.0" encoding="utf-8"?>
<!-- Generator: Adobe Illustrator 26.5.0, SVG Export Plug-In . SVG Version: 6.00 Build 0)  -->
<svg version="1.1" xmlns="http://www.w3.org/2000/svg" xmlns:xlink="http://www.w3.org/1999/xlink" x="0px" y="0px"
	 viewBox="0 0 40 40" enable-background="new 0 0 40 40" xml:space="preserve">
<g id="Outline">
</g>
<g id="Icons">
	<path d="M21.6332,34.0339v-17.933c0-1.3085,1.0607-2.3692,2.3692-2.3692h11.1285c1.3085,0,2.3692,1.0607,2.3692,2.3692v17.933
		c0,1.3085-1.0607,2.3692-2.3692,2.3692H24.0023C22.6939,36.4031,21.6332,35.3424,21.6332,34.0339z"/>
	<polyline fill="none" stroke="#FFFFFF" stroke-width="2" stroke-miterlimit="10" points="25.5687,19.2557 28.0786,21.8054 
		33.0804,16.7244 	"/>
	
		<line fill="none" stroke="#FFFFFF" stroke-width="1.5" stroke-miterlimit="10" x1="26.8236" y1="32.9239" x2="32.5409" y2="27.1161"/>
	
		<line fill="none" stroke="#FFFFFF" stroke-width="2" stroke-miterlimit="10" x1="32.5409" y1="32.9239" x2="26.8236" y2="27.1161"/>
	<path fill="none" stroke="#000000" stroke-width="2" stroke-miterlimit="10" d="M3.25,32.197v-5.1459
		c0-4.1268,3.2825-7.4715,7.3316-7.4715h1.4174h3.5306c4.049,0,7.3316,3.3448,7.3316,7.4715v5.1459"/>
	
		<ellipse fill="none" stroke="#000000" stroke-width="2" stroke-miterlimit="10" cx="13.0561" cy="10.5188" rx="6.0567" ry="6.1719"/>
</g>
</svg>
