<?xml version="1.0" encoding="utf-8"?>
<!-- Generator: Adobe Illustrator 26.5.0, SVG Export Plug-In . SVG Version: 6.00 Build 0)  -->
<svg version="1.1" xmlns="http://www.w3.org/2000/svg" xmlns:xlink="http://www.w3.org/1999/xlink" x="0px" y="0px"
	 viewBox="0 0 40 40" enable-background="new 0 0 40 40" xml:space="preserve">
<g id="Outline">
</g>
<g id="Icons">
	<path d="M29.1574,12.0674l-6.3199-8.16c-0.38-0.49-0.95-0.77-1.5601-0.77h-17.05c-1.09,0-1.98,0.89-1.98,1.98v27.39
		c0,1.09,0.89,1.98,1.98,1.98h20.21c-0.57-0.58-1.04-1.26-1.38-2l-18.81,0.02l-0.02-27.37h15.55v7.81c0,1.09,0.89,1.97,1.97,1.97
		h5.82l0.01,7.55c0.63-0.19,1.3-0.3,1.99-0.3v-8.89C29.5675,12.8374,29.4174,12.4075,29.1574,12.0674z M21.7774,12.9474v-7.14
		l5.51,7.11L21.7774,12.9474z"/>
	<rect x="8.1102" y="17.233" width="13.0664" height="2"/>
	<rect x="8.1102" y="22.3214" width="13.0664" height="2"/>
	<path d="M29.6174,22.1675h-0.05c-0.69,0-1.36,0.11-1.99,0.3c-3.01,0.87-5.21,3.66-5.21,6.95c0,1.1,0.24,2.14,0.69,3.07
		c0.34,0.74,0.81,1.42,1.38,2c1.32,1.34,3.15,2.18,5.18,2.18c4,0,7.25-3.25,7.25-7.25S33.6174,22.1675,29.6174,22.1675z
		 M29.5675,32.2074l-1.54,1.58l-1.2599-1.3l-1.9901-2.04l1.4301-1.4l1.39,1.42l0.43,0.45l1.54-1.58l3.46-3.56l1.4301,1.4
		L29.5675,32.2074z"/>
</g>
<g id="Layer_3">
</g>
</svg>
