<?xml version="1.0" encoding="utf-8"?>
<!-- Generator: Adobe Illustrator 26.5.0, SVG Export Plug-In . SVG Version: 6.00 Build 0)  -->
<svg version="1.1" xmlns="http://www.w3.org/2000/svg" xmlns:xlink="http://www.w3.org/1999/xlink" x="0px" y="0px"
	 viewBox="0 0 40 40" enable-background="new 0 0 40 40" xml:space="preserve">
<g id="Outline">
</g>
<g id="Icons">
	
		<path id="XMLID_00000155838354210907306550000010352255414370202009_" fill="#FFFFFF" stroke="#000000" stroke-width="2" stroke-miterlimit="10" d="
		M3.25,24.8928V10.1661c0-0.8755,0.7097-1.5853,1.5853-1.5853h18.1121c0.8755,0,1.5853,0.7097,1.5853,1.5853v14.7267
		c0,0.8755-0.7097,1.5853-1.5853,1.5853H4.8353C3.9598,26.478,3.25,25.7683,3.25,24.8928z"/>
	
		<line id="XMLID_00000013888645835807779330000007992801093972912800_" fill="#FFFFFF" stroke="#000000" stroke-width="2" stroke-miterlimit="10" x1="13.8913" y1="27.0535" x2="13.8913" y2="31.419"/>
	
		<line id="XMLID_00000077290406221386327930000013439057905926909357_" fill="#FFFFFF" stroke="#000000" stroke-width="2" stroke-miterlimit="10" x1="18.6725" y1="31.4191" x2="9.1102" y2="31.4191"/>
	<path stroke="#000000" stroke-width="2.2263" stroke-miterlimit="10" d="M35.808,31.4191h-5.4986
		c-0.5686,0-1.0295-0.4609-1.0295-1.0295V15.9464c0-0.5686,0.4609-1.0295,1.0295-1.0295h5.4986
		c0.5686,0,1.0295,0.4609,1.0295,1.0295v14.4433C36.8375,30.9582,36.3766,31.4191,35.808,31.4191z"/>
	
		<line fill="none" stroke="#FFFFFF" stroke-width="1.4842" stroke-miterlimit="10" x1="30.9594" y1="19.0111" x2="35.0545" y2="19.0111"/>
	
		<line fill="none" stroke="#FFFFFF" stroke-width="1.4842" stroke-miterlimit="10" x1="30.9594" y1="21.9771" x2="35.0545" y2="21.9771"/>
	<ellipse fill="#FFFFFF" cx="33.0587" cy="26.7809" rx="1.0238" ry="1.0352"/>
</g>
</svg>
