<?xml version="1.0" encoding="utf-8"?>
<!-- Generator: Adobe Illustrator 26.5.0, SVG Export Plug-In . SVG Version: 6.00 Build 0)  -->
<svg version="1.1" xmlns="http://www.w3.org/2000/svg" xmlns:xlink="http://www.w3.org/1999/xlink" x="0px" y="0px"
	 viewBox="0 0 40 40" enable-background="new 0 0 40 40" xml:space="preserve">
<g id="Outline">
</g>
<g id="Icons">
	<g>
		<path d="M13.4891,17.8386c-3.4424,0-6.2432-2.8062-6.2432-6.2549s2.8008-6.2544,6.2432-6.2544
			c3.4434,0,6.2441,2.8057,6.2441,6.2544S16.9324,17.8386,13.4891,17.8386z M13.4891,7.3293c-2.3398,0-4.2432,1.9087-4.2432,4.2544
			c0,2.3462,1.9033,4.2549,4.2432,4.2549s4.2441-1.9087,4.2441-4.2549C17.7332,9.238,15.8289,7.3293,13.4891,7.3293z"/>
	</g>
	<path d="M26.7274,17.2213c-2.51,0-4.77,1.13-6.27,2.9c-1.29-1.13-2.98-1.82-4.83-1.82h-4.28c-4.05,0-7.35,3.3-7.35,7.36v4.38h2
		v-4.38c0-2.96,2.4-5.36,5.35-5.36h4.28c1.45,0,2.76,0.58,3.72,1.51c-0.54,1.09-0.84,2.31-0.84,3.61c0,4.52,3.68,8.19,8.22,8.19
		c4.53,0,8.21-3.67,8.21-8.19C34.9375,20.8913,31.2575,17.2213,26.7274,17.2213z M25.1174,31.2013c-0.46,0-0.83-0.37-0.83-0.82
		c0-0.46,0.37-0.83,0.83-0.83c0.45,0,0.82,0.37,0.82,0.83C25.9375,30.8314,25.5675,31.2013,25.1174,31.2013z M29.0175,31.2013
		c-0.45,0-0.82-0.37-0.82-0.82c0-0.46,0.37-0.83,0.82-0.83c0.46,0,0.83,0.37,0.83,0.83
		C29.8474,30.8314,29.4774,31.2013,29.0175,31.2013z M31.0675,24.7913l-1.15,3.51c-0.11,0.33-0.42,0.56-0.77,0.56h-4.23
		c-0.39,0-0.73-0.28-0.8-0.66l-0.19-1.02c-0.01-0.03-0.01-0.05-0.02-0.08l-0.86-4.11h-1.28c-0.42,0-0.75-0.34-0.75-0.75
		c0-0.39,0.29-0.71,0.67-0.74c0.02-0.01,0.05-0.01,0.08-0.01h1.9c0.05,0,0.1,0.01,0.15,0.02c0.05,0,0.1,0.02,0.14,0.04
		c0.12,0.05,0.22,0.13,0.3,0.23c0.01,0.02,0.03,0.05,0.04,0.07c0,0,0.01,0,0.01,0.01c0.02,0.01,0.03,0.03,0.03,0.05
		c0,0.01,0,0.01,0,0.01c0.03,0.05,0.05,0.11,0.06,0.17l0.34,1.65h5.56C30.8474,23.7413,31.2274,24.2714,31.0675,24.7913z"/>
</g>
<g id="Layer_3">
</g>
</svg>
