<?xml version="1.0" encoding="utf-8"?>
<!-- Generator: Adobe Illustrator 26.5.0, SVG Export Plug-In . SVG Version: 6.00 Build 0)  -->
<svg version="1.1" xmlns="http://www.w3.org/2000/svg" xmlns:xlink="http://www.w3.org/1999/xlink" x="0px" y="0px"
	 viewBox="0 0 40 40" enable-background="new 0 0 40 40" xml:space="preserve">
<g id="Outline">
</g>
<g id="Icons">
	<path d="M35.589,7.3266c-0.28-3.4901-8.21-5.08-15.59-5.08c-7.37,0-15.31,1.59-15.59,5.08c-0.01,0.06-0.01,0.12-0.01,0.19v24.96
		c0,3.62,8.09,5.27,15.6,5.27c7.52,0,15.6-1.65,15.6-5.27v-24.96C35.599,7.4466,35.599,7.3866,35.589,7.3266z M33.599,32.4765
		c0,1.11-4.8,3.27-13.6,3.27c-8.8,0-13.6-2.16-13.6-3.27v-9.31c2.87,1.7,8.37,2.5,13.6,2.5c5.23,0,10.74-0.8,13.6-2.5V32.4765z
		 M33.599,20.3965c0,1.11-4.8,3.27-13.6,3.27c-8.8,0-13.6-2.16-13.6-3.27v-10.11c2.87,1.71,8.37,2.5,13.6,2.5
		c5.23,0,10.74-0.79,13.6-2.5V20.3965z M19.999,10.7865c-8.8,0-13.6-2.16-13.6-3.27c0-1.11,4.8-3.27,13.6-3.27
		c8.8,0,13.6,2.16,13.6,3.27C33.599,8.6265,28.799,10.7865,19.999,10.7865z"/>
	<path d="M35.599,7.3266v0.19c0-0.07,0-0.13-0.01-0.19H35.599z"/>
	<path d="M4.409,7.3266c-0.01,0.06-0.01,0.12-0.01,0.19v-0.19H4.409z"/>
	<circle cx="11.579" cy="17.3965" r="2.25"/>
	<circle cx="11.579" cy="29.8166" r="2.25"/>
</g>
<g id="Layer_3">
</g>
</svg>
