<?xml version="1.0" encoding="utf-8"?>
<!-- Generator: Adobe Illustrator 26.5.0, SVG Export Plug-In . SVG Version: 6.00 Build 0)  -->
<svg version="1.1" xmlns="http://www.w3.org/2000/svg" xmlns:xlink="http://www.w3.org/1999/xlink" x="0px" y="0px"
	 viewBox="0 0 40 40" enable-background="new 0 0 40 40" xml:space="preserve">
<g id="Outline">
</g>
<g id="Icons">
	<g>
		<path d="M20.1112,31.4762H4.2166c-1.085,0-1.9668-0.8818-1.9668-1.9658V10.4899c0-1.085,0.8818-1.9668,1.9668-1.9668h15.8945
			c1.085,0,1.9668,0.8818,1.9668,1.9668v19.0205C22.078,30.5944,21.1961,31.4762,20.1112,31.4762z M20.078,10.4899L4.2166,10.5231
			l0.0332,18.9873l15.8281-0.0342V10.4899z"/>
	</g>
	<g>
		<rect x="25.7244" y="20.4489" width="11.4639" height="2"/>
	</g>
	<g>
		<rect x="25.7244" y="24.0973" width="11.4639" height="2"/>
	</g>
	<g>
		<path d="M31.2996,18.5817h-5.5752v-5.6768h5.5752V18.5817z M27.7244,16.5817h1.5752v-1.6768h-1.5752V16.5817z"/>
	</g>
</g>
<g id="Layer_3">
</g>
</svg>
