<?xml version="1.0" encoding="utf-8"?>
<!-- Generator: Adobe Illustrator 26.5.0, SVG Export Plug-In . SVG Version: 6.00 Build 0)  -->
<svg version="1.1" xmlns="http://www.w3.org/2000/svg" xmlns:xlink="http://www.w3.org/1999/xlink" x="0px" y="0px"
	 viewBox="0 0 40 40" enable-background="new 0 0 40 40" xml:space="preserve">
<g id="Outline">
</g>
<g id="Icons">
	<g>
		<path d="M8.1456,30.4467H6.7797c-0.1884,0-0.3411-0.1527-0.3411-0.3411V28.743c0-0.1884,0.1527-0.3411,0.3411-0.3411h1.3659
			c0.1884,0,0.3411,0.1527,0.3411,0.3411v1.3627C8.4867,30.294,8.334,30.4467,8.1456,30.4467z"/>
	</g>
	<g>
		<path d="M8.1456,34.5652H6.7797c-0.1884,0-0.3411-0.1527-0.3411-0.3411v-1.3627c0-0.1884,0.1527-0.3411,0.3411-0.3411h1.3659
			c0.1884,0,0.3411,0.1527,0.3411,0.3411v1.3627C8.4867,34.4125,8.334,34.5652,8.1456,34.5652z"/>
	</g>
	<g>
		<path d="M12.3989,30.4467H11.033c-0.1884,0-0.3411-0.1527-0.3411-0.3411V28.743c0-0.1884,0.1527-0.3411,0.3411-0.3411h1.3659
			c0.1884,0,0.3411,0.1527,0.3411,0.3411v1.3627C12.74,30.294,12.5873,30.4467,12.3989,30.4467z"/>
	</g>
	<g>
		<path d="M16.6523,30.4467h-1.3659c-0.1884,0-0.3411-0.1527-0.3411-0.3411V28.743c0-0.1884,0.1527-0.3411,0.3411-0.3411h1.3659
			c0.1884,0,0.3411,0.1527,0.3411,0.3411v1.3627C16.9933,30.294,16.8406,30.4467,16.6523,30.4467z"/>
	</g>
	<g>
		<path d="M20.9056,30.4467h-1.3659c-0.1884,0-0.3411-0.1527-0.3411-0.3411V28.743c0-0.1884,0.1527-0.3411,0.3411-0.3411h1.3659
			c0.1884,0,0.3411,0.1527,0.3411,0.3411v1.3627C21.2467,30.294,21.094,30.4467,20.9056,30.4467z"/>
	</g>
	<g>
		<path d="M25.1589,30.4467H23.793c-0.1884,0-0.3411-0.1527-0.3411-0.3411V28.743c0-0.1884,0.1527-0.3411,0.3411-0.3411h1.3659
			c0.1884,0,0.3411,0.1527,0.3411,0.3411v1.3627C25.5,30.294,25.3473,30.4467,25.1589,30.4467z"/>
	</g>
	<g>
		<path d="M29.4122,30.4467h-1.3659c-0.1884,0-0.3411-0.1527-0.3411-0.3411V28.743c0-0.1884,0.1527-0.3411,0.3411-0.3411h1.3659
			c0.1884,0,0.3411,0.1527,0.3411,0.3411v1.3627C29.7533,30.294,29.6006,30.4467,29.4122,30.4467z"/>
	</g>
	<g>
		<path d="M29.4122,34.5652h-1.3659c-0.1884,0-0.3411-0.1527-0.3411-0.3411v-1.3627c0-0.1884,0.1527-0.3411,0.3411-0.3411h1.3659
			c0.1884,0,0.3411,0.1527,0.3411,0.3411v1.3627C29.7533,34.4125,29.6006,34.5652,29.4122,34.5652z"/>
	</g>
	<g>
		<path d="M12.2221,34.5652h-1.3659c-0.1884,0-0.3411-0.1527-0.3411-0.3411v-1.3627c0-0.1884,0.1527-0.3411,0.3411-0.3411h1.3659
			c0.1884,0,0.3411,0.1527,0.3411,0.3411v1.3627C12.5632,34.4125,12.4105,34.5652,12.2221,34.5652z"/>
	</g>
	<g>
		<path d="M20.8289,34.5652h-5.6695c-0.1884,0-0.3411-0.1527-0.3411-0.3411v-1.3627c0-0.1884,0.1527-0.3411,0.3411-0.3411h5.6695
			c0.1884,0,0.3411,0.1527,0.3411,0.3411v1.3627C21.17,34.4125,21.0172,34.5652,20.8289,34.5652z"/>
	</g>
	<g>
		<path d="M25.1319,34.5652H23.766c-0.1884,0-0.3411-0.1527-0.3411-0.3411v-1.3627c0-0.1884,0.1527-0.3411,0.3411-0.3411h1.3659
			c0.1884,0,0.3411,0.1527,0.3411,0.3411v1.3627C25.473,34.4125,25.3203,34.5652,25.1319,34.5652z"/>
	</g>
	<g>
		<rect x="14.0496" y="11.9735" width="5.1494" height="2"/>
	</g>
	<g>
		<rect x="14.0496" y="6.8387" width="7.8887" height="2"/>
	</g>
	<g>
		<path d="M35.4274,12.6819h-8.79v-9.72c0-0.97-0.79-1.77-1.77-1.77h-13.75c-0.97,0-1.77,0.8-1.77,1.77v16.02
			c0,0.97,0.8,1.76,1.77,1.76h13.75c0.98,0,1.77-0.79,1.77-1.76v-4.3h8.79c0.04,0,0.07,0.04,0.07,0.08v13.12
			c0,0.05-0.03,0.08-0.07,0.08h-1.94v-2.1c0-1.11-0.9-2-2.01-2h-26.97c-1.11,0-2.01,0.89-2.01,2v10.94c0,1.1,0.9,2,2.01,2h26.97
			c1.11,0,2.01-0.9,2.01-2v-6.84h1.94c1.14,0,2.07-0.9301,2.07-2.08v-13.12C37.4974,13.6119,36.5675,12.6819,35.4274,12.6819z
			 M24.6375,18.7419h-13.29V3.192h13.29V18.7419z M31.4874,36.8019h-26.99l0.01-10.94h26.98V36.8019z"/>
	</g>
</g>
<g id="Layer_3">
</g>
</svg>
