<?xml version="1.0" encoding="utf-8"?>
<!-- Generator: Adobe Illustrator 26.5.0, SVG Export Plug-In . SVG Version: 6.00 Build 0)  -->
<svg version="1.1" xmlns="http://www.w3.org/2000/svg" xmlns:xlink="http://www.w3.org/1999/xlink" x="0px" y="0px"
	 viewBox="0 0 40 40" enable-background="new 0 0 40 40" xml:space="preserve">
<g id="Outline">
</g>
<g id="Icons">
	<g>
		<path d="M37.1975,18.1207l-15.32-15.61c-0.52-0.52-1.22-0.82-1.92-0.82c-0.66,0-1.27,0.25-1.72,0.71l-15.55,15.83
			c-0.95,0.98-0.91,2.61,0.11,3.65l15.33,15.61c0.51,0.52,1.21,0.82,1.92,0.82c0.66,0,1.27-0.25,1.72-0.71l15.54-15.83
			C38.2675,20.7906,38.2174,19.1607,37.1975,18.1207z M19.9575,3.6907c0.17,0,0.35,0.08,0.49,0.23l15.32,15.6
			c0.2599,0.25,0.31,0.65,0.11,0.85l-15.54,15.83c-0.09,0.09-0.21,0.11-0.29,0.11c-0.17,0-0.35-0.08-0.49-0.23l-15.33-15.6
			c-0.25-0.2599-0.31-0.65-0.11-0.85l15.55-15.83C19.7374,3.7306,19.8375,3.6907,19.9575,3.6907z"/>
	</g>
	<polygon points="21.2675,20.0007 26.5675,26.8607 24.9774,28.0907 19.9974,21.6407 15.0175,28.0807 13.4375,26.8607 
		18.7374,20.0007 13.4375,13.1307 15.0175,11.9107 19.9974,18.3607 24.9774,11.9107 26.5675,13.1407 	"/>
</g>
<g id="Layer_3">
</g>
</svg>
