<?xml version="1.0" encoding="utf-8"?>
<!-- Generator: Adobe Illustrator 26.5.0, SVG Export Plug-In . SVG Version: 6.00 Build 0)  -->
<svg version="1.1" xmlns="http://www.w3.org/2000/svg" xmlns:xlink="http://www.w3.org/1999/xlink" x="0px" y="0px"
	 viewBox="0 0 40 40" enable-background="new 0 0 40 40" xml:space="preserve">
<g id="Outline">
</g>
<g id="Icons">
	<g id="XMLID_00000111870968312079827390000003154954163682623149_">
		<path d="M2.502,7.4098v2h5.07v26c0,1.1299,0.93,2.06,2.07,2.06h21.07c1.14,0,2.07-0.9301,2.07-2.06v-26h4.72v-2H2.502z
			 M30.782,35.4098c0,0.03-0.03,0.06-0.07,0.06l-21.14-0.06v-26h21.21V35.4098z"/>
		<path d="M24.262,14.5098v15.89c0,0.42-0.27,0.76-0.61,0.76h-0.97c-0.34,0-0.61-0.34-0.61-0.76v-15.89c0-0.42,0.27-0.76,0.61-0.76
			h0.97C23.992,13.7498,24.262,14.0898,24.262,14.5098z"/>
		<path d="M17.922,14.5098v15.89c0,0.42-0.28,0.76-0.61,0.76h-0.97c-0.34,0-0.61-0.34-0.61-0.76v-15.89c0-0.42,0.27-0.76,0.61-0.76
			h0.97C17.642,13.7498,17.922,14.0898,17.922,14.5098z"/>
	</g>
	<g id="XMLID_00000030454320038646321830000017232313021298589593_">
		<rect x="13.6716" y="2.5307" width="12.6562" height="2"/>
	</g>
</g>
<g id="Layer_3">
</g>
</svg>
