<?xml version="1.0" encoding="utf-8"?>
<!-- Generator: Adobe Illustrator 26.5.0, SVG Export Plug-In . SVG Version: 6.00 Build 0)  -->
<svg version="1.1" xmlns="http://www.w3.org/2000/svg" xmlns:xlink="http://www.w3.org/1999/xlink" x="0px" y="0px"
	 viewBox="0 0 40 40" enable-background="new 0 0 40 40" xml:space="preserve">
<g id="Outline">
</g>
<g id="Icons">
	
		<path id="XMLID_00000178885394795193024130000005955408205317162924_" fill="none" stroke="#000000" stroke-width="2" stroke-miterlimit="10" d="
		M30.713,36.4693H9.6385c-0.5878,0-1.0643-0.4765-1.0643-1.0643V8.4108h23.2031V35.405
		C31.7773,35.9928,31.3008,36.4693,30.713,36.4693z"/>
	<path stroke="#000000" stroke-width="0.25" stroke-miterlimit="10" d="M23.6508,13.8781h-0.9693
		c-0.2676,0-0.4846,0.2841-0.4846,0.6345v1.9321V28.472v1.932c0,0.3505,0.217,0.6346,0.4846,0.6346h0.9693
		c0.2677,0,0.4847-0.2841,0.4847-0.6346v-1.932V16.4447v-1.9321C24.1355,14.1621,23.9185,13.8781,23.6508,13.8781z"/>
	<path stroke="#000000" stroke-width="0.25" stroke-miterlimit="10" d="M17.3093,13.8781H16.34
		c-0.2677,0-0.4847,0.2841-0.4847,0.6345v1.9321V28.472v1.932c0,0.3505,0.217,0.6346,0.4847,0.6346h0.9693
		c0.2676,0,0.4846-0.2841,0.4846-0.6346v-1.932V16.4447v-1.9321C17.7939,14.1621,17.5769,13.8781,17.3093,13.8781z"/>
	
		<line id="XMLID_00000126296773467637161220000003657187498401439421_" fill="none" stroke="#000000" stroke-width="2" stroke-miterlimit="10" x1="2.5" y1="8.4108" x2="37.5" y2="8.4108"/>
	
		<line id="XMLID_00000154425430308097645670000016065356048667256985_" fill="none" stroke="#000000" stroke-width="2" stroke-miterlimit="10" x1="13.6719" y1="3.5307" x2="26.3281" y2="3.5307"/>
</g>
</svg>
