<?xml version="1.0" encoding="utf-8"?>
<!-- Generator: Adobe Illustrator 26.5.0, SVG Export Plug-In . SVG Version: 6.00 Build 0)  -->
<svg version="1.1" xmlns="http://www.w3.org/2000/svg" xmlns:xlink="http://www.w3.org/1999/xlink" x="0px" y="0px"
	 viewBox="0 0 40 40" enable-background="new 0 0 40 40" xml:space="preserve">
<g id="Outline">
</g>
<g id="Icons">
	<g id="XMLID_00000018198109626005554940000003997353901114751654_">
		<path d="M35.3875,11.8049h-18.41c-1.16,0-2.11,0.92-2.15,2.07l-1.66,12.03l-0.01,0.14c0,1.18,0.96,2.15,2.15,2.15h18.41
			c1.16,0,2.11-0.93,2.15-2.07l1.66-12.03l0.01-0.14C37.5374,12.7749,36.5775,11.8049,35.3875,11.8049z M33.8775,25.9049l-0.01,0.14
			c0,0.08-0.07,0.15-0.15,0.15h-18.41c-0.07,0-0.13-0.05-0.15-0.12l1.66-11.98l0.01-0.14c0-0.08,0.07-0.15,0.15-0.15h18.41
			c0.07,0,0.13,0.05,0.15,0.12L33.8775,25.9049z"/>
	</g>
	<g>
		<g id="XMLID_00000134940861520298518580000000743988405434680247_">
			<path d="M29.6574,20.0749l2.6,3.29l-1.57,1.25l-2.6-3.28c-0.32,0.25-0.63,0.49-0.95,0.71l-0.26,0.18h-1.84l-1.17-0.99l-5.68,3.6
				l-1.07-1.69l5.14-3.26l-3.78-3.19l1.29-1.53l6,5.06h0.47c1.28-0.93,2.6-2.0699,3.87-3.18c0.73-0.63,1.46-1.27,2.19-1.87
				l1.28,1.54c-0.72,0.59-1.44,1.22-2.16,1.84C30.8375,19.0549,30.2575,19.5649,29.6574,20.0749z"/>
		</g>
	</g>
	<g>
		<rect x="2.7098" y="15.718" width="10.2305" height="2"/>
	</g>
	<g>
		<rect x="2.7098" y="19.6282" width="8.3613" height="2"/>
	</g>
	<g>
		<rect x="2.7098" y="23.5384" width="6.4385" height="2"/>
	</g>
</g>
<g id="Layer_3">
</g>
</svg>
