<?xml version="1.0" encoding="utf-8"?>
<!-- Generator: Adobe Illustrator 26.5.0, SVG Export Plug-In . SVG Version: 6.00 Build 0)  -->
<svg version="1.1" xmlns="http://www.w3.org/2000/svg" xmlns:xlink="http://www.w3.org/1999/xlink" x="0px" y="0px"
	 viewBox="0 0 40 40" enable-background="new 0 0 40 40" xml:space="preserve">
<g id="Outline">
</g>
<g id="Icons">
	<path d="M27.2832,12.9219l0.28,0.36v1.64h0.03v-2H27.2832z"/>
	<path d="M29.1532,12.062l-6.32-8.16c-0.37-0.48-0.95-0.76-1.56-0.76h-17.05c-1.09,0-1.97,0.88-1.97,1.98v27.39
		c0,1.09,0.8799,1.98,1.97,1.98h16.52c-0.79-0.63-1.46-1.32-2.02-1.99l-14.47,0.01l-0.03-27.37h15.55v7.8
		c0,1.09,0.89,1.98,1.98,1.98h5.81l0.0099,5.8c0.7,0.02,1.36,0.1201,1.9901,0.28v-7.72
		C29.5633,12.842,29.4232,12.4119,29.1532,12.062z M21.7732,12.942v-7.14l5.51,7.12L21.7732,12.942z"/>
	<path d="M29.5633,21.002c-0.63-0.16-1.29-0.26-1.9901-0.28c-0.11-0.0099-0.23-0.0099-0.34-0.0099c-2.41,0-4.44,0.87-6.06,2.04
		v-0.43h-13.06v2h11.27c-1.7599,1.85-2.69,3.84-2.69,4.46c0,0.55,0.7,2.11,2.03,3.72c0.56,0.67,1.23,1.36,2.02,1.99
		c1.68,1.34,3.86,2.37,6.49,2.37c7.01,0,10.52-6.98,10.52-7.86C37.7533,28.192,35.0232,22.3519,29.5633,21.002z M29.5633,32.502
		v0.01c-0.67,0.42-1.48,0.67-2.34,0.67c-0.87,0-1.68-0.25-2.36-0.69c-1.23-0.78-2.04-2.15-2.04-3.71c0-2.42,1.97-4.4,4.4-4.4
		c0.12,0,0.24,0,0.36,0.02c0.73,0.05,1.4,0.29,1.98,0.66c1.24,0.78,2.06,2.16,2.06,3.72
		C31.6233,30.3519,30.8033,31.7319,29.5633,32.502z"/>
	<polygon points="27.5932,12.9219 27.5932,14.9219 27.5633,14.9219 27.5633,13.2819 27.2832,12.9219 	"/>
	<g>
		<rect x="8.11" y="17.2332" width="13.0664" height="2"/>
	</g>
	<path d="M29.6233,28.7819c0,1.34-1.08,2.4301-2.4,2.4301s-2.4-1.09-2.4-2.4301c0-1.33,1.08-2.42,2.4-2.42
		S29.6233,27.452,29.6233,28.7819z"/>
</g>
<g id="Layer_3">
</g>
</svg>
