<?xml version="1.0" encoding="utf-8"?>
<!-- Generator: Adobe Illustrator 26.5.0, SVG Export Plug-In . SVG Version: 6.00 Build 0)  -->
<svg version="1.1" xmlns="http://www.w3.org/2000/svg" xmlns:xlink="http://www.w3.org/1999/xlink" x="0px" y="0px"
	 viewBox="0 0 40 40" enable-background="new 0 0 40 40" xml:space="preserve">
<g id="Outline">
</g>
<g id="Icons">
	<g>
		<path d="M16.3796,18.0867H3.8708c-0.8164,0-1.4814-0.6836-1.4814-1.5244V5.2625c0-0.8408,0.665-1.5244,1.4814-1.5244h6.3486
			c0.3975,0,0.7842,0.168,1.0615,0.46l1.6904,1.792h3.4082c0.8164,0,1.4814,0.6836,1.4814,1.5234v9.0488
			C17.861,17.4031,17.196,18.0867,16.3796,18.0867z M4.3894,16.0867H15.861V7.99h-3.7529l-2.124-2.252H4.3894V16.0867z"/>
	</g>
	<g>
		<path d="M35.1286,18.0867H22.6208c-0.8164,0-1.4814-0.6836-1.4814-1.5244V5.2625c0-0.8408,0.665-1.5244,1.4814-1.5244h6.3486
			c0.3975,0,0.7842,0.168,1.0615,0.46l1.6904,1.792h3.4072c0.8164,0,1.4814,0.6836,1.4814,1.5234v9.0488
			C36.6101,17.4031,35.945,18.0867,35.1286,18.0867z M23.1394,16.0867h11.4707V7.99h-3.752l-2.124-2.252h-5.5947V16.0867z"/>
	</g>
	<g>
		<path d="M16.3796,36.2615H3.8708c-0.8164,0-1.4814-0.6836-1.4814-1.5234V23.4373c0-0.8398,0.665-1.5234,1.4814-1.5234h6.3486
			c0.4004,0,0.7881,0.1689,1.0654,0.4639l1.6865,1.7871h3.4082c0.8164,0,1.4814,0.6836,1.4814,1.5244v9.0488
			C17.861,35.5779,17.196,36.2615,16.3796,36.2615z M4.3894,34.2615H15.861v-8.0967h-3.7529l-2.124-2.251H4.3894V34.2615z
			 M9.8278,23.7488c0.001,0,0.001,0.001,0.002,0.002L9.8278,23.7488z"/>
	</g>
	<g>
		<path d="M36.1286,36.2615H23.6208c-0.8164,0-1.4814-0.6836-1.4814-1.5234V23.4373c0-0.8398,0.665-1.5234,1.4814-1.5234h6.3486
			c0.4004,0,0.7881,0.1689,1.0654,0.4639l1.6865,1.7871h3.4072c0.8164,0,1.4814,0.6836,1.4814,1.5244v9.0488
			C37.6101,35.5779,36.945,36.2615,36.1286,36.2615z M24.1394,34.2615h11.4707v-8.0967h-3.752l-2.124-2.251h-5.5947V34.2615z
			 M29.5778,23.7488c0.001,0,0.001,0.001,0.002,0.002L29.5778,23.7488z"/>
	</g>
</g>
<g id="Layer_3">
</g>
</svg>
