<?xml version="1.0" encoding="utf-8"?>
<!-- Generator: Adobe Illustrator 26.5.0, SVG Export Plug-In . SVG Version: 6.00 Build 0)  -->
<svg version="1.1" xmlns="http://www.w3.org/2000/svg" xmlns:xlink="http://www.w3.org/1999/xlink" x="0px" y="0px"
	 viewBox="0 0 40 40" enable-background="new 0 0 40 40" xml:space="preserve">
<g id="Outline">
</g>
<g id="Icons">
	<g>
		<g>
			<path d="M33.0359,37.7785H7.0749c-1.1016,0-1.998-0.8613-1.998-1.9209v-19.876c0-1.0596,0.8965-1.9209,1.998-1.9209H9.822v2
				H7.0749l0.002,19.7969l25.959-0.0791l-0.001-15.8369l-8.3506,0.0791l-4.4033-3.9551l-4.2314-0.0049v-2h4.2021
				c0.5088,0,0.9932,0.1836,1.3643,0.5156l3.834,3.4443h7.5859c1.1025,0,1.999,0.8613,1.999,1.9209v15.916
				C35.0349,36.9172,34.1384,37.7785,33.0359,37.7785z"/>
		</g>
		<g>
			<rect x="11.6921" y="3.5539" width="2" height="22.3662"/>
		</g>
		<g>
			<polygon points="19.0163,11.2394 12.6921,5.0256 6.3679,11.2394 4.9655,9.8137 12.6921,2.2209 20.4187,9.8137 			"/>
		</g>
	</g>
</g>
<g id="Layer_3">
</g>
</svg>
