<?xml version="1.0" encoding="utf-8"?>
<!-- Generator: Adobe Illustrator 26.5.0, SVG Export Plug-In . SVG Version: 6.00 Build 0)  -->
<svg version="1.1" xmlns="http://www.w3.org/2000/svg" xmlns:xlink="http://www.w3.org/1999/xlink" x="0px" y="0px"
	 viewBox="0 0 40 40" enable-background="new 0 0 40 40" xml:space="preserve">
<g id="Outline">
	<rect y="0" fill="none" width="40" height="40"/>
</g>
<g id="Icons">
	<g>
		
			<path id="XMLID_00000027594742134550998960000010830082783038151296_" fill="none" stroke="#000000" stroke-width="2" stroke-miterlimit="10" d="
			M25.3362,8.3461H8.3803c-0.5348,0-0.9683,0.4239-0.9683,0.9468v26.5103c0,0.5229,0.4335,0.9468,0.9683,0.9468h23.2393
			c0.5348,0,0.9683-0.4239,0.9683-0.9468V17.1921c0-0.2105-0.0718-0.4151-0.204-0.5813l-6.2834-7.8992
			C25.9171,8.481,25.6351,8.3461,25.3362,8.3461z"/>
		
			<path id="XMLID_00000031193448257532235580000003965272304677853313_" fill="none" stroke="#000000" stroke-width="2" stroke-miterlimit="10" d="
			M24.8415,9.2929v7.5744c0,0.5229,0.4335,0.9468,0.9683,0.9468h5.8098"/>
		<path fill="none" stroke="#000000" stroke-width="2" stroke-miterlimit="10" d="M14.6061,11.1083v3.4334
			c0,0.8237-0.6829,1.4914-1.5252,1.4914h0c-0.8424,0-1.5252-0.6677-1.5252-1.4914V5.5225c0-1.2551,1.0406-2.2725,2.3242-2.2725h0
			c1.2836,0,2.3242,1.0174,2.3242,2.2725V7.653"/>
		
			<line fill="none" stroke="#000000" stroke-width="2" stroke-miterlimit="10" x1="13.5034" y1="23.2275" x2="26.4966" y2="23.2275"/>
		
			<line fill="none" stroke="#000000" stroke-width="2" stroke-miterlimit="10" x1="13.5034" y1="28.1522" x2="26.4966" y2="28.1522"/>
	</g>
</g>
</svg>
