<?xml version="1.0" encoding="utf-8"?>
<!-- Generator: Adobe Illustrator 26.5.0, SVG Export Plug-In . SVG Version: 6.00 Build 0)  -->
<svg version="1.1" xmlns="http://www.w3.org/2000/svg" xmlns:xlink="http://www.w3.org/1999/xlink" x="0px" y="0px"
	 viewBox="0 0 40 40" enable-background="new 0 0 40 40" xml:space="preserve">
<g id="Outline">
</g>
<g id="Icons">
	<path fill="none" stroke="#000000" stroke-width="2" stroke-miterlimit="10" d="M34.8975,14.8864L22.0433,4.0547
		c-1.0533-0.8875-2.5813-0.9084-3.652-0.0419c-3.166,2.562-9.6674,7.8331-13.4112,10.9401
		c-0.4761,0.3142-0.7912,0.8526-0.7912,1.4657v18.4462c0,0.9702,0.7865,1.7568,1.7568,1.7568h28.1085
		c0.9702,0,1.7568-0.7865,1.7568-1.7568V16.4186C35.811,15.7557,35.4395,15.1854,34.8975,14.8864z"/>
	<line fill="none" stroke="#000000" stroke-width="2" stroke-miterlimit="10" x1="16.86" y1="26.0783" x2="7.9221" y2="33.5448"/>
	<path fill="none" stroke="#000000" stroke-width="2" stroke-miterlimit="10" d="M5.0492,15.8073L18.6545,27.272
		c0.8335,0,1.667,0,2.5005,0c4.5986-3.262,9.1972-7.631,13.7958-11.4281"/>
	
		<line fill="none" stroke="#000000" stroke-width="2" stroke-miterlimit="10" x1="23.1476" y1="26.0783" x2="32.0854" y2="33.5448"/>
	<path d="M26.0607,15.4699c0,0.7137-0.1144,1.3668-0.3431,1.9592c-0.2276,0.5919-0.549,1.0568-0.9653,1.3936
		c-0.4163,0.3368-0.9001,0.5055-1.4503,0.5055c-0.3671,0-0.6908-0.0881-0.9745-0.2636c-0.2814-0.1761-0.4849-0.4077-0.6085-0.6954
		h-0.1189c-0.5353,0.6393-1.2169,0.959-2.045,0.959c-0.8772,0-1.5692-0.2636-2.0747-0.792
		c-0.5055-0.5273-0.7572-1.2501-0.7572-2.1668c0-1.0459,0.3317-1.8883,0.9951-2.5277c0.6645-0.6393,1.5326-0.959,2.6031-0.959
		c0.4255,0,0.8955,0.0412,1.4079,0.1224c0.5135,0.0823,0.9356,0.1801,1.2684,0.2939l-0.1716,3.6354
		c0,0.6891,0.1887,1.0334,0.565,1.0334c0.3168,0,0.5696-0.2316,0.7583-0.6954c0.1887-0.4632,0.2825-1.0688,0.2825-1.8174
		c0-0.7978-0.1658-1.5029-0.4987-2.1148c-0.3317-0.6125-0.7983-1.0797-1.4011-1.4017c-0.6016-0.322-1.289-0.4832-2.0622-0.4832
		c-1.0019,0-1.8712,0.2059-2.61,0.617c-0.7389,0.4112-1.305,1.0048-1.6985,1.7802c-0.3946,0.776-0.5913,1.6716-0.5913,2.6878
		c0,1.3679,0.366,2.4173,1.0968,3.1487c0.7308,0.7309,1.79,1.0963,3.1784,1.0963c0.525,0,1.1026-0.0583,1.7316-0.1744
		c0.6291-0.1167,1.249-0.2865,1.8586-0.5095v1.4274c-1.0602,0.4512-2.2383,0.6765-3.5307,0.6765
		c-1.8837,0-3.3523-0.4958-4.4057-1.4869c-1.0534-0.9911-1.5795-2.3693-1.5795-4.1335c0-1.2244,0.2688-2.3355,0.8063-3.334
		c0.5376-0.9991,1.3039-1.7819,2.2978-2.3492c0.9939-0.5679,2.1376-0.8515,3.4301-0.8515c1.0911,0,2.0644,0.223,2.9223,0.6691
		c0.8578,0.4461,1.5189,1.0803,1.9844,1.9032C25.8274,13.4455,26.0607,14.3942,26.0607,15.4699z M18.4479,16.3992
		c0,1.0459,0.4255,1.5686,1.2787,1.5686c0.4461,0,0.7846-0.1573,1.0179-0.4724c0.2333-0.3145,0.374-0.8264,0.4232-1.5349
		l0.0972-1.643c-0.2528-0.0543-0.5376-0.0818-0.8544-0.0818c-0.6199,0-1.1026,0.1933-1.4468,0.5799
		C18.6195,15.2022,18.4479,15.7301,18.4479,16.3992z"/>
</g>
<g id="Layer_3">
</g>
</svg>
