<?xml version="1.0" encoding="utf-8"?>
<!-- Generator: Adobe Illustrator 26.5.0, SVG Export Plug-In . SVG Version: 6.00 Build 0)  -->
<svg version="1.1" xmlns="http://www.w3.org/2000/svg" xmlns:xlink="http://www.w3.org/1999/xlink" x="0px" y="0px"
	 viewBox="0 0 40 40" enable-background="new 0 0 40 40" xml:space="preserve">
<g id="Outline">
</g>
<g id="Icons">
	<g>
		<path d="M20.0004,2.0049c-9.9299,0-18,8.07-18,18c0,9.92,8.0701,18,18,18c9.92,0,18-8.08,18-18
			C38.0004,10.0749,29.9205,2.0049,20.0004,2.0049z M20.0004,36.5049c-9.1,0-16.5-7.41-16.5-16.5c0-9.1,7.4-16.5,16.5-16.5
			c9.1001,0,16.5,7.4,16.5,16.5C36.5004,29.0949,29.1005,36.5049,20.0004,36.5049z"/>
	</g>
	<g>
		<path d="M20.0004,5.0049c-8.27,0-15,6.72-15,15c0,8.27,6.73,15,15,15s15-6.73,15-15
			C35.0004,11.7249,28.2704,5.0049,20.0004,5.0049z M20.0004,33.5049c-7.4399,0-13.5-6.06-13.5-13.5c0-7.45,6.0601-13.5,13.5-13.5
			s13.5,6.05,13.5,13.5C33.5004,27.4449,27.4404,33.5049,20.0004,33.5049z"/>
	</g>
	<path d="M20.0004,13.3149c-4.6299,0-8.3899,3.76-8.3899,8.39c0,4.62,3.76,8.39,8.3899,8.39c4.63,0,8.39-3.77,8.39-8.39
		C28.3904,17.0749,24.6304,13.3149,20.0004,13.3149z M25.3705,22.8249h-6.1201v-6.12h1.5v4.62h4.6201V22.8249z"/>
	<rect x="16.0549" y="9.9068" width="7.8906" height="2"/>
	<rect x="26.6409" y="12.6429" transform="matrix(0.7072 -0.707 0.707 0.7072 -2.0542 23.7459)" width="1.9998" height="3.4199"/>
	<rect x="10.6488" y="13.353" transform="matrix(0.7071 -0.7071 0.7071 0.7071 -6.5291 12.943)" width="3.4206" height="1.9998"/>
</g>
<g id="Layer_3">
</g>
</svg>
