<?xml version="1.0" encoding="utf-8"?>
<!-- Generator: Adobe Illustrator 26.5.0, SVG Export Plug-In . SVG Version: 6.00 Build 0)  -->
<svg version="1.1" xmlns="http://www.w3.org/2000/svg" xmlns:xlink="http://www.w3.org/1999/xlink" x="0px" y="0px"
	 viewBox="0 0 40 40" enable-background="new 0 0 40 40" xml:space="preserve">
<g id="Outline">
</g>
<g id="Icons">
	<path fill="#FFFFFF" stroke="#000000" stroke-width="2" stroke-miterlimit="10" d="M17.6827,6.3325L3.5612,31.1124
		c-1.0133,1.7781,0.2708,3.9878,2.3173,3.9878h28.243c2.0466,0,3.3306-2.2097,2.3173-3.9878L22.3173,6.3325
		C21.2941,4.537,18.7059,4.537,17.6827,6.3325z"/>
	<ellipse cx="20" cy="29.4488" rx="1.7567" ry="1.7781"/>
	<path d="M20.8184,26.0258h-1.6368c-0.226,0-0.4092-0.291-0.4092-0.65V12.3757c0-0.359,0.1832-0.65,0.4092-0.65h1.6368
		c0.226,0,0.4092,0.291,0.4092,0.65v13.0001C21.2276,25.7348,21.0444,26.0258,20.8184,26.0258z"/>
	<path fill="#FFFFFF" stroke="#000000" stroke-width="2" stroke-miterlimit="10" d="M17.6827,6.3325L3.5612,31.1124
		c-1.0133,1.7781,0.2708,3.9878,2.3173,3.9878h28.243c2.0466,0,3.3306-2.2097,2.3173-3.9878L22.3173,6.3325
		C21.2941,4.537,18.7059,4.537,17.6827,6.3325z"/>
	<ellipse cx="20" cy="29.4488" rx="1.7567" ry="1.7781"/>
	<path d="M20.8184,26.0258h-1.6368c-0.226,0-0.4092-0.291-0.4092-0.65V12.3757c0-0.359,0.1832-0.65,0.4092-0.65h1.6368
		c0.226,0,0.4092,0.291,0.4092,0.65v13.0001C21.2276,25.7348,21.0444,26.0258,20.8184,26.0258z"/>
</g>
</svg>
