<?xml version="1.0" encoding="utf-8"?>
<!-- Generator: Adobe Illustrator 26.5.0, SVG Export Plug-In . SVG Version: 6.00 Build 0)  -->
<svg version="1.1" xmlns="http://www.w3.org/2000/svg" xmlns:xlink="http://www.w3.org/1999/xlink" x="0px" y="0px"
	 viewBox="0 0 40 40" enable-background="new 0 0 40 40" xml:space="preserve">
<g id="Outline">
</g>
<g id="Icons">
	<g id="XMLID_00000000933719807647439080000017322281128977253789_">
		<polygon points="37.8474,11.7876 30.0474,19.6576 28.6275,18.2476 34.0374,12.7876 21.5474,12.7876 21.5474,10.7876 
			34.0374,10.7876 28.6275,5.3276 30.0474,3.9276 		"/>
	</g>
	<g>
		<path d="M24.4375,6.6476v-0.78c0-0.69-0.55-1.26-1.23-1.26h-15.06l8.55,2.82c0.93,0.31,1.56,1.21,1.56,2.23v23.34h4.95
			c0.68,0,1.23-0.56,1.23-1.25v-14.64h2v14.64c0,1.8-1.45,3.25-3.23,3.25h-4.96c-0.11,1.38-1.34,2.38-2.67,2.09
			c-3.29-0.69-6.57-1.39-9.85-2.09h-0.14c-1.78,0-3.23-1.45-3.23-3.25v-25.88c0-1.8,1.45-3.26,3.23-3.26h17.62
			c1.78,0,3.23,1.46,3.23,3.26v0.78H24.4375z"/>
	</g>
</g>
<g id="Layer_3">
</g>
</svg>
