<?xml version="1.0" encoding="utf-8"?>
<!-- Generator: Adobe Illustrator 26.5.0, SVG Export Plug-In . SVG Version: 6.00 Build 0)  -->
<svg version="1.1" xmlns="http://www.w3.org/2000/svg" xmlns:xlink="http://www.w3.org/1999/xlink" x="0px" y="0px"
	 viewBox="0 0 40 40" enable-background="new 0 0 40 40" xml:space="preserve">
<g id="Outline">
</g>
<g id="Icons">
	<g>
		<path fill="none" stroke="#000000" stroke-width="2" stroke-miterlimit="10" d="M30.8775,15.6413h-4.8828v-5.2219
			c0-0.1132-0.0325-0.2232-0.0923-0.3126l-2.8442-4.2481c-0.0831-0.124-0.2108-0.1966-0.346-0.1966H15.037
			c-0.2421,0-0.4384,0.228-0.4384,0.5092v9.47H9.1225c-1.0522,0-1.9052,0.853-1.9052,1.9052v14.8862
			c0,1.0522,0.853,1.9052,1.9052,1.9052h21.755c1.0521,0,1.9051-0.853,1.9051-1.9052V17.5465
			C32.7826,16.4943,31.9297,15.6413,30.8775,15.6413z"/>
		<path fill="none" stroke="#000000" stroke-width="2" stroke-miterlimit="10" d="M22.4883,6.1713v4.0734
			c0,0.2812,0.1962,0.5092,0.4383,0.5092h2.6299"/>
		<path d="M20.0462,12.2928h-2.7695c-0.1381,0-0.25-0.1492-0.25-0.3333v-1.3333c0-0.1841,0.1119-0.3333,0.25-0.3333h2.7695
			c0.1381,0,0.25,0.1492,0.25,0.3333v1.3333C20.2962,12.1435,20.1843,12.2928,20.0462,12.2928z"/>
		<path fill="none" stroke="#000000" stroke-width="2" stroke-miterlimit="10" d="M28.3085,23.2319h-5.8876c-0.5523,0-1-0.4477-1-1
			v-1.3699c0-0.5523,0.4477-1,1-1h5.8876c0.5523,0,1,0.4477,1,1v1.3699C29.3085,22.7842,28.8607,23.2319,28.3085,23.2319z"/>
		<path d="M26.4222,31.5949c-1.3525,0-2.4521-1.0996-2.4521-2.4521s1.0996-2.4521,2.4521-2.4521s2.4521,1.0996,2.4521,2.4521
			S27.7747,31.5949,26.4222,31.5949z M26.4222,28.1906c-0.5254,0-0.9521,0.4268-0.9521,0.9521s0.4268,0.9521,0.9521,0.9521
			s0.9521-0.4268,0.9521-0.9521S26.9476,28.1906,26.4222,28.1906z"/>
		<circle cx="10.4385" cy="21.9374" r="1"/>
		<circle cx="13.5986" cy="21.9374" r="1"/>
		<circle cx="16.7208" cy="21.9374" r="1"/>
		<circle cx="10.4385" cy="24.9896" r="1"/>
		<circle cx="13.5986" cy="24.9896" r="1"/>
		<circle cx="16.7208" cy="24.9896" r="1"/>
		<circle cx="10.4385" cy="28.1623" r="1"/>
		<circle cx="13.5986" cy="28.1623" r="1"/>
		<circle cx="16.7208" cy="28.1623" r="1"/>
		
			<line fill="none" stroke="#000000" stroke-width="2" stroke-miterlimit="10" x1="12.5986" y1="15.6413" x2="27.257" y2="15.6413"/>
	</g>
</g>
<g id="Layer_3">
</g>
</svg>
