<?xml version="1.0" encoding="utf-8"?>
<!-- Generator: Adobe Illustrator 26.5.0, SVG Export Plug-In . SVG Version: 6.00 Build 0)  -->
<svg version="1.1" xmlns="http://www.w3.org/2000/svg" xmlns:xlink="http://www.w3.org/1999/xlink" x="0px" y="0px"
	 viewBox="0 0 40 40" enable-background="new 0 0 40 40" xml:space="preserve">
<g id="Outline">
</g>
<g id="Icons">
	<path fill="none" stroke="#000000" stroke-width="2" stroke-miterlimit="10" d="M33.1762,34.963H6.8238
		c-0.9341,0-1.6913-0.7572-1.6913-1.6913V6.8556c0-0.9341,0.7572-1.6913,1.6913-1.6913h26.3523
		c0.9341,0,1.6913,0.7572,1.6913,1.6913v26.4161C34.8675,34.2058,34.1102,34.963,33.1762,34.963z"/>
	<rect x="17" y="3.037" width="6" height="4"/>
	<rect x="17" y="32.963" width="6" height="4"/>
	<rect x="31.963" y="18" transform="matrix(-1.836970e-16 1 -1 -1.836970e-16 54.963 -14.963)" width="6" height="4"/>
	<rect x="2.037" y="18" transform="matrix(-1.836970e-16 1 -1 -1.836970e-16 25.037 14.963)" width="6" height="4"/>
</g>
<g id="Layer_3">
</g>
</svg>
