<?xml version="1.0" encoding="utf-8"?>
<!-- Generator: Adobe Illustrator 26.5.0, SVG Export Plug-In . SVG Version: 6.00 Build 0)  -->
<svg version="1.1" xmlns="http://www.w3.org/2000/svg" xmlns:xlink="http://www.w3.org/1999/xlink" x="0px" y="0px"
	 viewBox="0 0 40 40" enable-background="new 0 0 40 40" xml:space="preserve">
<g id="Outline">
</g>
<g id="Icons">
	<path d="M5.7166,22.0327v-1.4717c0-1.1045,0-2.208-0.0039-3.3135c-0.001-0.2559-0.0234-0.4717-0.0684-0.6602
		c-0.1562-0.6533-0.7461-1.123-1.4062-1.123c-0.0059,0-0.0127,0-0.0186,0c-0.6953,0.0088-1.2881,0.5127-1.4102,1.1973
		c-0.0508,0.2812-0.0566,0.5742-0.0566,0.7705c-0.0029,3.7715-0.0039,7.543,0,11.3145c0.001,0.4766,0.0186,0.9424,0.0537,1.3838
		c0.2314,3.0547,2.7275,5.7725,5.6826,6.1865c0.8613,0.1221,1.7637,0.1133,2.6318,0.1055c0.2197-0.002,0.4404-0.0039,0.6592-0.0039
		c0.0107,0,0.0215,0,0.0312,0c0.7334,0,1.1523-0.1807,1.7881-0.4541l0.2305-0.0986c1.3291-0.5635,2.4502-1.5488,3.4277-3.0127
		c0.4648-0.6982,0.9053-1.4326,1.332-2.1426l0.3594-0.5986c0.375-0.6201,0.7461-1.2412,1.1182-1.8633
		c0.4863-0.8135,0.9736-1.627,1.4658-2.4365c0.4258-0.7002,0.8203-1.1807,1.2793-1.5586c0.3154-0.2607,0.5312-0.5928,0.623-0.9619
		c0.2285-0.918-0.0059-1.3682-0.835-1.6084c-0.1631-0.0479-0.332-0.0762-0.502-0.084c-0.7578-0.0371-1.4453,0.2627-2.0996,0.9189
		c-0.2998,0.2998-0.5723,0.6445-0.835,0.9775l-0.208,0.2617c-0.1279,0.1602-0.251,0.3242-0.373,0.4893
		c-0.1719,0.2305-0.3486,0.4678-0.54,0.6904c-0.2744,0.3184-0.6416,0.6289-1.252,0.5439l-0.1074-0.0156V14.7251
		c0.001-0.1299,0.0029-0.2607-0.0088-0.3896c-0.0674-0.7578-0.6572-1.3408-1.4043-1.3848c-0.0273-0.002-0.0547-0.0029-0.082-0.0029
		c-0.6953,0-1.2988,0.5254-1.4219,1.2529c-0.04,0.2324-0.0459,0.4707-0.0469,0.6738c-0.002,1.8867-0.002,3.7734-0.002,5.6602
		l0.001,1.5215c0.0029,0.1191,0.0059,0.2422-0.0176,0.3652c-0.0215,0.1094-0.0781,0.2539-0.2295,0.3154
		c-0.0166,0.0117-0.1729,0.0703-0.3047-0.0176c-0.1172-0.0771-0.1338-0.2139-0.1416-0.4834
		c-0.0039-0.1377-0.0029-0.2246-0.0029-0.292l0.001-0.0605l-0.001-10.2627c0.001-0.1611,0.002-0.3291-0.0186-0.4863
		c-0.0967-0.752-0.7061-1.2939-1.4521-1.2939c-0.0059,0-0.0117,0-0.0176,0c-0.7529,0.0088-1.3555,0.5674-1.4336,1.3271
		c-0.0186,0.1914-0.0186,0.3916-0.0186,0.585l-0.001,10.167c0,0.04,0.002,0.0811,0.0039,0.1221
		c0.0059,0.1172,0.0117,0.2393-0.0225,0.3584c-0.0127,0.042-0.0332,0.0791-0.0479,0.1035
		c-0.0596,0.1084-0.1426,0.2578-0.2822,0.2695c-0.2236,0.0107-0.3262-0.3018-0.3447-0.3652
		c-0.0596-0.1904-0.0303-0.3633-0.0195-0.4277l0.001-8.1191c0.001-0.1641,0.002-0.333-0.0205-0.4902
		c-0.1064-0.7549-0.7236-1.3223-1.4668-1.3086c-0.751,0.0088-1.3418,0.5576-1.4365,1.335
		c-0.0254,0.2139-0.0283,0.4375-0.0293,0.6318c-0.001,1.584-0.001,3.1689-0.001,4.7529l-0.001,3.249
		c0.002,0.1445,0.0029,0.2949-0.0283,0.4424C6.3621,22.5825,6.2507,22.69,6.1834,22.729c-0.0479,0.0283-0.0957,0.0361-0.1396,0.0215
		c-0.1182-0.0381-0.2588-0.1484-0.3037-0.2832c-0.0361-0.1104-0.0312-0.2236-0.0264-0.334
		C5.7146,22.1001,5.7166,22.0659,5.7166,22.0327z"/>
	
		<ellipse fill="none" stroke="#000000" stroke-width="2" stroke-miterlimit="10" cx="29.2773" cy="11.6315" rx="7.4727" ry="7.5578"/>
	<line fill="none" stroke="#000000" stroke-width="2" stroke-miterlimit="10" x1="27.2176" y1="8.763" x2="27.2176" y2="14.5"/>
	<line fill="none" stroke="#000000" stroke-width="2" stroke-miterlimit="10" x1="31.3371" y1="8.763" x2="31.3371" y2="14.5"/>
</g>
<g id="Layer_3">
</g>
</svg>
