<?xml version="1.0" encoding="utf-8"?>
<!-- Generator: Adobe Illustrator 26.5.0, SVG Export Plug-In . SVG Version: 6.00 Build 0)  -->
<svg version="1.1" xmlns="http://www.w3.org/2000/svg" xmlns:xlink="http://www.w3.org/1999/xlink" x="0px" y="0px"
	 viewBox="0 0 40 40" enable-background="new 0 0 40 40" xml:space="preserve">
<g id="Outline">
</g>
<g id="Icons">
	<g>
		<path fill="none" stroke="#000000" stroke-width="2" stroke-miterlimit="10" d="M3.6487,18.9651L18.9651,3.6487
			c0.5716-0.5716,1.547-0.5228,2.1787,0.1089l15.0985,15.0985c0.6317,0.6317,0.6805,1.6072,0.1089,2.1787L21.0349,36.3513
			c-0.5716,0.5716-1.547,0.5228-2.1787-0.1089L3.7576,21.1438C3.1259,20.5121,3.0771,19.5367,3.6487,18.9651z"/>
		<path fill="none" stroke="#000000" stroke-width="2" stroke-miterlimit="10" d="M3.6487,18.9651L18.9651,3.6487
			c0.5716-0.5716,1.547-0.5228,2.1787,0.1089l15.0985,15.0985c0.6317,0.6317,0.6805,1.6072,0.1089,2.1787L21.0349,36.3513
			c-0.5716,0.5716-1.547,0.5228-2.1787-0.1089L3.7576,21.1438C3.1259,20.5121,3.0771,19.5367,3.6487,18.9651z"/>
		
			<ellipse fill="none" stroke="#000000" stroke-width="2" stroke-miterlimit="10" cx="20.3333" cy="19.9164" rx="7.7583" ry="7.5774"/>
	</g>
</g>
<g id="Layer_3">
</g>
</svg>
