<?xml version="1.0" encoding="utf-8"?>
<!-- Generator: Adobe Illustrator 26.5.0, SVG Export Plug-In . SVG Version: 6.00 Build 0)  -->
<svg version="1.1" xmlns="http://www.w3.org/2000/svg" xmlns:xlink="http://www.w3.org/1999/xlink" x="0px" y="0px"
	 viewBox="0 0 40 40" enable-background="new 0 0 40 40" xml:space="preserve">
<g id="Outline">
</g>
<g id="Icons">
	<path d="M23.0713,13.4031c0.7905-0.3065,1.6003-0.6203,2.3908-0.9267c0.0772-0.0299,0.135-0.0523,0.2121-0.0822
		c-0.5638-1.4464-1.12-2.8735-1.6763-4.3006c-0.0771,0.0299-0.1542,0.0597-0.2314,0.0897
		c-0.7905,0.3064-1.5885,0.5934-2.3715,0.9191c-0.135,0.0523-0.1886,0.0287-0.299-0.0839
		c-0.4226-0.4578-0.8451-0.9156-1.3062-1.3584c-0.118-0.1319-0.1288-0.2165-0.0699-0.3502c0.3839-0.837,0.7411-1.6858,1.1058-2.5153
		c-1.4202-0.626-2.8137-1.2403-4.2072-1.8545c-0.0235,0.0535-0.0663,0.1145-0.1016,0.1948
		c-0.3412,0.776-0.6941,1.5787-1.0353,2.3547c-0.0395,0.1263-0.0974,0.1488-0.2356,0.1357
		c-0.6301-0.0221-1.2795-0.0368-1.9213-0.0323c-0.1575-0.0056-0.2186-0.0485-0.2712-0.1834
		c-0.3081-0.7907-0.6164-1.5814-0.9246-2.3721c-0.03-0.0771-0.0526-0.135-0.0826-0.2121c-1.4461,0.5604-2.8535,1.106-4.2996,1.6665
		C7.7768,4.569,7.8068,4.6461,7.8294,4.7039c0.3157,0.81,0.6238,1.6008,0.9321,2.3914c0.0451,0.1158,0.0484,0.181-0.0523,0.2645
		C8.221,7.8155,7.752,8.2636,7.2906,8.731C7.19,8.8144,7.1246,8.8176,7.0174,8.7703C6.2328,8.4084,5.4364,8.0734,4.6592,7.7308
		C4.5788,7.6954,4.4984,7.6599,4.4791,7.6674c-0.6117,1.3915-1.2352,2.8097-1.8469,4.2011c0,0,0.0268,0.0118,0.0536,0.0237
		c0.8307,0.3662,1.6614,0.7323,2.4921,1.0985c0.1072,0.0472,0.149,0.0976,0.1363,0.2358C5.2934,13.8561,5.28,14.505,5.2666,15.154
		c0.0065,0.1306-0.0287,0.2109-0.1445,0.2558c-0.8173,0.2945-1.6195,0.6277-2.4101,0.9341C2.635,16.3738,2.5771,16.3963,2.5,16.4261
		c0.5637,1.4464,1.1125,2.8542,1.6762,4.3006c0.0771-0.0299,0.1543-0.0597,0.2314-0.0897c0.7905-0.3064,1.581-0.6128,2.3908-0.9266
		c0.1157-0.0448,0.1886-0.0287,0.2722,0.072c0.4301,0.4771,0.8987,0.9392,1.3481,1.4088c0.1029,0.0933,0.1062,0.1586,0.0591,0.2656
		c-0.3252,0.7032-0.6427,1.4257-0.9604,2.1482c-0.0588,0.1338-0.1369,0.2751-0.184,0.3821c1.4471,0.6378,2.8406,1.2521,4.234,1.8663
		c0.3647-0.8295,0.7411-1.6859,1.1176-2.5421c0.0663-0.1145,0.1166-0.1562,0.2549-0.1432c0.6108,0.0297,1.2215,0.0593,1.8366,0.043
		c0.2228,0.0024,0.3108,0.0571,0.3667,0.2574c0.3007,0.7714,0.6014,1.5429,0.902,2.3143c0.03,0.0771,0.0526,0.135,0.0826,0.2121
		c1.4461-0.5604,2.8728-1.1135,4.2996-1.6665c-0.3457-0.8872-0.6572-1.7432-1.0072-2.5843
		c-0.0677-0.1735-0.0249-0.2346,0.0876-0.3447c0.4571-0.4214,0.9144-0.8428,1.3565-1.3028
		c0.1006-0.0834,0.1778-0.1133,0.3117-0.0542c0.7772,0.3425,1.5811,0.6969,2.3582,1.0394c0.0804,0.0354,0.134,0.0591,0.1608,0.0709
		c0.6235-1.4182,1.2352-2.8097,1.8779-4.2354c-0.046-0.0043-0.1189-0.0204-0.18-0.0633c-0.7964-0.3351-1.581-0.6969-2.3774-1.032
		c-0.1265-0.0398-0.149-0.0976-0.1631-0.2476c0.0402-0.6371,0.0536-1.2861,0.0552-1.9083
		C22.9128,13.5089,22.9363,13.4554,23.0713,13.4031z"/>
	<path d="M35.2171,29.763c0.0291-0.1162,0.0821-0.1538,0.1864-0.164c0.638-0.0478,1.2761-0.0956,1.9141-0.1434
		c0.0653-0.0113,0.1172-0.0099,0.1824-0.0211c-0.0987-1.1595-0.1852-2.2926-0.2708-3.4518
		c-0.0649-0.0017-0.1302,0.0095-0.1822,0.0081c-0.651,0.0475-1.2894,0.1083-1.9274,0.1561
		c-0.0909-0.0024-0.1428-0.0038-0.1794-0.0958c-0.2218-0.4479-0.4437-0.8958-0.6922-1.3184
		c-0.0365-0.092-0.0221-0.1436,0.0316-0.2072c0.4421-0.495,0.8583-0.9907,1.2742-1.4734c0.0403-0.0509,0.0807-0.1018,0.0811-0.1148
		c-0.8764-0.7515-1.7658-1.5033-2.6422-2.2548c0,0-0.0137,0.0257-0.027,0.0383c-0.4429,0.521-0.8987,1.0416-1.3415,1.5626
		c-0.0537,0.0635-0.106,0.0751-0.1961,0.0468c-0.4507-0.1552-0.9273-0.311-1.3912-0.4534
		c-0.0902-0.0285-0.1411-0.0689-0.1516-0.1601c-0.0342-0.6638-0.1078-1.3027-0.1557-1.941
		c0.0017-0.0649-0.0099-0.1172-0.0085-0.1692c-1.1718,0.0855-2.3176,0.1716-3.4898,0.27c0.0116,0.0523,0.0098,0.1173,0.0211,0.1826
		c0.0478,0.6382,0.0955,1.2763,0.156,1.9279c-0.0024,0.0909-0.0298,0.1422-0.1217,0.1787
		c-0.4341,0.1962-0.8697,0.4445-1.3044,0.6667c-0.0923,0.0496-0.1439,0.0352-0.2075-0.0186
		c-0.4443-0.3889-0.9016-0.7781-1.346-1.1671c-0.0892-0.0674-0.1779-0.1477-0.2411-0.2144
		c-0.7779,0.9019-1.5292,1.7785-2.2802,2.6422c0.5338,0.4433,1.0673,0.8996,1.6004,1.3688c0.0762,0.067,0.0881,0.1064,0.0464,0.2093
		c-0.1548,0.4377-0.2962,0.8629-0.4252,1.3143c-0.0562,0.1545-0.1095,0.2051-0.2657,0.2139
		c-0.6251,0.0481-1.2501,0.0963-1.8751,0.1444c-0.0649-0.0017-0.1043,0.0102-0.1692,0.0085
		c0.0857,1.1591,0.1848,2.3056,0.2705,3.4648c0.7164-0.0588,1.4063-0.1052,2.0966-0.1646c0.1302-0.0095,0.1681,0.0305,0.2302,0.1362
		c0.1965,0.4212,0.4061,0.8427,0.6416,1.265c0.0369,0.079,0.0481,0.1443-0.0322,0.2331c-0.4158,0.4827-0.845,0.9781-1.2612,1.4738
		c-0.0404,0.0509-0.067,0.0762-0.0807,0.1018c0.8894,0.7518,1.7661,1.4903,2.6548,2.2682c0.0137-0.0257,0.0411-0.077,0.0811-0.1148
		c0.4162-0.4957,0.8584-0.9908,1.2745-1.4864c0.0544-0.0895,0.0934-0.0885,0.2096-0.0594c0.4503,0.1682,0.9272,0.311,1.3652,0.4527
		c0.1161,0.0292,0.1541,0.0692,0.1643,0.1734c0.0478,0.6382,0.0952,1.2893,0.143,1.9276c0.0116,0.0523,0.0102,0.1042,0.0214,0.1696
		c1.1721-0.0985,2.318-0.1845,3.4768-0.2703c0.0017-0.0649-0.0095-0.1302-0.0077-0.1952c-0.0611-0.6255-0.0959-1.2633-0.1567-1.9019
		c-0.0102-0.1043,0.0168-0.1425,0.1224-0.2047c0.4341-0.1962,0.8556-0.4058,1.2778-0.6414c0.1182-0.0489,0.1832-0.0471,0.259,0.0329
		c0.5335,0.4563,1.0673,0.8997,1.5882,1.3426c0.7647-0.8892,1.516-1.7658,2.2539-2.6299c-0.0253-0.0266-0.0632-0.0667-0.1138-0.12
		c-0.4826-0.4159-0.9908-0.8456-1.4867-1.2488c-0.0762-0.067-0.0751-0.106-0.0463-0.2093
		C34.9193,30.6909,35.075,30.2142,35.2171,29.763z"/>
	<line fill="none" stroke="#FFFFFF" stroke-width="2" stroke-miterlimit="10" x1="9.9968" y1="10.3189" x2="16.2504" y2="16.574"/>
	<polyline fill="none" stroke="#FFFFFF" stroke-width="2" stroke-miterlimit="10" points="11.371,17.5378 17.2139,17.5378 
		17.2139,11.6934 	"/>
	
		<line fill="none" stroke="#FFFFFF" stroke-width="2" stroke-miterlimit="10" x1="31.6291" y1="31.3612" x2="27.6776" y2="27.4086"/>
	<polyline fill="none" stroke="#FFFFFF" stroke-width="2" stroke-miterlimit="10" points="30.7608,26.7997 27.0688,26.7997 
		27.0688,30.4926 	"/>
</g>
<g id="Layer_3">
</g>
</svg>
