<?xml version="1.0" encoding="utf-8"?>
<!-- Generator: Adobe Illustrator 26.5.0, SVG Export Plug-In . SVG Version: 6.00 Build 0)  -->
<svg version="1.1" xmlns="http://www.w3.org/2000/svg" xmlns:xlink="http://www.w3.org/1999/xlink" x="0px" y="0px"
	 viewBox="0 0 40 40" enable-background="new 0 0 40 40" xml:space="preserve">
<g id="Outline">
</g>
<g id="Icons">
	<polygon points="29.9038,23.8184 29.9038,16.1816 33.6503,20.0288 	"/>
	<g>
		<path d="M16.8083,8.0221c0.2919,0.7146,0.4487,1.3536,0.6563,1.8865c0.2166,0.5827,0.4238,0.8176,0.7677,1.5806
			c0.2793,0.6743,0.4414,1.4487,0.359,2.2248c-0.0657,0.7705-0.3849,1.5307-0.9688,2.0234
			c-0.1646-0.7595-0.3135-1.3407-0.4994-1.8902c-0.1998-0.5444-0.4037-1.0566-0.6286-1.5999
			c-0.1014-0.2693-0.2335-0.5197-0.3652-0.9574c-0.1112-0.3958-0.1564-0.8049-0.1218-1.1963
			C16.0533,9.3091,16.3306,8.6151,16.8083,8.0221z"/>
		<path d="M14.6451,10.9028c0.2838,0.6139,0.4344,1.1418,0.6394,1.5042c0.2072,0.358,0.4185,0.5927,0.7291,1.0996
			c0.1346,0.2264,0.316,0.5699,0.3996,0.9341c0.0808,0.3548,0.1055,0.7113,0.0456,1.0513
			c-0.0933,0.6717-0.4254,1.3028-0.9995,1.6515c-0.1578-0.6565-0.3101-1.1315-0.471-1.5494
			c-0.0973-0.2045-0.1741-0.3886-0.2674-0.5499c-0.0851-0.1552-0.1728-0.2875-0.3174-0.5249
			c-0.2518-0.4111-0.6197-1.1302-0.5677-1.8663C13.8648,11.9321,14.1697,11.3582,14.6451,10.9028z"/>
		<path d="M27.7518,21.3674c-0.2227-1.3295-1.2351-2.1652-2.459-2.0244c-0.2667,0.03-0.517,0.0946-0.7532,0.1732v-0.5269
			c0-0.4998-0.3947-0.905-0.8814-0.905H8.7857c-0.4868,0-0.8815,0.4052-0.8815,0.905v2.0229c0,3.1667,1.6831,5.9245,4.177,7.3989
			H9.3278c-0.519,0-0.9401,0.4322-0.9401,0.9651s0.421,0.9651,0.9401,0.9651h13.7874c0.519,0,0.9401-0.4322,0.9401-0.9651
			s-0.421-0.9651-0.9401-0.9651h-2.7526c1.0342-0.6115,1.9261-1.4434,2.6185-2.4352c0.1499,0.0039,0.3026,0.0111,0.4498,0.0111
			c1.3893,0,2.672-0.2337,3.6586-1.7103C27.6734,23.4031,27.9146,22.3425,27.7518,21.3674z M25.9708,23.4885
			c-0.5558,0.8328-1.189,1.0619-2.2026,1.098c0.4902-1.0885,0.7713-2.2966,0.7713-3.5746v-0.0084
			c0.3013-0.1244,0.6071-0.2432,0.9001-0.2759c0.7662-0.0867,0.9375,0.6484,0.9755,0.8746
			C26.518,22.2244,26.3565,22.9118,25.9708,23.4885z"/>
	</g>
	<ellipse fill="none" stroke="#000000" stroke-width="2" stroke-miterlimit="10" cx="20" cy="20" rx="16.75" ry="17.1964"/>
</g>
<g id="Layer_3">
</g>
</svg>
