<?xml version="1.0" encoding="utf-8"?>
<!-- Generator: Adobe Illustrator 26.5.0, SVG Export Plug-In . SVG Version: 6.00 Build 0)  -->
<svg version="1.1" xmlns="http://www.w3.org/2000/svg" xmlns:xlink="http://www.w3.org/1999/xlink" x="0px" y="0px"
	 viewBox="0 0 40 40" enable-background="new 0 0 40 40" xml:space="preserve">
<g id="Outline">
</g>
<g id="Icons">
	<g>
		<path fill="none" stroke="#000000" stroke-width="2" stroke-miterlimit="10" d="M18.2656,20.4257l-4.9783-9.0507
			c-0.4397-0.7993-0.1793-1.8198,0.5827-2.284l4.479-2.7285c0.7682-0.4679,1.7539-0.1931,2.1971,0.6127l4.9783,9.0507
			c0.4397,0.7993,0.1793,1.8198-0.5827,2.284l-4.479,2.7285C19.6945,21.5063,18.7088,21.2314,18.2656,20.4257z"/>
		<path d="M2.6936,23.8489L2.6936,23.8489c-0.3759-0.6845-0.1879-1.5387,0.4197-1.9078l11.6919-7.1031l1.3611,2.4787L4.4745,24.4198
			C3.8668,24.789,3.0695,24.5334,2.6936,23.8489z"/>
		
			<line fill="none" stroke="#000000" stroke-width="2" stroke-miterlimit="10" x1="34.2157" y1="14.8879" x2="31.2228" y2="17.9493"/>
		<line fill="none" stroke="#000000" stroke-width="2" stroke-miterlimit="10" x1="36.5" y1="21.4777" x2="32.2675" y2="21.4777"/>
		<path fill="none" stroke="#000000" stroke-width="2" stroke-miterlimit="10" d="M31.8056,33.8657H17.8058
			c-0.9054,0-1.6394-0.734-1.6394-1.6394v-4.9178c0-0.9054,0.734-1.6394,1.6394-1.6394h13.9998c0.9054,0,1.6394,0.734,1.6394,1.6394
			v4.9178C33.445,33.1317,32.711,33.8657,31.8056,33.8657z"/>
		<path fill="#FFFFFF" stroke="#000000" stroke-width="2" stroke-miterlimit="10" d="M34.8606,33.8657H13.8449
			c-0.9054,0-1.6394-0.734-1.6394-1.6394v-0.8195c0-0.9054,0.734-1.6394,1.6394-1.6394h21.0157c0.9054,0,1.6394,0.734,1.6394,1.6394
			v0.8195C36.5,33.1317,35.766,33.8657,34.8606,33.8657z"/>
		<line fill="none" stroke="#000000" stroke-width="2" stroke-miterlimit="10" x1="14.4542" y1="13.436" x2="21.6294" y2="8.8844"/>
		
			<line fill="none" stroke="#000000" stroke-width="2" stroke-miterlimit="10" x1="17.1776" y1="18.6944" x2="24.3528" y2="14.1428"/>
	</g>
</g>
<g id="Layer_3">
</g>
</svg>
