<?xml version="1.0" encoding="utf-8"?>
<!-- Generator: Adobe Illustrator 26.5.0, SVG Export Plug-In . SVG Version: 6.00 Build 0)  -->
<svg version="1.1" xmlns="http://www.w3.org/2000/svg" xmlns:xlink="http://www.w3.org/1999/xlink" x="0px" y="0px"
	 viewBox="0 0 40 40" enable-background="new 0 0 40 40" xml:space="preserve">
<g id="Outline">
</g>
<g id="Icons">
	<g>
		<path fill="none" stroke="#000000" stroke-width="2" stroke-miterlimit="10" d="M23.861,32.8981H4.753
			c-0.8301,0-1.503-0.6729-1.503-1.503V8.6048c0-0.8301,0.6729-1.503,1.503-1.503H23.861c0.8301,0,1.503,0.6729,1.503,1.503v22.7904
			C25.364,32.2253,24.6911,32.8981,23.861,32.8981z"/>
		
			<path id="XMLID_00000082337687174897808740000002701165373915621767_" fill="#FFFFFF" stroke="#000000" stroke-width="2" stroke-miterlimit="10" d="
			M30.0621,26.5848l2.721,2.8162c0.2847,0.2947,0.7545,0.2923,1.0363-0.0054l2.7308-2.885
			c0.1282-0.1355,0.1998-0.3157,0.1998-0.5032V11.2812c0-0.4021-0.3226-0.728-0.7205-0.728h-5.492
			c-0.3987,0-0.7216,0.3272-0.7205,0.73l0.0402,14.795C29.8577,26.2676,29.9312,26.4493,30.0621,26.5848z"/>
		
			<line id="XMLID_00000114066265228486430460000017040585337251748228_" fill="#FFFFFF" stroke="#000000" stroke-width="2" stroke-miterlimit="10" x1="29.8452" y1="15.1168" x2="36.75" y2="15.1168"/>
		
			<line fill="none" stroke="#000000" stroke-width="2" stroke-miterlimit="10" x1="7.7464" y1="14.6879" x2="15.8456" y2="14.6879"/>
		
			<line fill="none" stroke="#000000" stroke-width="2" stroke-miterlimit="10" x1="7.8041" y1="19.9794" x2="20.8319" y2="19.9794"/>
		
			<line fill="none" stroke="#000000" stroke-width="2" stroke-miterlimit="10" x1="7.8041" y1="25.2709" x2="20.8319" y2="25.2709"/>
	</g>
</g>
<g id="Layer_3">
</g>
</svg>
