<?xml version="1.0" encoding="utf-8"?>
<!-- Generator: Adobe Illustrator 26.5.0, SVG Export Plug-In . SVG Version: 6.00 Build 0)  -->
<svg version="1.1" xmlns="http://www.w3.org/2000/svg" xmlns:xlink="http://www.w3.org/1999/xlink" x="0px" y="0px"
	 viewBox="0 0 40 40" enable-background="new 0 0 40 40" xml:space="preserve">
<g id="Outline">
</g>
<g id="Icons">
	
		<ellipse fill="#FFFFFF" stroke="#000000" stroke-width="2" stroke-miterlimit="10" cx="24.9099" cy="12.0226" rx="8.3651" ry="8.4409"/>
	<rect x="20.5576" y="6.7208" fill="none" width="8.7046" height="13.3969"/>
	<text transform="matrix(0.991 0 0 1 20.5594 17.2896)" font-family="'AcuminPro-Bold'" font-size="14.4764px">₹</text>
	<path fill="#FFFFFF" d="M8.6662,34.2163H4.758c-0.7236,0-1.3101-0.5866-1.3101-1.3101V20.8209
		c0-0.7236,0.5866-1.3101,1.3101-1.3101h3.9082c0.7236,0,1.3101,0.5866,1.3101,1.3101v12.0853
		C9.9763,33.6298,9.3897,34.2163,8.6662,34.2163z"/>
	<path fill="#FFFFFF" d="M9.7785,21.8008c0,0,2.0443-1.8908,5.1436-0.6265c3.0994,1.2643,10.617,4.5098,10.617,4.5098
		s2.2292,0.9699,0.998,2.6365c-1.0757,1.4562-8.8275-1.0911-8.8275-1.0911"/>
	<path fill="#FFFFFF" stroke="#000000" stroke-width="2" stroke-miterlimit="10" d="M8.7233,32.0205l12.18,4.059
		c0,0,2.3215,0.7623,3.8444,0c1.8541-0.9281,11.5402-8.3841,11.5402-8.3841c0.1351-0.1175,0.9312-0.7733,0.0607-1.6517
		c-0.3154-0.4049-0.941-0.4125-1.4454-0.3595c-2.0442,0.2146-4.4185,1.3793-6.7262,2.2774
		c-0.6989,0.272-0.7831,0.2729-2.0847,0.5903"/>
	<polygon fill="#FFFFFF" points="19.9141,35.151 9.0201,32.0901 8.0441,21.0775 22.5386,25.3948 	"/>
	<path fill="none" stroke="#000000" stroke-width="2" stroke-miterlimit="10" d="M8.4683,34.2163H4.5601
		c-0.7236,0-1.3101-0.5866-1.3101-1.3101V20.8209c0-0.7236,0.5866-1.3101,1.3101-1.3101h3.9082
		c0.7236,0,1.3101,0.5866,1.3101,1.3101v12.0853C9.7785,33.6298,9.1919,34.2163,8.4683,34.2163z"/>
	<path fill="none" stroke="#000000" stroke-width="2" stroke-miterlimit="10" d="M9.7785,21.8008c0,0,2.0443-1.8908,5.1436-0.6265
		c3.0994,1.2643,10.617,4.5098,10.617,4.5098s2.2292,0.9699,0.998,2.6365c-1.0757,1.4562-8.8275-1.0911-8.8275-1.0911"/>
	<path fill="none" stroke="#000000" stroke-width="2" stroke-miterlimit="10" d="M9.8444,32.2231l11.0589,3.8563
		c0,0,2.3215,0.7623,3.8444,0c1.8541-0.9281,11.5402-8.3841,11.5402-8.3841c0.1351-0.1175,0.9312-0.7733,0.0607-1.6517
		c-0.3154-0.4049-0.941-0.4125-1.4454-0.3595c-2.0442,0.2146-4.4185,1.3793-6.7262,2.2774
		c-0.6989,0.272-0.7831,0.2729-2.0847,0.5903"/>
</g>
<g id="Layer_3">
</g>
</svg>
