<?xml version="1.0" encoding="utf-8"?>
<!-- Generator: Adobe Illustrator 26.5.0, SVG Export Plug-In . SVG Version: 6.00 Build 0)  -->
<svg version="1.1" xmlns="http://www.w3.org/2000/svg" xmlns:xlink="http://www.w3.org/1999/xlink" x="0px" y="0px"
	 viewBox="0 0 40 40" enable-background="new 0 0 40 40" xml:space="preserve">
<g id="Outline">
</g>
<g id="Icons">
	<g>
		<g>
			<path d="M13.2453,17.6168c-3.7793,0-6.8545-3.1138-6.8545-6.9414s3.0752-6.9414,6.8545-6.9414s6.8545,3.1138,6.8545,6.9414
				S17.0246,17.6168,13.2453,17.6168z M13.2453,5.7339c-2.6768,0-4.8545,2.2168-4.8545,4.9414s2.1777,4.9414,4.8545,4.9414
				s4.8545-2.2168,4.8545-4.9414S15.9221,5.7339,13.2453,5.7339z"/>
		</g>
		<g>
			<path d="M23.125,23.976v0.28c-0.05-0.09-0.11-0.19-0.16-0.28H23.125z"/>
			<path d="M36.4951,23.976h-3.65v-2.2599c0-1.31-0.75-2.3-1.74-2.3h-6.24c-1,0-1.7401,0.9901-1.7401,2.3v2.54
				c-0.05-0.09-0.11-0.19-0.16-0.28c-1.46-2.47-4.15-4.12-7.23-4.12h-4.98c-4.62,0-8.38,3.73-8.38,8.32v5.05h2v-5.05
				c0-3.48,2.86-6.32,6.38-6.32h4.98c1.89,0,3.59,0.82,4.76,2.12h-0.96c-0.62,0-1.12,0.5-1.12,1.12v10.05c0,0.62,0.5,1.12,1.12,1.12
				h16.96c0.62,0,1.1299-0.5,1.1299-1.12v-10.05C37.625,24.476,37.1151,23.976,36.4951,23.976z M25.125,21.7161
				c0-0.13,0.01-0.23,0.03-0.3h5.65c0.02,0.07,0.04,0.17,0.04,0.3v2.2599h-5.72V21.7161z M32.195,31.116h-3.18v3.25h-2v-3.25h-3.17
				v-2h3.17v-3.24h2v3.24h3.18V31.116z"/>
		</g>
	</g>
</g>
<g id="Layer_3">
</g>
</svg>
