<?xml version="1.0" encoding="utf-8"?>
<!-- Generator: Adobe Illustrator 26.5.0, SVG Export Plug-In . SVG Version: 6.00 Build 0)  -->
<svg version="1.1" xmlns="http://www.w3.org/2000/svg" xmlns:xlink="http://www.w3.org/1999/xlink" x="0px" y="0px"
	 viewBox="0 0 40 40" enable-background="new 0 0 40 40" xml:space="preserve">
<g id="Outline">
</g>
<g id="Icons">
	<path d="M34.8585,33.0125H5.1417c-1.5947,0-2.8916-1.2969-2.8916-2.8911V9.8787c0-1.5942,1.2969-2.8916,2.8916-2.8916h29.7168
		c1.5947,0,2.8916,1.2974,2.8916,2.8916v20.2427C37.7501,31.7157,36.4532,33.0125,34.8585,33.0125z M5.1417,8.9871
		c-0.4912,0-0.8916,0.3999-0.8916,0.8916v20.2427c0,0.4912,0.4004,0.8911,0.8916,0.8911h29.7168
		c0.4912,0,0.8916-0.3999,0.8916-0.8911V9.8787c0-0.4917-0.4004-0.8916-0.8916-0.8916H5.1417z"/>
	<g>
		<path d="M33.5528,28.3593c-0.2,0.23-0.48,0.35-0.7599,0.35c-0.23,0-0.46-0.08-0.65-0.25l-8.03-6.94c-0.05-0.05-0.1-0.1-0.14-0.15
			c-0.8,0.65-1.6,1.28-2.39,1.86l-0.27,0.2h-2.84l-2.37-2.07l-8.2401,7.11c-0.19,0.16-0.43,0.24-0.66,0.24
			c-0.28,0-0.56-0.12-0.75-0.35c-0.37-0.42-0.32-1.05,0.1-1.41l8.02-6.92l-8.02-6.98c-0.42-0.37-0.46-1-0.1-1.41
			c0.36-0.42,0.99-0.46,1.41-0.1l11.36,9.89h1.44c2.47-1.84,5-4.11,7.44-6.3c1.33-1.19,2.69-2.41,4.04-3.57
			c0.42-0.35,1.05-0.3,1.41,0.12c0.36,0.42,0.31,1.05-0.11,1.41c-1.33,1.13-2.67,2.33-4,3.53c-1.29,1.16-2.61,2.34-3.94,3.46
			l7.95,6.87C33.8628,27.3093,33.9128,27.9393,33.5528,28.3593z"/>
	</g>
</g>
<g id="Layer_3">
</g>
</svg>
