<?xml version="1.0" encoding="utf-8"?>
<!-- Generator: Adobe Illustrator 26.5.0, SVG Export Plug-In . SVG Version: 6.00 Build 0)  -->
<svg version="1.1" xmlns="http://www.w3.org/2000/svg" xmlns:xlink="http://www.w3.org/1999/xlink" x="0px" y="0px"
	 viewBox="0 0 40 40" enable-background="new 0 0 40 40" xml:space="preserve">
<g id="Outline">
</g>
<g id="Icons">
	<path d="M20.0028,1.9998c-9.93,0-18,8.07-18,18s8.07,18,18,18c9.92,0,18-8.07,18-18S29.9228,1.9998,20.0028,1.9998z
		 M20.0028,34.9998c-8.27,0-15-6.73-15-15s6.73-15,15-15s15,6.73,15,15S28.2728,34.9998,20.0028,34.9998z"/>
	<path d="M29.2428,11.7798h-18.49c-1.19,0-2.15,0.97-2.15,2.15v12.14c0,1.19,0.96,2.15,2.15,2.15h18.49c1.19,0,2.16-0.96,2.16-2.15
		v-12.14C31.4028,12.7498,30.4328,11.7798,29.2428,11.7798z M28.5628,13.7798c-0.8,0.7-1.72,1.53-2.68,2.4
		c-1.95,1.77-4.14,3.77-5.59,4.84h-0.63l-8.2401-7.24H28.5628z M29.4028,26.0698c0,0.08-0.07,0.15-0.16,0.15h-18.49
		c-0.08,0-0.15-0.07-0.15-0.15v-10.34l8.31,7.29h2.02l0.26-0.18c1.54-1.09,3.82-3.17,6.03-5.17c0.77-0.7,1.5099-1.37,2.18-1.96
		V26.0698z"/>
</g>
<g id="Layer_3">
</g>
</svg>
