<?xml version="1.0" encoding="utf-8"?>
<!-- Generator: Adobe Illustrator 26.5.0, SVG Export Plug-In . SVG Version: 6.00 Build 0)  -->
<svg version="1.1" xmlns="http://www.w3.org/2000/svg" xmlns:xlink="http://www.w3.org/1999/xlink" x="0px" y="0px"
	 viewBox="0 0 40 40" enable-background="new 0 0 40 40" xml:space="preserve">
<g id="Outline">
</g>
<g id="Icons">
	<path d="M8.6628,11.7181c-0.05,0-0.09,0-0.14,0.02c0.04,0.03,0.09,0.04,0.14,0.04h0.34v-0.06H8.6628z"/>
	<path d="M31.995,8.06v-2.3c0-1.93-1.57-3.5-3.5-3.5h-16.86c-1.93,0-3.5,1.57-3.5,3.5v1.72c-0.45,0.2-0.76,0.65-0.76,1.17v2.83
		c0,0.28,0.09,0.55,0.25,0.76c-0.16,0.21-0.25,0.48-0.25,0.76v2.83c0,0.52,0.31,0.97,0.76,1.17v17.24c0,1.93,1.57,3.5,3.5,3.5h16.86
		c1.93,0,3.5-1.57,3.5-3.5V16.42c0.38-0.2599,0.63-0.69,0.63-1.18v-6C32.625,8.75,32.375,8.32,31.995,8.06z M9.005,11.77h-0.34
		c-0.05,0-0.1-0.01-0.14-0.04c0.05-0.02,0.09-0.02,0.14-0.02h0.34V11.77z M29.995,34.24c0,0.83-0.67,1.5-1.5,1.5h-16.86
		c-0.83,0-1.5-0.67-1.5-1.5V5.76c0-0.83,0.67-1.5,1.5-1.5h3.96v0.13c0,0.94,0.77,1.71,1.72,1.71h5.5c0.95,0,1.71-0.77,1.71-1.71
		V4.26h3.97c0.83,0,1.5,0.67,1.5,1.5V34.24z"/>
	<path fill="#FFFFFF" d="M9.0028,11.7181v0.06h-0.34c-0.05,0-0.1-0.01-0.14-0.04c0.05-0.02,0.09-0.02,0.14-0.02H9.0028z"/>
	<path d="M9.0028,11.7181v0.06h-0.34c-0.05,0-0.1-0.01-0.14-0.04c0.05-0.02,0.09-0.02,0.14-0.02H9.0028z"/>
	<path d="M9.0028,11.7181v0.06h-0.34c-0.05,0-0.1-0.01-0.14-0.04c0.05-0.02,0.09-0.02,0.14-0.02H9.0028z"/>
</g>
<g id="Layer_3">
</g>
</svg>
