<?xml version="1.0" encoding="utf-8"?>
<!-- Generator: Adobe Illustrator 26.5.0, SVG Export Plug-In . SVG Version: 6.00 Build 0)  -->
<svg version="1.1" xmlns="http://www.w3.org/2000/svg" xmlns:xlink="http://www.w3.org/1999/xlink" x="0px" y="0px"
	 viewBox="0 0 40 40" enable-background="new 0 0 40 40" xml:space="preserve">
<g id="Outline">
</g>
<g id="Icons">
	<path d="M13.1993,17.7219c-3.9336,0-7.1338-3.2852-7.1338-7.3223c0-4.0381,3.2002-7.3232,7.1338-7.3232
		c3.9326,0,7.1328,3.2852,7.1328,7.3232C20.3321,14.4367,17.1319,17.7219,13.1993,17.7219z M13.1993,5.0764
		c-2.8311,0-5.1338,2.3877-5.1338,5.3232c0,2.9346,2.3027,5.3223,5.1338,5.3223c2.8301,0,5.1328-2.3877,5.1328-5.3223
		C18.3321,7.4641,16.0294,5.0764,13.1993,5.0764z"/>
	<path d="M37.4228,33.0494l-8.44-14.52c-0.47-0.81-1.3-1.29-2.23-1.29s-1.76,0.48-2.23,1.29l-2.45,4.2
		c-1.55-1.77-3.82-2.89-6.36-2.89h-5.02c-4.66,0-8.44,3.77-8.44,8.4v5.1h2v-5.1c0-3.53,2.89-6.4,6.44-6.4h5.02
		c2.19,0,4.12,1.09,5.28,2.75l-4.92,8.46c-0.47,0.81-0.47,1.77,0,2.58c0.47,0.81,1.3,1.29,2.23,1.29h16.89
		c0.93,0,1.77-0.48,2.24-1.29C37.8928,34.8193,37.8928,33.8594,37.4228,33.0494z M35.6928,34.6293c-0.05,0.09-0.2,0.29-0.5,0.29
		h-16.89c-0.3,0-0.45-0.2-0.5-0.29c-0.05-0.08-0.15-0.31,0-0.58l4.19-7.19l1.31-2.26l2.95-5.07c0.15-0.26,0.4-0.29,0.5-0.29
		c0.1,0,0.35,0.03,0.5,0.29l8.44,14.52C35.8428,34.3193,35.7428,34.5494,35.6928,34.6293z"/>
	<path d="M27.6993,29.6213h-2.0176l-0.3125-5.7393h2.6426L27.6993,29.6213z M25.3946,31.7453c0-0.3682,0.1094-0.6543,0.3301-0.8584
		c0.2197-0.2041,0.54-0.3066,0.96-0.3066c0.416,0,0.7305,0.1025,0.9443,0.3066c0.2148,0.2041,0.3213,0.4902,0.3213,0.8584
		c0,0.3633-0.1113,0.6475-0.333,0.8525c-0.2227,0.2041-0.5332,0.3057-0.9326,0.3057c-0.4033,0-0.7197-0.1016-0.9482-0.3057
		C25.5079,32.3928,25.3946,32.1086,25.3946,31.7453z"/>
</g>
<g id="Layer_3">
</g>
</svg>
