<?xml version="1.0" encoding="utf-8"?>
<!-- Generator: Adobe Illustrator 26.5.0, SVG Export Plug-In . SVG Version: 6.00 Build 0)  -->
<svg version="1.1" xmlns="http://www.w3.org/2000/svg" xmlns:xlink="http://www.w3.org/1999/xlink" x="0px" y="0px"
	 viewBox="0 0 40 40" enable-background="new 0 0 40 40" xml:space="preserve">
<g id="Outline">
</g>
<g id="Icons">
	<g>
		<path d="M32.5428,2.5027h-25.08c-2.74,0-4.96,2.22-4.96,4.96v25.08c0,2.73,2.22,4.96,4.96,4.96h25.08c2.73,0,4.96-2.23,4.96-4.96
			v-25.08C37.5028,4.7227,35.2728,2.5027,32.5428,2.5027z M21.0028,10.9827h14.5v7.24h-14.5V10.9827z M21.0028,20.2227h14.5v6.81
			h-14.5V20.2227z M19.0028,35.5027h-11.54c-1.63,0-2.96-1.33-2.96-2.96v-3.51h14.5V35.5027z M19.0028,27.0327h-14.5v-6.81h14.5
			V27.0327z M19.0028,18.2227h-14.5v-7.24h14.5V18.2227z M35.5028,32.5427c0,1.63-1.33,2.96-2.96,2.96h-11.54v-6.47h14.5V32.5427z"
			/>
	</g>
</g>
<g id="Layer_3">
</g>
</svg>
