<?xml version="1.0" encoding="utf-8"?>
<!-- Generator: Adobe Illustrator 26.5.0, SVG Export Plug-In . SVG Version: 6.00 Build 0)  -->
<svg version="1.1" xmlns="http://www.w3.org/2000/svg" xmlns:xlink="http://www.w3.org/1999/xlink" x="0px" y="0px"
	 viewBox="0 0 40 40" enable-background="new 0 0 40 40" xml:space="preserve">
<g id="Outline">
</g>
<g id="Icons">
	<g>
		<path d="M36.9528,18.1519l-15.1-15.1c-0.48-0.48-1.11-0.77-1.77-0.8c-0.7-0.03-1.35,0.21-1.82,0.69l-15.32,15.32
			c-0.96,0.96-0.91,2.57,0.11,3.59l15.1,15.1c0.53,0.53,1.22,0.8,1.89,0.8c0.6299,0,1.24-0.23,1.7-0.69l15.32-15.32
			C38.0228,20.7819,37.9728,19.1719,36.9528,18.1519z M35.6428,20.3319l-15.31,15.31c-0.19,0.18-0.53,0.13-0.77-0.11l-15.1-15.09
			c-0.13-0.13-0.2-0.3-0.21-0.46c-0.01-0.09,0.01-0.21,0.1-0.31l15.3199-15.32c0.09-0.08,0.2-0.1,0.28-0.1h0.03
			c0.16,0.01,0.33,0.08,0.45,0.21l15.1,15.1C35.7728,19.8019,35.8228,20.1519,35.6428,20.3319z"/>
	</g>
	<g>
		<polygon points="28.9828,18.5019 28.9828,21.5019 21.5028,21.5019 21.5028,28.9919 18.5028,28.9919 18.5028,21.5019 
			11.0128,21.5019 11.0128,18.5019 18.5028,18.5019 18.5028,11.0119 21.5028,11.0119 21.5028,18.5019 		"/>
	</g>
</g>
<g id="Layer_3">
</g>
</svg>
