<?xml version="1.0" encoding="utf-8"?>
<!-- Generator: Adobe Illustrator 26.5.0, SVG Export Plug-In . SVG Version: 6.00 Build 0)  -->
<svg version="1.1" xmlns="http://www.w3.org/2000/svg" xmlns:xlink="http://www.w3.org/1999/xlink" x="0px" y="0px"
	 viewBox="0 0 40 40" enable-background="new 0 0 40 40" xml:space="preserve">
<g id="Outline">
</g>
<g id="Icons">
	<path d="M32.3737,8.5558H7.4495v-2.519c0-0.9689,0.7855-1.7544,1.7544-1.7544h21.4154c0.9689,0,1.7544,0.7855,1.7544,1.7544V8.5558
		z"/>
	<path d="M35.7428,11.2306h-31.49c-0.97,0-1.75,0.78-1.75,1.75v14.18c0,0.97,0.78,1.75,1.75,1.75h3.2v4.3
		c0,1.52,1.23,2.76,2.75,2.76h19.54c1.52,0,2.76-1.24,2.76-2.76v-4.3h3.24c0.97,0,1.76-0.78,1.76-1.75v-14.18
		C37.5028,12.0107,36.7128,11.2306,35.7428,11.2306z M30.5028,33.2106c0,0.42-0.34,0.76-0.76,0.76h-19.54
		c-0.41,0-0.75-0.34-0.75-0.76v-14.78h21.05V33.2106z"/>
	<path d="M27.3328,28.9106l1.45,1.22l-1.29,1.53l-3.26-2.75l-1.98-1.67c-0.37,0.3-0.75,0.58-1.12,0.85l-0.26,0.19h-1.93l-1.22-1.04
		l-1.9901,1.67l-3.27,2.75l-1.29-1.53l1.45-1.22l3.55-2.98l-5-4.25l1.29-1.53l7.22,6.13h0.54c1.38-1.01,2.79-2.25,4.16-3.44
		c0.78-0.69,1.57-1.38,2.35-2.03l0.77-0.64l1.28,1.54l-0.77,0.64c-0.77,0.64-1.54,1.32-2.32,1.99c-0.61,0.54-1.24,1.08-1.86,1.61
		L27.3328,28.9106z"/>
</g>
<g id="Layer_3">
</g>
</svg>
