<?xml version="1.0" encoding="utf-8"?>
<!-- Generator: Adobe Illustrator 26.5.0, SVG Export Plug-In . SVG Version: 6.00 Build 0)  -->
<svg version="1.1" xmlns="http://www.w3.org/2000/svg" xmlns:xlink="http://www.w3.org/1999/xlink" x="0px" y="0px"
	 viewBox="0 0 40 40" enable-background="new 0 0 40 40" xml:space="preserve">
<g id="Outline">
</g>
<g id="Icons">
	<path d="M27.5191,13.0349h-1.46c-0.1599,0-0.3,0.04-0.4299,0.12v-0.13c0-1.17-0.9501-2.12-2.1301-2.12h-3.02v-1.47h0.2201
		c0.47,0,0.86-0.3799,0.86-0.85v-1.38c0-0.47-0.39-0.86-0.86-0.86H19.249c-0.47,0-0.8599,0.39-0.8599,0.86v1.38
		c0,0.47,0.3899,0.85,0.8599,0.85h0.23v1.47h-3.0299c-1.17,0-2.13,0.95-2.13,2.12v0.11c-0.11-0.07-0.24-0.1-0.38-0.1H12.479
		c-0.47,0-0.8499,0.38-0.8499,0.85v2.53c0,0.47,0.3799,0.85,0.8499,0.85h1.4601c0.14,0,0.27-0.03,0.38-0.1v0.14
		c0,1.17,0.96,2.12,2.13,2.12h7.0499c1.1801,0,2.1301-0.95,2.1301-2.12v-0.16c0.1299,0.08,0.27,0.12,0.4299,0.12h1.46
		c0.47,0,0.8501-0.38,0.8501-0.85v-2.53C28.3692,13.415,27.989,13.0349,27.5191,13.0349z M13.7891,16.2649h-1.1599v-2.23h1.1599
		V16.2649z M17.2891,16.0049c-0.6,0-1.08-0.48-1.08-1.08c0-0.6,0.48-1.09,1.08-1.09c0.6001,0,1.0901,0.49,1.0901,1.09
		C18.3792,15.5249,17.8892,16.0049,17.2891,16.0049z M22.5791,16.0049c-0.6001,0-1.0901-0.48-1.0901-1.08
		c0-0.6,0.49-1.09,1.0901-1.09c0.6,0,1.09,0.49,1.09,1.09C23.6691,15.5249,23.1791,16.0049,22.5791,16.0049z M27.3692,16.2649h-1.16
		v-2.23h1.16V16.2649z"/>
	<rect x="16.4995" y="20.9137" width="6.9512" height="1"/>
	<g>
		<path d="M19.9995,37.8097l-0.042-1c1.001,0,1.9609-0.0845,2.8955-0.2505l0.1758,0.9844
			C22.0366,37.7203,21.0171,37.8097,19.9995,37.8097z M16.8853,37.5279c-1.0107-0.1851-2.0117-0.4629-2.9746-0.8262l0.3535-0.9355
			c0.9062,0.3423,1.8486,0.604,2.8008,0.7783L16.8853,37.5279z M26.0044,36.733l-0.3477-0.9375
			c0.9023-0.3354,1.7852-0.7563,2.6211-1.2515l0.5098,0.8604C27.8999,35.9298,26.9634,36.3766,26.0044,36.733z M11.1353,35.359
			c-0.8789-0.5264-1.7178-1.1357-2.4951-1.8115l0.6562-0.7549c0.7324,0.6377,1.5244,1.2124,2.3525,1.708L11.1353,35.359z
			 M31.2915,33.6061l-0.6523-0.7588c0.7324-0.6284,1.416-1.3286,2.0322-2.0811L33.4448,31.4
			C32.7915,32.1974,32.0669,32.9395,31.2915,33.6061z M6.4976,31.3307c-0.6455-0.7969-1.2266-1.6553-1.7266-2.5513l0.873-0.4873
			c0.4717,0.8462,1.0205,1.6567,1.6309,2.4087L6.4976,31.3307z M35.186,28.8561l-0.8711-0.4912
			c0.4775-0.8452,0.8828-1.7363,1.2061-2.6484l0.9434,0.334C36.1216,27.0167,35.6919,27.961,35.186,28.8561z M3.5073,25.9688
			c-0.3389-0.9692-0.5957-1.9736-0.7627-2.9858l0.9863-0.1631c0.1582,0.9556,0.4004,1.9038,0.7197,2.8188L3.5073,25.9688z
			 M37.2407,23.0689L36.2544,22.9c0.1631-0.9487,0.2451-1.9243,0.2451-2.8999h1C37.4995,21.0318,37.4126,22.0645,37.2407,23.0689z
			 M3.4995,19.9176l-1-0.0049c0.0049-1.0327,0.0977-2.0645,0.2744-3.0674l0.9844,0.1738
			C3.5913,17.9664,3.5044,18.9415,3.4995,19.9176z M36.2808,17.2613c-0.1523-0.9561-0.3896-1.9058-0.7051-2.8223l0.9453-0.3252
			c0.334,0.9712,0.585,1.9766,0.748,2.9893L36.2808,17.2613z M4.5064,14.2066L3.565,13.8678
			c0.3486-0.9658,0.7822-1.9077,1.291-2.7993l0.8691,0.4951C5.2446,12.4054,4.8345,13.2945,4.5064,14.2066z M34.395,11.7799
			c-0.4688-0.8486-1.0137-1.6616-1.6191-2.417l0.7793-0.626c0.6426,0.7998,1.2188,1.6611,1.7148,2.5596L34.395,11.7799z
			 M7.3794,9.17L6.6099,8.5323c0.6553-0.7925,1.3838-1.5312,2.1641-2.1958l0.6484,0.7617C8.686,7.7247,7.9985,8.422,7.3794,9.17z
			 M30.7661,7.2618c-0.7305-0.6416-1.5195-1.2202-2.3447-1.7202l0.5176-0.8555c0.876,0.5303,1.7119,1.144,2.4873,1.8237
			L30.7661,7.2618z M11.7925,5.4146l-0.5059-0.8633c0.8887-0.52,1.8271-0.9619,2.7891-1.3145l0.3438,0.9395
			C13.5132,4.5079,12.6294,4.9244,11.7925,5.4146z M25.811,4.2628c-0.9033-0.3467-1.8438-0.6133-2.7969-0.7925l0.1855-0.9824
			c1.0107,0.1899,2.0107,0.4731,2.9688,0.8413L25.811,4.2628z M17.2261,3.4269l-0.1699-0.9854
			c0.9668-0.1665,1.957-0.251,2.9434-0.251l0.1328,0.0005l-0.0117,1l-0.1211-0.0005C19.0698,3.1905,18.1362,3.2701,17.2261,3.4269z"
			/>
	</g>
	<g>
		<g>
			<rect x="23.1206" y="25.9672" width="6.0548" height="6.0548"/>
		</g>
		<g>
			
				<rect x="11.9027" y="26.2817" transform="matrix(0.7071 0.7071 -0.7071 0.7071 24.7831 -1.8425)" width="5.4258" height="5.4258"/>
		</g>
	</g>
</g>
<g id="Layer_3">
</g>
</svg>
