<?xml version="1.0" encoding="utf-8"?>
<!-- Generator: Adobe Illustrator 26.5.0, SVG Export Plug-In . SVG Version: 6.00 Build 0)  -->
<svg version="1.1" xmlns="http://www.w3.org/2000/svg" xmlns:xlink="http://www.w3.org/1999/xlink" x="0px" y="0px"
	 viewBox="0 0 40 40" enable-background="new 0 0 40 40" xml:space="preserve">
<g id="Outline">
</g>
<g id="Icons">
	<g>
		<path d="M35.9796,17.8798h-3.0601c-0.0699,0-0.1399,0-0.2,0.02v-0.29c0-2.77-2.09-5.05-4.77-5.36v-2.73h0.52
			c0.98,0,1.78-0.8,1.78-1.78v-3.15c0-0.98-0.8-1.78-1.78-1.78h-3.05c-0.98,0-1.77,0.8-1.77,1.78v3.15c0,0.98,0.79,1.78,1.77,1.78
			h0.53v2.69h-12v-2.69h0.52c0.98,0,1.78-0.8,1.78-1.78v-3.15c0-0.98-0.8-1.78-1.78-1.78h-3.05c-0.98,0-1.77,0.8-1.77,1.78v3.15
			c0,0.98,0.79,1.78,1.77,1.78h0.53v2.73c-2.6899,0.31-4.78,2.59-4.78,5.36v0.28c-0.03-0.01-0.0599-0.01-0.09-0.01H4.0296
			c-0.98,0-1.78,0.79-1.78,1.77v5.74c0,0.98,0.8,1.78,1.78,1.78h3.0499c0.03,0,0.0599,0,0.09-0.0099v0.35
			c0,2.98,2.4301,5.4,5.41,5.4h14.7401c2.98,0,5.3999-2.42,5.3999-5.4v-0.36c0.0601,0.02,0.13,0.02,0.2,0.02h3.0601
			c0.97,0,1.77-0.8,1.77-1.78v-5.74C37.7496,18.6698,36.9496,17.8798,35.9796,17.8798z M6.8496,25.1698h-2.6v-5.29h2.6V25.1698z
			 M14.2396,23.5798c-0.86,0-1.5601-0.7-1.5601-1.57c0-0.86,0.7001-1.57,1.5601-1.57c0.85,0,1.55,0.71,1.55,1.57
			C15.7896,22.8798,15.0896,23.5798,14.2396,23.5798z M25.4896,23.5798c-0.86,0-1.55-0.7-1.55-1.57c0-0.86,0.6901-1.57,1.55-1.57
			c0.85,0,1.55,0.71,1.55,1.57C27.0396,22.8798,26.3396,23.5798,25.4896,23.5798z M35.7496,25.1698h-2.6001v-5.29h2.6001V25.1698z"
			/>
	</g>
	<g id="XMLID_00000023242745142145832670000008122942081704439739_">
		<rect x="12.5528" y="35.1875" width="14.7891" height="2"/>
	</g>
	<g id="XMLID_00000124848236672792009850000003778192713964770981_">
		<path d="M15.7896,22.0098c0,0.87-0.7001,1.57-1.55,1.57c-0.86,0-1.5601-0.7-1.5601-1.57c0-0.86,0.7001-1.57,1.5601-1.57
			C15.0896,20.4398,15.7896,21.1498,15.7896,22.0098z"/>
		<ellipse cx="25.4896" cy="22.0098" rx="1.55" ry="1.57"/>
	</g>
	<g>
		<path fill="#FFFFFF" d="M14.2396,20.4398c-0.86,0-1.5601,0.71-1.5601,1.57c0,0.87,0.7001,1.57,1.5601,1.57
			c0.85,0,1.55-0.7,1.55-1.57C15.7896,21.1498,15.0896,20.4398,14.2396,20.4398z"/>
	</g>
	<g>
		<path fill="#FFFFFF" d="M25.4896,20.4398c-0.86,0-1.55,0.71-1.55,1.57c0,0.87,0.6901,1.57,1.55,1.57c0.85,0,1.55-0.7,1.55-1.57
			C27.0396,21.1498,26.3396,20.4398,25.4896,20.4398z"/>
	</g>
</g>
<g id="Layer_3">
</g>
</svg>
