<?xml version="1.0" encoding="utf-8"?>
<!-- Generator: Adobe Illustrator 26.5.0, SVG Export Plug-In . SVG Version: 6.00 Build 0)  -->
<svg version="1.1" xmlns="http://www.w3.org/2000/svg" xmlns:xlink="http://www.w3.org/1999/xlink" x="0px" y="0px"
	 viewBox="0 0 40 40" enable-background="new 0 0 40 40" xml:space="preserve">
<g id="Outline">
</g>
<g id="Icons">
	<path d="M31.1196,2.7493H8.9195c-3.3799,0-6.1299,2.75-6.1299,6.13v22.24c0,3.38,2.75,6.13,6.1299,6.13h22.2001
		c3.38,0,6.13-2.75,6.13-6.13v-22.24C37.2496,5.4993,34.4996,2.7493,31.1196,2.7493z M35.2496,31.1193c0,2.28-1.8501,4.13-4.13,4.13
		H8.9195c-2.27,0-4.1299-1.85-4.1299-4.13v-8.92c1,0.73,2.25,1.2,3.6599,1.36c0.3401,0.04,0.67,0.05,1,0.05c0.77,0,1.5-0.1,2.2-0.29
		c1.3101,3.34,4.5701,5.71,8.3701,5.71c4.97,0,9.02-4.05,9.02-9.03c0-0.15,0-0.3-0.01-0.44c-0.01-0.27-0.04-0.54-0.0801-0.8
		c0.0901-0.04,0.1801-0.07,0.27-0.09c1.49-0.39,3.39,0.27,4.75,0.94c0.52,0.26,0.96,0.52,1.28,0.72V31.1193z M15.1695,20.6593
		l1.41-1.42l2.05,2.06l4.71-4.72l1.42,1.42l-6.13,6.13L15.1695,20.6593z M35.2496,18.0192c-1.54-0.8199-4.17-1.9-6.53-1.29
		c-0.09,0.02-0.1699,0.05-0.26,0.09c-1.29-3.41-4.59-5.84-8.4399-5.84c-4.76,0-8.67,3.71-8.99,8.41c-0.01,0.2-0.02,0.4-0.02,0.61
		c0,0.47,0.04,0.93,0.1,1.38c-0.75,0.22-1.59,0.28-2.4401,0.19c-1.77-0.19-3.1699-1.02-3.8499-2.24h-0.03v-10.45
		c0-2.28,1.8599-4.13,4.1299-4.13h22.2001c2.2799,0,4.13,1.85,4.13,4.13V18.0192z"/>
	<g>
		<path fill="#FFFFFF" d="M11.1096,21.3793c-0.75,0.22-1.59,0.28-2.4401,0.19c-1.77-0.19-3.1699-1.02-3.8499-2.24l6.21,0.06
			c-0.01,0.2-0.02,0.4-0.02,0.61C11.0096,20.4693,11.0497,20.9293,11.1096,21.3793z"/>
		<path fill="#FFFFFF" d="M33.9696,19.6093l-4.9399-0.05c-0.01-0.27-0.04-0.54-0.0801-0.8c0.0901-0.04,0.1801-0.07,0.27-0.09
			C30.7096,18.2793,32.6096,18.9393,33.9696,19.6093z"/>
		<path d="M2.7896,19.6993v0.05c-0.01-0.01-0.01-0.03-0.02-0.04L2.7896,19.6993z"/>
		<path d="M4.8197,19.3293h-0.03v-0.04C4.7997,19.3093,4.7997,19.3193,4.8197,19.3293z"/>
	</g>
</g>
<g id="Layer_3">
</g>
</svg>
