<?xml version="1.0" encoding="utf-8"?>
<!-- Generator: Adobe Illustrator 26.5.0, SVG Export Plug-In . SVG Version: 6.00 Build 0)  -->
<svg version="1.1" xmlns="http://www.w3.org/2000/svg" xmlns:xlink="http://www.w3.org/1999/xlink" x="0px" y="0px"
	 viewBox="0 0 40 40" enable-background="new 0 0 40 40" xml:space="preserve">
<g id="Outline">
</g>
<g id="Icons">
	<g>
		<path d="M4.7115,12.2966l-2-0.0039l0.0127-7.5479c0.001-0.6035,0.2344-1.1719,0.6592-1.5986
			c0.4258-0.4297,0.9922-0.666,1.5947-0.666c0.001,0,0.002,0,0.0029,0l7.541,0.0137l-0.0039,2l-7.54-0.0137l0,0
			c-0.084,0-0.1416,0.04-0.1758,0.0742C4.773,4.5837,4.7242,4.6482,4.7242,4.7478L4.7115,12.2966z"/>
	</g>
	<g>
		<path d="M12.398,37.4792l-7.4756-0.0137c-1.2422-0.002-2.252-1.0205-2.25-2.2715l0.0137-7.7627l2,0.0039L4.6725,35.197
			c0,0.1475,0.1133,0.2686,0.2529,0.2686l7.4766,0.0137L12.398,37.4792z"/>
	</g>
	<g>
		<path d="M35.025,37.5203c-0.001,0-0.002,0-0.0029,0l-7.5957-0.0137l0.0039-2l7.5947,0.0137l0,0c0.084,0,0.1416-0.04,0.1748-0.0742
			c0.0293-0.0303,0.0791-0.0947,0.0791-0.1934l0.0127-7.6338l2,0.0039l-0.0127,7.6328c-0.001,0.6035-0.2344,1.1709-0.6582,1.5986
			C36.1939,37.2839,35.6275,37.5203,35.025,37.5203z"/>
	</g>
	<g>
		<g id="XMLID_00000138533649929399745440000015851332250781674133_">
			<path d="M28.3932,16.1107l-3.54-5.32c-0.29-0.43-0.76-0.6899-1.26-0.6899l-9.57-0.02c-0.44,0-0.85,0.2-1.15,0.54
				c-0.26,0.3-0.4,0.69-0.4,1.1l-0.01,8.5699h2l0.01-8.21l7.22,0.02l-0.0099,4.77c0,0.9,0.73,1.64,1.63,1.64l3.36,0.01v1.77h1.99
				l0.01-3.23C28.6732,16.7207,28.5732,16.3907,28.3932,16.1107z M23.6833,16.5107l0.0099-3.86l2.57,3.87L23.6833,16.5107z
				 M26.6532,29.2007l-12.21-0.02l0.01-4.89h-2l-0.01,5.25c0,0.9,0.69,1.64,1.54,1.64l13.12,0.02c0.85,0,1.55-0.73,1.55-1.63
				l0.01-5.28h-2L26.6532,29.2007z"/>
		</g>
	</g>
	<g>
		<path d="M37.318,12.3552l-2-0.0039l0.0127-7.5488c0-0.1475-0.1133-0.2686-0.2529-0.2686L27.609,4.5203l0.0039-2l7.4678,0.0137
			c1.2422,0.002,2.252,1.0205,2.25,2.2715L37.318,12.3552z"/>
	</g>
	<g>
		<rect x="18.9972" y="4.7932" transform="matrix(0.0018 -1 1 0.0018 -2.3293 42.2481)" width="2" height="34.9952"/>
	</g>
</g>
<g id="Layer_3">
</g>
</svg>
