<?xml version="1.0" encoding="utf-8"?>
<!-- Generator: Adobe Illustrator 26.5.0, SVG Export Plug-In . SVG Version: 6.00 Build 0)  -->
<svg version="1.1" xmlns="http://www.w3.org/2000/svg" xmlns:xlink="http://www.w3.org/1999/xlink" x="0px" y="0px"
	 viewBox="0 0 40 40" enable-background="new 0 0 40 40" xml:space="preserve">
<g id="Outline">
</g>
<g id="Icons">
	<rect x="8.2491" y="10.6014" width="7.292" height="2"/>
	<rect x="8.2491" y="15.9041" width="12.0098" height="2"/>
	<path d="M29.5597,18.6081v-6l-0.1901-0.37l-9.0599-8.56l-0.02-0.02l-1.2001-1.13l-0.0499,0.06l-10.4401,0.07
		c-2.91,0-5.27,2.35-5.27,5.25v18.39c0,2.9,2.36,5.25,5.27,5.25h9.4c1.45,3.51,4.9299,5.98,8.98,5.98c5.3401,0,9.7-4.32,9.7-9.63
		C36.6795,23.4681,33.6595,19.7281,29.5597,18.6081z M20.3097,6.4381l5.73,5.41h-2.4601c-1.7999,0-3.2699-1.46-3.2699-3.25V6.4381z
		 M18.4796,23.2481c-0.77,1.38-1.21,2.96-1.21,4.65c0,0.56,0.05,1.11,0.1499,1.65H8.5996c-1.7999,0-3.27-1.46-3.27-3.25v-18.39
		c0-1.79,1.4701-3.25,3.28-3.25l9.7001-0.06v4c0,2.89,2.3699,5.25,5.2699,5.25h3.9801v4.43c-0.1901-0.01-0.3901-0.02-0.5801-0.02
		c-2.76,0-5.25,1.15-7.02,2.99h-11.71v2H18.4796z M33.0896,29.3181h-7.11v-7.07h2v5.07h5.11V29.3181z"/>
	<polygon points="20.3097,3.6581 20.3097,3.6781 20.2896,3.6581 	"/>
</g>
<g id="Layer_3">
</g>
</svg>
