<?xml version="1.0" encoding="utf-8"?>
<!-- Generator: Adobe Illustrator 26.5.0, SVG Export Plug-In . SVG Version: 6.00 Build 0)  -->
<svg version="1.1" xmlns="http://www.w3.org/2000/svg" xmlns:xlink="http://www.w3.org/1999/xlink" x="0px" y="0px"
	 viewBox="0 0 40 40" enable-background="new 0 0 40 40" xml:space="preserve">
<g id="Outline">
</g>
<g id="Icons">
	<path d="M34.6795,15.5472c0.03-0.13,0.0901-0.16,0.21-0.16h2.3601v-3.94h-2.3601c-0.1199,0-0.1799-0.04-0.21-0.16
		c-0.1899-0.4901-0.3899-0.9901-0.6099-1.47c-0.0601-0.14-0.0601-0.21,0.0499-0.31c0.5599-0.55,1.1-1.1,1.64-1.65
		c-0.92-0.93-1.8301-1.85-2.74-2.79c-0.04,0.04-0.0901,0.09-0.14,0.13c-0.51,0.53-1.04,1.04-1.54,1.57
		c-0.0699,0.07-0.13,0.07-0.23,0.03c-0.49-0.23-1-0.44-1.5-0.63c-0.13-0.04-0.16-0.09-0.16-0.23v-2.37h-3.8999v2.4
		c0,0.11-0.02,0.15-0.1401,0.2c-0.51,0.19-1.02,0.4-1.5299,0.63c-0.1,0.06-0.15,0.02-0.2201-0.05
		c-0.51-0.51-1.0299-1.04-1.5399-1.55c-0.0499-0.06-0.11-0.09-0.12-0.11c-0.67,0.68-1.3301,1.35-1.99,2.01H7.9295
		c-2.99,0-5.4299,2.44-5.4299,5.43v14.51c0,3,2.4399,5.43,5.4299,5.43h6.46v2.21h-3.2v2h12.55v-2h-3.27v-2.21h6.52
		c3,0,5.4299-2.43,5.4299-5.43v-5.86c0.1501,0.16,0.3101,0.32,0.47,0.48c0.0601,0.03,0.0901,0.09,0.1101,0.1
		c0.9299-0.93,1.84-1.85,2.78-2.8c-0.03-0.02-0.0901-0.06-0.1401-0.09c-0.5099-0.53-1.0099-1.04-1.5399-1.57
		c-0.09-0.07-0.09-0.13-0.0499-0.23C34.2796,16.5472,34.4896,16.0572,34.6795,15.5472z M18.4696,34.6772h-2.0801v-2.21h2.0801
		V34.6772z M30.4195,27.0372c0,1.9-1.53,3.43-3.4299,3.43H7.9295c-1.8899,0-3.4299-1.53-3.4299-3.43v-14.51
		c0-1.89,1.54-3.43,3.4299-3.43h12.54c0.14,0.15,0.29,0.29,0.4399,0.44c0.0701,0.0699,0.0901,0.1299,0.04,0.23
		c-0.23,0.51-0.4399,1.03-0.6299,1.54c-0.04,0.1-0.0901,0.14-0.2001,0.14h-2.38v3.94h2.38c0.11,0,0.16,0.03,0.2001,0.14
		c0.1899,0.51,0.3999,1.02,0.6299,1.54c0.05,0.1,0.03,0.16-0.04,0.23c-0.47,0.47-0.9399,0.95-1.4199,1.41
		c-0.0801,0.11-0.1899,0.19-0.26,0.26c0.9299,0.94,1.86,1.86,2.77,2.79c0.54-0.54,1.1-1.11,1.6599-1.67
		c0.0701-0.09,0.1401-0.09,0.24-0.04c0.4701,0.21,0.9501,0.41,1.4401,0.6c0.15,0.05,0.2101,0.13,0.2101,0.3
		c-0.02,0.71,0,1.42,0,2.12v0.2h3.8999v-2.37c0-0.14,0.05-0.2,0.17-0.25c0.2699-0.09,0.5299-0.2,0.7999-0.32V27.0372z
		 M30.4195,16.0272c-0.72,0.82-1.77,1.34-2.9299,1.34c-2.15,0-3.9-1.79-3.9-3.98c0.01-2.15,1.78-3.92,3.92-3.92
		c0.53,0,1.05,0.11,1.51,0.31c0.02,0.01,0.03,0.01,0.03,0.02c1.3899,0.61,2.3599,2.01,2.3599,3.63
		C31.4095,14.4072,31.0396,15.3272,30.4195,16.0272z"/>
</g>
<g id="Layer_3">
</g>
</svg>
