<?xml version="1.0" encoding="utf-8"?>
<!-- Generator: Adobe Illustrator 26.5.0, SVG Export Plug-In . SVG Version: 6.00 Build 0)  -->
<svg version="1.1" xmlns="http://www.w3.org/2000/svg" xmlns:xlink="http://www.w3.org/1999/xlink" x="0px" y="0px"
	 viewBox="0 0 40 40" enable-background="new 0 0 40 40" xml:space="preserve">
<g id="Outline">
</g>
<g id="Icons">
	<g>
		<path d="M13.575,18.1694c-4.0674,0-7.377-3.3447-7.377-7.4561s3.3096-7.4561,7.377-7.4561s7.377,3.3447,7.377,7.4561
			S17.6424,18.1694,13.575,18.1694z M13.575,5.2573c-2.9648,0-5.377,2.4473-5.377,5.4561s2.4121,5.4561,5.377,5.4561
			s5.377-2.4473,5.377-5.4561S16.5399,5.2573,13.575,5.2573z"/>
	</g>
	<g id="XMLID_00000145740762967474527860000002646202583920935870_">
		<path d="M26.1674,18.6963v-0.81c0-0.34,0.28-0.62,0.62-0.62h4.51c0.34,0,0.62,0.28,0.62,0.62v0.81c0,0.34-0.28,0.62-0.62,0.62
			h-4.51C26.4475,19.3163,26.1674,19.0363,26.1674,18.6963z"/>
		<path d="M36.7474,21.4663v12.84c0,1.25-1.02,2.27-2.27,2.27h-10.87c-1.25,0-2.27-1.02-2.27-2.27v-10.65
			c-1.23-1.5-3.08-2.46-5.16-2.46h-5.21c-3.7,0-6.72,3.05-6.72,6.81v5.38h-2v-5.38c0-4.86,3.91-8.81,8.72-8.81h5.21
			c1.96,0,3.76,0.65,5.22,1.75c0.23-1.01,1.14-1.75,2.21-1.75h1.12c0.22,0.93,1.06,1.62,2.06,1.62h4.51c1,0,1.84-0.69,2.06-1.62
			h1.12C35.7274,19.1963,36.7474,20.2063,36.7474,21.4663z"/>
	</g>
	<g id="XMLID_00000166675626774490483120000010443116337869463447_">
		<rect x="24.6248" y="30.0688" fill="#FFFFFF" width="8.8389" height="1.5"/>
	</g>
	<g id="XMLID_00000028300600571575241000000015305721493719013560_">
		<rect x="24.6248" y="25.9497" fill="#FFFFFF" width="8.8389" height="1.5"/>
	</g>
</g>
<g id="Layer_3">
</g>
</svg>
