<?xml version="1.0" encoding="utf-8"?>
<!-- Generator: Adobe Illustrator 26.5.0, SVG Export Plug-In . SVG Version: 6.00 Build 0)  -->
<svg version="1.1" xmlns="http://www.w3.org/2000/svg" xmlns:xlink="http://www.w3.org/1999/xlink" x="0px" y="0px"
	 viewBox="0 0 40 40" enable-background="new 0 0 40 40" xml:space="preserve">
<g id="Outline">
</g>
<g id="Icons">
	<g>
		<g>
			<path d="M20.0011,36.9995c-0.002,0-0.002,0-0.0029,0c-4.541,0-8.8096-1.7695-12.0205-4.9805
				c-6.6279-6.6299-6.626-17.4141,0.0029-24.041c3.21-3.21,7.4795-4.9775,12.0186-4.9775c0.001,0,0.002,0,0.0029,0
				c4.541,0,8.8096,1.7695,12.0205,4.9805l0,0c6.6279,6.6299,6.626,17.4141-0.0029,24.041
				C28.8097,35.232,24.5401,36.9995,20.0011,36.9995z M19.9991,5.0005c-4.0059,0-7.7715,1.5596-10.6045,4.3916
				c-2.833,2.833-4.3945,6.5996-4.3945,10.6055c0,4.0068,1.5596,7.7744,4.3916,10.6074c2.833,2.833,6.5996,4.3945,10.6064,4.3945
				c0.001,0,0.002,0,0.0029,0c4.0059,0,7.7715-1.5596,10.6045-4.3916c2.833-2.833,4.3945-6.5996,4.3945-10.6055
				c0-4.0068-1.5596-7.7744-4.3916-10.6074c-2.833-2.833-6.5996-4.3945-10.6064-4.3945
				C20.0011,5.0005,20.0001,5.0005,19.9991,5.0005z"/>
		</g>
		<g>
			<polygon points="29.3995,20.9995 19.0001,20.9995 19.0001,10.6001 21.0001,10.6001 21.0001,18.9995 29.3995,18.9995 			"/>
		</g>
	</g>
</g>
<g id="Layer_3">
</g>
</svg>
