<?xml version="1.0" encoding="utf-8"?>
<!-- Generator: Adobe Illustrator 26.5.0, SVG Export Plug-In . SVG Version: 6.00 Build 0)  -->
<svg version="1.1" xmlns="http://www.w3.org/2000/svg" xmlns:xlink="http://www.w3.org/1999/xlink" x="0px" y="0px"
	 viewBox="0 0 40 40" enable-background="new 0 0 40 40" xml:space="preserve">
<g id="Outline">
</g>
<g id="Icons">
	<path d="M9.1954,27.1686c-2.1504,0-3.9004-1.7588-3.9004-3.9209s1.75-3.9219,3.9004-3.9219s3.9004,1.7598,3.9004,3.9219
		S11.3458,27.1686,9.1954,27.1686z M9.1954,21.3259c-1.0479,0-1.9004,0.8623-1.9004,1.9219s0.8525,1.9209,1.9004,1.9209
		s1.9004-0.8613,1.9004-1.9209S10.2433,21.3259,9.1954,21.3259z"/>
	<path d="M30.8048,27.1686c-2.1504,0-3.9004-1.7588-3.9004-3.9209s1.75-3.9219,3.9004-3.9219s3.8994,1.7598,3.8994,3.9219
		S32.9552,27.1686,30.8048,27.1686z M30.8048,21.3259c-1.0479,0-1.9004,0.8623-1.9004,1.9219s0.8525,1.9209,1.9004,1.9209
		c1.0469,0,1.8994-0.8613,1.8994-1.9209S31.8517,21.3259,30.8048,21.3259z"/>
	<path d="M36.4996,32.0619v2.43h-2v-2.43c0-1.4-1.13-2.54-2.51-2.54h-2.37c-1.39,0-2.51,1.14-2.51,2.54v2.43h-3.24v-2.43
		c0-1.4-1.13-2.54-2.51-2.54h-2.37c-1.38,0-2.51,1.14-2.51,2.54v2.43h-3.5901v-2.43c0-1.4-1.1199-2.54-2.5099-2.54h-2.37
		c-1.38,0-2.51,1.14-2.51,2.54v2.43h-2v-2.43c0-2.5,2.02-4.54,4.51-4.54h2.37c2.0199,0,3.73,1.34,4.2999,3.18
		c0.5801-1.84,2.29-3.18,4.3101-3.18h2.37c1.85,0,3.4401,1.13,4.13,2.73c0.6899-1.6,2.28-2.73,4.13-2.73h2.37
		C34.4796,27.5219,36.4996,29.5619,36.4996,32.0619z"/>
	<path d="M20.1749,27.1686c-2.1504,0-3.9004-1.7588-3.9004-3.9209s1.75-3.9219,3.9004-3.9219s3.9004,1.7598,3.9004,3.9219
		S22.3253,27.1686,20.1749,27.1686z M20.1749,21.3259c-1.0479,0-1.9004,0.8623-1.9004,1.9219s0.8525,1.9209,1.9004,1.9209
		s1.9004-0.8613,1.9004-1.9209S21.2227,21.3259,20.1749,21.3259z"/>
	<polygon points="34.4095,13.6219 30.6795,17.3719 26.9496,13.6219 28.3696,12.2119 29.6795,13.5319 29.6795,7.2519 20.9395,7.2519 
		20.9395,13.5319 22.2496,12.2119 23.6695,13.6219 19.9395,17.3719 16.2096,13.6219 17.6196,12.2119 18.9395,13.5319 
		18.9395,7.2519 10.1996,7.2519 10.1996,13.5319 11.5096,12.2119 12.9295,13.6219 9.1996,17.3719 5.4596,13.6219 6.8796,12.2119 
		8.1996,13.5319 8.1996,5.2519 31.6795,5.2519 31.6795,13.5319 32.9996,12.2119 	"/>
</g>
<g id="Layer_3">
</g>
</svg>
