<?xml version="1.0" encoding="utf-8"?>
<!-- Generator: Adobe Illustrator 26.5.0, SVG Export Plug-In . SVG Version: 6.00 Build 0)  -->
<svg version="1.1" xmlns="http://www.w3.org/2000/svg" xmlns:xlink="http://www.w3.org/1999/xlink" x="0px" y="0px"
	 viewBox="0 0 40 40" enable-background="new 0 0 40 40" xml:space="preserve">
<g id="Outline">
</g>
<g id="Icons">
	<g>
		<path d="M19.991,7.2398c-8.3,0-15.0601,6.63-15.0601,14.78c0,8.15,6.76,14.78,15.0601,14.78c8.3099,0,15.0699-6.63,15.0699-14.78
			C35.0609,13.8698,28.3009,7.2398,19.991,7.2398z M29.8709,23.6898H18.991v-10.68h2v8.68h8.8799V23.6898z"/>
	</g>
	<g>
		<rect x="12.7341" y="3.2026" width="14.5234" height="2"/>
	</g>
	<g>
		<rect x="32.5571" y="6.1483" transform="matrix(0.6999 -0.7142 0.7142 0.6999 3.4535 26.7482)" width="2.0006" height="6.232"/>
	</g>
	<g>
		<rect x="3.3273" y="8.2731" transform="matrix(0.7141 -0.7 0.7 0.7141 -4.6495 7.1609)" width="6.2317" height="2.0006"/>
	</g>
</g>
<g id="Layer_3">
</g>
</svg>
