<?xml version="1.0" encoding="utf-8"?>
<!-- Generator: Adobe Illustrator 26.5.0, SVG Export Plug-In . SVG Version: 6.00 Build 0)  -->
<svg version="1.1" xmlns="http://www.w3.org/2000/svg" xmlns:xlink="http://www.w3.org/1999/xlink" x="0px" y="0px"
	 viewBox="0 0 40 40" enable-background="new 0 0 40 40" xml:space="preserve">
<g id="Outline">
</g>
<g id="Icons">
	<path d="M14.0017,17.2889c-4.0776,0-7.3946-3.3174-7.3946-7.3945s3.317-7.3945,7.3946-7.3945s7.3946,3.3174,7.3946,7.3945
		S18.0793,17.2889,14.0017,17.2889z M14.0017,4.4998c-2.9417,0-5.3341,2.4199-5.3341,5.3945s2.3924,5.3945,5.3341,5.3945
		s5.3341-2.4199,5.3341-5.3945S16.9434,4.4998,14.0017,4.4998z"/>
	<path d="M16.521,19.7193c1.6599,0,3.2,0.49,4.51,1.34c-0.1401,0.33-0.2301,0.67-0.25,1.04c-0.02,0.09-0.02,0.19-0.02,0.29v0.98
		c-1.1301-1.02-2.6201-1.65-4.24-1.65h-5.04c-3.5701,0-6.48,3.03-6.48,6.74v5.34h-2v-5.34c0-4.8199,3.7999-8.74,8.48-8.74H16.521z"
		/>
	<polygon points="25.001,32.6993 25.001,33.7993 24.8809,33.7993 24.501,33.5892 	"/>
	<g id="XMLID_00000045619363231337999010000015413823305124604033_">
		<path d="M33.6108,18.9993H33.101v0.01c0,0.2599-0.04,0.5099-0.12,0.74c-0.0901,0.27-0.23,0.53-0.42,0.75
			c-0.4301,0.52-1.08,0.85-1.8099,0.85h-3.75c-0.73,0-1.3801-0.33-1.8-0.85c-0.1899-0.22-0.3301-0.48-0.4199-0.75
			c-0.0801-0.23-0.1201-0.48-0.1201-0.74v-0.01h-0.51c-1.3999,0-2.6,0.85-3.1199,2.06c-0.1401,0.33-0.2301,0.67-0.25,1.04
			c-0.02,0.09-0.02,0.19-0.02,0.29v11.72c0,1.87,1.52,3.39,3.3899,3.39h9.46c1.8701,0,3.3901-1.52,3.3901-3.39v-11.72
			C37.001,20.5192,35.481,18.9993,33.6108,18.9993z M31.511,34.5593l-2.22-3.95c-0.1301,0.02-0.27,0.03-0.4102,0.03
			c-0.1399,0-0.2799-0.01-0.4199-0.03l-2.21,3.95l-1.3701-0.76l-0.3799-0.21l0.5-0.89l1.6899-3.02c-0.55-0.57-0.87-1.34-0.87-2.18
			c0-1.73,1.37-3.14,3.0599-3.14c1.6901,0,3.0601,1.41,3.0601,3.14c0,0.84-0.3201,1.61-0.87,2.18l2.1801,3.91L31.511,34.5593z"/>
	</g>
	<path d="M31.601,18.7193v0.29c0,0.32-0.1901,0.6-0.4601,0.74c-0.1199,0.07-0.25,0.1-0.3899,0.1h-3.75
		c-0.1401,0-0.27-0.04-0.3901-0.1c-0.2699-0.14-0.45-0.42-0.45-0.74v-0.29c0-0.47,0.3801-0.84,0.8401-0.84h3.75
		C31.221,17.8793,31.601,18.2493,31.601,18.7193z"/>
</g>
<g id="Layer_3">
</g>
</svg>
