<?xml version="1.0" encoding="utf-8"?>
<!-- Generator: Adobe Illustrator 26.5.0, SVG Export Plug-In . SVG Version: 6.00 Build 0)  -->
<svg version="1.1" xmlns="http://www.w3.org/2000/svg" xmlns:xlink="http://www.w3.org/1999/xlink" x="0px" y="0px"
	 viewBox="0 0 40 40" enable-background="new 0 0 40 40" xml:space="preserve">
<g id="Outline">
</g>
<g id="Icons">
	<g>
		<path d="M19.9998,18.9002c-4.75,0-8.6143-3.7344-8.6143-8.3252s3.8643-8.3252,8.6143-8.3252s8.6152,3.7344,8.6152,8.3252
			S24.7498,18.9002,19.9998,18.9002z M19.9998,4.2498c-3.6475,0-6.6143,2.8379-6.6143,6.3252s2.9668,6.3252,6.6143,6.3252
			s6.6152-2.8379,6.6152-6.3252S23.6472,4.2498,19.9998,4.2498z"/>
	</g>
	<g>
		<path d="M33.3816,37.4998h-2v-6.3916c0-4.5654-3.7041-8.2793-8.2578-8.2793h-6.248c-4.5527,0-8.2568,3.7139-8.2568,8.2793v6.3916
			h-2v-6.3916c0-5.668,4.6016-10.2793,10.2568-10.2793h6.248c5.6562,0,10.2578,4.6113,10.2578,10.2793V37.4998z"/>
	</g>
</g>
<g id="Layer_3">
</g>
</svg>
