<?xml version="1.0" encoding="utf-8"?>
<!-- Generator: Adobe Illustrator 26.5.0, SVG Export Plug-In . SVG Version: 6.00 Build 0)  -->
<svg version="1.1" xmlns="http://www.w3.org/2000/svg" xmlns:xlink="http://www.w3.org/1999/xlink" x="0px" y="0px"
	 viewBox="0 0 40 40" enable-background="new 0 0 40 40" xml:space="preserve">
<g id="Outline">
</g>
<g id="Icons">
	<g>
		<g>
			<path d="M20.001,2.9372c-9.3801,0-17,7.65-17,17.06c0,9.41,7.6199,17.07,17,17.07c9.3699,0,17-7.66,17-17.07
				C37.001,10.5872,29.3709,2.9372,20.001,2.9372z M34.3309,15.5472c-2.6-0.96-5.26-1.65-7.98-2.08
				c-0.4301-2.69-1.11-5.33-2.0599-7.9C29.0709,6.9972,32.8608,10.7672,34.3309,15.5472z M24.8709,19.8572
				c0.01,1.58-0.0798,3.17-0.2699,4.76c-1.4701,0.18-2.9601,0.27-4.4601,0.28c-1.6399,0-3.27-0.1-4.8799-0.29
				c-0.1801-1.58-0.27-3.17-0.26-4.75c0.01-1.55,0.1099-3.08,0.29-4.6c1.5999-0.18,3.22-0.28,4.8499-0.28
				c1.49,0.01,2.97,0.1,4.4401,0.27C24.771,16.7672,24.8608,18.3072,24.8709,19.8572z M17.9009,5.0872
				c0.6801-0.1,1.3901-0.15,2.1001-0.15c0.6699,0,1.33,0.04,1.97,0.13c1.0601,2.64,1.83,5.35,2.3101,8.13
				c-1.3701-0.13-2.74-0.21-4.1301-0.22h-0.22c-1.46,0-2.8999,0.08-4.34,0.23C16.0709,10.4372,16.8409,7.7272,17.9009,5.0872z
				 M15.5609,5.6072c-0.9401,2.56-1.62,5.1801-2.0399,7.86c-2.6602,0.42-5.28,1.09-7.8301,2.0099
				C7.1609,10.7772,10.8709,7.0672,15.5609,5.6072z M5.001,19.9972c0-0.73,0.0499-1.46,0.1499-2.16
				c2.6201-1.06,5.3301-1.81,8.0901-2.27c-0.15,1.42-0.23,2.85-0.24,4.29c-0.01,1.5,0.0599,2.98,0.22,4.46
				c-2.75-0.47-5.46-1.23-8.0801-2.29C5.0509,21.3672,5.001,20.6872,5.001,19.9972z M5.6509,24.3672
				c2.55,0.93,5.16,1.61,7.8201,2.03c0.4199,2.71,1.09,5.37,2.03,7.97C10.791,32.8872,7.0809,29.1172,5.6509,24.3672z
				 M17.851,34.9172c-1.05-2.64-1.8199-5.42-2.29-8.25c1.4501,0.15,2.9,0.23,4.37,0.23h0.22c1.3901-0.01,2.78-0.09,4.15-0.23
				c-0.46,2.83-1.23,5.6201-2.2899,8.26c-0.6501,0.09-1.3301,0.14-2.01,0.14C19.271,35.0672,18.5509,35.0172,17.851,34.9172z
				 M24.351,34.4172c0.95-2.62,1.63-5.29,2.0499-8.02c2.71-0.43,5.3701-1.12,7.97-2.08
				C32.9309,29.1472,29.1409,32.9572,24.351,34.4172z M26.6509,24.3272c0.16-1.48,0.23-2.97,0.22-4.47
				c-0.01-1.45-0.0898-2.89-0.24-4.31c2.8,0.47,5.55,1.25,8.2201,2.34c0.1,0.69,0.15,1.39,0.15,2.11c0,0.67-0.04,1.33-0.1301,1.97
				C32.2009,23.0572,29.4509,23.8472,26.6509,24.3272z"/>
		</g>
	</g>
</g>
<g id="Layer_3">
</g>
</svg>
