<?xml version="1.0" encoding="utf-8"?>
<!-- Generator: Adobe Illustrator 26.5.0, SVG Export Plug-In . SVG Version: 6.00 Build 0)  -->
<svg version="1.1" xmlns="http://www.w3.org/2000/svg" xmlns:xlink="http://www.w3.org/1999/xlink" x="0px" y="0px"
	 viewBox="0 0 40 40" enable-background="new 0 0 40 40" xml:space="preserve">
<g id="Outline">
</g>
<g id="Icons">
	<g>
		<path d="M30.2234,29.049h-2v-4.7656c0-3.2627-2.6455-5.918-5.8965-5.918h-4.6543c-3.251,0-5.8965,2.6553-5.8965,5.918v4.7656h-2
			v-4.7656c0-4.3662,3.542-7.918,7.8965-7.918h4.6543c4.3545,0,7.8965,3.5518,7.8965,7.918V29.049z"/>
	</g>
	<g>
		<path d="M30.021,19.8394H9.981c-0.64,0-1.14,0.54-1.0901,1.17l1.02,12.63c0.05,0.56,0.52,1,1.0901,1h7.9199v0.74H17.481
			c-0.29,0-0.53,0.23-0.53,0.53v1.05c0,0.29,0.24,0.53,0.53,0.53h5.28c0.2899,0,0.53-0.24,0.53-0.53v-1.05
			c0-0.3-0.2401-0.53-0.53-0.53h-1.55v-0.74h7.88c0.5699,0,1.0399-0.44,1.08-1.01l0.9399-12.63
			C31.1509,20.3693,30.6609,19.8394,30.021,19.8394z M20.001,28.3193c-0.6001,0-1.0801-0.48-1.0801-1.08
			c0-0.6,0.48-1.09,1.0801-1.09c0.6,0,1.08,0.49,1.08,1.09C21.0809,27.8394,20.601,28.3193,20.001,28.3193z"/>
	</g>
	<g>
		<path d="M19.9998,15.6906c-3.6924,0-6.6963-3.0127-6.6963-6.7148s3.0039-6.7148,6.6963-6.7148
			c3.6934,0,6.6973,3.0127,6.6973,6.7148S23.6931,15.6906,19.9998,15.6906z M19.9998,4.2609c-2.5898,0-4.6963,2.1152-4.6963,4.7148
			s2.1064,4.7148,4.6963,4.7148s4.6973-2.1152,4.6973-4.7148S22.5896,4.2609,19.9998,4.2609z"/>
	</g>
</g>
<g id="Layer_3">
</g>
</svg>
