<?xml version="1.0" encoding="utf-8"?>
<!-- Generator: Adobe Illustrator 25.4.1, SVG Export Plug-In . SVG Version: 6.00 Build 0)  -->
<svg version="1.1" id="Layer_1" xmlns="http://www.w3.org/2000/svg" xmlns:xlink="http://www.w3.org/1999/xlink" x="0px" y="0px"
	 viewBox="0 0 20 20" style="enable-background:new 0 0 20 20;" xml:space="preserve">
<style type="text/css">
	.st0{fill:#F5F1F9;}
	.st1{fill:#7642A7;}
</style>
<g id="Layer_1_00000036931256158873425810000006665188784471263897_">
	<g>
		<path class="st0" d="M2.9131,16.75c-0.6523,0-1.1836-0.5312-1.1836-1.1836V4.4331c0-0.6523,0.5312-1.1831,1.1836-1.1831h14.1328
			c0.6523,0,1.1836,0.5308,1.1836,1.1831v11.1333c0,0.6523-0.5312,1.1836-1.1836,1.1836H2.9131z"/>
		<path class="st1" d="M17.0464,4c0.2388,0,0.4331,0.1943,0.4331,0.4331v11.1337c0,0.2388-0.1943,0.4331-0.4331,0.4331H2.9126
			c-0.2388,0-0.4331-0.1943-0.4331-0.4331V4.4331C2.4795,4.1943,2.6738,4,2.9126,4H17.0464 M17.0464,2.5H2.9126
			c-1.0676,0-1.9331,0.8655-1.9331,1.9331v11.1337c0,1.0676,0.8655,1.9331,1.9331,1.9331h14.1337
			c1.0676,0,1.9331-0.8655,1.9331-1.9331V4.4331C18.9795,3.3655,18.114,2.5,17.0464,2.5L17.0464,2.5z"/>
	</g>
</g>
</svg>
