<?xml version="1.0" encoding="UTF-8"?><svg id="Layer_1" xmlns="http://www.w3.org/2000/svg" viewBox="0 0 20 20">
<style type="text/css">
	.st0{fill:#FFFFFF;}
</style>
<circle class="st0" cx="9.9069" cy="9.8287" r="8.2751"/>
<g id="Layer_1_00000060011174995495781150000000948716208521775515_">
	<g>
		<path d="M10,1C5.04,1,1,5.04,1,10s4.04,9,9,9,9-4.04,9-9c0-4.96-4.04-9-9-9Zm.9,10.3c0,.27-.22,.49-.49,.49h-.81c-.27,0-.49-.22-.49-.49V5.55c0-.27,.22-.49,.49-.49h.81c.27,0,.49,.22,.49,.49v5.75Zm-.9,4.39c-.74,0-1.35-.6-1.35-1.35s.6-1.35,1.35-1.35,1.35,.6,1.35,1.35-.6,1.35-1.35,1.35Z" fill="#d53d3d"/>
	</g>
</g>
</svg>