<?xml version="1.0" encoding="utf-8"?>
<!-- Generator: Adobe Illustrator 25.4.1, SVG Export Plug-In . SVG Version: 6.00 Build 0)  -->
<svg version="1.1" id="Layer_1" xmlns="http://www.w3.org/2000/svg" xmlns:xlink="http://www.w3.org/1999/xlink" x="0px" y="0px"
	 viewBox="0 0 12 12" style="enable-background:new 0 0 12 12;" xml:space="preserve">
<g id="Layer_2_00000122685387887478038720000014580327795797126834_">
	<g>
		<path d="M9.5001,1.1146h-7c-0.3748,0-0.7134,0.1472-0.97,0.3823H1.4886v0.0343C1.2237,1.7927,1.0587,2.1552,1.0587,2.556v6.8877
			c0,0.7949,0.6465,1.4414,1.4414,1.4414h7c0.7949,0,1.4414-0.6465,1.4414-1.4414V2.5561
			C10.9415,1.7611,10.295,1.1146,9.5001,1.1146z M1.9415,9.4437V3.643h3.6172v6.3593H2.5001
			C2.1925,10.0023,1.9415,9.7514,1.9415,9.4437z M9.5001,10.0023H6.4415V3.643h3.6172v5.8007
			C10.0587,9.7514,9.8077,10.0023,9.5001,10.0023z"/>
		<rect x="2.9522" y="4.8363" width="1.5" height="0.7891"/>
		<rect x="2.9522" y="6.4564" width="1.5" height="0.7891"/>
		<rect x="2.9522" y="8.0756" width="1.5" height="0.7891"/>
		<rect x="7.4503" y="4.8363" width="1.5" height="0.7891"/>
		<rect x="7.4503" y="6.4564" width="1.5" height="0.7891"/>
		<rect x="7.4503" y="8.0756" width="1.5" height="0.7891"/>
	</g>
</g>
</svg>
