<?xml version="1.0" encoding="utf-8"?>
<!-- Generator: Adobe Illustrator 25.4.1, SVG Export Plug-In . SVG Version: 6.00 Build 0)  -->
<svg version="1.1" id="Layer_1" xmlns="http://www.w3.org/2000/svg" xmlns:xlink="http://www.w3.org/1999/xlink" x="0px" y="0px"
	 viewBox="0 0 12 12" style="enable-background:new 0 0 12 12;" xml:space="preserve">
<g id="Strokes">
	<g>
		<path d="M9.5001,1.0914h-7c-0.8271,0-1.5,0.6729-1.5,1.5v6.8174c0,0.8271,0.6729,1.5,1.5,1.5h7c0.8271,0,1.5-0.6729,1.5-1.5
			V2.5914C11.0001,1.7642,10.3272,1.0914,9.5001,1.0914z M10.0001,9.4087c0,0.2754-0.2246,0.5-0.5,0.5h-7
			c-0.2754,0-0.5-0.2246-0.5-0.5V2.5914c0-0.2754,0.2246-0.5,0.5-0.5h7c0.2754,0,0.5,0.2246,0.5,0.5V9.4087z"/>
		<polygon points="6.5001,3.1724 5.5001,3.1724 5.5001,5.4996 3.1368,5.4996 3.1368,6.4996 5.5001,6.4996 5.5001,8.8277 
			6.5001,8.8277 6.5001,6.4996 8.8634,6.4996 8.8634,5.4996 6.5001,5.4996 		"/>
	</g>
</g>
</svg>
