<?xml version="1.0" encoding="utf-8"?>
<!-- Generator: Adobe Illustrator 25.4.1, SVG Export Plug-In . SVG Version: 6.00 Build 0)  -->
<svg version="1.1" id="Layer_1" xmlns="http://www.w3.org/2000/svg" xmlns:xlink="http://www.w3.org/1999/xlink" x="0px" y="0px"
	 viewBox="0 0 12 12" style="enable-background:new 0 0 12 12;" xml:space="preserve">
<style type="text/css">
	.st0{fill:#7642A7;}
</style>
<g id="Layer_2_00000102543885049613111950000002010001187477269647_">
	<g>
		<path class="st0" d="M7.5001,6.6949v0.999h-3v-0.999h-3.5v2.7139c0,0.5576,0.4834,1.0107,1.0771,1.0107h7.8457
			C10.5167,10.4195,11,9.9664,11,9.4088V6.6949H7.5001z"/>
		<path class="st0" d="M4.5001,5.6949v-0.001h3v0.001h3.5V4.7877c0-0.5576-0.4834-1.0107-1.0771-1.0107H8.1837V2.525
			c0-0.4883-0.3711-0.8857-0.8271-0.8857H4.5938c-0.4551,0-0.8262,0.3975-0.8262,0.8857v1.252H2.0772
			c-0.5938,0-1.0771,0.4531-1.0771,1.0107v0.9072C1.0001,5.6949,4.5001,5.6949,4.5001,5.6949z M4.7677,2.6392h2.416v1.1377h-2.416
			V2.6392z"/>
	</g>
</g>
</svg>
