<?xml version="1.0" encoding="utf-8"?>
<!-- Generator: Adobe Illustrator 25.4.1, SVG Export Plug-In . SVG Version: 6.00 Build 0)  -->
<svg version="1.1" xmlns="http://www.w3.org/2000/svg" xmlns:xlink="http://www.w3.org/1999/xlink" x="0px" y="0px"
	 viewBox="0 0 20 20" style="enable-background:new 0 0 20 20;" xml:space="preserve">
<style type="text/css">
	.st0{fill:#FFFFFF;}
	.st1{fill:#6E6E6E;}
</style>
<g id="Layer_2">
	<path class="st0" d="M2.6594,3.5528v12.6941c0,0,7.1131,3.1735,14.4998,0V3.3339C17.1592,3.3339,9.2254-0.1132,2.6594,3.5528z"/>
</g>
<g id="Layer_1">
	<g>
		<path class="st1" d="M17.9888,3.9492C17.8483,1.824,12.9291,1.25,10,1.25c-2.9296,0-7.8483,0.574-7.9888,2.6992H1.998V15.96
			c0,2.2021,5.0298,2.79,8.002,2.79c2.9717,0,8.002-0.5879,8.002-2.79V3.9492H17.9888z M10,2.75
			c4.1656,0,6.2932,0.9305,6.502,1.2327v0.0169c-0.2088,0.3987-2.3364,1.33-6.502,1.33c-4.1667,0-6.2949-0.9313-6.502-1.2336V4.08
			C3.7051,3.6815,5.8333,2.75,10,2.75z M3.498,5.7752C5.2175,6.5726,8.0485,6.8296,10,6.8296c1.9512,0,4.7824-0.257,6.502-1.0544
			v4.3719c-0.2088,0.3992-2.3373,1.3295-6.502,1.3295c-4.1934,0-6.3271-0.9443-6.502-1.2891V5.7752z M10,17.25
			c-4.1943,0-6.3276-0.9453-6.502-1.29v-4.0377c1.7194,0.7972,4.5504,1.0543,6.502,1.0543c1.9512,0,4.7824-0.2571,6.502-1.0544
			v3.9973C16.2968,16.3172,14.1688,17.25,10,17.25z"/>
		<circle class="st1" cx="5.8179" cy="8.7544" r="1.3618"/>
		<path class="st1" d="M5.8179,13.3271c-0.751,0-1.3618,0.6104-1.3618,1.3613s0.6108,1.3623,1.3618,1.3623
			s1.3618-0.6113,1.3618-1.3623S6.5688,13.3271,5.8179,13.3271z"/>
	</g>
</g>
</svg>
