<?xml version="1.0" encoding="utf-8"?>
<!-- Generator: Adobe Illustrator 25.4.1, SVG Export Plug-In . SVG Version: 6.00 Build 0)  -->
<svg version="1.1" id="Layer_1" xmlns="http://www.w3.org/2000/svg" xmlns:xlink="http://www.w3.org/1999/xlink" x="0px" y="0px"
	 viewBox="0 0 30 30" style="enable-background:new 0 0 30 30;" xml:space="preserve">
<style type="text/css">
	.st0{fill:#FFF7E0;}
	.st1{fill:#BF8C00;}
</style>
<g id="Layer_1_00000025436219869088586630000012142258848447801256_">
	<path class="st0" d="M13.72,27.9242L2.0302,16.2755c-0.7069-0.7045-0.7069-1.8466,0-2.5511L13.72,2.0758
		c0.7069-0.7045,1.8531-0.7045,2.5601,0l11.6898,11.6487c0.7069,0.7045,0.7069,1.8466,0,2.5511L16.28,27.9242
		C15.5731,28.6287,14.4269,28.6287,13.72,27.9242z"/>
	<path class="st1" d="M15.0002,28.9505c-0.5918,0-1.1826-0.2236-1.6328-0.6719L1.6779,16.6302
		c-0.4375-0.4355-0.6777-1.0137-0.6777-1.6299s0.2402-1.1943,0.6777-1.6299L13.3673,1.721c0.9004-0.8965,2.3652-0.8965,3.2656,0
		l11.6895,11.6494c0.4375,0.4355,0.6777,1.0137,0.6777,1.6299s-0.2402,1.1943-0.6777,1.6299L16.633,28.2786
		C16.1828,28.7268,15.592,28.9505,15.0002,28.9505z M14.0724,27.5696c0.5117,0.5098,1.3438,0.5098,1.8555,0l11.6895-11.6484
		c0.2471-0.2461,0.3828-0.5732,0.3828-0.9209s-0.1357-0.6748-0.3828-0.9209L15.9279,2.43c-0.5117-0.5098-1.3438-0.5098-1.8555,0
		L2.383,14.0794c-0.2471,0.2461-0.3828,0.5732-0.3828,0.9209s0.1357,0.6748,0.3828,0.9209L14.0724,27.5696z"/>
	<path class="st1" d="M21.0981,19.6386l-4.6393-4.6393l4.6393-4.6393c0.1343-0.1343,0.1343-0.3521,0-0.4865l-0.9723-0.9723
		c-0.1343-0.1343-0.3521-0.1343-0.4865,0L15,13.5405l-4.6393-4.6393c-0.1343-0.1343-0.3521-0.1343-0.4865,0l-0.973,0.973
		c-0.1343,0.1343-0.1343,0.3521,0,0.4865L13.5405,15l-4.6393,4.6393c-0.1343,0.1343-0.1343,0.3521,0,0.4865l0.973,0.973
		c0.1343,0.1343,0.3521,0.1343,0.4865,0l4.64-4.64l4.6393,4.6393c0.1343,0.1343,0.3521,0.1343,0.4865,0l0.9723-0.9723
		c0.1343-0.1343,0.1343-0.3521,0-0.4865C21.0986,19.6391,21.0983,19.6389,21.0981,19.6386z"/>
</g>
</svg>
