<?xml version="1.0" encoding="utf-8"?>
<!-- Generator: Adobe Illustrator 25.4.1, SVG Export Plug-In . SVG Version: 6.00 Build 0)  -->
<svg version="1.1" id="Layer_1" xmlns="http://www.w3.org/2000/svg" xmlns:xlink="http://www.w3.org/1999/xlink" x="0px" y="0px"
	 viewBox="0 0 15 12" style="enable-background:new 0 0 15 12;" xml:space="preserve">
<g id="Layer_2_00000148658325161488111030000004095948006839157635_">
	<g>
		<path d="M2.3184,3.8599H0.6026v5.2832h1.5752c0.8691,0,1.5498-0.2344,2.0254-0.6982C4.6798,7.981,4.921,7.3111,4.921,6.4556
			c0-0.8037-0.2324-1.4443-0.6914-1.9043C3.7706,4.0923,3.128,3.8599,2.3184,3.8599z M1.6593,4.8414h0.5576
			c0.5459,0,0.9551,0.1348,1.2178,0.3994c0.2637,0.2666,0.3975,0.6816,0.3975,1.2344c0,0.5664-0.1436,0.9932-0.4258,1.2695
			C3.1231,8.022,2.6788,8.1627,2.086,8.1627H1.6593V4.8414z"/>
		<polygon points="8.1036,7.3941 6.7472,3.8599 5.4874,3.8599 5.4874,9.1431 6.5011,9.1431 6.5011,6.0562 7.6827,9.1431 
			8.4747,9.1431 9.669,6.0513 9.669,9.1431 10.7247,9.1431 10.7247,3.8599 9.4727,3.8599 		"/>
		<path d="M14.3858,6.6519c-0.2197-0.2373-0.5908-0.4473-1.1338-0.6406c-0.2812-0.1006-0.4902-0.1924-0.6211-0.2715
			c-0.1064-0.0645-0.1826-0.1338-0.2227-0.2031c-0.0381-0.0654-0.0576-0.1602-0.0576-0.2812c0-0.1475,0.0469-0.249,0.1504-0.3291
			c0.1201-0.0908,0.3018-0.1377,0.5381-0.1377c0.3379,0,0.6924,0.0771,1.0557,0.2295l0.2432,0.1025l0.3398-0.9531l-0.2129-0.0938
			c-0.4287-0.1875-0.9043-0.2822-1.4121-0.2822c-0.5107,0-0.9326,0.1279-1.2539,0.3809C11.46,4.439,11.2882,4.8013,11.2882,5.2486
			c0,0.4131,0.1172,0.7559,0.3477,1.0176c0.2207,0.2529,0.5664,0.4619,1.0576,0.6377c0.3027,0.1084,0.5283,0.2041,0.6719,0.2871
			c0.1182,0.0664,0.2031,0.1377,0.2461,0.2061c0.041,0.0664,0.0615,0.1582,0.0615,0.2754c0,0.1719-0.0576,0.2949-0.1816,0.3877
			c-0.2354,0.1787-0.7861,0.207-1.3232,0.0938c-0.2148-0.0439-0.415-0.1055-0.5947-0.1816l-0.3477-0.1465V8.898l0.1426,0.0674
			c0.3438,0.1641,0.8066,0.2432,1.416,0.2432c0.5771,0,1.0459-0.1367,1.3955-0.4053c0.3691-0.2842,0.5557-0.6816,0.5557-1.1826
			C14.7354,7.23,14.6182,6.9048,14.3858,6.6519z"/>
	</g>
</g>
</svg>
