<?xml version="1.0" encoding="utf-8"?>
<!-- Generator: Adobe Illustrator 25.4.1, SVG Export Plug-In . SVG Version: 6.00 Build 0)  -->
<svg version="1.1" id="Layer_1" xmlns="http://www.w3.org/2000/svg" xmlns:xlink="http://www.w3.org/1999/xlink" x="0px" y="0px"
	 viewBox="0 0 16 16" style="enable-background:new 0 0 16 16;" xml:space="preserve">
<style type="text/css">
	.st0{fill:#616160;}
</style>
<g id="Options">
	<g>
		<path class="st0" d="M14.6788,4.5327L11.462,1.3198c-0.4287-0.4277-1.124-0.4248-1.5527,0.0029l-8.5499,8.586
			c-0.2031,0.2031-0.3164,0.4727-0.3203,0.7607L1,13.8911c-0.0039,0.2998,0.1123,0.5811,0.3252,0.792
			c0.207,0.2051,0.4805,0.3164,0.7705,0.3164c0.0078,0,0.0166,0,0.0254,0l3.2734-0.0723c0.2832-0.0078,0.5488-0.1211,0.749-0.3213
			l8.5342-8.5225C14.8858,5.8765,15,5.6021,15,5.3091C15.001,5.0161,14.8868,4.7407,14.6788,4.5327z M5.3711,13.9272l-3.2715,0.0723
			L2,13.9028l0.0391-3.2217l-0.5-0.0059l0.5283-0.0605L8.687,3.9672l3.3434,3.3386L5.3711,13.9272z M13.9717,5.3755l-1.2323,1.2253
			L9.3925,3.2587l1.2247-1.2299c0.0195-0.0195,0.0449-0.0293,0.0703-0.0293c0.0244,0,0.0498,0.0098,0.0684,0.0283l3.2158,3.2119
			l0.3535-0.3535L13.9717,5.3755z"/>
	</g>
</g>
</svg>
