<?xml version="1.0" encoding="utf-8"?>
<!-- Generator: Adobe Illustrator 25.4.1, SVG Export Plug-In . SVG Version: 6.00 Build 0)  -->
<svg version="1.1" id="Layer_1" xmlns="http://www.w3.org/2000/svg" xmlns:xlink="http://www.w3.org/1999/xlink" x="0px" y="0px"
	 viewBox="0 0 12 12" style="enable-background:new 0 0 12 12;" xml:space="preserve">
<g id="Layer_2_00000147182810139477382720000000296528224100136860_">
	<path d="M10.2335,2.9361C9.8663,2.2681,9.339,1.7447,8.6661,1.3804C7.9962,1.0191,7.2218,0.8355,6.3653,0.8355
		c-1.0166,0-1.9326,0.2256-2.7217,0.6689c-0.791,0.4463-1.4092,1.083-1.8359,1.8936C1.3819,4.2056,1.1661,5.1382,1.1661,6.1695
		c0,1.4268,0.4072,2.5557,1.2119,3.3555c0.8037,0.7998,1.9444,1.205,3.3897,1.205c0.9658,0,1.8428-0.1689,2.6045-0.5029
		l0.0752-0.0322v-1.043l-0.17,0.0645c-0.8643,0.3291-1.709,0.4961-2.5098,0.4961c-1.1436,0-2.0283-0.3105-2.6299-0.9238
		S2.2306,7.2808,2.2306,6.1285c0-0.8545,0.167-1.6172,0.4961-2.2666c0.3271-0.6445,0.8066-1.1475,1.4268-1.4941
		c0.6221-0.3496,1.3662-0.5264,2.2119-0.5264c0.667,0,1.2656,0.1396,1.7773,0.416c0.5098,0.2734,0.9072,0.6699,1.1836,1.1768
		c0.2773,0.5107,0.418,1.1152,0.418,1.7979c0,0.6484-0.1074,1.1797-0.3193,1.5791C9.2237,7.19,8.9766,7.3746,8.6681,7.3746
		c-0.2812,0-0.6543-0.0947-0.6543-0.918l0.1514-2.9727L8.0733,3.4546c-0.2744-0.0879-0.5869-0.1572-0.9287-0.207
		C6.8048,3.1988,6.4952,3.1734,6.2247,3.1734c-0.7832,0-1.4248,0.2646-1.9082,0.7871C3.836,4.48,3.5919,5.1627,3.5919,5.9878
		c0,0.7139,0.1758,1.29,0.5234,1.7109C4.4688,8.1275,4.964,8.3453,5.586,8.3453c0.4219,0,0.792-0.1035,1.1025-0.3076
		C6.9268,7.8815,7.124,7.6764,7.2774,7.4273c0.0752,0.2266,0.2051,0.4209,0.3877,0.582c0.253,0.2227,0.5674,0.336,0.9326,0.336
		c0.4336,0,0.8232-0.1377,1.1572-0.4092c0.3281-0.2666,0.5859-0.6455,0.7646-1.125c0.1758-0.4727,0.2656-1,0.2656-1.5674
		C10.7852,4.3785,10.5997,3.6021,10.2335,2.9361z M6.2247,4.1441c0.2812,0,0.5469,0.0293,0.79,0.0879L6.9376,5.6587
		C6.8712,6.813,6.4806,7.3746,5.7442,7.3746c-0.6846,0-1.0176-0.4463-1.0176-1.3633c0-0.5928,0.1357-1.0586,0.4023-1.3857
		C5.3936,4.3013,5.752,4.1441,6.2247,4.1441z"/>
</g>
</svg>
