<?xml version="1.0" encoding="utf-8"?>
<!-- Generator: Adobe Illustrator 25.4.1, SVG Export Plug-In . SVG Version: 6.00 Build 0)  -->
<svg version="1.1" id="Layer_1" xmlns="http://www.w3.org/2000/svg" xmlns:xlink="http://www.w3.org/1999/xlink" x="0px" y="0px"
	 viewBox="0 0 12 12" style="enable-background:new 0 0 12 12;" xml:space="preserve">
<g id="Strokes">
	<g>
		<g>
			<path d="M6.4903,11.4908H1.5089c-0.5518,0-1-0.4482-1-1V5.5093c0-0.5518,0.4482-1,1-1h4.9814c0.5518,0,1,0.4482,1,1v4.9814
				C7.4903,11.0425,7.0421,11.4908,6.4903,11.4908z M6.4903,10.4908v0.5l0.001-0.5H6.4903z M1.5089,5.5093v4.9814h4.9814V5.5093
				H1.5089z"/>
		</g>
		<g>
			<path d="M9.4903,9.4439h-1V3.5093H2.5831v-1h5.9072c0.5518,0,1,0.4482,1,1V9.4439z"/>
		</g>
		<g>
			<path d="M11.4903,7.4439h-1V1.5093H4.5831v-1h5.9072c0.5518,0,1,0.4482,1,1C11.4903,1.5093,11.4903,7.4439,11.4903,7.4439z"/>
		</g>
	</g>
</g>
</svg>
