<?xml version="1.0" encoding="utf-8"?>
<!-- Generator: Adobe Illustrator 25.4.1, SVG Export Plug-In . SVG Version: 6.00 Build 0)  -->
<svg version="1.1" id="Layer_1" xmlns="http://www.w3.org/2000/svg" xmlns:xlink="http://www.w3.org/1999/xlink" x="0px" y="0px"
	 viewBox="0 0 30 30" style="enable-background:new 0 0 30 30;" xml:space="preserve">
<style type="text/css">
	.st0{fill:#FFFEE8;}
	.st1{fill:#BEB600;}
</style>
<g id="Layer_1_00000062908137066497141370000018292122687500108938_">
	<ellipse class="st0" cx="15" cy="15" rx="13.25" ry="13.2098"/>
	<path class="st1" d="M15.0002,28.9602c-7.7197,0-14-6.2627-14-13.96s6.2803-13.96,14-13.96s14,6.2627,14,13.96
		S22.7199,28.9602,15.0002,28.9602z M15.0002,2.5403c-6.8926,0-12.5,5.5898-12.5,12.46s5.6074,12.46,12.5,12.46
		s12.5-5.5898,12.5-12.46S21.8927,2.5403,15.0002,2.5403z"/>
	<circle class="st0" cx="15" cy="15" r="9.75"/>
	<path class="st1" d="M15.0002,25.5003c-5.79,0-10.5-4.71-10.5-10.5s4.71-10.5,10.5-10.5s10.5,4.71,10.5,10.5
		S20.7902,25.5003,15.0002,25.5003z M15.0002,6.0003c-4.9629,0-9,4.0371-9,9s4.0371,9,9,9s9-4.0371,9-9
		S19.9631,6.0003,15.0002,6.0003z"/>
</g>
</svg>
