<?xml version="1.0" encoding="utf-8"?>
<!-- Generator: Adobe Illustrator 25.4.1, SVG Export Plug-In . SVG Version: 6.00 Build 0)  -->
<svg version="1.1" id="Layer_1" xmlns="http://www.w3.org/2000/svg" xmlns:xlink="http://www.w3.org/1999/xlink" x="0px" y="0px"
	 viewBox="0 0 12 12" style="enable-background:new 0 0 12 12;" xml:space="preserve">
<g id="Layer_2_00000166654612348096589170000017923045299365933441_">
	<g>
		<path d="M9.8624,6.8628h-0.418c-0.1875,0-0.3408,0.1533-0.3408,0.3408v2.8115H1.9747V2.8863h2.9619
			c0.1875,0,0.3408-0.1533,0.3408-0.3408v-0.418c0-0.1875-0.1533-0.3408-0.3408-0.3408H1.8497
			c-0.5371,0-0.9746,0.4375-0.9746,0.9746v7.3789c0,0.5371,0.4375,0.9746,0.9746,0.9746h7.3789
			c0.5371,0,0.9746-0.4375,0.9746-0.9746V7.2037C10.2032,7.0162,10.0499,6.8628,9.8624,6.8628z"/>
		<path d="M10.7374,0.8853h-3.499c-0.2129,0-0.3867,0.1738-0.3867,0.3877v0.3115c0,0.2119,0.1738,0.3867,0.3877,0.3877l2.0312-0.001
			L5.5743,5.6675C5.4239,5.8199,5.4249,6.065,5.5753,6.2154L5.795,6.4341c0.0723,0.0732,0.1699,0.1143,0.2744,0.1143
			c0.1035,0,0.2012-0.04,0.2754-0.1133l3.6943-3.6953l-0.001,2.1719c0,0.2139,0.1748,0.3877,0.3887,0.3877l0.3115-0.001
			c0.1016,0,0.1982-0.04,0.2734-0.1123c0.0732-0.0742,0.1133-0.1719,0.1133-0.2754V1.273
			C11.1251,1.0591,10.9513,0.8853,10.7374,0.8853z"/>
	</g>
</g>
</svg>
