<?xml version="1.0" encoding="utf-8"?>
<!-- Generator: Adobe Illustrator 25.4.1, SVG Export Plug-In . SVG Version: 6.00 Build 0)  -->
<svg version="1.1" id="Layer_1" xmlns="http://www.w3.org/2000/svg" xmlns:xlink="http://www.w3.org/1999/xlink" x="0px" y="0px"
	 viewBox="0 0 20 20" style="enable-background:new 0 0 20 20;" xml:space="preserve">
<style type="text/css">
	.st0{fill:#FFF7E0;}
	.st1{fill:#BF8C00;}
</style>
<g id="Layer_1_00000026879559457062623870000012690249010577935793_">
	<g>
		<path class="st0" d="M8.9892,17.5813l-6.5705-6.5705c-0.5583-0.5583-0.5583-1.4634,0-2.0217l6.5705-6.5705
			c0.5583-0.5583,1.4634-0.5583,2.0217,0l6.5705,6.5705c0.5583,0.5583,0.5583,1.4634,0,2.0217l-6.5705,6.5705
			C10.4526,18.1396,9.5474,18.1396,8.9892,17.5813z"/>
	</g>
	<g>
		<path class="st1" d="M10,2.5c0.0448,0,0.0687,0.0238,0.0765,0.0317l7.3918,7.3918c0.0422,0.0422,0.0422,0.1109,0,0.1531
			l-7.3918,7.3918C10.0687,17.4761,10.0448,17.5,10,17.5s-0.0687-0.0239-0.0765-0.0317l-7.3918-7.3918
			c-0.0422-0.0422-0.0422-0.1109,0-0.1531l7.3918-7.3918C9.9313,2.5239,9.9552,2.5,10,2.5 M10,1C9.5884,1,9.1768,1.157,8.8628,1.471
			L1.471,8.8628c-0.6281,0.628-0.6281,1.6463,0,2.2744l7.3918,7.3918C9.1768,18.843,9.5884,19,10,19s0.8232-0.157,1.1372-0.471
			l7.3918-7.3918c0.6281-0.628,0.6281-1.6463,0-2.2744L11.1372,1.471C10.8232,1.157,10.4116,1,10,1L10,1z"/>
	</g>
</g>
</svg>
