<?xml version="1.0" encoding="utf-8"?>
<!-- Generator: Adobe Illustrator 25.4.1, SVG Export Plug-In . SVG Version: 6.00 Build 0)  -->
<svg version="1.1" id="Layer_1" xmlns="http://www.w3.org/2000/svg" xmlns:xlink="http://www.w3.org/1999/xlink" x="0px" y="0px"
	 viewBox="0 0 30 30" style="enable-background:new 0 0 30 30;" xml:space="preserve">
<style type="text/css">
	.st0{fill:#FFF7E0;}
	.st1{fill:#BF8C00;}
</style>
<g id="Layer_1_00000173132333498429306100000007239311941613024423_">
	<path class="st0" d="M13.72,27.9242L2.0302,16.2755c-0.7069-0.7045-0.7069-1.8466,0-2.5511L13.72,2.0758
		c0.7069-0.7045,1.8531-0.7045,2.5601,0l11.6898,11.6487c0.7069,0.7045,0.7069,1.8466,0,2.5511L16.28,27.9242
		C15.5731,28.6287,14.4269,28.6287,13.72,27.9242z"/>
	<path class="st1" d="M14.9994,28.9505c-0.5908,0-1.1816-0.2236-1.6318-0.6719L1.6781,16.6302
		c-0.4375-0.4355-0.6777-1.0137-0.6777-1.6299s0.2402-1.1943,0.6777-1.6299L13.3676,1.721c0.8994-0.8955,2.3633-0.8975,3.2646,0
		l11.6904,11.6494c0.4375,0.4355,0.6777,1.0137,0.6777,1.6299s-0.2402,1.1943-0.6777,1.6299L16.6322,28.2786
		C16.1821,28.7268,15.5912,28.9505,14.9994,28.9505z M14.0727,27.5696c0.5107,0.5088,1.3418,0.5098,1.8545,0l11.6904-11.6484
		c0.2471-0.2461,0.3828-0.5732,0.3828-0.9209s-0.1357-0.6748-0.3828-0.9209L15.9272,2.43c-0.5117-0.5098-1.3428-0.5078-1.8545,0
		L2.3832,14.0794c-0.2471,0.2461-0.3828,0.5732-0.3828,0.9209s0.1357,0.6748,0.3828,0.9209L14.0727,27.5696z"/>
	<path class="st1" d="M15.0422,22.4335c-4.1421,0-7.5-3.3579-7.5-7.5s3.3579-7.5,7.5-7.5s7.5,3.3579,7.5,7.5
		C22.5361,19.0732,19.1818,22.4275,15.0422,22.4335z M15.0422,9.3167c-3.101,0-5.6149,2.5139-5.6149,5.6149
		s2.5139,5.6149,5.6149,5.6149c3.1011,0,5.6149-2.5139,5.6149-5.6149C20.6536,11.8321,18.1418,9.3203,15.0422,9.3167z"/>
</g>
</svg>
