<?xml version="1.0" encoding="utf-8"?>
<!-- Generator: Adobe Illustrator 25.4.1, SVG Export Plug-In . SVG Version: 6.00 Build 0)  -->
<svg version="1.1" id="Layer_1" xmlns="http://www.w3.org/2000/svg" xmlns:xlink="http://www.w3.org/1999/xlink" x="0px" y="0px"
	 viewBox="0 0 20 20" style="enable-background:new 0 0 20 20;" xml:space="preserve">
<style type="text/css">
	.st0{fill:#FFFEE8;}
	.st1{fill:#BEB600;}
</style>
<g id="Layer_1_00000141414323444565660070000009157418271160285082_">
	<circle class="st0" cx="10" cy="10" r="8.5792"/>
	<g>
		<g>
			<path class="st1" d="M10,2.5c4.1355,0,7.5,3.3645,7.5,7.5s-3.3645,7.5-7.5,7.5S2.5,14.1355,2.5,10S5.8645,2.5,10,2.5 M10,1
				c-4.9706,0-9,4.0294-9,9s4.0294,9,9,9s9-4.0294,9-9S14.9706,1,10,1L10,1z"/>
		</g>
	</g>
	<g>
		<g>
			<path class="st1" d="M10,5.5c2.4813,0,4.5,2.0187,4.5,4.5s-2.0187,4.5-4.5,4.5S5.5,12.4813,5.5,10S7.5187,5.5,10,5.5 M10,4
				c-3.3085,0-6,2.6915-6,6s2.6915,6,6,6s6-2.6915,6-6S13.3085,4,10,4L10,4z"/>
		</g>
	</g>
</g>
</svg>
