<?xml version="1.0" encoding="utf-8"?>
<!-- Generator: Adobe Illustrator 25.4.1, SVG Export Plug-In . SVG Version: 6.00 Build 0)  -->
<svg version="1.1" id="Layer_1" xmlns="http://www.w3.org/2000/svg" xmlns:xlink="http://www.w3.org/1999/xlink" x="0px" y="0px"
	 viewBox="0 0 30 30" style="enable-background:new 0 0 30 30;" xml:space="preserve">
<style type="text/css">
	.st0{fill:#FFFEE8;}
	.st1{fill:#BEB600;}
</style>
<g id="Layer_1_00000142868687093618468930000008476241685194941578_">
	<ellipse class="st0" cx="15" cy="15" rx="13.25" ry="13.2098"/>
	<path class="st1" d="M15.0002,28.9602c-7.7197,0-14-6.2627-14-13.96s6.2803-13.96,14-13.96s14,6.2627,14,13.96
		S22.7199,28.9602,15.0002,28.9602z M15.0002,2.5403c-6.8926,0-12.5,5.5898-12.5,12.46s5.6074,12.46,12.5,12.46
		s12.5-5.5898,12.5-12.46S21.8927,2.5403,15.0002,2.5403z"/>
</g>
<g id="Layer_2_00000021835623085309035110000008873828549248850341_">
	<g>
		<g>
			<path class="st1" d="M13.2292,5.692c0.2329,0.5553,0.358,1.0519,0.5236,1.466c0.1728,0.4528,0.3381,0.6354,0.6125,1.2283
				c0.2228,0.524,0.3522,1.1258,0.2864,1.7289c-0.0524,0.5988-0.3071,1.1895-0.7728,1.5724
				c-0.1313-0.5902-0.2501-1.0419-0.3984-1.4689c-0.1594-0.4231-0.3222-0.8211-0.5015-1.2433
				c-0.0809-0.2093-0.1863-0.4039-0.2915-0.744c-0.0887-0.3076-0.1247-0.6255-0.0971-0.9297
				C12.6267,6.6921,12.848,6.1528,13.2292,5.692z"/>
		</g>
		<g>
			<path class="st1" d="M11.5033,7.9306c0.2264,0.4771,0.3465,0.8873,0.51,1.1689c0.1653,0.2782,0.334,0.4606,0.5817,0.8545
				c0.1075,0.1759,0.2521,0.4429,0.3188,0.7259c0.0645,0.2757,0.0842,0.5528,0.0364,0.817
				c-0.0744,0.522-0.3394,1.0124-0.7974,1.2834c-0.1259-0.5102-0.2474-0.8793-0.3758-1.2041
				c-0.0776-0.1589-0.1389-0.302-0.2133-0.4273c-0.0679-0.1206-0.1379-0.2234-0.2532-0.4079
				c-0.201-0.3195-0.4944-0.8783-0.4529-1.4503C10.8808,8.7305,11.1239,8.2845,11.5033,7.9306z"/>
		</g>
	</g>
	<g>
		<polygon class="st1" points="23.3405,17.5247 23.3405,11.59 26.3296,14.5797 		"/>
	</g>
	<path class="st1" d="M21.9601,16.0628c-0.1777-1.0342-0.9932-1.6768-1.9619-1.5732c-0.2127,0.0233-0.4125,0.0735-0.6008,0.1345
		v-0.4094c0-0.3884-0.3149-0.7033-0.7033-0.7033H6.8285c-0.3884,0-0.7032,0.3149-0.7032,0.7033v1.572
		c0,2.4609,1.3428,4.604,3.3325,5.7498H7.2609c-0.4141,0-0.75,0.3359-0.75,0.75s0.3359,0.75,0.75,0.75h11
		c0.4141,0,0.75-0.3359,0.75-0.75s-0.3359-0.75-0.75-0.75h-2.196c0.8251-0.4752,1.5368-1.1217,2.0891-1.8924
		c0.1196,0.003,0.2412,0.0086,0.3588,0.0086c1.1084,0,2.1318-0.1816,2.9189-1.3291C21.8976,17.6448,22.09,16.8206,21.9601,16.0628z
		 M20.5392,17.7112c-0.4426,0.647-0.9495,0.8251-1.7571,0.8532c0.3911-0.8459,0.6154-1.7847,0.6154-2.7778V15.78
		c0.2404-0.0967,0.4844-0.1889,0.718-0.2143c0.623-0.0703,0.748,0.5049,0.7783,0.6797
		C20.9757,16.7288,20.8468,17.263,20.5392,17.7112z"/>
</g>
</svg>
