<?xml version="1.0" encoding="utf-8"?>
<!-- Generator: Adobe Illustrator 25.4.1, SVG Export Plug-In . SVG Version: 6.00 Build 0)  -->
<svg version="1.1" id="Layer_1" xmlns="http://www.w3.org/2000/svg" xmlns:xlink="http://www.w3.org/1999/xlink" x="0px" y="0px"
	 viewBox="0 0 30 30" style="enable-background:new 0 0 30 30;" xml:space="preserve">
<style type="text/css">
	.st0{fill:#FFFFFF;}
	.st1{fill:#448047;}
</style>
<g id="Layer_1_00000091693709054627028870000003360373318195049370_">
	<ellipse class="st0" cx="15" cy="15" rx="13.25" ry="13.2098"/>
	<path class="st1" d="M14.9999,28.9602c-7.7197,0-14-6.2627-14-13.96s6.2803-13.96,14-13.96s14,6.2627,14,13.96
		S22.7196,28.9602,14.9999,28.9602z M14.9999,2.5403c-6.8926,0-12.5,5.5898-12.5,12.46s5.6074,12.46,12.5,12.46
		s12.5-5.5898,12.5-12.46S21.8925,2.5403,14.9999,2.5403z"/>
	<g>
		<path class="st1" d="M14.9179,18.4505l-8.391-7.2985v9.2863c0,0.5256,0.4261,0.9516,0.9516,0.9516h15.1461
			c0.5256,0,0.9517-0.426,0.9517-0.9516V11.179L14.9179,18.4505z"/>
		<polygon class="st1" points="22.5379,9.439 7.6057,9.439 14.9413,15.8196 		"/>
	</g>
</g>
</svg>
