<?xml version="1.0" encoding="utf-8"?>
<!-- Generator: Adobe Illustrator 25.4.1, SVG Export Plug-In . SVG Version: 6.00 Build 0)  -->
<svg version="1.1" id="Layer_1" xmlns="http://www.w3.org/2000/svg" xmlns:xlink="http://www.w3.org/1999/xlink" x="0px" y="0px"
	 viewBox="0 0 30 30" style="enable-background:new 0 0 30 30;" xml:space="preserve">
<style type="text/css">
	.st0{fill:#FFFFFF;}
	.st1{fill:#D30814;}
</style>
<g id="Layer_1_00000179605981508226042600000013881249146955210649_">
	<ellipse class="st0" cx="15" cy="15" rx="11.7778" ry="12"/>
	<path class="st1" d="M14.9998,28.4999c-7.3213,0-13.2773-6.0557-13.2773-13.5s5.9561-13.5,13.2773-13.5
		s13.2783,6.0557,13.2783,13.5S22.3211,28.4999,14.9998,28.4999z M14.9998,4.4999c-5.667,0-10.2773,4.71-10.2773,10.5
		s4.6104,10.5,10.2773,10.5c5.668,0,10.2783-4.71,10.2783-10.5S20.6678,4.4999,14.9998,4.4999z"/>
	<g>
		<polygon class="st1" points="21.4922,10.0929 8.6435,10.0929 14.9549,15.5546 		"/>
		<path class="st1" d="M14.9373,17.5233l-7.1721-6.2056v8.1221c0,0.4479,0.3631,0.8109,0.811,0.8109h12.9444
			c0.4479,0,0.811-0.363,0.811-0.8109v-8.0949L14.9373,17.5233z"/>
	</g>
</g>
</svg>
