<?xml version="1.0" encoding="utf-8"?>
<!-- Generator: Adobe Illustrator 25.4.1, SVG Export Plug-In . SVG Version: 6.00 Build 0)  -->
<svg version="1.1" id="Layer_1" xmlns="http://www.w3.org/2000/svg" xmlns:xlink="http://www.w3.org/1999/xlink" x="0px" y="0px"
	 viewBox="0 0 15 12" style="enable-background:new 0 0 15 12;" xml:space="preserve">
<g id="Layer_2_00000127027633123201831600000005343380204674406801_">
	<g>
		<path d="M2.6485,3.7134c-0.7773,0-1.3906,0.2441-1.8223,0.7266C0.4024,4.9127,0.1876,5.5777,0.1876,6.4175
			c0,0.8438,0.2148,1.5137,0.6377,1.9893c0.4307,0.4844,1.042,0.7305,1.8174,0.7305c0.7607,0,1.3662-0.25,1.8018-0.7422
			C4.8712,7.9117,5.087,7.2486,5.087,6.4234c0-0.8271-0.2158-1.4902-0.6416-1.9717C4.0108,3.9615,3.4063,3.7134,2.6485,3.7134z
			 M1.6339,5.1226c0.2275-0.2773,0.5596-0.4121,1.0146-0.4121c0.4521,0,0.7803,0.1328,1.002,0.4062
			c0.2314,0.2861,0.3486,0.7256,0.3486,1.3066c0,0.5889-0.1182,1.0322-0.3506,1.3184C3.4259,8.0162,3.0968,8.15,2.6427,8.15
			c-0.4512,0-0.7812-0.1348-1.0098-0.4111C1.3966,7.4517,1.2765,7.0093,1.2765,6.4234C1.2765,5.8472,1.3966,5.4097,1.6339,5.1226z"
			/>
		<polygon points="8.2696,7.3228 6.9132,3.7886 5.6534,3.7886 5.6534,9.0718 6.6671,9.0718 6.6671,5.9849 7.8487,9.0718 
			8.6407,9.0718 9.835,5.98 9.835,9.0718 10.8907,9.0718 10.8907,3.7886 9.6388,3.7886 		"/>
		<path d="M14.5518,6.5806C14.3321,6.3433,13.961,6.1334,13.4181,5.94c-0.2812-0.1006-0.4902-0.1924-0.6211-0.2715
			c-0.1064-0.0645-0.1826-0.1338-0.2227-0.2031C12.5362,5.4,12.5167,5.3052,12.5167,5.1841c0-0.1475,0.0469-0.249,0.1504-0.3291
			c0.1201-0.0908,0.3018-0.1377,0.5381-0.1377c0.3379,0,0.6924,0.0771,1.0557,0.2295l0.2432,0.1025l0.3398-0.9531L14.631,4.0024
			c-0.4287-0.1875-0.9043-0.2822-1.4121-0.2822c-0.5107,0-0.9326,0.1279-1.2539,0.3809c-0.3389,0.2666-0.5107,0.6289-0.5107,1.0762
			c0,0.4131,0.1172,0.7559,0.3477,1.0176c0.2207,0.2529,0.5664,0.4619,1.0576,0.6377c0.3027,0.1084,0.5283,0.2041,0.6719,0.2871
			c0.1182,0.0664,0.2031,0.1377,0.2461,0.207c0.041,0.0654,0.0615,0.1572,0.0615,0.2744c0,0.1719-0.0576,0.2949-0.1816,0.3877
			c-0.2354,0.1787-0.7871,0.2061-1.3232,0.0938c-0.2148-0.0439-0.415-0.1055-0.5947-0.1816l-0.3477-0.1465v1.0723l0.1426,0.0674
			c0.3438,0.1641,0.8066,0.2432,1.416,0.2432c0.5771,0,1.0459-0.1367,1.3955-0.4053c0.3691-0.2842,0.5557-0.6816,0.5557-1.1826
			C14.9015,7.1587,14.7843,6.8335,14.5518,6.5806z"/>
	</g>
</g>
</svg>
