<?xml version="1.0" encoding="utf-8"?>
<!-- Generator: Adobe Illustrator 25.4.1, SVG Export Plug-In . SVG Version: 6.00 Build 0)  -->
<svg version="1.1" id="Layer_1" xmlns="http://www.w3.org/2000/svg" xmlns:xlink="http://www.w3.org/1999/xlink" x="0px" y="0px"
	 viewBox="0 0 12 12" style="enable-background:new 0 0 12 12;" xml:space="preserve">
<g id="Layer_2_00000094591947622630042630000017988252627896985994_">
	<path d="M10.829,5.8242h-0.7809c-0.0423-0.9719-0.8399-1.751-1.822-1.751H6.4236V3.6384h0.024c0.3701,0,0.671-0.3009,0.671-0.671
		V2.0401c0-0.3701-0.3009-0.671-0.671-0.671H5.5203c-0.3701,0-0.671,0.3009-0.671,0.671v0.9273c0,0.3701,0.3009,0.671,0.671,0.671
		h0.0246v0.4348H3.7418c-0.9821,0-1.7797,0.7792-1.822,1.751H1.1716C0.8015,5.8242,0.5,6.1254,0.5,6.4955v1.6921
		c0,0.3701,0.3015,0.671,0.6716,0.671h0.7461c0.0312,0.9818,0.8348,1.7722,1.8242,1.7722h4.4843
		c0.9893,0,1.7928-0.7904,1.8241-1.7722h0.7787c0.3701,0,0.671-0.3009,0.671-0.671V6.4955C11.5,6.1254,11.1991,5.8242,10.829,5.8242
		z M1.8913,7.98H1.3787V6.7029h0.5126V7.98z M4.2588,7.8824c-0.3807,0-0.6912-0.3104-0.6912-0.6912
		C3.5677,6.8105,3.8781,6.5,4.2588,6.5c0.3809,0,0.6913,0.3105,0.6913,0.6912C4.9502,7.572,4.6397,7.8824,4.2588,7.8824z
		 M7.6564,7.8824c-0.3807,0-0.6912-0.3104-0.6912-0.6912C6.9652,6.8105,7.2757,6.5,7.6564,6.5c0.3807,0,0.6912,0.3105,0.6912,0.6912
		C8.3476,7.572,8.0371,7.8824,7.6564,7.8824z M10.6213,7.98h-0.512V6.7029h0.512V7.98z"/>
</g>
</svg>
