<?xml version="1.0" encoding="utf-8"?>
<!-- Generator: Adobe Illustrator 25.4.1, SVG Export Plug-In . SVG Version: 6.00 Build 0)  -->
<svg version="1.1" id="Layer_1" xmlns="http://www.w3.org/2000/svg" xmlns:xlink="http://www.w3.org/1999/xlink" x="0px" y="0px"
	 viewBox="0 0 15 12" style="enable-background:new 0 0 15 12;" xml:space="preserve">
<g id="Layer_2_00000134953549961803836550000009576466064901546371_">
	<g>
		<path d="M4.1241,6.4019C3.8692,6.1246,3.4327,5.8785,2.7882,5.648c-0.3408-0.123-0.5938-0.2324-0.749-0.3281
			C1.9034,5.2378,1.8087,5.15,1.7559,5.0601c-0.0498-0.0859-0.0752-0.207-0.0752-0.3604c0-0.1904,0.0635-0.3271,0.1982-0.4307
			c0.1523-0.1162,0.3789-0.1748,0.6729-0.1748c0.4102,0,0.8398,0.0938,1.2783,0.2773L4.0733,4.474l0.375-1.0469L4.2335,3.3335
			c-0.5068-0.2207-1.0674-0.333-1.666-0.333c-0.5996,0-1.0928,0.1494-1.4668,0.4443C0.7081,3.7535,0.5089,4.1734,0.5089,4.6919
			c0,0.4785,0.1357,0.877,0.4033,1.1836c0.2578,0.2949,0.6641,0.54,1.2432,0.7471C2.5197,6.7525,2.7921,6.8687,2.965,6.9673
			c0.1494,0.085,0.2539,0.1748,0.3105,0.2656C3.3292,7.3188,3.3566,7.437,3.3566,7.5864c0,0.2207-0.0752,0.3799-0.2363,0.501
			c-0.1778,0.1338-0.464,0.2022-0.8497,0.2022c-0.2539,0-0.5127-0.0273-0.7695-0.0811c-0.2588-0.0537-0.501-0.1279-0.7197-0.2197
			L0.4347,7.8433v1.1738l0.1416,0.0684c0.4014,0.1924,0.9482,0.2861,1.6709,0.2861c0.6787,0,1.2295-0.1592,1.6367-0.4736
			c0.4277-0.3301,0.6445-0.793,0.6445-1.374C4.5284,7.0709,4.3927,6.6929,4.1241,6.4019z"/>
		<path d="M7.1759,3.0591L7.1651,3.023L7.1573,3.0591H6.7491L4.294,9.2935h1.21l0.7031-1.8164h1.9473l0.7109,1.8164h1.2246
			L7.6485,3.0591H7.1759z M6.6329,6.3794l0.5449-1.4355c0.0068-0.0186,0.0137-0.0371,0.0195-0.0557
			c0.0078,0.0205,0.0156,0.04,0.0225,0.0596l0.5371,1.4316H6.6329z"/>
		<path d="M11.9893,3.0826h-1.7305v6.2109h1.1641V7.0474h0.4219c0.7891,0,1.4111-0.1748,1.8486-0.5205
			c0.4551-0.3604,0.6865-0.875,0.6865-1.5303C14.38,4.1236,13.9649,3.0826,11.9893,3.0826z M11.4229,4.1568h0.4922
			c0.4658,0,0.8047,0.0762,1.0068,0.2275c0.1816,0.1357,0.2705,0.3467,0.2705,0.6436c0,0.3369-0.0957,0.5693-0.291,0.7119
			c-0.2178,0.1572-0.5977,0.2373-1.1309,0.2373h-0.3477V4.1568H11.4229z"/>
	</g>
</g>
</svg>
