<?xml version="1.0" encoding="utf-8"?>
<!-- Generator: Adobe Illustrator 25.4.1, SVG Export Plug-In . SVG Version: 6.00 Build 0)  -->
<svg version="1.1" id="Layer_1" xmlns="http://www.w3.org/2000/svg" xmlns:xlink="http://www.w3.org/1999/xlink" x="0px" y="0px"
	 viewBox="0 0 12 12" style="enable-background:new 0 0 12 12;" xml:space="preserve">
<style type="text/css">
	.st0{fill:#1A9BA1;}
	.st1{fill:#036C70;}
	.st2{fill:#37C6D0;}
	.st3{fill:#037A7F;}
	.st4{fill:#058E91;}
	.st5{fill:#038287;}
	.st6{fill:#027478;}
	.st7{fill:#02777B;}
	.st8{fill:#036165;}
	.st9{fill:#037E83;}
	.st10{fill:#02767B;}
	.st11{fill:#288F96;}
	.st12{fill:#2C9EA6;}
	.st13{fill:#1A5B60;}
	.st14{fill:#178C91;}
	.st15{fill:#32B3BC;}
	.st16{fill:#FFFFFF;}
	.st17{fill:#027074;}
	.st18{fill:#048A8E;}
	.st19{fill:#03858A;}
	.st20{fill:#038186;}
	.st21{fill:#207278;}
	.st22{fill:#03868B;}
	.st23{fill:#023E41;}
	.st24{fill:#0E5A5D;}
</style>
<g id="Rough">
</g>
<g>
	<path class="st0" d="M9.1949,3.7347c0.052,0.031,0.1124,0.0321,0.1691,0.0459c1.0485,0.2546,1.8799,1.1259,2.0839,2.186
		c0.2695,1.4008-0.5267,2.7628-1.8816,3.2162c-0.2819,0.0942-0.5721,0.1423-0.87,0.139C8.6455,9.2965,8.658,9.2482,8.6596,9.208
		C8.667,9.0106,8.6423,8.8173,8.5883,8.6278c-0.1685-0.5923-0.5232-1.0355-1.063-1.3325c-0.251-0.1382-0.5212-0.2095-0.8029-0.2458
		C6.6883,7.036,6.6437,7.0493,6.6202,7.009C6.6051,6.9732,6.6075,6.9352,6.6075,6.8978c-0.0002-0.7275-0.0002-1.455-0.0002-2.1824
		c0-0.0323,0.0014-0.0644,0.005-0.0962C6.613,4.6096,6.6151,4.6001,6.6179,4.591c0.0558-0.116,0.1639-0.183,0.2572-0.2607
		C7.3059,3.971,7.8027,3.7601,8.3602,3.6945c0.2403-0.0283,0.4809-0.0212,0.7209,0.0068C9.1201,3.7057,9.1623,3.7055,9.1949,3.7347z
		"/>
	<path class="st1" d="M9.1949,3.7347c-0.083-0.0007-0.1641-0.019-0.2462-0.0266C8.9248,3.7059,8.9009,3.7024,8.877,3.7021
		c-0.0886-0.0009-0.1771,0.0003-0.2655-0.001C8.3633,3.6973,8.1232,3.7452,7.8864,3.8135C7.5566,3.9087,7.255,4.0621,6.9829,4.2702
		C6.858,4.3657,6.7355,4.4658,6.633,4.5868C6.6003,4.5509,6.6086,4.5061,6.6085,4.4641c-0.0009-0.3485,0-0.6968-0.0006-1.0453
		c-0.0005-0.2804-0.1816-0.464-0.4624-0.4644C5.1937,2.9532,4.242,2.9542,3.2902,2.9534c-0.0456,0-0.0901,0.014-0.1358,0.0071
		c0.0276-0.151,0.0783-0.2952,0.1398-0.4348c0.4453-1.0121,1.2095-1.6432,2.2957-1.8441C7.2058,0.3828,8.7404,1.4149,9.115,2.9931
		C9.1728,3.2367,9.204,3.4836,9.1949,3.7347z"/>
	<path class="st2" d="M6.7304,7.0354c0.1935,0.0126,0.3797,0.058,0.5597,0.1283c0.2081,0.0812,0.4015,0.1891,0.5766,0.3286
		C7.9968,7.596,8.112,7.714,8.2159,7.8444c0.0856,0.1073,0.1597,0.2214,0.2235,0.3418c0.0993,0.1875,0.166,0.3874,0.2087,0.5956
		c0.0303,0.1479,0.0347,0.2968,0.0324,0.4466C8.68,9.2604,8.6761,9.2931,8.6962,9.3217C8.664,9.3719,8.6744,9.4306,8.6674,9.4848
		c-0.1163,0.9007-0.801,1.6528-1.6962,1.8339c-0.8013,0.1621-1.4922-0.0621-2.0575-0.6517
		c-0.2792-0.2912-0.4505-0.6437-0.5327-1.0389c-0.0033-0.0155-0.0022-0.0319-0.0031-0.048c0.0361-0.0326,0.081-0.023,0.1227-0.0231
		c0.4446-0.0008,0.8892-0.0031,1.3337,0.0006c0.2183,0.0019,0.3843-0.0783,0.4903-0.2725C6.3336,9.2727,6.3449,9.263,6.3585,9.256
		c0.1707-0.0934,0.2526-0.2345,0.2513-0.4318C6.6063,8.2836,6.6085,7.743,6.6086,7.2023c0-0.0241-0.0004-0.0482,0.0004-0.0723
		C6.6122,7.0263,6.6211,7.0194,6.7304,7.0354z"/>
	<path class="st3" d="M2.1221,8.8069c-0.048,0.0013-0.0959,0.0035-0.1439,0.0036C1.6604,8.8108,1.3428,8.8107,1.025,8.8104
		c-0.0319,0-0.0638-0.0029-0.0957-0.0045C0.8838,8.7601,0.934,8.7474,0.9583,8.7318c0.1215-0.0786,0.2492-0.1469,0.3745-0.2192
		c0.4919-0.284,0.984-0.5675,1.476-0.8512C2.837,7.6451,2.8585,7.6207,2.8862,7.6042c0.0447-0.0153,0.0896-0.0082,0.135-0.0037
		C3.3289,7.6304,3.6328,7.6084,3.9236,7.501c0.2678-0.099,0.4475-0.2872,0.513-0.5725C4.4408,6.91,4.4459,6.8921,4.454,6.8751
		c0.0064-0.0146,0.017-0.0292,0.0141-0.0454c-0.0189-0.1066,0.0423-0.1552,0.127-0.203C5.0663,6.3603,5.5332,6.0863,6.003,5.8175
		c0.04-0.0229,0.0863-0.0682,0.1312-0.0025c0.0113,0.2161,0.0079,0.4321,0.0021,0.6479C6.129,6.4962,6.0999,6.5068,6.0746,6.5214
		C5.0994,7.082,4.1258,7.6452,3.1521,8.2081C2.8221,8.3989,2.4908,8.5873,2.1619,8.78C2.148,8.7882,2.1334,8.7951,2.1221,8.8069z"/>
	<path class="st4" d="M0.5078,8.3618C0.4959,8.3362,0.5011,8.3089,0.5011,8.2825c-0.0002-1.5266,0.0002-3.053,0-4.5795
		c0-0.1095,0.0164-0.2143,0.0801-0.3062C0.6787,3.2563,0.8148,3.1876,0.985,3.1874C1.3635,3.1868,1.7419,3.1873,2.1203,3.187
		c0.3274-0.0002,0.6548-0.0008,0.9822-0.0012c0.0008,0.0044,0.0017,0.0087,0.0025,0.013C3.068,3.2379,3.0192,3.2255,2.9757,3.2234
		C2.8816,3.219,2.8026,3.2442,2.719,3.2931C2.251,3.5668,1.7815,3.8378,1.3113,4.1076c-0.2421,0.1389-0.4825,0.2808-0.726,0.4172
		c-0.05,0.028-0.0527,0.0685-0.0526,0.1153C0.5329,5.0051,0.5325,5.37,0.533,5.735C0.5333,5.9174,0.5302,6.1,0.5354,6.2826
		C0.5367,6.754,0.5392,7.2253,0.5345,7.6965c0.0053,0.1923,0.002,0.3847,0.0016,0.5769C0.5359,8.3051,0.5364,8.3385,0.5078,8.3618z"
		/>
	<path class="st5" d="M0.5078,8.3618c0.0011-0.1764,0.002-0.3528,0.0034-0.5292c0.0003-0.0454,0.0017-0.0908,0.0027-0.1362
		c0.0957-0.0889,0.2165-0.1377,0.3272-0.202c0.5657-0.3288,1.1336-0.654,1.6996-0.9824C2.7054,6.4164,2.8722,6.3244,3.035,6.2255
		C3.0557,6.213,3.0763,6.2002,3.1014,6.1987C3.1086,6.1984,3.1158,6.199,3.123,6.2003c0.01,0.0024,0.0193,0.0064,0.0284,0.011
		C3.1571,6.2138,3.1626,6.2168,3.168,6.22c0.0078,0.0042,0.0155,0.0087,0.0234,0.0127C3.1967,6.2349,3.2019,6.2375,3.207,6.2402
		c0.0078,0.0037,0.0155,0.0075,0.0234,0.0111c0.0056,0.002,0.011,0.0044,0.0165,0.0065C3.259,6.2615,3.2715,6.2629,3.284,6.2653
		C3.33,6.283,3.3777,6.2972,3.4158,6.3307c0.0007,0.0181,0.008,0.0181,0.0194,0.0069c0.0227,0.0051,0.048,0.0076,0.0405,0.0419
		C3.1798,6.5605,2.8764,6.7287,2.576,6.9022C2.5428,6.9215,2.5136,6.9425,2.4938,6.9754c-0.0835,0.0109-0.133-0.0523-0.1946-0.0891
		c-0.008-0.0085-0.0147-0.0185-0.0239-0.0258C2.2712,6.858,2.2666,6.8569,2.2619,6.8581c-0.0091,0.0103-0.0045,0.0224-0.0051,0.034
		c0.0006,0.1648,0.0091,0.3293-0.0042,0.4935C2.2438,7.4209,2.2139,7.4343,2.1858,7.4502C1.6589,7.7486,1.1354,8.053,0.6114,8.3564
		C0.5799,8.3746,0.5487,8.4026,0.5089,8.3729C0.5047,8.3695,0.5043,8.3658,0.5078,8.3618z"/>
	<path class="st6" d="M4.3605,8.8088C3.9904,8.8105,3.6202,8.8139,3.2501,8.8069C3.2447,8.7531,3.2913,8.7425,3.3236,8.7235
		c0.3672-0.2171,0.7383-0.4277,1.1075-0.6412C4.9654,7.7734,5.4984,7.4625,6.0362,7.16C6.0861,7.1318,6.085,7.0742,6.13,7.0499
		c0.008,0.0049,0.0138,0.0115,0.0178,0.0199c0.0203,0.1629,0.0108,0.3261,0.0061,0.489C6.1434,7.5976,6.1338,7.6372,6.1385,7.6775
		C6.1469,7.7486,6.115,7.789,6.0532,7.8237c-0.5399,0.304-1.0741,0.618-1.6115,0.9264c-0.0259,0.0149-0.0476,0.0346-0.07,0.0537
		C4.368,8.8056,4.3643,8.8072,4.3605,8.8088z"/>
	<path class="st7" d="M2.1221,8.8069c0.0001-0.0288,0.0203-0.0402,0.0422-0.0528C2.4122,8.6119,2.66,8.4694,2.9074,8.3261
		c0.2565-0.1487,0.512-0.2991,0.7687-0.4474c0.1967-0.1135,0.3951-0.224,0.5919-0.3375c0.1828-0.1054,0.3639-0.2138,0.5465-0.3195
		C4.9717,7.1306,5.1303,7.042,5.2878,6.9514c0.1575-0.0904,0.3144-0.1819,0.4715-0.273c0.104-0.0603,0.208-0.1208,0.3118-0.1813
		c0.0148-0.0086,0.0306-0.0085,0.0467-0.0088C6.1467,6.5161,6.1402,6.5526,6.14,6.5864c-0.0008,0.088,0.005,0.1761-0.0038,0.2639
		c-0.0084,0.036-0.0399,0.0475-0.0675,0.0636C5.5222,7.2324,4.9729,7.5462,4.4256,7.8634C3.897,8.1696,3.3665,8.4729,2.8385,8.7801
		C2.8246,8.7882,2.8099,8.7951,2.7986,8.807C2.5731,8.8128,2.3475,8.8127,2.1221,8.8069z"/>
	<path class="st8" d="M3.1543,2.9604C3.1727,2.9401,3.1924,2.9241,3.223,2.9281c0.0185,0.0024,0.0376,0.0005,0.0563,0.0005
		c0.9602,0,1.9204,0.0004,2.8807-0.0002c0.2202-0.0002,0.4086,0.1379,0.4662,0.3562c0.0064,0.024,0.007,0.0475,0.007,0.0715
		c0,0.4102-0.0002,0.8205-0.0004,1.2307l0.001,0.0017C6.5829,4.695,6.4931,4.7721,6.4239,4.8649
		C6.4032,4.8927,6.3831,4.8807,6.3735,4.8502C6.3636,4.4846,6.3718,4.1191,6.3688,3.7536C6.3683,3.7057,6.3737,3.6575,6.3629,3.6102
		C6.304,3.3066,6.0834,3.1632,5.7601,3.2187C5.603,3.2044,5.4456,3.2149,5.2884,3.2097c-0.3165,0.0065-0.633,0.0019-0.9495,0.0027
		C3.9715,3.2133,3.604,3.2131,3.2366,3.2121C3.1921,3.212,3.1444,3.2215,3.1062,3.1867L3.1025,3.1859
		C3.1186,3.1105,3.1261,3.033,3.1543,2.9604z"/>
	<path class="st9" d="M0.5089,8.3729c0.0652,0.0042,0.1075-0.0443,0.1574-0.0721c0.2071-0.1157,0.4119-0.2355,0.6171-0.3545
		c0.1821-0.1056,0.3623-0.2147,0.5461-0.3175c0.1347-0.0754,0.2634-0.1619,0.4063-0.2223C2.2442,7.4123,2.25,7.4205,2.2564,7.4283
		c0.0079,0.0074,0.017,0.0127,0.0269,0.0171c0.1644,0.0683,0.3359,0.1088,0.5116,0.133C2.8266,7.5829,2.8597,7.5842,2.879,7.6163
		C2.8789,7.645,2.8593,7.6568,2.8372,7.6693C2.6563,7.7725,2.4757,7.876,2.2955,7.9804C1.9974,8.1529,1.7,8.3264,1.402,8.4988
		C1.2542,8.5845,1.1057,8.6691,0.9572,8.7536c-0.0214,0.0122-0.047,0.0196-0.0279,0.0522C0.7005,8.7928,0.5141,8.6008,0.5089,8.3729
		z"/>
	<path class="st10" d="M2.7986,8.8069C2.7989,8.7782,2.819,8.7667,2.841,8.7541c0.2205-0.1257,0.4408-0.2517,0.6604-0.3788
		c0.2195-0.1271,0.4357-0.2605,0.658-0.3824c0.2264-0.1241,0.4457-0.2601,0.6704-0.3868c0.2605-0.1469,0.5175-0.3002,0.7763-0.4502
		C5.754,7.0702,5.9023,6.9853,6.0509,6.9006c0.0207-0.0118,0.0416-0.0251,0.0668-0.0258C6.1516,6.9339,6.1503,6.993,6.1178,7.052
		C6.131,7.114,6.1006,7.1467,6.0481,7.1761c-0.266,0.1492-0.5304,0.3012-0.7945,0.4536C4.9965,7.778,4.7408,7.929,4.4837,8.0773
		C4.2868,8.191,4.0882,8.3018,3.8911,8.4152C3.6917,8.5298,3.4931,8.646,3.2943,8.7615c-0.019,0.011-0.0345,0.0254-0.0442,0.0455
		C3.0996,8.8129,2.9491,8.8128,2.7986,8.8069z"/>
	<path class="st11" d="M6.3592,9.2747C6.3538,9.2801,6.3484,9.2854,6.343,9.2908C6.2952,9.3366,6.2352,9.3481,6.1725,9.3484
		C5.594,9.3502,5.0154,9.3495,4.437,9.3487C4.4049,9.3486,4.3722,9.3476,4.3467,9.323C4.3363,9.2369,4.3374,9.1507,4.3469,9.0646
		c0.0335-0.0298,0.075-0.0248,0.1146-0.0249C4.8867,9.0395,5.3119,9.0384,5.737,9.0399C5.8038,9.047,5.871,9.0433,5.9378,9.0396
		C6.1734,9.0268,6.3495,8.8451,6.3506,8.609c0.0023-0.4825,0.0005-0.965,0.001-1.4475c0.0001-0.0426-0.0054-0.086,0.0123-0.1271
		c0.0053-0.0093,0.0133-0.0151,0.024-0.0174c0.009,0.0059,0.0155,0.0138,0.0196,0.0237c0.0128,0.0364,0.01,0.0742,0.01,0.1117
		c0.0003,0.6121,0.0013,1.2241-0.0009,1.8361C6.4162,9.0863,6.4229,9.1883,6.3592,9.2747z"/>
	<path class="st12" d="M4.3466,9.323C4.952,9.3231,5.5575,9.3226,6.1629,9.3239c0.063,0.0002,0.1205-0.0204,0.1802-0.0331
		c-0.09,0.1966-0.2488,0.288-0.4592,0.2889c-0.502,0.0024-1.004,0.0006-1.506,0.0004C4.3537,9.4961,4.3425,9.4105,4.3466,9.323z"/>
	<path class="st13" d="M5.7469,9.0646c-0.4667,0-0.9334,0-1.4001,0C4.3414,8.9932,4.3556,8.9236,4.3676,8.854
		c0.0052-0.0211-0.0046-0.0482,0.024-0.06c0.039-0.0139,0.0795-0.0098,0.1195-0.0098C4.8864,8.7838,5.2618,8.7844,5.637,8.7839
		C5.8585,8.7836,6.005,8.6802,6.0833,8.471c0.0093-0.0247,0.0135-0.0525,0.0391-0.0679c0.0258,0.0016,0.0285,0.023,0.0297,0.0402
		c0.012,0.1804-0.0077,0.3516-0.1391,0.4924C5.9404,9.0136,5.8508,9.0529,5.7469,9.0646z"/>
	<path class="st6" d="M4.3785,8.809C4.3771,8.8245,4.38,8.8411,4.3676,8.854C4.3653,8.8389,4.3629,8.8238,4.3605,8.8088
		l0.0034-0.0031C4.3698,8.8025,4.3747,8.8035,4.3785,8.809z"/>
	<path class="st14" d="M6.3921,4.8784c0.0776-0.0992,0.1523-0.2007,0.242-0.2898C6.6338,5.399,6.6336,6.2094,6.6333,7.0197
		C6.5536,7.0591,6.4735,7.0564,6.3931,7.0221L6.3912,7.0194C6.3673,6.9962,6.3694,6.9658,6.3694,6.9366
		c-0.0006-0.6613-0.0008-1.3224,0-1.9837c0-0.0161,0.0009-0.0321,0.0052-0.0479C6.3779,4.8946,6.3838,4.8858,6.3921,4.8784z"/>
	<path class="st15" d="M6.3931,7.0221c0.0801-0.0008,0.1601-0.0016,0.2402-0.0024C6.6657,7.025,6.7017,7.0078,6.7305,7.0354
		C6.6357,7.038,6.6333,7.0211,6.6334,7.1315c0.0003,0.5851,0.0003,1.1703,0,1.7554C6.6333,9.0512,6.5091,9.2255,6.3592,9.2747
		C6.3878,9.1382,6.392,9.0001,6.3918,8.8611C6.3909,8.2481,6.3925,7.6351,6.3931,7.0221z"/>
	<path class="st16" d="M2.2359,7.4344C2.2401,7.425,2.2401,7.4157,2.2357,7.4065C2.2434,7.2207,2.2421,7.035,2.2363,6.8492
		C2.2432,6.8319,2.2541,6.834,2.2665,6.843l0.0002,0.0002c0.0085,0.0095,0.026,0.006,0.0306,0.0212
		c0.059,0.0462,0.1237,0.0822,0.1949,0.1061c0.0255-0.0108,0.0468,0.0031,0.069,0.0114c0.2305,0.0855,0.4673,0.1348,0.7147,0.1298
		C3.3958,7.1093,3.51,7.0851,3.6182,7.0353C3.8273,6.939,3.8674,6.7099,3.7055,6.5475C3.6578,6.4996,3.6016,6.4636,3.5449,6.4279
		C3.5204,6.4125,3.4906,6.4035,3.4762,6.3748c-0.013-0.0161-0.0316-0.0212-0.0504-0.0262C3.4203,6.349,3.4154,6.3473,3.4112,6.3435
		C3.3665,6.314,3.3182,6.2923,3.2666,6.2781C3.2575,6.2693,3.2432,6.2722,3.2341,6.2636L3.2323,6.2629
		C3.2249,6.2524,3.211,6.2562,3.2021,6.249L3.1967,6.2446l-0.007,0.0002C3.1829,6.2417,3.1764,6.2383,3.17,6.2344
		c-0.0051-0.0016-0.0102-0.0033-0.0153-0.005c-0.0049-0.004-0.0103-0.0071-0.0163-0.0092c-0.0063-0.002-0.0126-0.0038-0.0189-0.0058
		c-0.2841-0.0888-0.5447-0.2169-0.742-0.449C2.2806,5.6514,2.2364,5.5153,2.2144,5.37C2.1957,5.1417,2.242,4.9316,2.3934,4.7536
		c0.1136-0.1335,0.257-0.2269,0.4204-0.2873C3.0062,4.3951,3.2042,4.35,3.4113,4.3567c0.0298,0.0009,0.0589-0.0026,0.0874-0.0115
		c0.0548-0.0086,0.1098-0.0089,0.1646-0.0001c0.0516,0.0173,0.1051,0.0093,0.1578,0.0115C3.8382,4.3564,3.855,4.3589,3.8715,4.3627
		C3.8981,4.3719,3.9258,4.3739,3.9536,4.375c0.0116,0.0008,0.023,0.0029,0.0343,0.0059c0.0215,0.0073,0.044,0.0102,0.0665,0.013
		c0.0077,0.001,0.0152,0.0027,0.0227,0.0047c0.0227,0.0078,0.0468,0.0082,0.0702,0.013C4.351,4.4612,4.3511,4.4612,4.351,4.6733
		c0,0.1072,0.0022,0.2145-0.0008,0.3217C4.3478,5.0783,4.3258,5.0937,4.2514,5.0544C4.0248,4.9347,3.7785,4.898,3.5288,4.887
		C3.373,4.8801,3.2183,4.9106,3.0767,4.9826c-0.188,0.0955-0.2186,0.2945-0.0754,0.4462C3.1029,5.5366,3.2398,5.58,3.3669,5.6415
		C3.49,5.701,3.6221,5.7399,3.7441,5.802c0.0073,0.0032,0.0144,0.0069,0.0214,0.0108c0.0135,0.0071,0.0277,0.013,0.0421,0.018
		C3.962,5.9037,4.112,5.984,4.2432,6.0953c0.0265,0.0225,0.0499,0.048,0.069,0.0773c0.0046,0.0059,0.0089,0.0119,0.0133,0.018
		c0.0051,0.0057,0.0099,0.0116,0.0149,0.0175C4.343,6.211,4.3455,6.2141,4.3481,6.217C4.3563,6.2263,4.3639,6.236,4.371,6.2462
		c0.088,0.1475,0.1469,0.3012,0.112,0.4782C4.4733,6.7734,4.49,6.8252,4.4749,6.8748C4.4663,6.9083,4.4582,6.9421,4.4487,6.9755
		C4.3672,7.2628,4.1713,7.4399,3.8968,7.5349c-0.2834,0.098-0.5771,0.1111-0.8736,0.089C2.9752,7.6203,2.9274,7.6128,2.879,7.6163
		C2.7952,7.6014,2.7113,7.5866,2.6274,7.5716C2.4956,7.548,2.37,7.5038,2.2459,7.4549C2.2451,7.4469,2.2379,7.4418,2.2359,7.4344z"
		/>
	<path class="st9" d="M4.475,6.8747C4.4744,6.784,4.4787,6.6928,4.472,6.6025C4.4622,6.4697,4.4115,6.3493,4.3437,6.2358
		C4.3416,6.2268,4.3358,6.2202,4.3285,6.215l0.0003,0.0003c-0.0047-0.0057-0.0094-0.0114-0.014-0.0171L4.3139,6.1969
		C4.3081,6.1471,4.3502,6.1355,4.3807,6.1176C4.7499,5.9,5.1221,5.6876,5.4932,5.4733c0.1786-0.1031,0.3576-0.2056,0.5362-0.3089
		C6.0648,5.144,6.1061,5.1116,6.1355,5.1751C6.146,5.3599,6.1386,5.5446,6.1397,5.7293c0.0001,0.0241-0.0016,0.0486-0.022,0.0664
		c-0.0404-0.0035-0.0722,0.0187-0.1043,0.037C5.8048,5.952,5.5966,6.0719,5.3888,6.1926c-0.1824,0.1059-0.3639,0.2133-0.546,0.3196
		c-0.1039,0.0605-0.207,0.1226-0.3131,0.1786C4.4972,6.708,4.4911,6.727,4.4896,6.7588C4.4877,6.7975,4.5042,6.8393,4.475,6.8747z"
		/>
	<path class="st17" d="M6.1177,5.7957C6.1176,5.5809,6.1175,5.3661,6.1175,5.1513C6.094,5.1254,6.0923,5.093,6.0924,5.0609
		c0.0002-0.2056-0.0032-0.4113,0.0016-0.617C6.0896,4.1941,6.0924,3.9441,6.0925,3.6942c0-0.0292,0.001-0.0588,0.0189-0.0843
		C6.1201,3.601,6.1295,3.6006,6.1392,3.6083c0.0279,0.041,0.0206,0.0879,0.0206,0.1329C6.1595,4.2645,6.1623,4.7878,6.1586,5.3111
		c0.0032,0.5478,0.0011,1.0957,0.0011,1.6435c0,0.0294-0.0002,0.059-0.0149,0.086c-0.0036,0.0039-0.0073,0.0079-0.011,0.0117
		c-0.0053,0-0.0106-0.0001-0.0159-0.0001c0-0.0591-0.0001-0.1181-0.0001-0.1772c0-0.1289,0-0.2577,0-0.3866
		C6.1177,6.2574,6.1177,6.0265,6.1177,5.7957z"/>
	<path class="st18" d="M3.4953,4.3644C3.3896,4.3801,3.2822,4.3739,3.1766,4.3933C3.0344,4.4195,2.8931,4.4495,2.7612,4.51
		C2.5696,4.598,2.4099,4.7234,2.3126,4.9164c-0.0514,0.1018-0.0775,0.21-0.0781,0.3242C2.2342,5.286,2.2342,5.3314,2.2341,5.3767
		C2.1963,5.3237,2.1584,5.3435,2.1128,5.37C1.6421,5.6434,1.1711,5.9161,0.6986,6.1862c-0.057,0.0325-0.1061,0.0932-0.1848,0.077
		C0.5128,6.2364,0.511,6.2097,0.5109,6.1829C0.5107,5.6601,0.512,5.1372,0.5091,4.6144c-0.0003-0.0608,0.0203-0.086,0.0722-0.1127
		c0.1212-0.0622,0.237-0.1347,0.3549-0.2029C1.0935,4.2078,1.251,4.117,1.4083,4.0259c0.1874-0.1084,0.3746-0.2171,0.562-0.3254
		C2.1277,3.6096,2.286,3.5203,2.4425,3.428c0.115-0.0678,0.2378-0.123,0.3436-0.2056c0.0237-0.0185,0.0483-0.0202,0.0752-0.0201
		c0.059,0.0002,0.118,0.0005,0.177-0.0001C3.0619,3.202,3.0872,3.2079,3.1061,3.1866C3.836,3.1868,4.5659,3.187,5.2959,3.1872
		C5.3162,3.2411,5.2721,3.2574,5.24,3.2762C5.0693,3.3765,4.8977,3.4754,4.726,3.574C4.2943,3.8219,3.8649,4.0737,3.4322,4.3198
		C3.4274,4.3226,3.4237,4.3263,3.4203,4.3327C3.4406,4.354,3.4791,4.3346,3.4953,4.3644z"/>
	<path class="st19" d="M0.5138,6.2632C0.575,6.2485,0.6234,6.2079,0.6763,6.1781c0.2767-0.156,0.5509-0.3166,0.8259-0.4757
		c0.2126-0.123,0.4255-0.2455,0.6373-0.3698C2.161,5.32,2.1818,5.3112,2.2056,5.3067c0.0256,0.0174,0.0005,0.0546,0.0284,0.07
		c0.0086,0.0364,0.0165,0.0729,0.0258,0.1091c0.05,0.1933,0.1664,0.339,0.3282,0.4502c0.135,0.0927,0.2802,0.1668,0.4308,0.2309
		c0.0341,0.0145,0.0711,0.0235,0.1007,0.0476c-0.0479-0.0047-0.079,0.0313-0.1149,0.0516c-0.2397,0.1358-0.4778,0.2747-0.716,0.4132
		C2.0689,6.8071,1.8503,6.9365,1.6302,7.0635c-0.197,0.1137-0.3957,0.2246-0.5929,0.3379C0.8819,7.4906,0.7276,7.5818,0.5728,7.672
		C0.5543,7.6828,0.5361,7.6947,0.5139,7.6964c-0.001-0.0886-0.0027-0.1771-0.0028-0.2657c-0.0003-0.357-0.0002-0.7141,0-1.0711
		C0.5112,6.3275,0.5128,6.2953,0.5138,6.2632z"/>
	<path class="st20" d="M3.4762,6.3748c0.1087,0.0379,0.1996,0.104,0.2756,0.1879c0.1323,0.1459,0.0883,0.3792-0.087,0.4743
		C3.5646,7.0912,3.4564,7.1238,3.3432,7.1305c-0.2883,0.0172-0.565-0.0368-0.8314-0.1464C2.5046,6.9812,2.4987,6.975,2.4922,6.9703
		C2.4719,6.93,2.5051,6.9193,2.5295,6.9051c0.0738-0.0429,0.1481-0.0848,0.2221-0.1274c0.2196-0.1263,0.4394-0.2523,0.6583-0.38
		C3.4315,6.3851,3.4511,6.3738,3.4762,6.3748z"/>
	<path class="st19" d="M3.2021,6.249C3.215,6.2475,3.2249,6.2525,3.2323,6.2629C3.2202,6.2627,3.209,6.2604,3.2021,6.249z"/>
	<path class="st19" d="M3.2341,6.2636c0.0133-0.0007,0.0247,0.0027,0.0325,0.0145C3.2533,6.2787,3.2413,6.2764,3.2341,6.2636z"/>
	<path class="st19" d="M2.2665,6.843C2.2564,6.845,2.2463,6.8471,2.2363,6.8492C2.2424,6.8282,2.2522,6.8243,2.2665,6.843z"/>
	<path class="st19" d="M2.2973,6.8643c-0.013-0.0031-0.0245-0.0081-0.0306-0.0212C2.2815,6.8435,2.294,6.8472,2.2973,6.8643z"/>
	<path class="st19" d="M3.1384,6.2202c0.0082-0.0018,0.0134,0.0019,0.0163,0.0092C3.1493,6.2264,3.1439,6.2233,3.1384,6.2202z"/>
	<path class="st19" d="M3.1701,6.2344c0.009-0.0013,0.0156,0.0021,0.0196,0.0103C3.1832,6.2413,3.1766,6.2378,3.1701,6.2344z"/>
	<path class="st20" d="M3.4112,6.3435C3.4161,6.3452,3.421,6.3469,3.4259,6.3487C3.4181,6.3552,3.4139,6.3513,3.4112,6.3435z"/>
	<path class="st17" d="M4.3785,8.809C4.3737,8.808,4.3688,8.8069,4.3639,8.8057C4.363,8.7696,4.3895,8.7558,4.4155,8.7408
		c0.3057-0.1769,0.6112-0.3542,0.9172-0.5307c0.248-0.1431,0.496-0.2863,0.7458-0.4263C6.1102,7.766,6.1169,7.7477,6.119,7.7159
		c0.0028-0.0441-0.0167-0.0912,0.0145-0.1322C6.1619,7.611,6.1595,7.647,6.1597,7.6814c0.0011,0.2087,0.0011,0.4174,0,0.6261
		c-0.0002,0.0343,0.0022,0.0704-0.026,0.0978C6.1095,8.424,6.1142,8.4543,6.1074,8.4787C6.0552,8.6671,5.85,8.813,5.6555,8.81
		C5.2299,8.8035,4.8042,8.8087,4.3785,8.809z"/>
	<path class="st21" d="M6.1336,8.4052C6.1335,8.1313,6.1334,7.8575,6.1333,7.5836c0.0002-0.1771,0.0002-0.3542,0.0003-0.5313
		L6.134,7.0521C6.2056,7.0038,6.2866,7.0096,6.367,7.012c0.0033,0.003,0.0066,0.0061,0.0099,0.0092
		C6.3764,7.5431,6.3711,8.0651,6.3777,8.5869C6.381,8.8464,6.2068,9.0163,5.9951,9.0595c-0.0814,0.0167-0.1654,0.0044-0.2483,0.005
		c0.0416-0.0228,0.0884-0.0321,0.1304-0.0551c0.1373-0.0752,0.2166-0.1868,0.2429-0.3426C6.1351,8.5791,6.131,8.4925,6.1336,8.4052z
		"/>
	<path class="st22" d="M3.4953,4.3644C3.4546,4.3573,3.4114,4.3688,3.3638,4.3527c0.0243-0.0332,0.0519-0.0475,0.079-0.0631
		C3.6491,4.171,3.8551,4.0516,4.0614,3.933c0.2249-0.1292,0.4504-0.2576,0.6753-0.387C4.906,3.4488,5.0745,3.3503,5.2436,3.2527
		C5.2701,3.2375,5.294,3.2214,5.2959,3.1871c0.1223-0.0003,0.2446,0.0012,0.3668-0.0018C5.7036,3.1843,5.74,3.2047,5.7802,3.2018
		c0.1003-0.0143,0.1627,0.0504,0.226,0.1105c0.0739,0.0702,0.1201,0.1554,0.1285,0.2589c-0.0018,0.013-0.0083,0.0236-0.0165,0.0334
		C6.118,3.884,6.1178,4.1633,6.1175,4.4426C5.8488,4.5987,5.5792,4.7534,5.3101,4.9088C4.8179,5.193,4.326,5.4776,3.8329,5.7605
		C3.8038,5.7773,3.7841,5.8014,3.7652,5.8274C3.5525,5.7464,3.3421,5.66,3.138,5.5588c-0.0605-0.03-0.1141-0.0703-0.1618-0.1181
		c-0.1448-0.145-0.1111-0.372,0.071-0.4676C3.2158,4.8847,3.3969,4.8589,3.5853,4.869c0.252,0.0136,0.4944,0.0617,0.717,0.1868
		c0.0063,0.0035,0.0149,0.0031,0.0288,0.0056c0-0.0987,0-0.1946,0-0.2906c0-0.0805-0.0009-0.161,0.0004-0.2414
		c0.0006-0.0317-0.0097-0.0486-0.0423-0.0567C4.2376,4.4598,4.1871,4.4421,4.136,4.4264C4.1163,4.409,4.089,4.4263,4.0687,4.4116
		L4.0616,4.413L4.0552,4.4095c-0.021-0.0152-0.0477-0.0006-0.0691-0.0134C3.9769,4.395,3.9676,4.394,3.9584,4.3929
		C3.9317,4.3773,3.9001,4.3941,3.8732,4.38c-0.015,0.0039-0.0295,0.0016-0.0437-0.0035C3.7749,4.3589,3.7173,4.3808,3.6627,4.3638
		C3.607,4.3693,3.5512,4.3705,3.4953,4.3644z"/>
	<path class="st23" d="M6.1194,3.5726c-0.0383-0.1919-0.1508-0.3159-0.339-0.3708C5.8666,3.1716,5.9536,3.1804,6.0387,3.203
		C6.2306,3.2539,6.366,3.4228,6.3765,3.5893c0.0131,0.0281,0.0066,0.058,0.0066,0.087c0.0005,0.3958,0.0003,0.7914,0.0003,1.187
		c0,0.009,0,0.0181,0.0002,0.0272C6.3806,4.923,6.3668,4.9512,6.3497,4.9786C6.2918,5.071,6.2349,5.1639,6.1878,5.2626
		C6.1774,5.2843,6.1709,5.3158,6.1345,5.3117C6.1343,4.7994,6.1341,4.287,6.1338,3.7748c0-0.0563-0.0007-0.1127-0.001-0.1689
		C6.1233,3.5967,6.1283,3.5819,6.1194,3.5726z"/>
	<path class="st24" d="M6.3772,4.8949C6.377,4.4597,6.3767,4.0245,6.3764,3.5893c0.0266,0.027,0.0147,0.061,0.0148,0.0918
		c0.0009,0.3991,0.0007,0.7982,0.0009,1.1973C6.3919,4.8836,6.3917,4.8887,6.3913,4.8938C6.3872,4.9008,6.3825,4.9009,6.3772,4.8949
		z"/>
	<path class="st5" d="M2.2359,7.4344c0.0033,0.0068,0.0067,0.0138,0.01,0.0206C2.2426,7.4481,2.2392,7.4412,2.2359,7.4344z"/>
	<path class="st21" d="M6.3772,4.8949C6.3819,4.8944,6.3866,4.894,6.3913,4.8938c0,0.7086-0.0001,1.4171-0.0001,2.1257
		c-0.0048,0.0004-0.0096,0.001-0.0143,0.0017L6.3754,7.0197C6.3478,6.9888,6.3496,6.9504,6.3496,6.9131
		C6.349,6.2868,6.3493,5.6605,6.3492,5.0343c0-0.0437,0.0099-0.0846,0.0265-0.1245C6.376,4.9048,6.3765,4.8999,6.3772,4.8949z"/>
	<path class="st5" d="M3.7652,5.8274C3.7431,5.796,3.7629,5.7797,3.7877,5.765c0.0782-0.046,0.1561-0.0925,0.2346-0.1379
		c0.2056-0.119,0.4114-0.2376,0.6173-0.356C4.8269,5.1633,5.015,5.0565,5.2022,4.9484c0.1941-0.112,0.3875-0.2253,0.5816-0.3376
		c0.0832-0.0482,0.167-0.0952,0.2508-0.1423c0.0256-0.0144,0.0516-0.029,0.083-0.0258c0,0.2363,0,0.4724,0,0.7087
		c-0.0221-0.001-0.0403,0.0068-0.0598,0.0181C5.7896,5.3247,5.5203,5.4779,5.252,5.633C4.9561,5.804,4.661,5.9766,4.3653,6.148
		c-0.0214,0.0125-0.04,0.0266-0.0513,0.049C4.1951,6.0585,4.0419,5.9685,3.8813,5.8885C3.8528,5.8743,3.8254,5.858,3.7974,5.8427
		c-0.0086-0.0086-0.023-0.0052-0.0312-0.0148L3.7652,5.8274z"/>
	<path class="st18" d="M3.6627,4.3638c0.0556,0.0038,0.1131-0.0171,0.1667,0.0126C3.7735,4.3774,3.7174,4.3787,3.6627,4.3638z"/>
	<path class="st18" d="M3.8732,4.38c0.0289,0.0011,0.0599-0.012,0.0852,0.0129C3.9291,4.3942,3.8999,4.3953,3.8732,4.38z"/>
	<path class="st18" d="M4.0688,4.4117c0.0234,0.0005,0.049-0.0087,0.0673,0.0149C4.1123,4.4276,4.0888,4.4274,4.0688,4.4117z"/>
	<path class="st18" d="M3.9861,4.3961c0.0239,0,0.0497-0.0094,0.0691,0.0134C4.031,4.4109,4.0071,4.4112,3.9861,4.3961z"/>
	<path class="st22" d="M3.7663,5.8279c0.0126,0,0.0241,0.0028,0.0311,0.0148C3.7841,5.8438,3.774,5.8384,3.7663,5.8279z"/>
	<path class="st5" d="M4.3286,6.2149C4.3375,6.219,4.3425,6.226,4.3437,6.2358C4.3345,6.2319,4.3294,6.2249,4.3286,6.2149z"/>
	<path class="st5" d="M4.3148,6.1981c0.0046,0.0057,0.0094,0.0115,0.014,0.0171C4.3202,6.2127,4.3154,6.2071,4.3148,6.1981z"/>
	<path class="st24" d="M6.3757,4.9098C6.3756,5.6131,6.3755,6.3164,6.3754,7.0197C6.295,7.0305,6.2145,7.0413,6.134,7.0521
		c0.0002-0.5802,0.0003-1.1603,0.0005-1.7404c0.039-0.0449,0.0559-0.1021,0.084-0.1531C6.266,5.0724,6.3165,4.9884,6.3757,4.9098z"
		/>
	<path class="st24" d="M6.1194,3.5726c0.0119,0.0081,0.0145,0.0199,0.0134,0.0332C6.1279,3.6054,6.123,3.605,6.1183,3.6047
		C6.1186,3.594,6.119,3.5833,6.1194,3.5726z"/>
</g>
</svg>
