<?xml version="1.0" encoding="utf-8"?>
<!-- Generator: Adobe Illustrator 25.4.1, SVG Export Plug-In . SVG Version: 6.00 Build 0)  -->
<svg version="1.1" id="Layer_1" xmlns="http://www.w3.org/2000/svg" xmlns:xlink="http://www.w3.org/1999/xlink" x="0px" y="0px"
	 viewBox="0 0 12 12" style="enable-background:new 0 0 12 12;" xml:space="preserve">
<g id="Strokes">
	<g>
		<path d="M4.2627,4.6538H3.5655c-0.1035,0.0039-0.21,0.0303-0.2871,0.0986c-0.0801,0.0714-0.128,0.169-0.1338,0.2735
			c-0.001,0.0176-0.001,0.0361,0,0.04v0.6885c-0.0068,0.1055,0.0283,0.207,0.0996,0.2881c0.0703,0.0791,0.168,0.127,0.2891,0.1328
			c0.0117,0.001,0.0244,0.001,0.0234,0l0.6816-0.001c0.0107,0.002,0.0205,0.002,0.0312,0.002c0.0977,0,0.1885-0.0352,0.2627-0.0996
			c0.0791-0.0693,0.126-0.167,0.1338-0.2793V5.0562C4.6514,4.8404,4.4786,4.6675,4.2627,4.6538z"/>
		<path d="M8.5,4.9937H5.7129c-0.1377,0.0098-0.248,0.123-0.2578,0.2676v0.3086c0,0.2139,0.1377,0.3291,0.2676,0.3291h2.7822
			c0.1387-0.0098,0.25-0.123,0.2578-0.2676V5.2515C8.753,5.1138,8.6397,5.0035,8.5,4.9937z"/>
		<path d="M4.2852,6.9947H4.2813c-0.0117,0-0.0234,0-0.0303,0.001H3.5655c-0.0996,0-0.209,0.0293-0.2871,0.0986
			c-0.0801,0.0713-0.128,0.1689-0.1338,0.2734c-0.001,0.0176-0.001,0.0361,0,0.04v0.7061C3.1592,8.3306,3.334,8.5044,3.5567,8.5171
			l0.6816-0.001c0.0107,0.002,0.0215,0.002,0.0303,0.002c0.21,0,0.3838-0.1641,0.3975-0.3789V7.4117
			c0.0049-0.1064-0.0312-0.208-0.1035-0.2871C4.4903,7.0464,4.3916,7.0005,4.2852,6.9947z"/>
		<path d="M8.5,7.3335H5.7129c-0.1377,0.0098-0.248,0.123-0.2578,0.2676v0.3184c0.0098,0.1387,0.1211,0.249,0.2676,0.2578h2.7822
			c0.1377-0.0088,0.248-0.1211,0.2578-0.2676V7.5913C8.753,7.4536,8.6397,7.3433,8.5,7.3335z"/>
		<path d="M9.1748,1.48H8.1162C8.0147,1.1665,7.7237,0.9419,7.3868,0.9243H4.4834C4.1514,0.9419,3.8623,1.1665,3.7608,1.48h-0.999
			C2.1787,1.4937,1.711,1.9634,1.6973,2.5503v7.458c0.0137,0.584,0.4824,1.0527,1.0684,1.0664h6.4727
			c0.583-0.0137,1.0508-0.4824,1.0645-1.0684V2.5386C10.2559,1.9439,9.7715,1.4888,9.1748,1.48z M9.337,2.521v7.4922
			c0.002,0.04-0.0107,0.0771-0.0361,0.1064c-0.0264,0.0293-0.0625,0.0469-0.0986,0.0488l-0.0293-0.001L2.75,10.1685
			c-0.0332,0.0059-0.0684-0.0088-0.0996-0.0361c-0.0293-0.0264-0.0459-0.0615-0.0479-0.1025V2.5406
			C2.5996,2.5025,2.6123,2.4654,2.6377,2.4361c0.0264-0.0293,0.0635-0.0479,0.0889-0.0508c0.0068,0.001,0.0137,0.001,0.0391,0.002
			h0.9648C3.7549,2.7447,4.0459,3.0415,4.417,3.065h2.9707C7.7881,3.0611,8.124,2.774,8.1943,2.3873l0.9922-0.001
			c0.0303-0.002,0.0703,0.0098,0.1006,0.0361C9.3164,2.4488,9.334,2.4839,9.337,2.521z M4.6348,2.1607V1.8326l2.6709,0.0557
			l0.0059,0.3301L4.6348,2.1607z"/>
	</g>
</g>
</svg>
