<?xml version="1.0" encoding="utf-8"?>
<!-- Generator: Adobe Illustrator 25.4.1, SVG Export Plug-In . SVG Version: 6.00 Build 0)  -->
<svg version="1.1" id="Layer_1" xmlns="http://www.w3.org/2000/svg" xmlns:xlink="http://www.w3.org/1999/xlink" x="0px" y="0px"
	 viewBox="0 0 20 20" style="enable-background:new 0 0 20 20;" xml:space="preserve">
<style type="text/css">
	.st0{fill:#606060;}
</style>
<g id="Strokes">
	<g>
		<path class="st0" d="M6.8636,7.7117H5.6097C5.4593,7.7029,5.306,7.7527,5.1898,7.8562S5.0042,8.1013,4.9955,8.2566
			c-0.001,0.0234-0.001,0.0469,0,0.0615v1.248C4.9857,9.7215,5.0374,9.8699,5.14,9.9861c0.1035,0.1162,0.2451,0.1855,0.4004,0.1943
			c0.0234-0.001,0.0459,0.001,0.0615,0H6.848c0.0127,0.001,0.0244,0.001,0.0371,0.001c0.1416,0,0.2764-0.0508,0.3828-0.1455
			c0.1162-0.1025,0.1855-0.2451,0.1953-0.4004c0.001-0.0234,0.001-0.0469,0-0.0615V8.3103
			C7.4427,7.9881,7.1849,7.7312,6.8636,7.7117z"/>
		<path class="st0" d="M14.4915,8.324h-4.999C9.3128,8.3357,9.1673,8.4812,9.1537,8.6707v0.5547c0,0.2998,0.1748,0.457,0.3467,0.457
			h4.999c0.1816-0.0117,0.3271-0.1572,0.3389-0.3467V8.6619C14.8246,8.4812,14.679,8.3357,14.4915,8.324z"/>
		<path class="st0" d="M6.9056,11.9256c-0.0176,0-0.0352,0-0.0537,0.001H5.6097c-0.1504-0.0098-0.3037,0.041-0.4199,0.1445
			s-0.1855,0.2451-0.1943,0.4004c-0.001,0.0234-0.001,0.0469,0,0.0615v1.2637c0.0205,0.3223,0.2783,0.5791,0.6064,0.5986H6.848
			c0.0127,0.001,0.0244,0.001,0.0361,0.001c0.3037,0,0.5596-0.2373,0.5791-0.5459c0.001-0.0234,0.001-0.0469,0-0.0615V12.534
			C7.4789,12.2146,7.2318,11.9422,6.9056,11.9256z"/>
		<path class="st0" d="M14.4915,12.5359h-4.999c-0.1797,0.0117-0.3252,0.1572-0.3389,0.3467v0.5635
			c0.0137,0.1807,0.1592,0.3262,0.3389,0.3379h0.0078h4.999c0.1797-0.0117,0.3252-0.1572,0.3389-0.3467v-0.5635
			C14.8246,12.6931,14.679,12.5476,14.4915,12.5359z"/>
		<path class="st0" d="M15.7123,1.9988h-2.0059c-0.1348-0.5566-0.626-0.9697-1.2109-0.999H7.2767
			c-0.5801,0.0293-1.0703,0.4424-1.2051,0.999H4.1751C3.1966,2.0222,2.4124,2.8074,2.39,3.7898v13.4219
			c0.0225,0.9795,0.8066,1.7646,1.7881,1.7881h11.6475c0.9775-0.0234,1.7607-0.8076,1.7842-1.7881V3.78
			C17.5316,2.7791,16.7162,2.0134,15.7123,1.9988z M7.4076,3.2215V2.3621l5.0752,0.1055l0.0156,0.8623L7.4076,3.2215z
			 M16.141,3.7322c0.001,0.0166,0.001,0.0342,0,0.0576v13.4268c0.0068,0.1064-0.0283,0.209-0.0996,0.2881
			c-0.0703,0.0801-0.168,0.127-0.2783,0.1338c-0.0127,0-0.0293,0-0.0527-0.001h-11.54c-0.0996,0.0156-0.209-0.0293-0.2891-0.0996
			c-0.0791-0.0703-0.126-0.167-0.1328-0.2773c-0.001-0.0137-0.001-0.0273,0.001-0.0518V3.782
			c-0.0137-0.2188,0.1533-0.4082,0.377-0.4219c0.0127,0.001,0.0273,0,0.0518,0.001h1.8701
			C6.0218,3.9968,6.5111,4.5418,7.1507,4.5808c0.0459,0.001,0.0918,0.001,0.1318,0h5.2139c0.6934-0.0059,1.2686-0.543,1.3359-1.2197
			h1.8857c0.1025-0.0137,0.209,0.0283,0.2891,0.0986C16.0863,3.53,16.1341,3.6277,16.141,3.7322z"/>
	</g>
</g>
</svg>
