<?xml version="1.0" encoding="utf-8"?>
<!-- Generator: Adobe Illustrator 25.4.1, SVG Export Plug-In . SVG Version: 6.00 Build 0)  -->
<svg version="1.1" id="Layer_1" xmlns="http://www.w3.org/2000/svg" xmlns:xlink="http://www.w3.org/1999/xlink" x="0px" y="0px"
	 viewBox="0 0 30 30" style="enable-background:new 0 0 30 30;" xml:space="preserve">
<style type="text/css">
	.st0{fill:#FFFEE8;}
	.st1{fill:#BEB600;}
</style>
<g id="Layer_1_00000001641125496850475920000002829429474488387999_">
	<circle class="st0" cx="15" cy="15" r="13.25"/>
	<path class="st1" d="M15.0002,29.0003c-7.7197,0-14-6.2803-14-14s6.2803-14,14-14s14,6.2803,14,14S22.7199,29.0003,15.0002,29.0003
		z M15.0002,2.5003c-6.8926,0-12.5,5.6074-12.5,12.5s5.6074,12.5,12.5,12.5s12.5-5.6074,12.5-12.5S21.8927,2.5003,15.0002,2.5003z"
		/>
	<path class="st1" d="M15.0002,25.7688c-5.9277,0-10.75-4.8311-10.75-10.7686c0-5.9385,4.8223-10.7695,10.75-10.7695
		s10.75,4.8311,10.75,10.7695C25.7502,20.9378,20.9279,25.7688,15.0002,25.7688z M15.0002,5.7307c-5.1006,0-9.25,4.1582-9.25,9.2695
		c0,5.1104,4.1494,9.2686,9.25,9.2686s9.25-4.1582,9.25-9.2686C24.2502,9.8889,20.1007,5.7307,15.0002,5.7307z"/>
	<path class="st1" d="M15,7.4427c-4.1356,0-7.5,3.3901-7.5,7.5573s3.3644,7.5573,7.5,7.5573S22.5,19.1672,22.5,15
		C22.5,10.8329,19.1356,7.4427,15,7.4427z M18.3058,18.347c-0.1465,0.1455-0.3369,0.2178-0.5283,0.2178
		c-0.1924,0-0.3857-0.0742-0.5322-0.2217l-2.9736-2.9961v-4.0732c0-0.4141,0.3359-0.75,0.75-0.75s0.75,0.3359,0.75,0.75v3.4561
		l2.5381,2.5566C18.6017,17.5804,18.5998,18.055,18.3058,18.347z"/>
</g>
</svg>
