<?xml version="1.0" encoding="utf-8"?>
<!-- Generator: Adobe Illustrator 25.4.1, SVG Export Plug-In . SVG Version: 6.00 Build 0)  -->
<svg version="1.1" id="Layer_1" xmlns="http://www.w3.org/2000/svg" xmlns:xlink="http://www.w3.org/1999/xlink" x="0px" y="0px"
	 viewBox="0 0 30 30" style="enable-background:new 0 0 30 30;" xml:space="preserve">
<style type="text/css">
	.st0{fill:#FFFFFF;}
	.st1{fill:#448047;}
</style>
<g id="Layer_1_00000183927764386360275940000013253904035839343294_">
	<ellipse class="st0" cx="15" cy="15" rx="13.25" ry="13.2098"/>
	<path class="st1" d="M15.0003,28.9602c-7.7197,0-14-6.2627-14-13.96s6.2803-13.96,14-13.96s14,6.2627,14,13.96
		S22.72,28.9602,15.0003,28.9602z M15.0003,2.5403c-6.8926,0-12.5,5.5898-12.5,12.46s5.6074,12.46,12.5,12.46
		s12.5-5.5898,12.5-12.46S21.8928,2.5403,15.0003,2.5403z"/>
	<path class="st1" d="M15,5.881c-4.9902,0-9.0499,4.0907-9.0499,9.119S10.0097,24.119,15,24.119
		c4.9902,0,9.0499-4.0906,9.0499-9.119C24.0499,9.9717,19.9902,5.881,15,5.881z M18.5305,20.7298l-4.8018-4.8379V9.3147h2v5.7529
		l4.2217,4.2539L18.5305,20.7298z"/>
</g>
</svg>
