<?xml version="1.0" encoding="utf-8"?>
<!-- Generator: Adobe Illustrator 25.4.1, SVG Export Plug-In . SVG Version: 6.00 Build 0)  -->
<svg version="1.1" id="Layer_1" xmlns="http://www.w3.org/2000/svg" xmlns:xlink="http://www.w3.org/1999/xlink" x="0px" y="0px"
	 viewBox="0 0 12 12" style="enable-background:new 0 0 12 12;" xml:space="preserve">
<g id="Layer_2_00000043449318538657693900000010221342969330271901_">
	<path d="M6.0001,1.0777c-2.7568,0-5,2.208-5,4.9219c0,2.7148,2.2432,4.9229,5,4.9229s5-2.208,5-4.9229
		C11.0001,3.2857,8.7569,1.0777,6.0001,1.0777z M2.0001,5.9996c0-0.1465,0.0281-0.2854,0.0441-0.4277
		C2.6379,5.3485,3.2443,5.167,3.8628,5.048C3.8375,5.35,3.8143,5.6524,3.8126,5.9576C3.811,6.2829,3.8319,6.6055,3.8571,6.9273
		C3.2395,6.8054,2.6349,6.6186,2.0406,6.3924C2.0271,6.2613,2.0001,6.1341,2.0001,5.9996z M4.8126,5.9634
		c0.002-0.3559,0.0219-0.7096,0.059-1.0606c0.3871-0.0389,0.7759-0.061,1.1656-0.0605C6.391,4.844,6.7425,4.8633,7.0915,4.8979
		c0.0373,0.3526,0.0573,0.7079,0.059,1.0656c0.002,0.3701-0.0159,0.7375-0.0518,1.1023C6.7475,7.1008,6.3936,7.12,6.0372,7.1217
		C5.6436,7.1296,5.2535,7.111,4.8663,7.0735C4.8296,6.706,4.8108,6.3359,4.8126,5.9634z M8.1007,5.0474
		c0.6318,0.1221,1.2505,0.3058,1.8566,0.5372c0.0151,0.1382,0.0428,0.2729,0.0428,0.415c0,0.1299-0.0265,0.2527-0.0391,0.3795
		c-0.6051,0.231-1.2229,0.4147-1.854,0.5368c0.0245-0.3181,0.0452-0.6368,0.0435-0.9584C8.149,5.6521,8.1259,5.3495,8.1007,5.0474z
		 M9.6527,4.4158C9.0996,4.2401,8.5359,4.1114,7.9652,4.0171C7.8687,3.4666,7.7375,2.923,7.5612,2.3893
		C8.4942,2.7787,9.2417,3.5085,9.6527,4.4158z M6.3953,2.1169c0.2292,0.5792,0.415,1.1696,0.5389,1.7726
		C6.6382,3.8664,6.342,3.8438,6.043,3.8423C5.701,3.8397,5.365,3.8596,5.0304,3.8849C5.154,3.2852,5.339,2.6976,5.5666,2.1207
		c0.1443-0.0155,0.2851-0.043,0.4335-0.043C6.1355,2.0777,6.2634,2.1039,6.3953,2.1169z M4.3937,2.4134
		C4.222,2.9382,4.0946,3.4724,3.9995,4.0129C3.4435,4.1046,2.8953,4.229,2.3569,4.3988C2.7627,3.5151,3.4887,2.8048,4.3937,2.4134z
		 M2.3322,7.5564C2.875,7.7275,3.4277,7.8533,3.9867,7.946c0.0931,0.5516,0.219,1.097,0.392,1.6326
		C3.4652,9.1789,2.7311,8.4568,2.3322,7.5564z M5.5531,9.8781C5.3228,9.2886,5.1372,8.688,5.0158,8.0751
		c0.319,0.0251,0.6385,0.0466,0.9608,0.0466c0.0225,0,0.0439,0,0.0664,0c0.3038-0.0015,0.6047-0.0241,0.9053-0.0479
		C6.8266,8.6887,6.6405,9.2909,6.4088,9.8819C6.2725,9.8957,6.14,9.9224,6.0001,9.9224C5.847,9.9224,5.7017,9.8946,5.5531,9.8781z
		 M7.5764,9.6027c0.1771-0.5434,0.3066-1.0969,0.401-1.6573c0.5751-0.0955,1.1427-0.2271,1.6995-0.405
		C9.2729,8.4641,8.5177,9.2051,7.5764,9.6027z"/>
</g>
</svg>
