<?xml version="1.0" encoding="utf-8"?>
<!-- Generator: Adobe Illustrator 26.2.0, SVG Export Plug-In . SVG Version: 6.00 Build 0)  -->
<svg version="1.1" xmlns="http://www.w3.org/2000/svg" xmlns:xlink="http://www.w3.org/1999/xlink" x="0px" y="0px"
	 viewBox="0 0 158 30" style="enable-background:new 0 0 158 30;" xml:space="preserve">
<style type="text/css">
	.st0{clip-path:url(#SVGID_00000080197266148098637220000017489578386019997070_);}
	.st1{clip-path:url(#SVGID_00000096765876678844838210000006902205246108587399_);}
	.st2{fill-rule:evenodd;clip-rule:evenodd;fill:#F47521;}
	.st3{fill-rule:evenodd;clip-rule:evenodd;fill:#050606;}
	.st4{opacity:0.91;}
	.st5{clip-path:url(#SVGID_00000102534065891347420090000012423995966639812765_);}
	.st6{fill:#060706;}
	.st7{fill-rule:evenodd;clip-rule:evenodd;fill:#000101;}
	.st8{fill-rule:evenodd;clip-rule:evenodd;fill:#F68B28;}
	.st9{fill:#000101;}
	.st10{fill-rule:evenodd;clip-rule:evenodd;}
	.st11{fill-rule:evenodd;clip-rule:evenodd;fill:#F68B27;}
	.st12{enable-background:new    ;}
	.st13{fill:#050606;}
	.st14{fill:none;}
	.st15{fill-rule:evenodd;clip-rule:evenodd;fill:#090A0A;}
	.st16{opacity:0.5;fill:#2EBDBC;}
	.st17{opacity:0.65;fill:#000101;}
	.st18{fill-rule:evenodd;clip-rule:evenodd;fill:#060706;}
	.st19{clip-path:url(#SVGID_00000082341377395654401250000004974874673325506968_);}
	.st20{clip-path:url(#SVGID_00000159456040168661312550000015066248646164167852_);}
	.st21{fill-rule:evenodd;clip-rule:evenodd;fill:none;stroke:#D44097;stroke-width:0.25;stroke-miterlimit:10;}
	.st22{clip-path:url(#SVGID_00000088096391744955904720000004055031696643374266_);}
	.st23{clip-path:url(#SVGID_00000116210827976970610180000003702308493675290758_);}
	.st24{clip-path:url(#SVGID_00000167397552373659735760000018368603461178233760_);}
	.st25{fill-rule:evenodd;clip-rule:evenodd;fill:none;stroke:#000000;stroke-miterlimit:10;}
	.st26{fill-rule:evenodd;clip-rule:evenodd;fill:none;stroke:#000000;stroke-width:0.9816675;stroke-miterlimit:10;}
	.st27{clip-path:url(#SVGID_00000119090218550338599180000010609774005420791966_);}
	.st28{fill-rule:evenodd;clip-rule:evenodd;fill:#040505;}
	.st29{fill-rule:evenodd;clip-rule:evenodd;fill:#F57417;}
	.st30{fill:#040505;}
	.st31{opacity:0.5;fill-rule:evenodd;clip-rule:evenodd;fill:#2EBDBC;}
	.st32{fill:#1B1B1B;}
</style>
<g id="Guides_For_Artboard">
</g>
<g id="Layer_1">
	<g>
		<g>
			<defs>
				<rect id="SVGID_00000045615329367898680310000016367086542451632542_" width="158" height="30"/>
			</defs>
			<clipPath id="SVGID_00000015322682354151255310000000570879442179655331_">
				<use xlink:href="#SVGID_00000045615329367898680310000016367086542451632542_"  style="overflow:visible;"/>
			</clipPath>
			<g id="Group_67251" style="clip-path:url(#SVGID_00000015322682354151255310000000570879442179655331_);">
				<path id="Path_56361" class="st28" d="M47.8195,10.1911726c0.8931694,0.9693146,1.344883,2.2652636,1.2477493,3.5797052
					v6.1164703c0,0.0789433-0.0639839,0.1429367-0.1429405,0.1429424h-2.2713661
					c-0.0789604-0.0000057-0.1429443-0.0639992-0.1429443-0.1429424v-5.7891159
					c0.0581169-0.7791271-0.1833344-1.5510578-0.6750679-2.1582346c-0.5069199-0.5068989-1.2073021-0.7714119-1.9227905-0.7261744
					c-0.8296165-0.0433397-1.6391182,0.2648029-2.2298965,0.8488216c-0.5845833,0.6751814-0.8786011,1.5540066-0.8180084,2.4449968
					v5.3823519c0,0.0789433-0.0639839,0.1429367-0.1429443,0.1429424h-2.2713661
					c-0.0789566-0.0000057-0.1429405-0.0639992-0.1429405-0.1429424V9.2497072c0-0.0789442,0.0639839-0.1429367,0.1429405-0.1429434
					h2.1487045c0.0789566,0.0000067,0.1429405,0.0639992,0.1429405,0.1429434v0.9026499
					c0.0000267,0.0789433,0.0640678,0.1429157,0.1430244,0.1428823c0.0385094-0.00002,0.0754013-0.015584,0.1023026-0.0431776
					c0.3865204-0.3818426,0.8459892-0.6819267,1.3509979-0.8823528c0.6911201-0.2684116,1.4276695-0.4005432,2.1690102-0.3891191
					c1.2218971-0.0577698,2.4158707,0.3770618,3.3143997,1.2070551"/>
				<path id="Path_56362" class="st28" d="M54.0697365,11.7582359c-0.528759,0.4544106-0.8836365,1.0780468-1.0042,1.7647057
					c-0.0141373,0.0776711,0.0373802,0.152092,0.1150436,0.1662216c0.0086441,0.0015688,0.0173683,0.0023432,0.0261497,0.0023088
					h5.859314c0.0789566,0.0006266,0.1434555-0.0628681,0.1440735-0.1418123
					c0.0000801-0.0083609-0.0005913-0.0167084-0.0019913-0.0249548c-0.1124039-0.6805601-0.4572906-1.3010921-0.9759521-1.7558804
					c-0.5788231-0.498229-1.3235588-0.7611399-2.0869293-0.736764c-0.7577934-0.0209427-1.4968185,0.2375193-2.0763435,0.7261753
					 M61.4962692,15.3891163h-8.2630424c-0.0794411,0.0008411-0.1431313,0.065918-0.1422958,0.14534
					c0.0001068,0.0104809,0.0013733,0.0209217,0.0037422,0.0311279c0.1568642,0.6965065,0.5613747,1.3123417,1.1383362,1.7329388
					c0.6891823,0.4876785,1.5193901,0.735672,2.3631439,0.7058849c1.0582466,0.0331402,2.0863342-0.3553333,2.8581886-1.0799999
					c0.056469-0.0551739,0.1469803-0.0541363,0.2021599,0.0023232c0.0017776,0.0018311,0.0034981,0.0037022,0.0051956,0.005621
					l1.1895027,1.3667679c0.0471001,0.0541306,0.0471001,0.1346893,0,0.1888199
					c-0.4872627,0.5466709-1.0972404,0.9700146-1.77985,1.2352962c-1.8611488,0.6819-3.9183731,0.5865021-5.7084045-0.2647095
					c-0.8828278-0.4479084-1.6180573-1.1404915-2.1178131-1.9950008c-0.5050888-0.8798218-0.7630463-1.8797731-0.7465401-2.8941164
					c-0.0148659-1.0051346,0.2356339-1.9964085,0.7262344-2.873827c0.4720993-0.8400974,1.1703529-1.5309639,2.0154572-1.9941196
					c0.890316-0.4853029,1.8910408-0.7321224,2.9049339-0.7164707c0.9964447-0.0165968,1.9799919,0.2266836,2.8537712,0.7058821
					c0.8295364,0.4599648,1.511097,1.1463814,1.965126,1.9791279c0.4844627,0.9086332,0.7275276,1.9264107,0.7059288,2.9558802
					c0,0.1529474-0.0100174,0.3614721-0.0299988,0.6255884c-0.0059776,0.0744267-0.0682678,0.1317081-0.1429405,0.1314726"/>
				<path id="Path_56363" class="st28" d="M79.8683167,9.2991219l-3.9250259,10.6376476
					c-0.0207138,0.0561962-0.0742493,0.0935307-0.13414,0.0935307h-2.2563629
					c-0.0596771,0.0001354-0.1131363-0.0368023-0.13414-0.0926495l-2.65522-7.080883
					c-0.0298386-0.0730944-0.113266-0.1081676-0.1863785-0.0783453c-0.0355759,0.0145206-0.0638199,0.0427608-0.0783386,0.0783453
					l-2.6984406,7.0817661c-0.0226212,0.0539474-0.0756454,0.0888329-0.1341324,0.0882339h-2.2563705
					c-0.0598907,0-0.1134262-0.0373363-0.1341324-0.0935326L61.3709106,9.2955885
					c-0.0272789-0.0740776,0.0106392-0.1562529,0.0847206-0.1835432c0.0158348-0.0058298,0.0325584-0.008812,0.0494156-0.008812
					h2.10812c0.0603485,0.0000267,0.1142883,0.0377312,0.135025,0.0944138l2.71875,7.5961781
					c0.0298386,0.0730934,0.113266,0.1081657,0.1863785,0.0783443c0.0355682-0.0145206,0.0638199-0.0427608,0.0783386-0.0783443
					l2.8361053-7.5997057c0.0207062-0.0561972,0.0742416-0.0935316,0.1341324-0.0935316h1.9484024
					c0.0604553-0.0002356,0.114502,0.0375633,0.135025,0.0944138l2.7778854,7.6385269
					c0.0298386,0.0730934,0.113266,0.1081676,0.1863785,0.0783443c0.0355682-0.0145206,0.0638199-0.0427589,0.0783386-0.0783443
					l2.7972946-7.6385269c0.0207138-0.0561972,0.0742493-0.0935326,0.13414-0.0935326h1.9660416
					c0.0789566,0,0.1429367,0.0640001,0.1429367,0.1429434c0,0.0168638-0.0029907,0.0335922-0.0088043,0.0494118"/>
				<path id="Path_56364" class="st28" d="M87.7642517,16.5017605c0.6225052-0.5835543,0.9619751-1.4079256,0.930954-2.2605848
					c0.0295181-0.8433886-0.3104401-1.65767-0.930954-2.2297058c-1.3902054-1.1451902-3.3969345-1.1451902-4.7871475,0
					c-0.6205063,0.5720358-0.9604645,1.3863173-0.9309464,2.2297058c-0.031189,0.8526793,0.308342,1.6770983,0.9309464,2.2605848
					C84.3623581,17.6607037,86.3789978,17.6607037,87.7642517,16.5017605 M91.0680695,9.1102915
					c0.0789566,0.0000067,0.1429443,0.0639992,0.1429443,0.1429434v9.1217632c0,3.8458881-1.9639664,5.7688236-5.8919601,5.7688236
					c-1.0093155,0.0055485-2.0145416-0.128664-2.9870148-0.3988266c-0.8075104-0.2109871-1.5663834-0.576889-2.2342834-1.0773525
					c-0.0565567-0.0447254-0.0709381-0.1245327-0.0335541-0.1861744l0.9980011-1.6764736
					c0.0406113-0.067688,0.1284561-0.0896263,0.1961594-0.0489998c0.0051117,0.0030766,0.0100708,0.0064754,0.0147552,0.0101776
					c0.5095062,0.375845,1.0786896,0.663105,1.6836853,0.8497047c0.7163239,0.2365227,1.4657745,0.3574448,2.2201767,0.3582325
					c0.9528198,0.0820618,1.8999786-0.2114658,2.6393585-0.8179417c0.6086578-0.6822968,0.9115601-1.5839367,0.8383102-2.4952965
					v-0.2276516c0.0001602-0.0784588-0.0632858-0.1421947-0.1417542-0.1423702
					c-0.0365677-0.0000801-0.0717392,0.0139408-0.0982361,0.0391388c-0.3943024,0.3642311-0.8543167,0.6501865-1.3554153,0.8426495
					c-0.6597214,0.2511692-1.3607483,0.3759918-2.0666275,0.3679409c-0.9782944,0.0138931-1.9447403-0.2146721-2.8131561-0.6652927
					c-0.8225937-0.4272881-1.5098343-1.0753536-1.9845963-1.8714733c-0.4930801-0.8356667-0.7447662-1.7916594-0.7270966-2.7617617
					c-0.0184174-0.9668512,0.2333679-1.9196587,0.7270966-2.7511797c0.4755173-0.7908278,1.1630325-1.4327059,1.9845963-1.8529396
					c0.8704147-0.4440174,1.8361053-0.6687632,2.8131561-0.654707c0.7377625-0.009552,1.470459,0.1225424,2.1584015,0.3891163
					c0.5187683,0.2043438,0.9889069,0.5151386,1.3801346,0.9123497c0.0546112,0.0570116,0.1450958,0.0589638,0.2021332,0.0043621
					c0.0279007-0.0267391,0.0437851-0.0636492,0.0440598-0.1023035V9.2497072c0-0.0789442,0.0639801-0.1429367,0.1429367-0.1429434
					L91.0680695,9.1102915z"/>
				<path id="Path_56365" class="st28" d="M96.2134857,11.7582359c-0.5287857,0.4544106-0.883667,1.0780468-1.0042038,1.7647057
					c-0.0141068,0.0776711,0.037384,0.152092,0.1150436,0.1662216c0.0086212,0.0015688,0.0173416,0.0023432,0.026123,0.0023088
					h5.859314c0.0789566,0.0006266,0.1434326-0.0628681,0.1440735-0.1418123
					c0.0000534-0.0083609-0.0005875-0.0167084-0.0019913-0.0249548c-0.1124039-0.6805601-0.4573135-1.3010988-0.975975-1.7558804
					c-0.5787735-0.4983025-1.3235321-0.7612276-2.0869293-0.736764c-0.7577972-0.0209494-1.4968491,0.2375126-2.0763702,0.7261753
					 M103.6399384,15.3891163h-8.2630463c-0.0794373,0.0008545-0.143158,0.0659447-0.1422958,0.1453667
					c0.0001678,0.0104742,0.0014038,0.0209026,0.0037689,0.0311012c0.1568375,0.6965065,0.5613785,1.3123341,1.1383133,1.7329388
					c0.6891785,0.4876785,1.5193634,0.7356663,2.3631134,0.7058849c1.058548,0.0333691,2.0869827-0.3551178,2.8590546-1.0799999
					c0.0564423-0.0551739,0.1469803-0.0541363,0.2021255,0.0023232c0.0018311,0.0018311,0.0035553,0.0037022,0.0052261,0.005621
					l1.1895294,1.3667679c0.0471268,0.0541306,0.0471268,0.1346893,0,0.1888199
					c-0.487587,0.546711-1.0978622,0.9700489-1.7807388,1.2352962c-1.860878,0.6817589-3.9177551,0.5863609-5.7075424-0.2647095
					c-0.8828506-0.4479084-1.6180801-1.1404915-2.1178436-1.9950008c-0.5050888-0.8798218-0.7630157-1.8797731-0.7465363-2.8941164
					c-0.0149689-1.0051479,0.235527-1.9964552,0.7262344-2.873827c0.4718552-0.8399763,1.1698151-1.5308361,2.014595-1.9941196
					c0.8906097-0.485425,1.8916321-0.7322397,2.9058533-0.7164707c0.9964447-0.0165968,1.9800186,0.2266836,2.8537674,0.7058821
					c0.8293228,0.4599648,1.5106354,1.1464014,1.9643478,1.9791279c0.4844589,0.9086332,0.7275238,1.9264107,0.705925,2.9558802
					c0,0.1529474-0.0102844,0.3614721-0.0308609,0.6255884c-0.0059738,0.0740967-0.067749,0.1312571-0.1420746,0.1314726"/>
				<path id="Path_56366" class="st28" d="M114.7584686,10.1911726c0.8931427,0.9693146,1.3449173,2.2652636,1.247757,3.5797052
					v6.1164703c0,0.0789433-0.0639877,0.1429367-0.1429443,0.1429424h-2.2713394
					c-0.0789566-0.0000057-0.1429443-0.0639992-0.1429443-0.1429424v-5.7891159
					c0.0581131-0.7791271-0.1833344-1.5510578-0.6750641-2.1582346c-0.5069733-0.5068045-1.2073593-0.7713041-1.922821-0.7261744
					c-0.8296432-0.0434408-1.6391449,0.2647152-2.229866,0.8488216c-0.5849075,0.6750469-0.8792496,1.5538855-0.8188782,2.4449968
					v5.3823519c0,0.0789433-0.0639801,0.1429367-0.1429367,0.1429424h-2.2713394
					c-0.0789566-0.0000057-0.1429443-0.0639992-0.1429443-0.1429424V9.2497072c0-0.0789442,0.0639877-0.1429367,0.1429443-0.1429434
					h2.1487045c0.0789566,0.0000067,0.1429367,0.0639992,0.1429367,0.1429434v0.9026499
					c0.0000534,0.0789433,0.0640411,0.1429157,0.1429977,0.1428823c0.038559-0.00002,0.0754547-0.015584,0.1023331-0.0431776
					c0.3865433-0.3818016,0.8460159-0.6818867,1.3509979-0.8823528c0.6911163-0.2684116,1.4276886-0.4005432,2.1690063-0.3891191
					c1.2219009-0.0578642,2.4159012,0.3769817,3.3143692,1.2070551"/>
				<path id="Path_56367" class="st29" d="M17.026392,21.2232361c-0.0699825,0.3983688-0.4496803,0.6645851-0.8480759,0.5946083
					c-0.3984013-0.0699711-0.6646395-0.4496384-0.5946636-0.8480072c0.0699835-0.3983688,0.4496822-0.6645851,0.8480835-0.5946083
					c0.2181492,0.038311,0.4072342,0.1732769,0.5143528,0.3671265
					C17.0263252,20.8890076,17.0546207,21.0584755,17.026392,21.2232361 M32.8112144,8.8358822
					c-0.3150253-0.8311777-1.8663273-0.9379406-4.1950474-0.4491167c0.7562408-0.1094122,1.9651585,0.2947054,2.1575298,0.8029413
					c0.6556396,1.734705-4.8992271,6.3052902-12.4024868,10.2052956c-0.3185558,0.1667671-0.6388741,0.3264732-0.9583111,0.4879417
					c-0.6758766-0.6206989-1.7269955-0.5760136-2.3477468,0.0998058c-0.6207514,0.6758213-0.5760622,1.7268543,0.0998144,2.3475552
					c0.6758757,0.6206989,1.7269936,0.5760136,2.3477459-0.0998058c0.3586121-0.3904324,0.5093784-0.9285412,0.4058132-1.4484386
					c0.2814941-0.1402912,0.5621052-0.279707,0.8462467-0.4279423c2.6711674-1.3769608,5.2532272-2.92029,7.7309284-4.620882
					c0.0176449,0.2717628,0.025589,0.5461788,0.025589,0.8223515c0.0009766,7.3871346-5.9871769,13.3763809-13.374917,13.3773575
					c-0.0002956,0-0.0005922,0-0.0008888,0c-0.0538244,0-0.1076565,0-0.1606007,0
					c0.4588585,0.0441189,0.9256678,0.0697079,1.3977613,0.0697079c7.9842548,0.0004902,14.4571667-6.4711037,14.4576569-14.4547033
					c0-0.0011778,0-0.0023565,0-0.0035343c-0.000948-0.4945192-0.0268612-0.9886818-0.0776501-1.4805889
					c2.8493462-2.2526484,4.4430065-4.1929407,4.0520992-5.2279406"/>
				<path id="Path_56368" class="st29" d="M5.4630942,21.0405903c-0.0871134,0.3949757-0.477951,0.6445541-0.872961,0.5574436
					c-0.3950081-0.0871048-0.6446059-0.477911-0.5574908-0.8728867c0.0871139-0.3949757,0.4779515-0.6445522,0.8729596-0.5574455
					c0.202446,0.0446415,0.3764877,0.1729813,0.4789562,0.3531818C5.4742279,20.6784039,5.5022144,20.8636074,5.4630942,21.0405903
					 M32.9426994,2.3047063c-0.3944435-1.0102946-2.6075649-0.9317645-5.8293018,0.0088236
					c2.1010551-0.4685295,3.5032291-0.3847057,3.7944279,0.3635292c0.3767948,0.9705887-2.3190117,3.4332352-6.0613785,6.1367636
					c-0.1270695,0.0882359-0.2523727,0.1764717-0.3820877,0.2647057l0,0
					c-3.0216789,2.1408577-6.1558342,4.1183939-9.3890038,5.924118c-2.8811178,1.6023531-6.0499067,3.2902937-9.1331015,4.741765
					c-0.628613-0.6678429-1.6796422-0.699688-2.3475404-0.0711288c-0.6678998,0.6285648-0.6997473,1.6795044-0.0711343,2.3473492
					c0.6286113,0.6678467,1.6796424,0.6996918,2.3475406,0.0711288c0.3976269-0.3742065,0.5858808-0.9199505,0.5035224-1.4597015
					c2.8184662-1.2705879,5.8716564-2.8702946,9.1022148-4.6702938c3.1352549-1.7399998,6.475234-3.8232355,9.3872366-5.8526478
					c0.5578766,1.0112619,0.9814854,2.0909548,1.2601032,3.2117643c0,0,0,0,0,0.006176
					c0.7554035-0.5541458,1.4702225-1.1615772,2.1389999-1.817646c-0.2979088-1.0284386-0.7102261-2.0202246-1.2292194-2.9567652
					c3.7379532-2.7741175,6.3005142-5.227941,5.9016571-6.2523527"/>
				<path id="Path_56369" class="st28" d="M8.600997,13.5238237c-0.0760632,0.3972521-0.4597874,0.6576319-0.8570714,0.5815754
					s-0.6576853-0.4597492-0.5816231-0.8570013s0.4597874-0.6576319,0.8570714-0.5815763
					c0.2135038,0.0408745,0.3978186,0.1744699,0.5030861,0.3646498C8.6047125,13.1815958,8.6324635,13.3555622,8.600997,13.5238237
					 M25.8197632,6.6750002c-0.7336388-0.9472914-1.5816154-1.8002343-2.5246181-2.539412
					c1.4833565-1.4497061,2.2201805-2.6532354,1.9413319-3.3926473c-0.1923695-0.5047056-0.8374195-0.7438232-1.8327961-0.7438232
					c-0.8472958,0.0207406-1.690134,0.1295615-2.5149097,0.3247059c1.2777519,0.0202941,2.1037006,0.2214706,2.3119526,0.7720588
					c0.6521111,1.7355883-4.9027538,6.3061767-12.4060183,10.2061768c-0.5912228,0.3070583-1.1850958,0.6044121-1.7789679,0.8964701
					c-0.6618795-0.6334887-1.7120214-0.6105175-2.345561,0.0513058c-0.6335397,0.6618252-0.610569,1.7118826,0.0513105,2.3453703
					c0.6618762,0.6334877,1.7120218,0.6105165,2.345561-0.0513067c0.3659954-0.3823338,0.527566-0.9163465,0.4349041-1.4374275
					c0.5559292-0.2676468,1.1177387-0.5485296,1.6854324-0.8426466c3.5486088-1.8043928,6.9226713-3.9331703,10.0790625-6.3591189
					c0.896553,0.6841826,1.7035351,1.4783497,2.4019604,2.3638234l0.0088272,0.0105886
					c0.9274311-0.6467648,1.382761-0.9917645,2.1513557-1.5961766l-0.0052929-0.0070586"/>
				<path id="Path_56370" class="st28" d="M21.2858601,2.8411767C14.2678614-0.9699591,5.4888592,1.6292524,1.6774117,8.6466761
					C0.7653784,10.325861,0.1952554,12.1691542,0,14.0699997C1.3774648,6.809927,8.3800535,2.0410411,15.6407194,3.4183931
					c1.2613459,0.2392774,2.4816904,0.6588197,3.6235056,1.2457247c0.730011-0.5413752,1.4069309-1.1508784,2.0216351-1.8202939"/>
				<path id="Path_56371" class="st30" d="M120.6752014,8.9505892c0.0307007-0.4524927,0.4188614-0.7966232,0.8718185-0.7729406
					c0.4310837-0.0481396,0.8195114,0.2622509,0.8676682,0.6932764c0.0481491,0.4310246-0.2622452,0.8194675-0.6933289,0.8676071
					c-0.0579529,0.0064688-0.1163864,0.0064688-0.1743393,0C121.0888901,9.7610226,120.6989517,9.4086018,120.6752014,8.9505892
					 M120.9399185,11.5155907h1.1903915v8.1273518h-1.1903915V11.5155907z"/>
				<path id="Path_56372" class="st30" d="M135.5149078,16.7532349c0,1.8388233-1.4754181,2.8897076-4.4121246,2.8897076h-5.3986588
					V8.8261747h5.0633316c2.6154938,0,4.1244659,1.0199986,4.1244659,2.7811775
					c0.0175629,1.127492-0.7145538,2.1299877-1.7939911,2.4564676c1.3864899,0.1221952,2.4415436,1.2970657,2.4143372,2.6885262
					 M126.9439011,9.7676401v3.9255924h3.7388382c1.8777924,0,2.9675751-0.6644096,2.9675751-1.9623518
					s-1.0897827-1.9623518-2.9675751-1.9623518L126.9439011,9.7676401z M134.2680206,16.6588135
					c0-1.4064713-1.1233368-2.0241156-3.1855469-2.0241156h-4.1412125v4.0641203h4.1412125
					c2.0622101,0,3.1855469-0.6176453,3.1855469-2.0399971"/>
				<path id="Path_56373" class="st30" d="M147.5370941,12.5347071c0,2.3020601-1.8107452,3.6926451-4.7951202,3.6926451h-3.1520386
					v3.4147072h-1.2407074V8.8261747h4.394516c2.9843903,0,4.7951202,1.3905849,4.7951202,3.7058802 M146.298172,12.5320549
					c0-1.7302933-1.2406921-2.7194128-3.5879211-2.7194128h-3.1184845v5.407939h3.1184845
					C145.0574799,15.2205811,146.298172,14.2314615,146.298172,12.5320549"/>
				<path id="Path_56374" class="st30" d="M149.2649384,18.3291206l0.4862366-0.8823528
					c1.099472,0.8738899,2.468689,1.3383522,3.8730011,1.3138218c2.1963654,0,3.1520386-0.8497047,3.1520386-1.9155865
					c0-2.9664707-7.227005-1.1470613-7.227005-5.1450014c0-1.5882349,1.3412933-2.9664698,4.3238983-2.9664698
					c1.2772217-0.0163212,2.5348206,0.3149042,3.6382904,0.9582338l-0.4191437,0.9114676
					c-0.9750519-0.5778351-2.0856323-0.8871489-3.2190399-0.8964691c-2.1460571,0-3.1017303,0.8823528-3.1017303,1.9623518
					c0,2.9664707,7.227005,1.1744127,7.227005,5.11765c0,1.5882378-1.3748016,2.9514713-4.3759308,2.9514713
					c-1.5732269,0.0580082-3.1166077-0.4399586-4.3591309-1.4064713"/>
			</g>
		</g>
	</g>
</g>
<g id="Layer_3">
</g>
</svg>
