<?xml version="1.0" encoding="UTF-8"?>
<!DOCTYPE svg PUBLIC "-//W3C//DTD SVG 1.1//EN" "http://www.w3.org/Graphics/SVG/1.1/DTD/svg11.dtd">
<!-- Creator: CorelDRAW X6 -->
<svg xmlns="http://www.w3.org/2000/svg" xml:space="preserve" width="1.30268in" height="0.336622in" version="1.1" style="shape-rendering:geometricPrecision; text-rendering:geometricPrecision; image-rendering:optimizeQuality; fill-rule:evenodd; clip-rule:evenodd"
viewBox="0 0 1303 337"
 xmlns:xlink="http://www.w3.org/1999/xlink">
 <defs>
  <style type="text/css">
   <![CDATA[
    .fil1 {fill:#F68F3A}
    .fil0 {fill:#373435}
   ]]>
  </style>
 </defs>
 <g id="Layer_x0020_1">
  <metadata id="CorelCorpID_0Corel-Layer"/>
  <g id="_1008801328">
   <path class="fil0" d="M537 115c9,9 14,22 14,40l0 69c0,1 -1,2 -2,2l-26 0c-1,0 -2,-1 -2,-2l0 -65c0,-11 -3,-19 -8,-24 -5,-5 -12,-8 -22,-8 -11,0 -19,3 -25,10 -6,6 -9,16 -9,27l0 60c0,1 -1,2 -2,2l-26 0c-1,0 -2,-1 -2,-2l0 -119c0,-1 1,-2 2,-2l24 0c1,0 2,1 2,2l0 10c0,1 2,2 3,1 4,-4 9,-7 15,-10 7,-3 15,-4 24,-4 15,0 28,5 37,14z"/>
   <path class="fil0" d="M607 133c-6,5 -10,12 -11,20 0,1 1,2 2,2l66 0c1,0 2,-1 2,-2 -1,-8 -5,-15 -11,-20 -6,-6 -14,-8 -23,-8 -9,0 -17,3 -23,8zm83 41l-93 0c-1,0 -2,1 -2,2 2,8 6,15 13,19 7,5 16,8 27,8 13,0 24,-4 32,-12 1,-1 2,-1 2,0l13 15c1,1 1,2 0,2 -5,6 -12,11 -20,14 -8,3 -18,5 -28,5 -13,0 -25,-3 -36,-8 -10,-5 -18,-13 -24,-22 -6,-10 -8,-20 -8,-33 0,-12 3,-23 8,-32 5,-10 13,-17 23,-22 10,-5 21,-8 33,-8 12,0 23,3 32,8 9,5 17,13 22,22 5,10 8,21 8,33 0,2 0,4 0,7 0,1 -1,1 -2,1z"/>
   <path class="fil0" d="M897 105l-44 119c0,1 -1,1 -2,1l-25 0c-1,0 -1,0 -2,-1l-30 -80c-1,-1 -2,-1 -3,0l-30 80c0,1 -1,1 -2,1l-25 0c-1,0 -1,0 -2,-1l-44 -119c0,-1 0,-2 2,-2l24 0c1,0 1,0 2,1l31 85c1,1 3,1 3,0l32 -85c0,-1 1,-1 2,-1l22 0c1,0 1,0 2,1l31 86c1,1 3,1 3,0l31 -86c0,-1 1,-1 2,-1l22 0c1,0 2,1 2,2z"/>
   <path class="fil0" d="M986 186c7,-7 10,-15 10,-25 0,-10 -3,-19 -10,-25 -7,-6 -16,-10 -27,-10 -11,0 -20,3 -27,10 -7,6 -10,15 -10,25 0,10 3,19 10,25 7,7 16,10 27,10 11,0 20,-3 27,-10zm37 -83c1,0 2,1 2,2l0 102c0,43 -22,65 -66,65 -12,0 -23,-1 -34,-4 -10,-3 -18,-7 -25,-12 -1,0 -1,-1 0,-2l11 -19c1,-1 2,-1 2,0 5,4 11,7 19,10 8,3 17,4 25,4 13,0 23,-3 30,-9 6,-6 9,-15 9,-28l0 -3c0,-1 -2,-2 -3,-1 -4,4 -9,7 -15,9 -7,3 -15,4 -23,4 -12,0 -22,-2 -32,-7 -9,-5 -17,-12 -22,-21 -5,-9 -8,-19 -8,-31 0,-12 3,-22 8,-31 5,-9 13,-16 22,-21 9,-5 20,-7 32,-7 9,0 17,1 24,4 6,2 11,6 16,10 1,1 3,0 3,-1l0 -11c0,-1 1,-2 2,-2l24 0z"/>
   <path class="fil0" d="M1080 133c-6,5 -10,12 -11,20 0,1 1,2 2,2l66 0c1,0 2,-1 2,-2 -1,-8 -5,-15 -11,-20 -6,-6 -14,-8 -23,-8 -9,0 -17,3 -23,8zm83 41l-93 0c-1,0 -2,1 -2,2 2,8 6,15 13,19 7,5 16,8 27,8 13,0 24,-4 32,-12 1,-1 2,-1 2,0l13 15c1,1 1,2 0,2 -5,6 -12,11 -20,14 -8,3 -18,5 -28,5 -13,0 -25,-3 -36,-8 -10,-5 -18,-13 -24,-22 -6,-10 -8,-20 -8,-33 0,-12 3,-23 8,-32 5,-10 13,-17 23,-22 10,-5 21,-8 33,-8 12,0 23,3 32,8 9,5 17,13 22,22 5,10 8,21 8,33 0,2 0,4 0,7 0,1 -1,1 -2,1z"/>
   <path class="fil0" d="M1289 115c9,9 14,22 14,40l0 69c0,1 -1,2 -2,2l-25 0c-1,0 -2,-1 -2,-2l0 -65c0,-11 -3,-19 -8,-24 -5,-5 -12,-8 -22,-8 -11,0 -19,3 -25,10 -6,6 -9,16 -9,27l0 60c0,1 -1,2 -2,2l-26 0c-1,0 -2,-1 -2,-2l0 -119c0,-1 1,-2 2,-2l24 0c1,0 2,1 2,2l0 10c0,1 2,2 3,1 4,-4 9,-7 15,-10 7,-3 15,-4 24,-4 15,0 28,5 37,14z"/>
   <path class="fil1" d="M191 238c0,2 -2,5 -4,6 -4,2 -9,1 -11,-3 -2,-4 -1,-9 3,-11 2,-1 4,-1 6,-1 2,0 5,2 6,4 1,2 1,4 1,5zm177 -139c-4,-9 -21,-11 -47,-5 9,-1 22,3 24,9 7,19 -55,71 -139,115 -4,2 -7,4 -11,5 -6,-5 -14,-7 -22,-3 -9,5 -12,16 -7,25 5,9 16,12 25,7 7,-4 11,-12 9,-20 3,-2 6,-3 10,-5 33,-17 62,-35 87,-52 0,3 0,6 0,9 0,83 -67,150 -150,150 -1,0 -1,0 -2,0 5,1 10,1 16,1 90,0 162,-73 162,-162 0,-6 0,-11 -1,-17 32,-25 50,-47 46,-59z"/>
   <path class="fil1" d="M61 236c0,2 -2,4 -4,6 -4,2 -9,1 -11,-3 -2,-4 -1,-9 3,-11 2,-1 5,-1 7,-1 2,1 3,2 4,4 1,2 1,4 1,6zm309 -210c-4,-11 -29,-10 -65,0 24,-5 39,-4 43,4 4,11 -26,39 -68,69 -1,1 -3,2 -4,3 0,0 0,0 0,0 -32,23 -71,47 -105,67 -32,18 -68,37 -103,53 -6,-6 -15,-8 -23,-3 -9,5 -12,16 -7,25 5,9 16,12 25,7 7,-4 10,-12 9,-19 32,-14 66,-32 102,-52 35,-20 73,-43 105,-66 6,11 11,23 14,36 0,0 0,0 0,0 10,-8 17,-14 24,-20 -3,-12 -8,-23 -14,-33 42,-31 71,-59 66,-70z"/>
   <path class="fil0" d="M97 152c0,2 -2,5 -4,6 -4,2 -9,1 -11,-3 -2,-4 -1,-9 3,-11 2,-1 4,-1 6,-1 2,1 4,2 5,4 1,2 1,4 1,6zm193 -77c-8,-11 -18,-20 -28,-29 17,-16 25,-30 22,-38 -4,-10 -22,-11 -49,-5 14,0 24,2 26,9 7,19 -55,71 -139,115 -7,3 -13,7 -20,10 -6,-6 -15,-7 -22,-3 -9,5 -12,16 -7,25 5,9 16,12 25,7 7,-4 11,-12 9,-20 6,-3 13,-6 19,-9 45,-24 85,-49 113,-71 10,8 19,17 27,27 0,0 0,0 0,0 10,-7 16,-11 24,-18 0,0 0,0 0,0z"/>
   <path class="fil0" d="M239 32c-23,-13 -49,-20 -78,-20 -84,0 -153,64 -162,146 13,-70 74,-122 148,-122 25,0 48,6 69,17 11,-8 17,-14 23,-20z"/>
  </g>
 </g>
</svg>
