<svg xmlns="http://www.w3.org/2000/svg" width="16" height="16" viewBox="0 0 16 16">
  <g id="Export" transform="translate(8 8)">
    <g id="Group_65249" data-name="Group 65249" transform="translate(-8 -8)">
      <path id="Path_57584" data-name="Path 57584" d="M7.823,12.818a.25.25,0,0,0,.354,0l3.538-3.532a.252.252,0,0,0,0-.354l-.354-.354a.249.249,0,0,0-.353,0L8.5,11.081V.25A.25.25,0,0,0,8.25,0h-.5A.25.25,0,0,0,7.5.25V11.081L4.992,8.573a.249.249,0,0,0-.353,0l-.354.353a.252.252,0,0,0,0,.354Z" fill="#606060"/>
      <path id="Path_57585" data-name="Path 57585" d="M15.75,9.749h-.5A.25.25,0,0,0,15,10v5H1V10a.25.25,0,0,0-.25-.25H.25A.25.25,0,0,0,0,10v5a1,1,0,0,0,1,1H15a1,1,0,0,0,1-1V10A.25.25,0,0,0,15.75,9.749Z" fill="#606060"/>
    </g>
  </g>
</svg>
