<?xml version="1.0" encoding="utf-8"?>
<!-- Generator: Adobe Illustrator 25.4.1, SVG Export Plug-In . SVG Version: 6.00 Build 0)  -->
<svg version="1.1" id="Layer_1" xmlns="http://www.w3.org/2000/svg" xmlns:xlink="http://www.w3.org/1999/xlink" x="0px" y="0px"
	 viewBox="0 0 190 180" style="enable-background:new 0 0 190 180;" xml:space="preserve">
<style type="text/css">
	.st0{fill:none;}
	.st1{fill:#F2F1EF;}
	.st2{fill:#FFFFFF;}
	.st3{fill:#D3D3D3;}
	.st4{fill:#C2C1C0;}
	.st5{fill:#B5B4B3;}
	.st6{fill:#818386;}
	.st7{clip-path:url(#SVGID_00000036953707340882042320000010234789504599209099_);}
	.st8{opacity:0.2;}
</style>
<g id="Layer_1_00000133506293659675332270000002391110325970516403_">
	<rect class="st0" width="190" height="180"/>
	<path id="Path_55482_00000078764869581082632090000000664800702203855498_" class="st1" d="M175.68,79.53
		c1.838,37.469-36.922,57.714-70.732,69.022c-32.686,10.932-71.933,14.816-91.991-14.6c-19.93-29.22-5.988-69.082,16.408-96.232
		c17.006-20.618,44.779-15.338,69.747-8.204c32.013,9.148,74.85,14.973,76.569,50.014"/>
	<path id="Path_54242" class="st2" d="M143.638,139.916H28.302c-5.6444,0-10.22-4.5757-10.22-10.22l0,0V33.744
		c0-5.6443,4.5756-10.22,10.22-10.22l0,0h115.336c5.6443,0,10.22,4.5756,10.22,10.22l0,0v95.953
		C153.8575,135.341,149.282,139.916,143.638,139.916z"/>
	<path id="Path_54243" class="st3" d="M18.086,34.702h135.772v-0.96c0-5.6443-4.5757-10.22-10.22-10.22l0,0H28.302
		c-5.6444,0-10.22,4.5756-10.22,10.22l0,0L18.086,34.702z"/>
	<ellipse id="Ellipse_3296" class="st2" cx="146.261" cy="29.114" rx="2.753" ry="2.721"/>
	<ellipse id="Ellipse_3297" class="st2" cx="138.011" cy="29.114" rx="2.753" ry="2.721"/>
	<path id="Path_54244" class="st3" d="M132.716,63.873h-66.42c-1.1289,0-2.044-0.9151-2.044-2.044v-5
		c0-1.1289,0.9151-2.044,2.044-2.044h66.42c1.1289,0,2.044,0.9151,2.044,2.044l0,0v5C134.76,62.9579,133.8449,63.873,132.716,63.873
		z"/>
	<path id="Path_54245" class="st3" d="M88.648,51.751H66.296c-1.1289,0-2.044-0.9151-2.044-2.044c0-0.0017,0-0.0033,0-0.005v-2.347
		c0-1.1289,0.9151-2.044,2.044-2.044h22.352c1.1289,0,2.044,0.9151,2.044,2.044v2.347c0.0028,1.1289-0.9101,2.0462-2.039,2.049
		C88.6513,51.751,88.6497,51.751,88.648,51.751z"/>
	<ellipse id="Ellipse_3298" class="st3" cx="41.926" cy="54.498" rx="8.813" ry="8.713"/>
	<path id="Path_54246" class="st1" d="M132.716,93.042h-66.42c-1.1273,0-2.0418-0.9127-2.044-2.04v-5
		c0-1.1289,0.9151-2.044,2.044-2.044h66.42c1.1289,0,2.044,0.9151,2.044,2.044l0,0v5
		C134.7578,92.1293,133.8433,93.042,132.716,93.042z"/>
	<path id="Path_54247" class="st1" d="M88.648,80.92H66.296c-1.1289,0-2.044-0.9151-2.044-2.044v-2.352
		c0-1.1289,0.9151-2.044,2.044-2.044h22.352c1.1289,0,2.044,0.9151,2.044,2.044v2.352C90.692,80.0049,89.7769,80.92,88.648,80.92z"
		/>
	<ellipse id="Ellipse_3299" class="st1" cx="41.926" cy="83.667" rx="8.813" ry="8.713"/>
	<path id="Path_54248" class="st1" d="M132.716,122.779h-66.42c-1.1289,0-2.044-0.9151-2.044-2.044v-5
		c0-1.1289,0.9151-2.044,2.044-2.044h66.42c1.1289,0,2.044,0.9151,2.044,2.044l0,0v5
		C134.76,121.8639,133.8449,122.779,132.716,122.779z"/>
	<path id="Path_54249" class="st1" d="M88.648,110.657H66.296c-1.1289,0-2.044-0.9151-2.044-2.044v-2.352
		c0-1.1289,0.9151-2.044,2.044-2.044h22.352c1.1289,0,2.044,0.9151,2.044,2.044v2.352
		C90.692,109.7419,89.7769,110.657,88.648,110.657z"/>
	<ellipse id="Ellipse_3300" class="st1" cx="41.926" cy="113.404" rx="8.813" ry="8.713"/>
	<ellipse id="Ellipse_3301" class="st3" cx="166.712" cy="2.903" rx="2.935" ry="2.901"/>
	<ellipse id="Ellipse_3302" class="st3" cx="168.92" cy="19.97" rx="1.467" ry="1.451"/>
	<g id="Group_60509">
		<g id="Group_60507">
			<rect id="Rectangle_15029" x="0.002" y="8.083" class="st4" width="3.465" height="1.023"/>
		</g>
		<g id="Group_60508">
			<rect id="Rectangle_15030" x="1.223" y="6.881" class="st4" width="1.023" height="3.425"/>
		</g>
	</g>
	<ellipse id="Ellipse_3303" class="st3" cx="20.912" cy="14.889" rx="1.467" ry="1.451"/>
	<ellipse id="Ellipse_3304" class="st3" cx="2.994" cy="30.264" rx="1.467" ry="1.451"/>
	<ellipse id="Ellipse_3305" class="st3" cx="86.324" cy="176.392" rx="2.935" ry="2.901"/>
	<ellipse id="Ellipse_3306" class="st3" cx="56.885" cy="171.37" rx="1.467" ry="1.451"/>
	<ellipse id="Ellipse_3307" class="st3" cx="2.994" cy="145.084" rx="1.467" ry="1.451"/>
	<g id="Group_63401_00000098196352054473131970000017829118341558401982_">
		<g id="Line_3298_00000090265541011891519920000011875306013861307325_">
			<rect id="Rectangle_15031" x="173.709" y="140.403" class="st5" width="5.036" height="1.021"/>
		</g>
		<g id="Line_3299_00000116931492094954068100000013445844053618300350_">
			<rect id="Rectangle_15032" x="175.717" y="138.424" class="st5" width="1.021" height="4.977"/>
		</g>
	</g>
	<ellipse id="Ellipse_3308" class="st2" cx="133.504" cy="124.17" rx="28.809" ry="28.48"/>
	<path id="Path_54250" class="st6" d="M153.402,144.778l1.323-1.308l6.946,6.867l-1.323,1.308L153.402,144.778z"/>
	<path id="Path_54251" class="st5" d="M188.432,170.802l-24.99-24.71l-1.94,1.92l-3.6-3.56c4.8275-5.6543,7.4797-12.8452,7.48-20.28
		c0.1192-17.5435-14.0059-31.8619-31.5494-31.9812s-31.8619,14.0059-31.9812,31.5494s14.0059,31.8619,31.5494,31.9812
		c7.7217,0.0525,15.1981-2.7095,21.0312-7.7694l3.56,3.52l-2.29,2.27l24.99,24.71c2.1678,2.0903,5.6104,2.0592,7.74-0.07
		C190.5218,176.2874,190.5218,172.8966,188.432,170.802z M107.762,124.172c-0.1861-14.2185,11.1893-25.8957,25.4078-26.0818
		c14.2185-0.1861,25.8957,11.1893,26.0818,25.4078s-11.1893,25.8957-25.4078,26.0818c-0.1139,0.0015-0.2278,0.0022-0.3418,0.0022
		C119.3866,149.6502,107.8759,138.2871,107.762,124.172z"/>
	<g id="Group_63406_00000026886332944078198080000008543381489966224059_">
		<g id="Group_60511">
			<g id="Group_60510">
				<g>
					<g>
						<defs>
							<ellipse id="SVGID_1_" cx="133.1912" cy="123.13" rx="31.95" ry="31.748"/>
						</defs>
						<clipPath id="SVGID_00000175310507091007140820000004786332066574089112_">
							<use xlink:href="#SVGID_1_"  style="overflow:visible;"/>
						</clipPath>
						
							<g id="Group_63405_00000176009185565258870060000003676789908906286771_" transform="translate(-0.928 -1.088)" style="clip-path:url(#SVGID_00000175310507091007140820000004786332066574089112_);">
							
								<g id="Group_63404_00000101086351742982903720000007275614250984449673_" transform="translate(123.572 109.056)" class="st8">
								<path id="Path_55445_00000054254363985154049330000001134772200410506925_" class="st2" d="M17.0732-22.455l7.576,2.933
									l-30.772,78.5l-7.576-2.933L17.0732-22.455z"/>
								<path id="Path_55446_00000067947898132088791060000009168024737448918922_" class="st2" d="M27.9062-18.263l5.09,1.97
									L2.2242,62.203l-5.09-1.97L27.9062-18.263z"/>
								<path id="Path_55447_00000176006755292556391190000013694865899351888797_" class="st2" d="M35.7602-15.223l5.09,1.97
									l-30.772,78.496l-5.09-1.97L35.7602-15.223z"/>
							</g>
						</g>
					</g>
				</g>
			</g>
		</g>
	</g>
	<g id="Line_3301_00000171720172947474951650000001246619344690613658_">
		<path id="Path_54252" class="st5" d="M136.882,124.362l10.83,10.71l-2.88,2.9l-10.86-10.74l-10.86,10.74l-2.88-2.9l10.83-10.71
			l-10.83-10.71l2.88-2.9l10.86,10.74l10.86-10.74l2.88,2.9L136.882,124.362z"/>
	</g>
</g>
</svg>
