<?xml version="1.0" encoding="utf-8"?>
<!-- Generator: Adobe Illustrator 25.4.1, SVG Export Plug-In . SVG Version: 6.00 Build 0)  -->
<svg version="1.1" id="Layer_1" xmlns="http://www.w3.org/2000/svg" xmlns:xlink="http://www.w3.org/1999/xlink" x="0px" y="0px"
	 viewBox="0 0 18 18" style="enable-background:new 0 0 18 18;" xml:space="preserve">
<style type="text/css">
	.st0{fill:#606060;}
</style>
<g id="Layer_4">
	<g>
		<path class="st0" d="M1.9558,7l0.6874,0.89l0.1851-0.149c0.4102-0.3333,0.7064-0.5746,0.8885-0.724
			c-0.006,0.186-0.009,0.378-0.009,0.575v4.964h1.2006v-7.1H3.9609L1.9558,7z"/>
		<rect x="8.0502" y="2" class="st0" width="1" height="14"/>
		<path class="st0" d="M15.4333,6.334c-0.3884-0.6374-1.092-1.014-1.838-0.984c-0.7411-0.0411-1.4466,0.321-1.845,0.947
			C11.3087,7.1263,11.1094,8.0629,11.175,9c-0.0536,0.9302,0.1543,1.8568,0.6003,2.675c0.3868,0.6326,1.0858,1.0063,1.827,0.977
			c0.7468,0.0412,1.4575-0.325,1.857-0.957c0.436-0.8284,0.6347-1.7609,0.5743-2.695C16.0868,8.0727,15.8789,7.1491,15.4333,6.334z
			 M14.4828,10.995c-0.1533,0.3473-0.5064,0.5627-0.8855,0.54l-0.002-0.001c-0.3749,0.0211-0.7241-0.1913-0.8774-0.534
			c-0.2496-0.6357-0.3572-1.3183-0.3152-2c-0.0433-0.6817,0.0643-1.3646,0.3152-2c0.2567-0.486,0.8589-0.6719,1.3452-0.4153
			c0.1799,0.0949,0.3264,0.2427,0.4198,0.4233c0.248,0.6334,0.3549,1.3132,0.3132,1.992
			C14.837,9.6798,14.7301,10.3605,14.4828,10.995z"/>
	</g>
</g>
</svg>
