<?xml version="1.0" encoding="utf-8"?>
<!-- Generator: Adobe Illustrator 25.4.1, SVG Export Plug-In . SVG Version: 6.00 Build 0)  -->
<svg version="1.1" id="Layer_1" xmlns="http://www.w3.org/2000/svg" xmlns:xlink="http://www.w3.org/1999/xlink" x="0px" y="0px"
	 viewBox="0 0 18 18" style="enable-background:new 0 0 18 18;" xml:space="preserve">
<style type="text/css">
	.st0{fill:#606060;}
</style>
<g id="Layer_4">
	<path class="st0" d="M14.4859,3.3888h-1.2012V1.9943h-1.0996v1.3945H5.8228V1.9943H4.8287v1.3945H3.481
		c-0.8545,0-1.5498,0.6953-1.5498,1.5498v9.5044c0,0.8545,0.6953,1.5498,1.5498,1.5498h11.0049
		c0.8545,0,1.5498-0.6953,1.5498-1.5498V4.9386C16.0357,4.0841,15.3404,3.3888,14.4859,3.3888z M3.481,4.4884h11.0049
		c0.248,0,0.4502,0.2021,0.4502,0.4502v1.0669H3.0308V4.9386C3.0308,4.6906,3.233,4.4884,3.481,4.4884z M14.4859,14.8932H3.481
		c-0.248,0-0.4502-0.2021-0.4502-0.4502V7.1051h11.9053v7.3379C14.9361,14.6911,14.734,14.8932,14.4859,14.8932z"/>
</g>
</svg>
