<?xml version="1.0" encoding="utf-8"?>
<!-- Generator: Adobe Illustrator 25.4.1, SVG Export Plug-In . SVG Version: 6.00 Build 0)  -->
<svg version="1.1" id="Layer_1" xmlns="http://www.w3.org/2000/svg" xmlns:xlink="http://www.w3.org/1999/xlink" x="0px" y="0px"
	 viewBox="0 0 18 18" style="enable-background:new 0 0 18 18;" xml:space="preserve">
<style type="text/css">
	.st0{opacity:0.997;}
	.st1{fill:#606060;}
	.st2{fill:#FFFFFF;}
</style>
<g id="Layer_4">
	<g>
		<g id="Group_62548" transform="translate(0.5 -4.382)" class="st0">
			<g id="Path_55773">
				<path class="st1" d="M0.5,11.4038l0.6061,0.7848l0.1635-0.1324c0.3608-0.2933,0.6218-0.506,0.783-0.6381
					c-0.0053,0.1644-0.008,0.3333-0.008,0.5075v4.379H3.104v-6.2667H2.2678L0.5,11.4038z"/>
			</g>
			<g id="Path_55774">
				<path class="st1" d="M9.7494,14.3438c0.4612-0.42,0.866-0.898,1.2043-1.422c0.2175-0.3641,0.3347-0.7793,0.3395-1.2034
					c0.0201-0.4868-0.1749-0.9578-0.5333-1.2878c-0.4006-0.3347-0.9132-0.5053-1.4345-0.4773
					c-0.6968,0.0058-1.3685,0.2612-1.8931,0.7199l-0.1538,0.128l0.5981,0.7679l0.1626-0.128
					c0.2027-0.1685,0.4299-0.3051,0.6737-0.4053c0.1995-0.0719,0.4101-0.108,0.6221-0.1067
					c0.2359-0.0167,0.4688,0.0614,0.647,0.2169c0.1548,0.1582,0.2352,0.3746,0.2213,0.5955
					c0.0016,0.1864-0.0315,0.3715-0.0978,0.5457c-0.079,0.1947-0.1833,0.3782-0.3102,0.5457
					c-0.284,0.3504-0.5885,0.6837-0.9119,0.9981L7.284,15.4414v0.863h4.2581V15.277H8.7949L9.7494,14.3438z"/>
			</g>
			<g id="Path_55775">
				<path class="st1" d="M16.1014,13.3546c-0.1544-0.1575-0.3416-0.2788-0.5484-0.3555c0.4964-0.2744,0.793-0.8076,0.7643-1.374
					c0.0191-0.4732-0.1833-0.9283-0.5475-1.2309c-0.4194-0.3111-0.9345-0.4655-1.4558-0.4364
					c-0.3603-0.0005-0.7181,0.0596-1.0585,0.1778c-0.3212,0.1082-0.6218,0.2702-0.8888,0.479l-0.1573,0.1235l0.5715,0.7617
					l0.1573-0.1084c0.2252-0.1521,0.4697-0.2734,0.727-0.3608c0.4377-0.1634,0.9251-0.1264,1.3332,0.1013
					c0.1499,0.128,0.2311,0.3188,0.2195,0.5155c0.0136,0.2642-0.1058,0.5177-0.3182,0.6755
					c-0.2841,0.189-0.6219,0.2807-0.9625,0.2613h-0.7901v0.9803h0.7821c1.3172,0,1.4691,0.4906,1.4691,0.8603
					c0,0.4231-0.136,0.9848-1.3127,0.9848c-0.5318-0.0085-1.0555-0.1322-1.5349-0.3626l-0.2968-0.1475v1.0914l0.1155,0.056
					c0.2533,0.1247,0.5224,0.2144,0.7999,0.2666c0.2935,0.0511,0.5909,0.0758,0.8888,0.0738
					c0.6308,0.0369,1.256-0.1366,1.7775-0.4933c0.4434-0.3483,0.6903-0.89,0.6621-1.4531
					C16.5136,14.0406,16.3712,13.6504,16.1014,13.3546z"/>
			</g>
		</g>
		<g id="Ellipse_3660" transform="translate(4 5.719)">
			<g>
				<circle class="st2" cx="1.4438" cy="5.8239" r="0.8888"/>
			</g>
			<g>
				<path class="st1" d="M1.4443,6.7125c-0.4902,0-0.8887-0.3984-0.8887-0.8887S0.954,4.9351,1.4443,4.9351
					S2.333,5.3335,2.333,5.8238S1.9345,6.7125,1.4443,6.7125z M1.4443,5.3795l-0.001,0.4443c0.001,0,0.001,0,0.001-0.0005V5.3795z"
					/>
			</g>
		</g>
	</g>
</g>
</svg>
