<?xml version="1.0" encoding="utf-8"?>
<!-- Generator: Adobe Illustrator 25.4.1, SVG Export Plug-In . SVG Version: 6.00 Build 0)  -->
<svg version="1.1" id="Layer_1" xmlns="http://www.w3.org/2000/svg" xmlns:xlink="http://www.w3.org/1999/xlink" x="0px" y="0px"
	 viewBox="0 0 18 18" style="enable-background:new 0 0 18 18;" xml:space="preserve">
<style type="text/css">
	.st0{fill:#606060;}
	.st1{fill:none;stroke:#606060;stroke-miterlimit:10;}
</style>
<g>
	<polygon class="st0" points="2.8372,4.8774 1.5671,4.8774 1.5671,13.1655 5.0588,13.1655 5.0588,11.9506 2.8372,11.9506 	"/>
	<polygon class="st0" points="9.179,10.435 6.8679,4.8774 5.4939,4.8774 5.4939,13.1655 6.72,13.1655 6.72,7.6049 9.0452,13.1655 
		10.3831,13.1655 10.3831,4.8774 9.179,4.8774 	"/>
	<path class="st0" d="M14.0735,8.474v1.1602h1.1113v2.2676c-0.0835,0.0566-0.1816,0.1025-0.2925,0.1377
		c-0.3735,0.1172-0.9077,0.1152-1.2681-0.1328c-0.2158-0.1484-0.3921-0.3486-0.5391-0.6143
		c-0.1519-0.2734-0.2671-0.6055-0.3423-0.9883c-0.0776-0.3955-0.1167-0.8311-0.1167-1.2939c0-0.4424,0.0376-0.8652,0.1118-1.2568
		c0.0723-0.3809,0.1831-0.7197,0.3281-1.0049c0.1416-0.2744,0.3159-0.4922,0.519-0.6475c0.3423-0.2627,0.8579-0.3008,1.2793-0.0586
		c0.1904,0.1094,0.3555,0.2725,0.5039,0.499l0.1704,0.2588l0.8521-0.8701l-0.1084-0.168c-0.2368-0.3672-0.5371-0.6416-0.8921-0.8154
		c-0.731-0.3584-1.7061-0.3477-2.4087,0.0898c-0.3608,0.2236-0.6689,0.5371-0.916,0.9316C11.8254,6.352,11.6394,6.811,11.512,7.3344
		c-0.125,0.5156-0.1885,1.0791-0.1885,1.6758c0,0.6338,0.0654,1.2168,0.1948,1.7324c0.1309,0.5254,0.3237,0.9814,0.5737,1.3545
		c0.2559,0.3838,0.5771,0.6846,0.9551,0.8945c0.3804,0.21,0.813,0.3164,1.2871,0.3164c0.439,0,0.8291-0.0625,1.1602-0.1855h0.0005
		c0.3325-0.124,0.6201-0.2939,0.8545-0.5029l0.0835-0.0752V8.474H14.0735z"/>
</g>
</svg>
