<?xml version="1.0" encoding="utf-8"?>
<!-- Generator: Adobe Illustrator 25.4.1, SVG Export Plug-In . SVG Version: 6.00 Build 0)  -->
<svg version="1.1" id="Layer_1" xmlns="http://www.w3.org/2000/svg" xmlns:xlink="http://www.w3.org/1999/xlink" x="0px" y="0px"
	 viewBox="0 0 18 18" style="enable-background:new 0 0 18 18;" xml:space="preserve">
<style type="text/css">
	.st0{fill:#606060;}
</style>
<g id="Layer_4">
	<g>
		<g id="Path_33_00000149354217514044028050000000768639520804618123_">
			<path class="st0" d="M8.2787,5H7.0821C6.9194,5.0018,6.764,5.0672,6.6496,5.1822C5.893,5.8945,5.2481,6.7154,4.7363,7.6176
				c-0.4977,0.9892-0.7451,2.084-0.7208,3.1897C4.0154,10.8339,4,10.8564,4,10.8851c0.0123,0.0978,0.032,0.1946,0.0587,0.2896
				c0.0175,0.1341,0.0175,0.2794,0.0474,0.4093l0.033-0.0082c0.3187,0.9447,1.2648,1.5339,2.2593,1.4071
				c0.9074-0.1227,1.6361-0.8049,1.8134-1.6977c0.2195-1.1465-0.5378-2.2527-1.6915-2.4709
				C6.3894,8.7896,6.2566,8.7771,6.1234,8.7771H6.1007c0.0556-0.1402,0.0958-0.2763,0.1668-0.4216
				c0.6133-1.0064,1.3856-1.9082,2.2871-2.6708C8.715,5.5349,8.7228,5.2843,8.5721,5.1249C8.4961,5.0444,8.3897,4.9992,8.2787,5z"/>
		</g>
		<g id="Path_34_00000183950373014645781450000005294481346538415777_">
			<path class="st0" d="M13.5974,5h-1.1986c-0.1627,0.0018-0.3181,0.0672-0.4325,0.1821c-0.7566,0.7123-1.4015,1.5333-1.9133,2.4355
				c-0.496,0.989-0.7433,2.0828-0.7208,3.1876c0,0.0287-0.0154,0.0501-0.0154,0.0788c0.0122,0.0979,0.0318,0.1947,0.0587,0.2896
				c0.0175,0.134,0.0175,0.2794,0.0474,0.4093l0.033-0.0082c0.3201,0.9464,1.2691,1.5358,2.2655,1.4071
				c0.9066-0.1235,1.6343-0.8055,1.8114-1.6977c0.2195-1.1465-0.5378-2.2527-1.6915-2.4709
				c-0.1308-0.0247-0.2637-0.0372-0.3969-0.0372h-0.0227c0.0556-0.1402,0.0968-0.2763,0.1668-0.4216
				c0.6133-1.0064,1.3855-1.9082,2.2871-2.6708c0.1598-0.1504,0.1667-0.401,0.0154-0.5599C13.8146,5.0437,13.7083,4.9989,13.5974,5z
				"/>
		</g>
	</g>
</g>
</svg>
