<?xml version="1.0" encoding="utf-8"?>
<!-- Generator: Adobe Illustrator 25.4.1, SVG Export Plug-In . SVG Version: 6.00 Build 0)  -->
<svg version="1.1" id="Layer_1" xmlns="http://www.w3.org/2000/svg" xmlns:xlink="http://www.w3.org/1999/xlink" x="0px" y="0px"
	 viewBox="0 0 20 20" style="enable-background:new 0 0 20 20;" xml:space="preserve">
<g id="Layer_1_00000050657970101306984930000011872918709753694374_">
	<path d="M15.7499,2.2754h-11.5c-1.1025,0-2,0.8975-2,2v11.4492c0,1.1025,0.8975,2,2,2h11.5c1.1025,0,2-0.8975,2-2V4.2754
		C17.7499,3.1728,16.8524,2.2754,15.7499,2.2754z M9.4999,6.019v4.5826h-6.25V6.019H9.4999z M10.4999,6.019h6.25v4.5826h-6.25
		C10.4999,10.6016,10.4999,6.019,10.4999,6.019z M3.2499,15.7246v-4.123h6.25v5.123h-5.25
		C3.6981,16.7246,3.2499,16.2764,3.2499,15.7246z M15.7499,16.7246h-5.25v-5.123h6.25v4.123
		C16.7499,16.2764,16.3016,16.7246,15.7499,16.7246z"/>
</g>
</svg>
