<?xml version="1.0" encoding="utf-8"?>
<!-- Generator: Adobe Illustrator 25.4.1, SVG Export Plug-In . SVG Version: 6.00 Build 0)  -->
<svg version="1.1" id="Layer_1" xmlns="http://www.w3.org/2000/svg" xmlns:xlink="http://www.w3.org/1999/xlink" x="0px" y="0px"
	 viewBox="0 0 20 20" style="enable-background:new 0 0 20 20;" xml:space="preserve">
<g id="Layer_1_00000000214157389349920570000012005332135696027555_">
	<g>
		<path d="M12.001,9.095c-0.3793,0.0189-0.7397,0.1716-1.017,0.431c-0.3533,0.2981-0.6468,0.6605-0.865,1.068
			c-0.1567-0.4028-0.3896-0.7715-0.686-1.086C9.2118,9.2558,8.8962,9.1064,8.561,9.095c-0.2219-0.006-0.4384,0.0682-0.61,0.209
			c-0.1702,0.1486-0.2624,0.3674-0.25,0.593c-0.0078,0.1246,0.0229,0.2485,0.088,0.355c0.0366,0.0675,0.1037,0.113,0.18,0.122
			l0.2-0.012c0.3029-0.0024,0.593,0.1219,0.8,0.343c0.243,0.2586,0.4294,0.5651,0.547,0.9c-0.106,0.2888-0.2572,0.5588-0.448,0.8
			c-0.121,0.1667-0.3112,0.2694-0.517,0.2791c-0.1606,0.0106-0.3119-0.0761-0.384-0.22c-0.024-0.0828-0.0998-0.1398-0.186-0.14
			c-0.1031,0.0073-0.2011,0.048-0.2791,0.116c-0.1061,0.0836-0.193,0.189-0.2549,0.309c-0.0707,0.1296-0.1068,0.2753-0.105,0.423
			c-0.0121,0.2142,0.0785,0.4214,0.244,0.558c0.1826,0.1379,0.4074,0.2079,0.636,0.198c0.3444,0.0082,0.6753-0.1342,0.906-0.39
			c0.2972-0.3485,0.5399-0.7399,0.72-1.161c0.1131,0.4127,0.3046,0.7997,0.564,1.14c0.2288,0.2784,0.575,0.4332,0.935,0.418
			c0.2837,0.0262,0.5627-0.0854,0.75-0.3c0.152-0.1982,0.2321-0.4423,0.227-0.692c0.0059-0.0754-0.0062-0.1511-0.035-0.221
			c-0.025-0.0392-0.0696-0.0616-0.116-0.058l-0.233,0.012c-0.3426,0.0024-0.6716-0.1339-0.912-0.3781
			c-0.2654-0.2623-0.4724-0.5779-0.607-0.926c0.1421-0.2876,0.3195-0.5563,0.528-0.8c0.1265-0.1403,0.3062-0.2209,0.495-0.222
			c0.1505,0.0064,0.2993,0.034,0.442,0.082c0.051,0.0228,0.1061,0.0348,0.162,0.035c0.124,0,0.242-0.097,0.354-0.291
			c0.1062-0.1712,0.1646-0.3677,0.169-0.569c0.0051-0.136-0.0455-0.2681-0.14-0.366C12.3142,9.1348,12.1584,9.0819,12.001,9.095z"/>
		<path d="M15.7499,5.4609h-2.542V3.9394c0-0.8271-0.6729-1.5-1.5-1.5h-3.5c-0.8271,0-1.5,0.6729-1.5,1.5v1.5215h-2.458
			c-1.1025,0-2,0.8975-2,2v8.0996c0,1.1025,0.8975,2,2,2h11.5c1.1025,0,2-0.8975,2-2V7.4609
			C17.7499,6.3584,16.8524,5.4609,15.7499,5.4609z M7.7079,3.9394c0-0.2754,0.2246-0.5,0.5-0.5h3.5c0.2754,0,0.5,0.2246,0.5,0.5v1.5
			h-4.5V3.9394z M16.7499,15.5605c0,0.5518-0.4482,1-1,1h-11.5c-0.5518,0-1-0.4482-1-1V7.4609c0-0.5518,0.4482-1,1-1h11.5
			c0.5518,0,1,0.4482,1,1V15.5605z"/>
	</g>
</g>
</svg>
