<?xml version="1.0" encoding="utf-8"?>
<!-- Generator: Adobe Illustrator 25.4.1, SVG Export Plug-In . SVG Version: 6.00 Build 0)  -->
<svg version="1.1" id="Layer_1" xmlns="http://www.w3.org/2000/svg" xmlns:xlink="http://www.w3.org/1999/xlink" x="0px" y="0px"
	 viewBox="0 0 20 20" style="enable-background:new 0 0 20 20;" xml:space="preserve">
<g id="Layer_1_00000106846660001726742790000013647940074558355588_">
	<g>
		<path d="M10.9755,7.0244c0.5264,0,1.0273,0.1025,1.4111,0.2891l0.1328,0.0645l0.2959-1.0039l-0.0898-0.0479
			c-0.1514-0.0791-0.7246-0.3379-1.7822-0.3379c-2.3428,0-3.917,1.583-3.917,3.9385c0,2.3135,1.457,3.8086,3.7129,3.8086
			c0.9121,0,1.6172-0.1904,1.9727-0.3691l0.0908-0.0449l-0.2568-0.9893l-0.1377,0.0674c-0.3662,0.1787-0.9316,0.2891-1.4756,0.2891
			c-1.6689,0-2.665-1.0449-2.665-2.7939C8.2675,8.0976,9.2802,7.0244,10.9755,7.0244z"/>
		<path d="M15.7499,2.3203h-11.5c-1.1025,0-2,0.8975-2,2v11.3594c0,1.1025,0.8975,2,2,2h11.5c1.1025,0,2-0.8975,2-2V4.3203
			C17.7499,3.2178,16.8524,2.3203,15.7499,2.3203z M16.7499,15.6797c0,0.5518-0.4482,1-1,1h-11.5c-0.5518,0-1-0.4482-1-1V4.3203
			c0-0.5518,0.4482-1,1-1h11.5c0.5518,0,1,0.4482,1,1V15.6797z"/>
	</g>
</g>
</svg>
