<?xml version="1.0" encoding="utf-8"?>
<!-- Generator: Adobe Illustrator 25.4.1, SVG Export Plug-In . SVG Version: 6.00 Build 0)  -->
<svg version="1.1" id="Layer_1" xmlns="http://www.w3.org/2000/svg" xmlns:xlink="http://www.w3.org/1999/xlink" x="0px" y="0px"
	 viewBox="0 0 20 20" style="enable-background:new 0 0 20 20;" xml:space="preserve">
<g id="Layer_1_00000126293646498287519270000004994948770690205828_">
	<path d="M18.8026,11.9482h-2.3672V6.291c-0.0283-0.6963-0.6074-1.249-1.2861-1.249c-0.0117,0-0.0244,0.001-0.0361,0.001h-1.3105
		V3.3642c0-0.5518-0.4482-1-1-1H7.1972c-0.5518,0-1,0.4482-1,1V5.043H4.8886c-0.7002-0.0137-1.3067,0.539-1.336,1.2685v5.6367
		H1.1972c-0.5518,0-1,0.4482-1,1v3.6875c0,0.5518,0.4482,1,1,1h5.6055c0.5518,0,1-0.4482,1-1v-0.918h4.3945v0.918
		c0,0.5518,0.4482,1,1,1h5.6055c0.5518,0,1-0.4482,1-1v-3.6875C19.8026,12.3965,19.3544,11.9482,18.8026,11.9482z M12.8026,3.3642
		v3.6875h-2.3018V3.3642H12.8026z M7.1972,2.8642v0.5h2.3037v3.6875H7.1972V3.3642h-0.001L7.1972,2.8642z M1.1962,12.9482l0.001-0.5
		v0.5C1.1972,12.9482,1.1972,12.9482,1.1962,12.9482z M1.1981,12.9482h2.3027v3.6875H1.1972L1.1981,12.9482z M6.8026,16.6357H4.5009
		v-3.6875h2.3018v3.6875H6.8026z M7.8026,14.7178v-1.7695c0-0.5518-0.4482-1-1-1h-2.25V6.332
		c0.0059-0.164,0.1113-0.3232,0.3213-0.289h1.3232v1.0088c0,0.5518,0.4482,1,1,1h5.6055c0.5518,0,1-0.4482,1-1V6.043h1.3252
		c0.1572,0,0.3018,0.124,0.3076,0.2686v5.6367h-2.2383c-0.5518,0-1,0.4482-1,1v1.7695H7.8026z M13.1962,12.9482l0.001-0.5v0.5
		C13.1972,12.9482,13.1972,12.9482,13.1962,12.9482z M13.1981,12.9482h2.3027v3.6875h-2.3037L13.1981,12.9482z M18.8026,16.6357
		h-2.3018v-3.6875h2.3018V16.6357z"/>
</g>
</svg>
