<?xml version="1.0" encoding="utf-8"?>
<!-- Generator: Adobe Illustrator 25.4.1, SVG Export Plug-In . SVG Version: 6.00 Build 0)  -->
<svg version="1.1" id="Layer_1" xmlns="http://www.w3.org/2000/svg" xmlns:xlink="http://www.w3.org/1999/xlink" x="0px" y="0px"
	 viewBox="0 0 20 20" style="enable-background:new 0 0 20 20;" xml:space="preserve">
<g id="Layer_1_00000111155132217315741760000004739788848641876139_">
	<g>
		<path d="M19.3605,11.221V7.462h-3.719v1.3847h-3.748V5.699h1.4001V1.94h-3.719v3.759h1.3189v8.4534c0,0.8271,0.6729,1.5,1.5,1.5
			h3.248v1.5897h3.719v-3.759h-3.719v1.1694h-3.248c-0.2754,0-0.5-0.2246-0.5-0.5V9.8467h3.748v1.3743H19.3605z"/>
		<path d="M5.4345,11.0391h0.001c1.5596-0.0029,2.832-1.2754,2.835-2.8359c0-1.5635-1.2725-2.835-2.8359-2.835
			s-2.835,1.2715-2.835,2.835S3.871,11.0391,5.4345,11.0391z M3.8222,8.208c-0.002-0.8926,0.7217-1.6191,1.6133-1.6221v-0.001
			c0.8926,0,1.6191,0.7266,1.6211,1.6182c0,0.8896-0.7236,1.6143-1.6123,1.6172c-0.001,0-0.0029,0-0.0049,0
			c-0.4297,0-0.835-0.167-1.1396-0.4707C3.9931,9.0449,3.8231,8.6396,3.8222,8.208z"/>
		<path d="M6.8973,11.5644H4.3319c-1.7314,0-3.1396,1.4082-3.1396,3.1396v2.2148c0,0.2373,0.1924,0.4297,0.4297,0.4297h0.3594
			c0.2373,0,0.4297-0.1924,0.4297-0.4297v-2.21c0.0029-1.0605,0.8672-1.9248,1.9268-1.9277h2.5605
			c1.0605,0,1.9229,0.8623,1.9229,1.9229v2.2119c0,0.2373,0.1924,0.4297,0.4297,0.4297h0.3623
			c0.2334-0.002,0.4209-0.1875,0.4258-0.4268V14.706C10.035,12.9795,8.6259,11.5693,6.8973,11.5644z"/>
	</g>
</g>
</svg>
