<?xml version="1.0" encoding="utf-8"?>
<!-- Generator: Adobe Illustrator 25.4.1, SVG Export Plug-In . SVG Version: 6.00 Build 0)  -->
<svg version="1.1" id="Layer_1" xmlns="http://www.w3.org/2000/svg" xmlns:xlink="http://www.w3.org/1999/xlink" x="0px" y="0px"
	 viewBox="0 0 18 18" style="enable-background:new 0 0 18 18;" xml:space="preserve">
<style type="text/css">
	.st0{fill:#606060;}
</style>
<path class="st0" d="M14.1553,2H3.8447C2.8276,2,1.9999,2.8311,1.9999,3.8536v10.2927C1.9999,15.1689,2.8276,16,3.8447,16h10.3106
	c1.0176,0,1.8447-0.8311,1.8447-1.8536V3.8536C16,2.8311,15.1729,2,14.1553,2z M8.5,5.4205v4.0651H3V5.4205
	C3,5.4205,8.5,5.4205,8.5,5.4205z M9.5,5.4205H15v4.0651H9.5V5.4205z M3,14.1464v-3.65h5.5v4.4929H3.8447
	C3.3789,14.9893,3,14.6113,3,14.1464z M14.1553,14.9893H9.5v-4.4929H15v3.65C15,14.6113,14.6211,14.9893,14.1553,14.9893z"/>
</svg>
